<?xml version="1.0" encoding="utf-8"?>
<!-- Generator: Adobe Illustrator 19.2.0, SVG Export Plug-In . SVG Version: 6.00 Build 0)  -->
<svg version="1.1" id="Layer_1" xmlns="http://www.w3.org/2000/svg" xmlns:xlink="http://www.w3.org/1999/xlink" x="0px" y="0px"
	 viewBox="0 0 500 500" style="enable-background:new 0 0 500 500;" xml:space="preserve">
<style type="text/css">
	.st0{fill:#ECF4F7;}
	.st1{fill:#1C1D21;}
	.st2{fill:#f7f7f7;}
	.st3{fill:#AAB1BA;}
	.st4{fill:none;stroke:#1C1D21;stroke-width:10;stroke-linecap:round;stroke-linejoin:round;stroke-miterlimit:10;}
	.st5{fill:#FDDF7F;}
	.st6{fill:#FFFFFF;}
</style>
<g>
	<g>
		<g>
			<path class="st0" d="M422.8,447.4V250.2c0-79.8-54.1-147-127.6-166.8c-7.2-2-9.7-11-4.4-16.3c10.4-10.4,16.8-24.8,16.8-40.6l0,0
				c0-14.1-13.3-24.3-26.9-20.7l0,0c-20.1,5.4-41.3,5.4-61.4,0l0,0c-13.6-3.6-26.9,6.6-26.9,20.7l0,0c0,15.9,6.4,30.2,16.8,40.6
				c5.3,5.3,2.8,14.4-4.4,16.3c-73.5,19.9-127.6,87-127.6,166.8v197.2H60.8c-13.1,0-23.8,10.7-23.8,23.8v0
				c0,13.1,10.7,23.8,23.8,23.8h378.4c13.1,0,23.8-10.7,23.8-23.8v0c0-13.1-10.7-23.8-23.8-23.8H422.8z"/>
		</g>
	</g>
	<g>
		<g>
			<path class="st5" d="M263,256.1h-26c-1.4,0-2.5-1.1-2.5-2.5v-30.4c0-1.4,1.1-2.5,2.5-2.5h47.7c10.6,0,19.2-8.6,19.2-19.2
				c0-10.6-8.6-19.2-19.2-19.2h-16.3v-32.9c0-8-6.5-14.5-14.5-14.5s-14.5,6.5-14.5,14.5v32.9H237c-22.5,0-40.9,18.3-40.9,40.9v30.4
				c0,22.5,18.3,40.9,40.9,40.9h26c1.4,0,2.5,1.1,2.5,2.5v30.4c0,1.4-1.1,2.5-2.5,2.5h-47.7c-10.6,0-19.2,8.6-19.2,19.2
				c0,10.6,8.6,19.2,19.2,19.2h24v32.9c0,8,6.5,14.5,14.5,14.5s14.5-6.5,14.5-14.5v-33.3c20-2.6,35.5-19.8,35.5-40.5V297
				C303.9,274.5,285.5,256.1,263,256.1z"/>
		</g>
	</g>
	<g>
		<g>
			<path class="st1" d="M439.2,500H60.8C44.9,500,32,487.1,32,471.2c0-15.9,12.9-28.8,28.8-28.8h11.4V250.2
				c0-80.2,54-150.8,131.3-171.7c2.4-0.6,3.2-2.6,3.4-3.4c0.2-0.8,0.5-2.8-1.2-4.6c-11.8-11.8-18.2-27.5-18.2-44.2
				c0-8.3,3.8-15.9,10.3-20.9s14.9-6.7,22.9-4.6c19.2,5.1,39.6,5.1,58.8,0c8-2.1,16.3-0.5,22.9,4.6c6.6,5,10.3,12.7,10.3,20.9
				c0,16.7-6.5,32.3-18.2,44.2c-1.7,1.7-1.4,3.8-1.2,4.6c0.2,0.8,1,2.7,3.4,3.4c77.3,20.9,131.3,91.5,131.3,171.7v192.2h11.4
				c15.9,0,28.8,12.9,28.8,28.8C468,487.1,455.1,500,439.2,500z M60.8,452.4c-10.4,0-18.8,8.4-18.8,18.8c0,10.4,8.4,18.8,18.8,18.8
				h378.4c10.4,0,18.8-8.4,18.8-18.8c0-10.4-8.4-18.8-18.8-18.8h-16.4c-2.8,0-5-2.2-5-5V250.2c0-75.7-51-142.3-123.9-162
				c-5.1-1.4-9-5.3-10.4-10.5c-1.4-5.1,0-10.5,3.8-14.2c9.9-9.9,15.3-23.1,15.3-37.1c0-5.1-2.3-9.9-6.4-13
				c-4.1-3.1-9.3-4.2-14.2-2.8c-20.9,5.6-43,5.6-64,0c-5-1.3-10.1-0.3-14.2,2.8c-4.1,3.1-6.4,7.9-6.4,13c0,14,5.4,27.2,15.3,37.1
				c3.8,3.8,5.2,9.1,3.8,14.2c-1.4,5.2-5.3,9.1-10.4,10.5c-73,19.7-123.9,86.4-123.9,162v197.2c0,2.8-2.2,5-5,5H60.8z"/>
		</g>
	</g>
	<g>
		<g>
			<path class="st1" d="M236,79.5h-24c-2.8,0-5-2.2-5-5c0-2.8,2.2-5,5-5h24c2.8,0,5,2.2,5,5C241,77.2,238.8,79.5,236,79.5z"/>
		</g>
	</g>
	<g>
		<g>
			<path class="st1" d="M265,79.5h-5.5c-2.8,0-5-2.2-5-5c0-2.8,2.2-5,5-5h5.5c2.8,0,5,2.2,5,5C270,77.2,267.7,79.5,265,79.5z"/>
		</g>
	</g>
	<g>
		<g>
			<path class="st1" d="M253.9,420.6c-10.8,0-19.5-8.8-19.5-19.5v-27.9h-19c-13.3,0-24.2-10.8-24.2-24.2c0-13.3,10.8-24.2,24.2-24.2
				h45.2v-25.4H237c-25.3,0-45.9-20.6-45.9-45.9v-30.4c0-24.4,19.2-44.4,43.2-45.8v-28c0-10.8,8.8-19.5,19.5-19.5
				c10.8,0,19.5,8.8,19.5,19.5v27.9h11.3c13.3,0,24.2,10.8,24.2,24.2c0,13.3-10.8,24.2-24.2,24.2h-45.2v25.4H263
				c25.3,0,45.9,20.6,45.9,45.9v30.4c0,21.4-15,39.9-35.5,44.7v29.1C273.4,411.9,264.6,420.6,253.9,420.6z M215.3,334.9
				c-7.8,0-14.2,6.4-14.2,14.2c0,7.8,6.4,14.2,14.2,14.2h24c2.8,0,5,2.2,5,5v32.9c0,5.2,4.3,9.5,9.5,9.5c5.2,0,9.5-4.3,9.5-9.5
				v-33.3c0-2.5,1.9-4.6,4.3-5c17.8-2.3,31.2-17.6,31.2-35.5V297c0-19.8-16.1-35.9-35.9-35.9h-26c-4.1,0-7.5-3.4-7.5-7.5v-30.4
				c0-4.1,3.4-7.5,7.5-7.5h47.7c7.8,0,14.2-6.4,14.2-14.2c0-7.8-6.4-14.2-14.2-14.2h-16.3c-2.8,0-5-2.2-5-5v-32.9
				c0-5.2-4.3-9.5-9.5-9.5c-5.2,0-9.5,4.3-9.5,9.5v32.9c0,2.8-2.2,5-5,5H237c-19.8,0-35.9,16.1-35.9,35.9v30.4
				c0,19.8,16.1,35.9,35.9,35.9h26c4.1,0,7.5,3.4,7.5,7.5v30.4c0,4.1-3.4,7.5-7.5,7.5H215.3z"/>
		</g>
	</g>
	<g>
		<g>
			<g>
				<path class="st1" d="M123.3,452.4H77c-2.8,0-5-2.2-5-5c0-2.8,2.2-5,5-5h46.4c2.8,0,5,2.2,5,5
					C128.3,450.2,126.1,452.4,123.3,452.4z"/>
			</g>
		</g>
		<g>
			<g>
				<path class="st1" d="M167.9,452.4h-14.7c-2.8,0-5-2.2-5-5c0-2.8,2.2-5,5-5h14.7c2.8,0,5,2.2,5,5
					C172.9,450.2,170.7,452.4,167.9,452.4z"/>
			</g>
		</g>
		<g>
			<g>
				<path class="st1" d="M423,452.4h-46.4c-2.8,0-5-2.2-5-5c0-2.8,2.2-5,5-5H423c2.8,0,5,2.2,5,5C428,450.2,425.8,452.4,423,452.4z"
					/>
			</g>
		</g>
		<g>
			<g>
				<path class="st1" d="M346.7,452.4h-14.7c-2.8,0-5-2.2-5-5c0-2.8,2.2-5,5-5h14.7c2.8,0,5,2.2,5,5
					C351.7,450.2,349.5,452.4,346.7,452.4z"/>
			</g>
		</g>
	</g>
</g>
</svg>
