<svg xmlns="http://www.w3.org/2000/svg" viewBox="0 0 48 48"><defs><style>.cls-1{fill:#263238;}.cls-2{fill:#424242;}</style></defs><title>API Mobile</title><g id="API_Mobile" data-name="API Mobile"><path class="cls-1" d="M22,20H20a1,1,0,0,0-1,1v8a1,1,0,0,0,2,0V26h1a3,3,0,0,0,0-6Zm0,4H21V22h1a1,1,0,0,1,0,2Z"/><path class="cls-1" d="M14.89,20.55a1,1,0,0,0-1.78,0l-2,4A1,1,0,0,0,11,25v4a1,1,0,0,0,2,0V27h2v2a1,1,0,0,0,2,0V25a1,1,0,0,0-.11-.45ZM14,23.24,14.88,25H13.12Z"/><path class="cls-1" d="M30,28V22a1,1,0,0,0,0-2H28a1,1,0,0,0,0,2v6a1,1,0,0,0,0,2h2a1,1,0,0,0,0-2Z"/><path class="cls-1" d="M36,8H6a3,3,0,0,0-3,3v5H39V11A3,3,0,0,0,36,8ZM8,13a1,1,0,1,1,1-1A1,1,0,0,1,8,13Zm4,0a1,1,0,1,1,1-1A1,1,0,0,1,12,13Zm4,0a1,1,0,1,1,1-1A1,1,0,0,1,16,13Zm18,0H26a1,1,0,0,1,0-2h8a1,1,0,0,1,0,2Z"/><path class="cls-1" d="M25,0H37a0,0,0,0,1,0,0V2a2,2,0,0,1-2,2H27a2,2,0,0,1-2-2V0A0,0,0,0,1,25,0Z"/><path class="cls-2" d="M42,0H39V2h3a1,1,0,0,1,1,1V38H19V36H36a3,3,0,0,0,3-3V18H37V33a1,1,0,0,1-1,1H6a1,1,0,0,1-1-1V18H3V33a3,3,0,0,0,3,3H17v9a3,3,0,0,0,3,3H42a3,3,0,0,0,3-3V3A3,3,0,0,0,42,0Zm1,45a1,1,0,0,1-1,1H20a1,1,0,0,1-1-1V40H43Z"/><path class="cls-2" d="M19,3a1,1,0,0,1,1-1h3V0H20a3,3,0,0,0-3,3V6h2Z"/><path class="cls-1" d="M33,44H29a1,1,0,0,1,0-2h4a1,1,0,0,1,0,2Z"/></g></svg>