<svg xmlns="http://www.w3.org/2000/svg" viewBox="0 0 48 48"><defs><style>.cls-1{fill:#263238;}.cls-2{fill:#424242;}</style></defs><title>Computer Database</title><g id="Computer_Database" data-name="Computer Database"><ellipse class="cls-1" cx="24" cy="3" rx="15" ry="3"/><path class="cls-1" d="M39,5.75v5.1c-.87.9-7,2.15-15,2.15-8.6,0-14.21-1.37-15-2.15V5.75C12.39,7.65,19.35,8,24,8S35.61,7.65,39,5.75Z"/><path class="cls-1" d="M24,15c.54,0,10.63,0,15-1.92v4.77c-.87.9-7,2.15-15,2.15-8.6,0-14.21-1.37-15-2.15V13.08C13.37,15,23.46,15,24,15Z"/><path class="cls-1" d="M24,22c.54,0,10.63,0,15-1.92V24c0,1.66-6.72,3-15,3S9,25.66,9,24V20.08C13.37,22,23.46,22,24,22Z"/><path class="cls-2" d="M45,5H41V7h4a1,1,0,0,1,1,1V31H2V8A1,1,0,0,1,3,7H7V5H3A3,3,0,0,0,0,8V38a3,3,0,0,0,3,3H17.85l-.72,5H15a1,1,0,0,0,0,2H33a1,1,0,0,0,0-2H30.87l-.72-5H45a3,3,0,0,0,3-3V8A3,3,0,0,0,45,5ZM19.15,46l.72-5h8.26l.72,5ZM46,38a1,1,0,0,1-1,1H3a1,1,0,0,1-1-1V33H46Z"/><path class="cls-1" d="M23.62,36.92a.94.94,0,0,0,.76,0,1.15,1.15,0,0,0,.33-.21l.12-.15a.76.76,0,0,0,.09-.18A.64.64,0,0,0,25,36.2a1.5,1.5,0,0,0,0-.2,1.05,1.05,0,0,0-.29-.71,1.15,1.15,0,0,0-.33-.21,1,1,0,0,0-.76,0,1.15,1.15,0,0,0-.33.21,1,1,0,0,0,0,1.42A1.15,1.15,0,0,0,23.62,36.92Z"/></g></svg>