<svg xmlns="http://www.w3.org/2000/svg" viewBox="0 0 48 48"><defs><style>.cls-1{fill:#263238;}.cls-2{fill:#424242;}</style></defs><title>Computer Folder</title><g id="Computer_Folder" data-name="Computer Folder"><path class="cls-1" d="M37,5V7H11V2a2,2,0,0,1,2-2l8,0,3,3L35,3A2,2,0,0,1,37,5Z"/><path class="cls-1" d="M11,9H37v9a2,2,0,0,1-2,2H13a2,2,0,0,1-2-2Z"/><path class="cls-2" d="M45,5H39V7h6a1,1,0,0,1,1,1V31H2V8A1,1,0,0,1,3,7H9V5H3A3,3,0,0,0,0,8V38a3,3,0,0,0,3,3H17.85l-.72,5H15a1,1,0,0,0,0,2H33a1,1,0,0,0,0-2H30.87l-.72-5H45a3,3,0,0,0,3-3V8A3,3,0,0,0,45,5ZM19.15,46l.72-5h8.26l.72,5ZM46,38a1,1,0,0,1-1,1H3a1,1,0,0,1-1-1V33H46Z"/><path class="cls-1" d="M23.62,36.92a.94.94,0,0,0,.76,0,1.15,1.15,0,0,0,.33-.21l.12-.15a.76.76,0,0,0,.09-.18A.64.64,0,0,0,25,36.2a1.5,1.5,0,0,0,0-.2,1.05,1.05,0,0,0-.29-.71,1.15,1.15,0,0,0-.33-.21,1,1,0,0,0-.76,0,1.15,1.15,0,0,0-.33.21,1,1,0,0,0,0,1.42A1.15,1.15,0,0,0,23.62,36.92Z"/><path class="cls-2" d="M11,27H22.28a2,2,0,0,0,3.44,0H37a1,1,0,0,0,0-2H25.72a1.91,1.91,0,0,0-.72-.72V22H23v2.28a1.91,1.91,0,0,0-.72.72H11a1,1,0,0,0,0,2Z"/></g></svg>