<svg xmlns="http://www.w3.org/2000/svg" viewBox="0 0 48 48"><defs><style>.cls-1{fill:#263238;}.cls-2{fill:#424242;}</style></defs><title>Data Connection</title><g id="Data_Connection" data-name="Data Connection"><rect class="cls-1" y="34" width="4" height="4" rx="1"/><rect class="cls-1" x="44" y="34" width="4" height="4" rx="1"/><rect class="cls-1" x="6" y="40" width="4" height="4" rx="1"/><rect class="cls-1" x="38" y="40" width="4" height="4" rx="1"/><ellipse class="cls-1" cx="24" cy="8" rx="16" ry="4"/><path class="cls-2" d="M37,35V28.53c1.77-.58,3-1.4,3-2.53V11.11a10.06,10.06,0,0,1-2,1v1.8c-.64.74-5.37,2.11-14,2.11s-13.36-1.37-14-2.11v-1.8a10.06,10.06,0,0,1-2-1V26c0,1.13,1.23,1.95,3,2.53V35H6v2h6a1,1,0,0,0,1-1V29.05a47.11,47.11,0,0,0,6,.77V41H12v2h8a1,1,0,0,0,1-1V29.93c1.48.06,2.61.07,3,.07s1.52,0,3-.07V42a1,1,0,0,0,1,1h8V41H29V29.82a47.11,47.11,0,0,0,6-.77v7a1,1,0,0,0,1,1h6V35ZM10,16.15C14,17.93,22.74,18,24,18s10-.07,14-1.85v3.74c-.64.74-5.37,2.11-14,2.11s-13.36-1.37-14-2.11ZM24,28c-8.63,0-13.36-1.37-14-2.11V22.15C14,23.93,22.74,24,24,24s10-.07,14-1.85v3.74C37.36,26.63,32.63,28,24,28Z"/></g></svg>