<svg xmlns="http://www.w3.org/2000/svg" viewBox="0 0 48 48"><defs><style>.cls-1{fill:#263238;}.cls-2{fill:#424242;}</style></defs><title>Data Folders</title><g id="Data_Folders" data-name="Data Folders"><ellipse class="cls-1" cx="24" cy="4" rx="16" ry="4"/><path class="cls-2" d="M38,8.09v1.8c-.64.74-5.36,2.11-14,2.11S10.64,10.63,10,9.89V8.09a10.06,10.06,0,0,1-2-1V16c0,3.89,14.36,4,16,4s16-.11,16-4V7.11A10.06,10.06,0,0,1,38,8.09Zm0,7.8c-.64.74-5.37,2.11-14,2.11s-13.36-1.37-14-2.11V12.15C14,13.93,22.74,14,24,14s10-.07,14-1.85Z"/><path class="cls-1" d="M14,39.06V41H0V37a1,1,0,0,1,1-1l3,0,3,2L13,38A1,1,0,0,1,14,39.06Z"/><path class="cls-1" d="M0,43H14v4a1,1,0,0,1-1,1H1a1,1,0,0,1-1-1Z"/><path class="cls-1" d="M31,39.06V41H17V37a1,1,0,0,1,1-1l3,0,3,2L30,38A1,1,0,0,1,31,39.06Z"/><path class="cls-1" d="M17,43H31v4a1,1,0,0,1-1,1H18a1,1,0,0,1-1-1Z"/><path class="cls-1" d="M48,39.06V41H34V37a1,1,0,0,1,1-1l3,0,3,2L47,38A1,1,0,0,1,48,39.06Z"/><path class="cls-1" d="M34,43H48v4a1,1,0,0,1-1,1H35a1,1,0,0,1-1-1Z"/><path class="cls-2" d="M41,27H25V23a1,1,0,0,0-2,0v4H7a1,1,0,0,0-1,1v5a1,1,0,0,0,2,0V29H23v4a1,1,0,0,0,2,0V29H40v4a1,1,0,0,0,2,0V28A1,1,0,0,0,41,27Z"/></g></svg>