<svg xmlns="http://www.w3.org/2000/svg" viewBox="0 0 48 48"><defs><style>.cls-1{fill:#424242;}.cls-2{fill:#263238;}</style></defs><title>Data mobile network</title><g id="Data_mobile_network" data-name="Data mobile network"><path class="cls-1" d="M38,8.09v1.8c-.63.74-5.36,2.11-14,2.11S10.64,10.63,10,9.89V8.09a10.06,10.06,0,0,1-2-1V16c0,3.45,11.32,3.93,15,4h0v4.28a1.91,1.91,0,0,0-.72.72H11a1,1,0,0,0-1,1v4h2V27H22.28a2,2,0,0,0,3.44,0H36v3h2V26a1,1,0,0,0-1-1H25.72a1.91,1.91,0,0,0-.72-.72V20h0c3.68-.06,15-.54,15-4V7.11A10.06,10.06,0,0,1,38,8.09Zm0,7.8c-.64.74-5.37,2.11-14,2.11s-13.36-1.37-14-2.11V12.15C14,13.93,22.74,14,24,14s10-.07,14-1.85Z"/><ellipse class="cls-2" cx="24" cy="4" rx="16" ry="4"/><path class="cls-2" d="M17,45V34a2,2,0,0,0-2-2H7a2,2,0,0,0-2,2V46H5a2,2,0,0,0,2,2h8a2,2,0,0,0,2-2V45ZM7,45V34H9a1,1,0,0,0,1,1h2a1,1,0,0,0,1-1h2V45Z"/><path class="cls-2" d="M43,45V34a2,2,0,0,0-2-2H33a2,2,0,0,0-2,2V46h0a2,2,0,0,0,2,2h8a2,2,0,0,0,2-2V45ZM33,45V34h2a1,1,0,0,0,1,1h2a1,1,0,0,0,1-1h2V45Z"/></g></svg>