<svg xmlns="http://www.w3.org/2000/svg" viewBox="0 0 48 48"><defs><style>.cls-1{fill:#263238;}.cls-2{fill:#424242;}</style></defs><title>Database</title><g id="Database"><ellipse class="cls-1" cx="24" cy="9" rx="24" ry="6"/><path class="cls-2" d="M46,13.62V19c0,1.36-7.77,4-22,4S2,20.36,2,19V13.62a10.9,10.9,0,0,1-2-1.19V39c0,4.75,15.7,6,24,6s24-1.25,24-6V12.43A10.9,10.9,0,0,1,46,13.62ZM46,39c0,1.36-7.77,4-22,4S2,40.36,2,39V31.63C6.49,34.23,17.51,35,24,35s17.51-.77,22-3.37Zm0-10c0,1.36-7.77,4-22,4S2,30.36,2,29V21.63C6.49,24.23,17.51,25,24,25s17.51-.77,22-3.37Z"/></g></svg>