<svg xmlns="http://www.w3.org/2000/svg" viewBox="0 0 48 48"><defs><style>.cls-1{fill:#263238;}.cls-2{fill:#424242;}</style></defs><title>Database warning</title><g id="Database_warning" data-name="Database warning"><ellipse class="cls-1" cx="24" cy="6" rx="24" ry="6"/><path class="cls-2" d="M48,9.43V36c0,2.91-6,4.4-11,5.13A12.69,12.69,0,0,0,37.67,39c6.27-1,8.33-2.5,8.33-3V28.61c-2.14,1.25-5.66,2-8.88,2.51a13,13,0,0,0-.87-1.9C43.62,28.2,46,26.55,46,26V18.63C41.51,21.23,30.49,22,24,22S6.49,21.23,2,18.63V26c0,.55,2.38,2.2,9.75,3.22a13,13,0,0,0-.87,1.9C7.66,30.64,4.14,29.86,2,28.61V36c0,.27,1,1.48,6,2.56.75.17,1.54.31,2.37.45A14.65,14.65,0,0,0,11,41.14c-1.22-.18-2.38-.39-3.45-.62C2.46,39.41,0,37.93,0,36V9.43a10.9,10.9,0,0,0,2,1.19V16c0,1.36,7.77,4,22,4s22-2.64,22-4V10.62A10.9,10.9,0,0,0,48,9.43Z"/><path class="cls-1" d="M24,24A12,12,0,1,0,36,36,12,12,0,0,0,24,24Zm0,20a2,2,0,1,1,2-2A2,2,0,0,1,24,44Zm1-6H23L22,28h4Z"/></g></svg>