<?xml version="1.0" encoding="utf-8"?>
<!-- Generator: Adobe Illustrator 16.0.0, SVG Export Plug-In . SVG Version: 6.00 Build 0)  -->
<!DOCTYPE svg PUBLIC "-//W3C//DTD SVG 1.0//EN" "http://www.w3.org/TR/2001/REC-SVG-20010904/DTD/svg10.dtd">
<svg version="1.0" id="Layer_1" xmlns="http://www.w3.org/2000/svg" xmlns:xlink="http://www.w3.org/1999/xlink" x="0px" y="0px"
	 width="100px" height="100px" viewBox="0 0 100 100" enable-background="new 0 0 100 100" xml:space="preserve">
<path fill="#E9EAEF" stroke="#335C5F" stroke-width="1.5" stroke-linecap="round" stroke-linejoin="round" stroke-miterlimit="10" d="
	M74.706,19.413L74.706,19.413c0-3.9-3.162-7.059-7.06-7.059H34.707c-3.901,0-7.059,3.161-7.059,7.059l0,0v63.528
	c0,3.9,3.162,7.059,7.059,7.059h32.939c3.897,0,7.06-3.158,7.06-7.059V19.413z"/>
<path fill="#CACCD1" d="M67.646,12.354h-3.531c3.898,0,7.06,3.158,7.06,7.059v63.528c0,3.9-3.161,7.059-7.06,7.059h3.531
	c3.897,0,7.06-3.158,7.06-7.059V19.413C74.706,15.513,71.544,12.354,67.646,12.354z"/>
<path fill="none" stroke="#335C5F" stroke-width="1.5" stroke-linecap="round" stroke-linejoin="round" stroke-miterlimit="10" d="
	M54.71,17.059h-7.062H54.71z"/>
<path fill="none" stroke="#335C5F" stroke-width="1.5" stroke-linecap="round" stroke-linejoin="round" stroke-miterlimit="10" d="
	M60.591,17.059h-2.354H60.591z"/>
<path fill="none" stroke="#335C5F" stroke-width="1.5" stroke-linecap="round" stroke-linejoin="round" stroke-miterlimit="10" d="
	M54.119,84.117c0,1.621-1.315,2.945-2.94,2.945c-1.625,0-2.94-1.324-2.94-2.945c0-1.623,1.316-2.942,2.94-2.942
	C52.804,81.175,54.119,82.494,54.119,84.117z"/>
<rect x="60.588" y="10" fill="#70929F" stroke="#335C5F" stroke-width="1.5" stroke-linecap="round" stroke-linejoin="round" stroke-miterlimit="10" width="7.059" height="2.354"/>
<rect x="25.294" y="24.121" fill="#70929F" stroke="#335C5F" stroke-width="1.5" stroke-linecap="round" stroke-linejoin="round" stroke-miterlimit="10" width="2.354" height="7.059"/>
<rect x="25.294" y="34.708" fill="#70929F" stroke="#335C5F" stroke-width="1.5" stroke-linecap="round" stroke-linejoin="round" stroke-miterlimit="10" width="2.354" height="7.059"/>
<rect x="31.179" y="21.767" fill="#46C6F1" stroke="#335C5F" stroke-width="1.5" stroke-linecap="round" stroke-linejoin="round" stroke-miterlimit="10" width="39.996" height="56.472"/>
<rect x="67.646" y="21.767" fill="#3EAED3" width="3.529" height="56.472"/>
<path fill="none" stroke="#335C5F" stroke-width="1.5" stroke-linecap="round" stroke-linejoin="round" stroke-miterlimit="10" d="
	M62.157,53.934v12.535V53.934z"/>
<path fill="none" stroke="#335C5F" stroke-width="1.5" stroke-linecap="round" stroke-linejoin="round" stroke-miterlimit="10" d="
	M64.903,60.796v5.673V60.796z"/>
<path fill="none" stroke="#335C5F" stroke-width="1.5" stroke-linecap="round" stroke-linejoin="round" stroke-miterlimit="10" d="
	M64.903,52.167v-2.166c0-3.791-1.537-7.224-4.021-9.704c-1.74-1.745-3.955-3.005-6.43-3.612c2.475,0.607,4.689,1.868,6.43,3.612
	c2.483,2.48,4.021,5.914,4.021,9.704V52.167z"/>
<path fill="none" stroke="#335C5F" stroke-width="1.5" stroke-linecap="round" stroke-linejoin="round" stroke-miterlimit="10" d="
	M48.432,50.001c0-1.518,1.229-2.747,2.747-2.747l0,0c1.517,0,2.746,1.229,2.746,2.743l-0.003,0.004c0,1.513-1.227,2.747-2.743,2.747
	c1.517,0,2.743-1.233,2.743-2.747l0.003-0.004c0-1.514-1.229-2.743-2.746-2.743l0,0C49.661,47.255,48.432,48.484,48.432,50.001z"/>
<path fill="none" stroke="#335C5F" stroke-width="1.5" stroke-linecap="round" stroke-linejoin="round" stroke-miterlimit="10" d="
	M67.646,66.469V55.305c0-0.755-0.612-1.371-1.368-1.371c-0.758,0-1.375,0.616-1.375,1.371v2.933v-2.933
	c0-0.755,0.617-1.371,1.375-1.371c0.756,0,1.368,0.616,1.368,1.371V66.469z"/>
<path fill="none" stroke="#335C5F" stroke-width="1.5" stroke-linecap="round" stroke-linejoin="round" stroke-miterlimit="10" d="
	M37.823,66.469c-1.206-1.479-2.253-3.096-3.116-4.823C35.57,63.373,36.617,64.99,37.823,66.469z"/>
<path fill="none" stroke="#335C5F" stroke-width="1.5" stroke-linecap="round" stroke-linejoin="round" stroke-miterlimit="10" d="
	M37.924,61.816c0.998,1.702,2.211,3.267,3.599,4.652C40.135,65.083,38.922,63.519,37.924,61.816z"/>
<path fill="none" stroke="#335C5F" stroke-width="1.5" stroke-linecap="round" stroke-linejoin="round" stroke-miterlimit="10" d="
	M40.395,60.564c1.377,2.3,3.194,4.303,5.324,5.904C43.588,64.867,41.772,62.864,40.395,60.564z"/>
<path fill="none" stroke="#335C5F" stroke-width="1.5" stroke-linecap="round" stroke-linejoin="round" stroke-miterlimit="10" d="
	M59.414,60.585v-3.341c-0.155,0.175-0.305,0.354-0.473,0.519c-1.009,1.013-2.222,1.82-3.563,2.375
	c1.342-0.555,2.555-1.362,3.563-2.375c0.168-0.165,0.317-0.344,0.473-0.519V60.585z"/>
<path fill="none" stroke="#335C5F" stroke-width="1.5" stroke-linecap="round" stroke-linejoin="round" stroke-miterlimit="10" d="
	M54.227,45.44c-0.873-0.584-1.92-0.924-3.048-0.924v-0.004c-1.518,0-2.889,0.613-3.885,1.608c-0.993,0.993-1.608,2.364-1.608,3.881
	c0,1.513,0.616,2.886,1.608,3.88c0.752,0.752,1.728,1.287,2.812,1.502c-1.083-0.215-2.06-0.75-2.812-1.502
	c-0.993-0.994-1.608-2.367-1.608-3.88c0-1.518,0.616-2.889,1.608-3.881c0.996-0.995,2.367-1.608,3.885-1.608v0.004
	C52.307,44.516,53.354,44.856,54.227,45.44z"/>
<path fill="none" stroke="#335C5F" stroke-width="1.5" stroke-linecap="round" stroke-linejoin="round" stroke-miterlimit="10" d="
	M52.248,55.384c1.087-0.215,2.054-0.753,2.806-1.507l0.006,0.005c0.535-0.534,1.404-0.534,1.939,0c0.535,0.535,0.535,1.405,0,1.943
	h0.003c-1.492,1.487-3.551,2.408-5.823,2.408c-2.276,0.004-4.335-0.921-5.824-2.412c-1.132-1.128-1.932-2.584-2.253-4.215
	c0.321,1.631,1.121,3.087,2.253,4.215c1.489,1.491,3.547,2.416,5.824,2.412c2.272,0,4.331-0.921,5.823-2.408h-0.003
	c0.535-0.538,0.535-1.408,0-1.943c-0.535-0.534-1.404-0.534-1.939,0l-0.006-0.005C54.302,54.631,53.335,55.169,52.248,55.384z"/>
<path fill="none" stroke="#335C5F" stroke-width="1.5" stroke-linecap="round" stroke-linejoin="round" stroke-miterlimit="10" d="
	M59.414,50.001c0-2.277-0.921-4.334-2.412-5.823c-1.128-1.131-2.588-1.929-4.215-2.253c1.627,0.324,3.087,1.122,4.215,2.253
	C58.493,45.667,59.414,47.725,59.414,50.001z"/>
<path fill="none" stroke="#335C5F" stroke-width="1.5" stroke-linecap="round" stroke-linejoin="round" stroke-miterlimit="10" d="
	M43.102,48.393c0.321-1.628,1.121-3.086,2.253-4.214c1.128-1.131,2.588-1.929,4.216-2.253c-1.628,0.324-3.087,1.122-4.216,2.253
	C44.223,45.307,43.423,46.765,43.102,48.393z"/>
<path fill="none" stroke="#335C5F" stroke-width="1.5" stroke-linecap="round" stroke-linejoin="round" stroke-miterlimit="10" d="
	M52.281,60.925c1.722,0.908,3.677,1.43,5.758,1.43c0.76,0,1.375,0.616,1.375,1.375c0,0.756-0.615,1.371-1.375,1.371
	c-2.47,0-4.798-0.606-6.86-1.663c2.063,1.057,4.391,1.663,6.86,1.663c0.76,0,1.375-0.615,1.375-1.371
	c0-0.759-0.615-1.375-1.375-1.375C55.958,62.354,54.003,61.833,52.281,60.925z"/>
<path fill="none" stroke="#335C5F" stroke-width="1.5" stroke-linecap="round" stroke-linejoin="round" stroke-miterlimit="10" d="
	M45.745,58.733c0.489,0.691,1.021,1.346,1.618,1.941c0.45,0.452,0.94,0.863,1.443,1.252c-0.503-0.389-0.993-0.8-1.443-1.252
	C46.766,60.079,46.233,59.425,45.745,58.733z"/>
<path fill="none" stroke="#335C5F" stroke-width="1.5" stroke-linecap="round" stroke-linejoin="round" stroke-miterlimit="10" d="
	M43.413,42.237c-1.987,1.987-3.216,4.732-3.216,7.765c0,1.491,0.204,2.934,0.55,4.318c-0.346-1.384-0.55-2.827-0.55-4.318
	C40.197,46.969,41.426,44.224,43.413,42.237z"/>
<path fill="none" stroke="#335C5F" stroke-width="1.5" stroke-linecap="round" stroke-linejoin="round" stroke-miterlimit="10" d="
	M51.172,66.469c-2.163-0.9-4.115-2.217-5.749-3.854c-1.722-1.721-3.08-3.8-3.984-6.105c0.904,2.306,2.263,4.385,3.984,6.105
	C47.057,64.252,49.009,65.568,51.172,66.469z"/>
<path fill="none" stroke="#335C5F" stroke-width="1.5" stroke-linecap="round" stroke-linejoin="round" stroke-miterlimit="10" d="
	M55.741,46.95c0.586,0.873,0.927,1.92,0.927,3.048c0,1.517,1.229,2.747,2.746,2.747c1.515,0,2.743-1.229,2.743-2.743
	c0-1.488-0.298-2.909-0.837-4.201c0.539,1.292,0.837,2.713,0.837,4.201c0,1.513-1.229,2.743-2.743,2.743
	c-1.517,0-2.746-1.229-2.746-2.747C56.668,48.87,56.327,47.822,55.741,46.95z"/>
<path fill="none" stroke="#335C5F" stroke-width="1.5" stroke-linecap="round" stroke-linejoin="round" stroke-miterlimit="10" d="
	M54.103,39.425c1.855,0.512,3.519,1.488,4.842,2.812c0.506,0.509,0.963,1.066,1.365,1.663c-0.402-0.597-0.859-1.153-1.365-1.663
	C57.621,40.913,55.958,39.937,54.103,39.425z"/>
<path fill="none" stroke="#335C5F" stroke-width="1.5" stroke-linecap="round" stroke-linejoin="round" stroke-miterlimit="10" d="
	M37.45,50.001c0-3.791,1.537-7.221,4.024-9.704c2.48-2.483,5.914-4.02,9.705-4.02c0.755,0,1.372,0.616,1.372,1.371
	c0,0.758-0.617,1.375-1.372,1.375c-1.488-0.003-2.909,0.298-4.203,0.833c1.294-0.535,2.714-0.836,4.203-0.833
	c0.755,0,1.372-0.617,1.372-1.375c0-0.755-0.617-1.371-1.372-1.371c-3.791,0-7.225,1.537-9.705,4.02
	C38.987,42.781,37.45,46.211,37.45,50.001z"/>
<path fill="none" stroke="#335C5F" stroke-width="1.5" stroke-linecap="round" stroke-linejoin="round" stroke-miterlimit="10" d="
	M37.482,40.852c-1.75,2.617-2.775,5.761-2.775,9.15c0,3.164,0.636,6.177,1.78,8.927h-0.004c0.289,0.7,1.093,1.031,1.793,0.742
	c0.7-0.289,1.031-1.094,0.74-1.794l0.022-0.006c-0.681-1.632-1.144-3.373-1.384-5.182c0.24,1.809,0.703,3.55,1.384,5.182
	l-0.022,0.006c0.292,0.7-0.04,1.505-0.74,1.794c-0.701,0.289-1.505-0.042-1.793-0.742h0.004c-1.145-2.75-1.78-5.764-1.78-8.927
	C34.707,46.613,35.732,43.468,37.482,40.852z"/>
<path fill="none" stroke="#335C5F" stroke-width="1.5" stroke-linecap="round" stroke-linejoin="round" stroke-miterlimit="10" d="
	M64.871,40.852c-2.954-4.413-7.982-7.321-13.692-7.321c-4.549,0-8.667,1.841-11.647,4.825c2.981-2.983,7.098-4.825,11.647-4.825
	C56.889,33.531,61.917,36.439,64.871,40.852z"/>
<path fill="none" stroke="#335C5F" stroke-width="1.5" stroke-linecap="round" stroke-linejoin="round" stroke-miterlimit="10" d="
	M67.646,52.164v-2.163c0-2.234-0.447-4.36-1.251-6.302c0.804,1.942,1.251,4.068,1.251,6.302V52.164z"/>
<rect x="31.179" y="21.767" fill="none" stroke="#335C5F" stroke-width="1.5" stroke-linecap="round" stroke-linejoin="round" stroke-miterlimit="10" width="39.996" height="56.472"/>
<path fill="none" stroke="#335C5F" stroke-width="1.5" stroke-linecap="round" stroke-linejoin="round" stroke-miterlimit="10" d="
	M74.706,19.413L74.706,19.413c0-3.9-3.162-7.059-7.06-7.059H34.707c-3.901,0-7.059,3.161-7.059,7.059l0,0v63.528
	c0,3.9,3.162,7.059,7.059,7.059h32.939c3.897,0,7.06-3.158,7.06-7.059V19.413z"/>
</svg>
