<?xml version="1.0" encoding="utf-8"?>
<!-- Generator: Adobe Illustrator 16.0.0, SVG Export Plug-In . SVG Version: 6.00 Build 0)  -->
<!DOCTYPE svg PUBLIC "-//W3C//DTD SVG 1.0//EN" "http://www.w3.org/TR/2001/REC-SVG-20010904/DTD/svg10.dtd">
<svg version="1.0" id="Layer_1" xmlns="http://www.w3.org/2000/svg" xmlns:xlink="http://www.w3.org/1999/xlink" x="0px" y="0px"
	 width="100px" height="100px" viewBox="0 0 100 100" enable-background="new 0 0 100 100" xml:space="preserve">
<path fill="#FADF7E" stroke="#335C5F" stroke-width="1.5" stroke-linecap="round" stroke-linejoin="round" stroke-miterlimit="10" d="
	M90,78.235C90,84.706,84.706,90,78.235,90H21.764C15.294,90,10,84.706,10,78.235V21.764C10,15.294,15.294,10,21.764,10h56.471
	C84.706,10,90,15.294,90,21.764V78.235z"/>
<path fill="#D8C26F" d="M78.235,10h-4.706C80,10,85.294,15.294,85.294,21.764v56.471C85.294,84.706,80,90,73.529,90h4.706
	C84.706,90,90,84.706,90,78.235V21.764C90,15.294,84.706,10,78.235,10z"/>
<path fill="none" stroke="#335C5F" stroke-width="1.5" stroke-linecap="round" stroke-linejoin="round" stroke-miterlimit="10" d="
	M70.39,57.305v23.283V57.305z"/>
<path fill="none" stroke="#335C5F" stroke-width="1.5" stroke-linecap="round" stroke-linejoin="round" stroke-miterlimit="10" d="
	M75.487,70.05v10.538V70.05z"/>
<path fill="none" stroke="#335C5F" stroke-width="1.5" stroke-linecap="round" stroke-linejoin="round" stroke-miterlimit="10" d="
	M75.487,54.023v-4.022c0-7.039-2.852-13.41-7.46-18.022c-3.24-3.237-7.353-5.579-11.944-6.706c4.592,1.127,8.704,3.469,11.944,6.706
	c4.608,4.612,7.46,10.983,7.46,18.022V54.023z"/>
<path fill="none" stroke="#335C5F" stroke-width="1.5" stroke-linecap="round" stroke-linejoin="round" stroke-miterlimit="10" d="
	M44.904,50.001c0-2.819,2.282-5.1,5.094-5.1l0.004,0.003c2.815,0,5.099,2.278,5.099,5.093H55.1c0,2.819-2.283,5.1-5.098,5.1
	c2.815,0,5.098-2.281,5.098-5.1h0.001c0-2.815-2.284-5.093-5.099-5.093l-0.004-0.003C47.186,44.901,44.904,47.183,44.904,50.001z"/>
<path fill="none" stroke="#335C5F" stroke-width="1.5" stroke-linecap="round" stroke-linejoin="round" stroke-miterlimit="10" d="
	M80.588,80.588V59.856c0-1.41-1.142-2.552-2.55-2.552c-1.406,0-2.551,1.142-2.551,2.552v5.439v-5.439
	c0-1.41,1.145-2.552,2.551-2.552c1.408,0,2.55,1.142,2.55,2.552V80.588z"/>
<path fill="none" stroke="#335C5F" stroke-width="1.5" stroke-linecap="round" stroke-linejoin="round" stroke-miterlimit="10" d="
	M25.202,80.588c-2.244-2.752-4.186-5.754-5.789-8.963C21.016,74.834,22.958,77.836,25.202,80.588z"/>
<path fill="none" stroke="#335C5F" stroke-width="1.5" stroke-linecap="round" stroke-linejoin="round" stroke-miterlimit="10" d="
	M25.385,71.946c1.861,3.162,4.109,6.061,6.684,8.642C29.494,78.007,27.246,75.108,25.385,71.946z"/>
<path fill="none" stroke="#335C5F" stroke-width="1.5" stroke-linecap="round" stroke-linejoin="round" stroke-miterlimit="10" d="
	M29.976,69.623c2.56,4.267,5.929,7.987,9.885,10.965C35.905,77.61,32.536,73.89,29.976,69.623z"/>
<path fill="none" stroke="#335C5F" stroke-width="1.5" stroke-linecap="round" stroke-linejoin="round" stroke-miterlimit="10" d="
	M65.294,69.658v-6.202c-0.287,0.325-0.568,0.658-0.873,0.965c-1.879,1.877-4.129,3.373-6.621,4.406
	c2.492-1.033,4.742-2.529,6.621-4.406c0.305-0.307,0.586-0.64,0.873-0.965V69.658z"/>
<path fill="none" stroke="#335C5F" stroke-width="1.5" stroke-linecap="round" stroke-linejoin="round" stroke-miterlimit="10" d="
	M55.662,41.53c-1.622-1.084-3.564-1.716-5.661-1.716l-0.004-0.007c-2.812,0-5.362,1.142-7.208,2.984
	c-1.845,1.846-2.986,4.395-2.986,7.21c0,2.815,1.142,5.363,2.986,7.208c1.398,1.398,3.203,2.39,5.222,2.79
	c-2.019-0.4-3.824-1.392-5.222-2.79c-1.845-1.846-2.986-4.394-2.986-7.208c0-2.815,1.142-5.365,2.986-7.21
	c1.846-1.843,4.396-2.984,7.208-2.984l0.004,0.007C52.098,39.814,54.04,40.445,55.662,41.53z"/>
<path fill="none" stroke="#335C5F" stroke-width="1.5" stroke-linecap="round" stroke-linejoin="round" stroke-miterlimit="10" d="
	M51.991,60c2.015-0.4,3.809-1.4,5.205-2.8l0.01,0.01c0.994-0.995,2.608-0.995,3.604,0.003c0.996,0.993,0.996,2.606,0,3.604h0.002
	c-2.763,2.767-6.59,4.478-10.811,4.478c-4.224,0.002-8.048-1.711-10.819-4.481c-2.095-2.098-3.581-4.802-4.181-7.831
	c0.6,3.029,2.086,5.733,4.181,7.831c2.771,2.771,6.595,4.483,10.819,4.481c4.221,0,8.048-1.711,10.811-4.478h-0.002
	c0.996-0.997,0.996-2.61,0-3.604c-0.996-0.998-2.61-0.998-3.604-0.003l-0.01-0.01C55.8,58.6,54.006,59.6,51.991,60z"/>
<path fill="none" stroke="#335C5F" stroke-width="1.5" stroke-linecap="round" stroke-linejoin="round" stroke-miterlimit="10" d="
	M65.294,50.001c0-4.224-1.711-8.047-4.478-10.814c-2.1-2.099-4.806-3.586-7.831-4.186c3.025,0.599,5.731,2.086,7.831,4.186
	C63.583,41.955,65.294,45.778,65.294,50.001z"/>
<path fill="none" stroke="#335C5F" stroke-width="1.5" stroke-linecap="round" stroke-linejoin="round" stroke-miterlimit="10" d="
	M35.001,47.014c0.6-3.022,2.086-5.729,4.185-7.827c2.099-2.099,4.805-3.586,7.831-4.186c-3.026,0.599-5.732,2.086-7.831,4.186
	C37.088,41.286,35.602,43.992,35.001,47.014z"/>
<path fill="none" stroke="#335C5F" stroke-width="1.5" stroke-linecap="round" stroke-linejoin="round" stroke-miterlimit="10" d="
	M52.05,70.288c3.192,1.688,6.831,2.655,10.692,2.655c1.41,0,2.552,1.145,2.552,2.551c0,1.404-1.142,2.55-2.552,2.55
	c-4.588,0-8.915-1.129-12.741-3.088c3.826,1.959,8.153,3.088,12.741,3.088c1.41,0,2.552-1.146,2.552-2.55
	c0-1.406-1.142-2.551-2.552-2.551C58.881,72.943,55.242,71.976,52.05,70.288z"/>
<path fill="none" stroke="#335C5F" stroke-width="1.5" stroke-linecap="round" stroke-linejoin="round" stroke-miterlimit="10" d="
	M39.91,66.221c0.909,1.279,1.899,2.5,3.007,3.606c0.837,0.835,1.743,1.6,2.679,2.325c-0.936-0.726-1.842-1.49-2.679-2.325
	C41.809,68.721,40.818,67.5,39.91,66.221z"/>
<path fill="none" stroke="#335C5F" stroke-width="1.5" stroke-linecap="round" stroke-linejoin="round" stroke-miterlimit="10" d="
	M35.583,35.583c-3.691,3.691-5.973,8.789-5.973,14.418c0,2.769,0.376,5.449,1.017,8.022c-0.641-2.573-1.017-5.253-1.017-8.022
	C29.61,44.372,31.892,39.274,35.583,35.583z"/>
<path fill="none" stroke="#335C5F" stroke-width="1.5" stroke-linecap="round" stroke-linejoin="round" stroke-miterlimit="10" d="
	M49.992,80.588c-4.023-1.68-7.645-4.121-10.68-7.16c-3.197-3.196-5.716-7.061-7.399-11.342c1.683,4.281,4.202,8.146,7.399,11.342
	C42.347,76.467,45.969,78.908,49.992,80.588z"/>
<path fill="none" stroke="#335C5F" stroke-width="1.5" stroke-linecap="round" stroke-linejoin="round" stroke-miterlimit="10" d="
	M58.476,44.339c1.085,1.62,1.719,3.563,1.719,5.659c0,2.819,2.283,5.1,5.1,5.1c2.814,0,5.096-2.281,5.096-5.096
	c0-2.768-0.556-5.402-1.55-7.804c0.994,2.402,1.55,5.037,1.55,7.804c0,2.815-2.281,5.096-5.096,5.096c-2.816,0-5.1-2.281-5.1-5.1
	C60.194,47.902,59.561,45.959,58.476,44.339z"/>
<path fill="none" stroke="#335C5F" stroke-width="1.5" stroke-linecap="round" stroke-linejoin="round" stroke-miterlimit="10" d="
	M55.43,30.363c3.445,0.95,6.533,2.763,8.993,5.22c0.939,0.942,1.785,1.978,2.529,3.089c-0.744-1.111-1.59-2.147-2.529-3.089
	C61.963,33.125,58.875,31.313,55.43,30.363z"/>
<path fill="none" stroke="#335C5F" stroke-width="1.5" stroke-linecap="round" stroke-linejoin="round" stroke-miterlimit="10" d="
	M24.509,50.001c0-7.036,2.854-13.41,7.468-18.022c4.612-4.613,10.985-7.464,18.021-7.464c1.409,0,2.55,1.141,2.55,2.55
	c0,1.406-1.142,2.548-2.546,2.548c-2.768-0.003-5.399,0.554-7.805,1.55c2.406-0.996,5.038-1.553,7.805-1.55
	c1.405,0,2.546-1.142,2.546-2.548c0-1.409-1.142-2.55-2.55-2.55c-7.036,0-13.409,2.851-18.021,7.464
	C27.363,36.591,24.509,42.965,24.509,50.001z"/>
<path fill="none" stroke="#335C5F" stroke-width="1.5" stroke-linecap="round" stroke-linejoin="round" stroke-miterlimit="10" d="
	M24.569,33.009c-3.255,4.859-5.157,10.704-5.157,16.993c0,5.874,1.183,11.469,3.302,16.578l-0.004,0.002
	c0.536,1.298,2.03,1.915,3.33,1.38c1.298-0.538,1.918-2.029,1.377-3.33l0.039-0.016c-1.265-3.029-2.12-6.259-2.571-9.619
	c0.451,3.36,1.306,6.59,2.571,9.619l-0.039,0.016c0.541,1.301-0.079,2.792-1.377,3.33c-1.3,0.535-2.794-0.082-3.33-1.38l0.004-0.002
	c-2.12-5.108-3.302-10.704-3.302-16.578C19.413,43.713,21.314,37.868,24.569,33.009z"/>
<path fill="none" stroke="#335C5F" stroke-width="1.5" stroke-linecap="round" stroke-linejoin="round" stroke-miterlimit="10" d="
	M75.43,33.009c-5.485-8.196-14.825-13.596-25.428-13.596c-8.449,0-16.096,3.422-21.629,8.959c5.534-5.537,13.181-8.959,21.629-8.959
	C60.604,19.413,69.944,24.813,75.43,33.009z"/>
<path fill="none" stroke="#335C5F" stroke-width="1.5" stroke-linecap="round" stroke-linejoin="round" stroke-miterlimit="10" d="
	M80.588,54.021v-4.019c0-4.148-0.834-8.099-2.331-11.705c1.497,3.606,2.331,7.557,2.331,11.705V54.021z"/>
<path fill="none" stroke="#335C5F" stroke-width="1.5" stroke-linecap="round" stroke-linejoin="round" stroke-miterlimit="10" d="
	M90,78.235C90,84.706,84.706,90,78.235,90H21.764C15.294,90,10,84.706,10,78.235V21.764C10,15.294,15.294,10,21.764,10h56.471
	C84.706,10,90,15.294,90,21.764V78.235z"/>
</svg>
