<svg xmlns="http://www.w3.org/2000/svg" viewBox="0 0 48 48"><defs><style>.cls-1{fill:#263238;}.cls-2{fill:#424242;}</style></defs><title>Folder network</title><g id="Folder_network" data-name="Folder network"><path class="cls-1" d="M35,19.05V21H13V16a1,1,0,0,1,1-1l7,0,3,3L34,18A1,1,0,0,1,35,19.05Z"/><path class="cls-1" d="M13,23H35v9a1,1,0,0,1-1,1H14a1,1,0,0,1-1-1Z"/><rect class="cls-1" y="44" width="4" height="4" rx="1"/><rect class="cls-1" x="19" y="44" width="4" height="4" rx="1"/><rect class="cls-1" x="25" y="44" width="4" height="4" rx="1"/><path class="cls-2" d="M16,35V46a1,1,0,0,1-1,1H6V45h8V35Z"/><rect class="cls-1" x="4" width="4" height="4" rx="1"/><path class="cls-2" d="M19,2V13H17V3H10V1h8A1,1,0,0,1,19,2Z"/><path class="cls-1" d="M43,4H41a1,1,0,0,1-1-1V1a1,1,0,0,1,1-1h2a1,1,0,0,1,1,1V3A1,1,0,0,1,43,4ZM42,2h0Z"/><path class="cls-2" d="M38,1V3H31V13H29V2a1,1,0,0,1,1-1Z"/><rect class="cls-1" x="44" y="44" width="4" height="4" rx="1"/><path class="cls-2" d="M42,45v2H33a1,1,0,0,1-1-1V35h2V45Z"/><path class="cls-1" d="M43,15H41a1,1,0,0,1-1-1V12a1,1,0,0,1,1-1h2a1,1,0,0,1,1,1v2A1,1,0,0,1,43,15Zm-1-2h0Z"/><path class="cls-2" d="M43,17v5a1,1,0,0,1-1,1H37V21h4V17Z"/><rect class="cls-1" x="4" y="11" width="4" height="4" rx="1"/><path class="cls-2" d="M11,21v2H6a1,1,0,0,1-1-1V17H7v4Z"/><rect class="cls-1" x="40" y="33" width="4" height="4" rx="1"/><path class="cls-2" d="M43,26v5H41V27H37V25h5A1,1,0,0,1,43,26Z"/><rect class="cls-1" x="4" y="33" width="4" height="4" rx="1"/><path class="cls-2" d="M11,25v2H7v4H5V26a1,1,0,0,1,1-1Z"/><rect class="cls-2" x="26" y="35" width="2" height="7"/><rect class="cls-2" x="20" y="35" width="2" height="7"/></g></svg>