<svg xmlns="http://www.w3.org/2000/svg" viewBox="0 0 48 48"><defs><style>.cls-1{fill:#424242;}.cls-2{fill:#263238;}</style></defs><title>Folder Organize</title><g id="Folder_Organize" data-name="Folder Organize"><path class="cls-1" d="M34,3,24.36,3,21.68.29A1.12,1.12,0,0,0,21,0L14,0a2,2,0,0,0-2,2V18a2,2,0,0,0,2,2H34a2,2,0,0,0,2-2V5A2,2,0,0,0,34,3ZM20.7,2l2.74,2.74a1,1,0,0,0,.7.29L34,5V7H14V2ZM14,18V9H34v9Z"/><path class="cls-2" d="M14,39.06V41H0V37a1,1,0,0,1,1-1l3,0,3,2L13,38A1,1,0,0,1,14,39.06Z"/><path class="cls-2" d="M0,43H14v4a1,1,0,0,1-1,1H1a1,1,0,0,1-1-1Z"/><path class="cls-2" d="M31,39.06V41H17V37a1,1,0,0,1,1-1l3,0,3,2L30,38A1,1,0,0,1,31,39.06Z"/><path class="cls-2" d="M17,43H31v4a1,1,0,0,1-1,1H18a1,1,0,0,1-1-1Z"/><path class="cls-2" d="M48,39.06V41H34V37a1,1,0,0,1,1-1l3,0,3,2L47,38A1,1,0,0,1,48,39.06Z"/><path class="cls-2" d="M34,43H48v4a1,1,0,0,1-1,1H35a1,1,0,0,1-1-1Z"/><path class="cls-1" d="M41,27H25V23a1,1,0,0,0-2,0v4H7a1,1,0,0,0-1,1v5a1,1,0,0,0,2,0V29H23v4a1,1,0,0,0,2,0V29H40v4a1,1,0,0,0,2,0V28A1,1,0,0,0,41,27Z"/></g></svg>