<svg xmlns="http://www.w3.org/2000/svg" viewBox="0 0 48 48"><defs><style>.cls-1{fill:#424242;}.cls-2{fill:#263238;}</style></defs><title>Folder Server</title><g id="Folder_Server" data-name="Folder Server"><path class="cls-1" d="M34,3,24.36,3,21.68.29A1,1,0,0,0,21,0h0L14,0a2,2,0,0,0-2,2V18a2,2,0,0,0,2,2h9v2h2V20h9a2,2,0,0,0,2-2V5A2,2,0,0,0,34,3ZM20.56,2l2.67,2.67a1,1,0,0,0,.71.3L34,5V7H14V2ZM14,18V9H34v9Z"/><rect class="cls-2" y="38" width="4" height="4" rx="1"/><rect class="cls-2" x="44" y="38" width="4" height="4" rx="1"/><rect class="cls-2" x="6" y="44" width="4" height="4" rx="1"/><rect class="cls-2" x="38" y="44" width="4" height="4" rx="1"/><path class="cls-1" d="M13,34v6a1,1,0,0,1-1,1H6V39h5V34Z"/><path class="cls-1" d="M42,39v2H36a1,1,0,0,1-1-1V34h2v5Z"/><path class="cls-1" d="M36,45v2H28a1,1,0,0,1-1-1V34h2V45Z"/><path class="cls-1" d="M21,34V46a1,1,0,0,1-1,1H12V45h7V34Z"/><path class="cls-2" d="M39,24H9a2,2,0,0,0-2,2v4a2,2,0,0,0,2,2H39a2,2,0,0,0,2-2V26A2,2,0,0,0,39,24ZM14,29a1,1,0,0,1-1,1H11a1,1,0,0,1-1-1V27a1,1,0,0,1,1-1h2a1,1,0,0,1,1,1Zm6,0a1,1,0,0,1-1,1H17a1,1,0,0,1-1-1V27a1,1,0,0,1,1-1h2a1,1,0,0,1,1,1Zm10,0a1,1,0,0,1-2,0V27a1,1,0,0,1,2,0Zm4,0a1,1,0,0,1-2,0V27a1,1,0,0,1,2,0Zm4,0a1,1,0,0,1-2,0V27a1,1,0,0,1,2,0Z"/></g></svg>