<svg xmlns="http://www.w3.org/2000/svg" viewBox="0 0 48 48"><defs><style>.cls-1{fill:#263238;}.cls-2{fill:#424242;}</style></defs><title>Folders</title><g id="Folders"><path class="cls-1" d="M48,4.05V6H26V1a1,1,0,0,1,1-1l7,0,3,3L47,3A1,1,0,0,1,48,4.05Z"/><path class="cls-1" d="M26,8H48v9a1,1,0,0,1-1,1H27a1,1,0,0,1-1-1Z"/><path class="cls-1" d="M22,34.05v2H0V31a1,1,0,0,1,1-1l7,0,3,3L21,33A1,1,0,0,1,22,34.05Z"/><path class="cls-1" d="M0,38H22v9a1,1,0,0,1-1,1H1a1,1,0,0,1-1-1Z"/><rect class="cls-2" x="10" y="10" width="2" height="18"/><rect class="cls-2" x="15" y="5" width="9" height="2"/><rect class="cls-1" x="9" y="4" width="4" height="4" rx="1"/><rect class="cls-2" x="24" y="37" width="9" height="2"/><rect class="cls-2" x="36" y="20" width="2" height="14"/><rect class="cls-1" x="35" y="36" width="4" height="4" rx="1"/></g></svg>