<?xml version="1.0" encoding="utf-8"?>
<!-- Generator: Adobe Illustrator 19.2.0, SVG Export Plug-In . SVG Version: 6.00 Build 0)  -->
<svg version="1.1" id="Layer_1" xmlns="http://www.w3.org/2000/svg" xmlns:xlink="http://www.w3.org/1999/xlink" x="0px" y="0px"
	 viewBox="0 0 500 500" style="enable-background:new 0 0 500 500;" xml:space="preserve">
<style type="text/css">
	.st0{fill:#ECF4F7;}
	.st1{fill:#1C1D21;}
	.st2{fill:#f7f7f7;}
	.st3{fill:#AAB1BA;}
	.st4{fill:none;stroke:#1C1D21;stroke-width:10;stroke-linecap:round;stroke-linejoin:round;stroke-miterlimit:10;}
	.st5{fill:#FDDF7F;}
	.st6{fill:#FFFFFF;}
</style>
<g>
	<g>
		<g>
			<g>
				<path class="st0" d="M82.5,127.3V35c0-16.6,13.4-30,30-30h275.1c16.6,0,30,13.4,30,30v352.6L309.7,495H240h-90.3h-37.2
					c-16.6,0-30-13.4-30-30V162"/>
			</g>
		</g>
		<g>
			<g>
				<path class="st1" d="M309.7,500H112.5c-19.3,0-35-15.7-35-35V163.2c0-2.8,2.2-5,5-5c2.8,0,5,2.2,5,5V465c0,13.8,11.2,25,25,25
					h195.1l104.9-104.5V35c0-13.8-11.2-25-25-25H112.5c-13.8,0-25,11.2-25,25v10c0,2.8-2.2,5-5,5c-2.8,0-5-2.2-5-5V35
					c0-19.3,15.7-35,35-35h275.1c19.3,0,35,15.7,35,35v352.6c0,1.3-0.5,2.6-1.5,3.5L313.2,498.5C312.3,499.5,311,500,309.7,500z"/>
			</g>
		</g>
		<g>
			<g>
				<path class="st3" d="M417.1,387.6L309.7,495v-78.9c0-15.7,12.8-28.5,28.5-28.5H417.1z"/>
			</g>
		</g>
		<g>
			<g>
				<path class="st1" d="M309.7,500c-0.6,0-1.3-0.1-1.9-0.4c-1.9-0.8-3.1-2.6-3.1-4.6v-78.9c0-18.5,15-33.5,33.5-33.5h78.9
					c2,0,3.8,1.2,4.6,3.1c0.8,1.9,0.3,4-1.1,5.4L313.2,498.5C312.2,499.5,311,500,309.7,500z M338.2,392.6
					c-12.9,0-23.5,10.5-23.5,23.5v66.9l90.4-90.4H338.2z"/>
			</g>
		</g>
	</g>
	<g>
		<g>
			<g>
				<path class="st1" d="M369,216.6H236c-2.8,0-5-2.2-5-5c0-2.8,2.2-5,5-5h133c2.8,0,5,2.2,5,5C374,214.3,371.8,216.6,369,216.6z"/>
			</g>
		</g>
		<g>
			<g>
				<path class="st1" d="M369,253.4H236c-2.8,0-5-2.2-5-5c0-2.8,2.2-5,5-5h133c2.8,0,5,2.2,5,5C374,251.2,371.8,253.4,369,253.4z"/>
			</g>
		</g>
		<g>
			<g>
				<path class="st1" d="M369,290.2H236c-2.8,0-5-2.2-5-5c0-2.8,2.2-5,5-5h133c2.8,0,5,2.2,5,5C374,288,371.8,290.2,369,290.2z"/>
			</g>
		</g>
	</g>
	<g>
		<g>
			<g>
				<circle class="st3" cx="302.5" cy="114.6" r="62.9"/>
			</g>
		</g>
		<g>
			<g>
				<path class="st1" d="M302.5,182.5c-37.4,0-67.9-30.4-67.9-67.9c0-37.4,30.4-67.9,67.9-67.9c37.4,0,67.9,30.4,67.9,67.9
					C370.4,152,339.9,182.5,302.5,182.5z M302.5,56.7c-31.9,0-57.9,26-57.9,57.9c0,31.9,26,57.9,57.9,57.9c31.9,0,57.9-26,57.9-57.9
					C360.4,82.7,334.4,56.7,302.5,56.7z"/>
			</g>
		</g>
		<g>
			<g>
				<path class="st5" d="M302.5,51.7c-34.7,0-62.9,28.2-62.9,62.9h62.9V51.7z"/>
			</g>
		</g>
		<g>
			<g>
				<path class="st1" d="M302.5,119.6h-62.9c-2.8,0-5-2.2-5-5c0-37.4,30.4-67.9,67.9-67.9c2.8,0,5,2.2,5,5v62.9
					C307.5,117.4,305.3,119.6,302.5,119.6z M244.8,109.6h52.7V56.9C269.6,59.3,247.2,81.7,244.8,109.6z"/>
			</g>
		</g>
		<g>
			<g>
				<path class="st2" d="M302.5,51.7c34.7,0,62.9,28.2,62.9,62.9s-28.2,62.9-62.9,62.9V51.7z"/>
			</g>
		</g>
		<g>
			<g>
				<path class="st1" d="M302.5,182.5c-2.8,0-5-2.2-5-5V51.7c0-2.8,2.2-5,5-5c37.4,0,67.9,30.4,67.9,67.9
					C370.4,152,339.9,182.5,302.5,182.5z M307.5,56.9v115.3c29.6-2.5,52.9-27.4,52.9-57.7C360.4,84.4,337.1,59.5,307.5,56.9z"/>
			</g>
		</g>
	</g>
	<g>
		<g>
			<path class="st2" d="M89.9,265.2H77.1c-27.3,0-49.5-22.2-49.5-49.5v-52.5h111.7v52.5C139.4,243,117.2,265.2,89.9,265.2z"/>
		</g>
	</g>
	<g>
		<g>
			<path class="st2" d="M132,293.4c-9.6-16.9-27.7-28.2-48.5-28.2h0c-20.8,0-38.9,11.4-48.5,28.2H132z"/>
		</g>
	</g>
	<g>
		<g>
			<path class="st1" d="M89.9,270.2H77.1c-30.1,0-54.5-24.4-54.5-54.5v-52.5c0-2.8,2.2-5,5-5h111.7c2.8,0,5,2.2,5,5v52.5
				C144.4,245.8,119.9,270.2,89.9,270.2z M32.6,168.2v47.5c0,24.5,20,44.5,44.5,44.5h12.7c24.5,0,44.5-20,44.5-44.5v-47.5H32.6z"/>
		</g>
	</g>
	<g>
		<g>
			<path class="st1" d="M132,298.4H35c-1.8,0-3.4-0.9-4.3-2.5c-0.9-1.5-0.9-3.4,0-5c10.8-19,31.1-30.7,52.9-30.7
				c21.8,0,42,11.8,52.9,30.7c0.9,1.5,0.9,3.4,0,5C135.4,297.5,133.8,298.4,132,298.4z M44.5,288.4h77.9
				c-9.6-11.4-23.8-18.2-39-18.2C68.4,270.2,54.1,277,44.5,288.4z"/>
		</g>
	</g>
	<g>
		<g>
			<path class="st1" d="M156.3,224.3h-17c-2.8,0-5-2.2-5-5c0-2.8,2.2-5,5-5h17c8.6,0,15.7-7,15.7-15.7v-14.8c0-8.6-7-15.7-15.7-15.7
				h-17c-2.8,0-5-2.2-5-5s2.2-5,5-5h17c14.2,0,25.7,11.5,25.7,25.7v14.8C182,212.8,170.5,224.3,156.3,224.3z"/>
		</g>
	</g>
	<g>
		<g>
			<path class="st1" d="M82.5,149.5c-2.8,0-5-2.2-5-5v-6.7c0-5.6,3.1-10.9,8-13.3c2.3-1.2,3.7-3.5,3.7-6c0-3.7-3-6.8-6.8-6.8
				c-9.2,0-16.8-7.5-16.8-16.8c0-5.9,3.2-11.5,8.3-14.5c2.2-1.3,3.5-3.4,3.5-5.7v-4.5c0-2.8,2.2-5,5-5c2.8,0,5,2.2,5,5v4.5
				c0,5.9-3.1,11.2-8.4,14.3c-2.1,1.2-3.3,3.4-3.3,5.8c0,3.7,3,6.8,6.8,6.8c9.2,0,16.8,7.5,16.8,16.8c0,6.4-3.5,12.1-9.2,15
				c-1.5,0.8-2.5,2.5-2.5,4.4v6.7C87.5,147.3,85.2,149.5,82.5,149.5z"/>
		</g>
	</g>
</g>
</svg>
