<?xml version="1.0" encoding="utf-8"?>
<!-- Generator: Adobe Illustrator 16.0.0, SVG Export Plug-In . SVG Version: 6.00 Build 0)  -->
<!DOCTYPE svg PUBLIC "-//W3C//DTD SVG 1.0//EN" "http://www.w3.org/TR/2001/REC-SVG-20010904/DTD/svg10.dtd">
<svg version="1.0" id="Layer_1" xmlns="http://www.w3.org/2000/svg" xmlns:xlink="http://www.w3.org/1999/xlink" x="0px" y="0px"
	 width="100px" height="100px" viewBox="0 0 100 100" enable-background="new 0 0 100 100" xml:space="preserve">
<circle fill="#75C6A4" stroke="#335C5F" stroke-width="1.5" stroke-linecap="round" stroke-linejoin="round" stroke-miterlimit="10" cx="24.444" cy="75.558" r="14.444"/>
<path fill="#65AD90" d="M24.444,61.114c-0.564,0-1.119,0.04-1.667,0.103c7.191,0.828,12.777,6.93,12.777,14.341
	s-5.586,13.511-12.777,14.339C23.325,89.96,23.88,90,24.444,90c7.977,0,14.444-6.467,14.444-14.442
	C38.889,67.581,32.421,61.114,24.444,61.114z"/>
<path fill="#46C6F1" stroke="#335C5F" stroke-width="1.5" stroke-linecap="round" stroke-linejoin="round" stroke-miterlimit="10" d="
	M81.003,37.816c-1.682,0.686-3.519,1.07-5.448,1.07c-7.979,0-14.444-6.468-14.444-14.441c0-1.93,0.386-3.767,1.071-5.448
	c-3.778-1.485-7.879-2.331-12.184-2.331c-18.407,0-33.332,14.925-33.332,33.333c0,4.306,0.844,8.406,2.33,12.186
	c1.682-0.688,3.519-1.071,5.448-1.071c7.977,0,14.444,6.467,14.444,14.443c0,1.927-0.386,3.765-1.072,5.448
	c3.778,1.485,7.879,2.327,12.181,2.327c18.413,0,33.336-14.922,33.336-33.333C83.334,45.694,82.488,41.594,81.003,37.816z"/>
<path fill="#FADF7E" stroke="#335C5F" stroke-width="1.5" stroke-linecap="round" stroke-linejoin="round" stroke-miterlimit="10" d="
	M81.024,37.809c-1.688,0.692-3.531,1.078-5.47,1.078c-7.979,0-14.444-6.468-14.444-14.441c0-0.588,0.046-1.164,0.113-1.734
	l-7.897-2.552l-5.959,1.285l-3.497,3.031l-4.563,2.347l0.062,2.019l1.228,1.085l1.957-1.096l1.697,2.208l1.858-0.519l1.16-1.384
	l-0.146-2.288l3.317-3.049l1.885,0.417l-2.771,2.819l0.31,1.427l4.152-0.413l0.723,1.087l-3.044,0.893l-2.478,2.067l-3.078,0.718
	l-6.32,0.591l-2.802,2.536l-3.616,1.523l1.917,1.356l-0.113,1.675l-4.856,0.321l-0.502,4.327l2.449,0.803l2.527-0.944l3.77-3.644
	l3.104-1.11l3.167,3.714l1.164-0.301l-2.174-4.006l1.286-0.116l3.154,2.643l1.877,4.033l1.045-1.155l-0.672-1.936l2.165,0.364
	l1.659,2.573l4.26,0.317l-0.996,3.74l-3.726,0.203l-4.41-1.676l-1.351,2.275l-5.249-2.734l0.05-2.351l-5.209,0.292l-6.675,2.376
	l-5.61,9.307l-0.273,3.338c5.448,0.275,10.093,3.559,12.307,8.234l1.578-0.275l3.233,2.125l-0.539,3.479l1.513,2.226l1.298,5.207
	l-0.228,0.701c1.841,0.313,3.727,0.486,5.657,0.486c3.932,0,7.701-0.683,11.201-1.933l-0.432-4.103l4.452-5.555l2.885-5.421
	l-0.199-1.527l-4.158,0.894l-1.93-1.947l-4.875-10.623l1.328-0.463l6.021,10.844l6.925-3.246l2.454-3.49l-3.43-1.287l-1.57,0.083
	l-2.379-4.354l1.273-0.239l1.617,2.033l6.121,1.768l2.597-0.317l2.87,3.667l1.032-0.4l0.202,1.596
	c0.856-2.956,1.329-6.076,1.329-9.311C83.334,45.696,82.513,41.585,81.024,37.809z"/>
<path fill="#3EAED3" d="M25.179,61.15l0.273-3.338l0-0.002c-0.334-0.019-0.67-0.03-1.008-0.03c-2.298,0-4.493,0.443-6.512,1.24
	c0.306,1.077,0.658,2.134,1.063,3.165c1.682-0.688,3.519-1.071,5.448-1.071c0.251,0,0.497,0.024,0.745,0.037
	C25.186,61.151,25.182,61.15,25.179,61.15z"/>
<path fill="#3EAED3" d="M41.757,74.713l0.272-1.757c-0.111-0.753-0.272-1.489-0.475-2.209l-2.492-1.638l-1.576,0.275
	c0.889,1.873,1.401,3.961,1.401,6.173c0,1.927-0.386,3.765-1.072,5.448c1.031,0.405,2.087,0.758,3.164,1.063
	c0.798-2.019,1.241-4.213,1.241-6.512c0-0.057-0.003-0.111-0.004-0.168L41.757,74.713z"/>
<path fill="#D8C26F" d="M39.063,69.109l2.492,1.638c-2.018-7.161-8.412-12.504-16.103-12.937l0,0.002l-0.273,3.338
	c5.448,0.275,10.093,3.559,12.307,8.234L39.063,69.109z"/>
<polygon fill="#FADF7E" stroke="#335C5F" stroke-width="1.5" stroke-linecap="round" stroke-linejoin="round" stroke-miterlimit="10" points="
	31.857,28.717 33.796,28.176 36.43,33.729 32.485,35.062 32.546,31.264 "/>
<polygon fill="#FADF7E" stroke="#335C5F" stroke-width="1.5" stroke-linecap="round" stroke-linejoin="round" stroke-miterlimit="10" points="
	30.589,34.397 27.681,35.826 26.667,35.217 28.346,32.803 30.274,33.16 "/>
<polygon fill="#46C6F1" stroke="#335C5F" stroke-width="1.5" stroke-linecap="round" stroke-linejoin="round" stroke-miterlimit="10" points="
	55.676,42.747 57.726,41.91 61.27,42.842 62.706,41.726 59.852,40.04 60.602,38.147 58.194,38.807 57.091,38.973 55.626,38.584 
	53.528,41.585 "/>
<path fill="#D8C26F" d="M82.086,40.973c-0.305-1.077-0.656-2.134-1.062-3.164c-1.688,0.692-3.531,1.078-5.47,1.078
	c-7.979,0-14.444-6.468-14.444-14.441c0-0.588,0.046-1.164,0.113-1.734l-3.229-1.043c-0.143,0.906-0.218,1.833-0.218,2.777
	c0,9.801,7.976,17.774,17.777,17.774C77.86,42.22,80.063,41.775,82.086,40.973z"/>
<circle fill="#E9EAEF" stroke="#335C5F" stroke-width="1.5" stroke-linecap="round" stroke-linejoin="round" stroke-miterlimit="10" cx="75.555" cy="24.446" r="14.445"/>
<path fill="#CACCD1" d="M75.555,10c-0.563,0-1.118,0.041-1.666,0.104c7.191,0.828,12.777,6.929,12.777,14.342
	c0,7.409-5.586,13.511-12.777,14.338c0.548,0.063,1.103,0.103,1.666,0.103C83.532,38.887,90,32.419,90,24.446
	C90,16.468,83.532,10,75.555,10z"/>
<path fill="#75C6A4" stroke="#335C5F" stroke-width="1.5" stroke-linecap="round" stroke-linejoin="round" stroke-miterlimit="10" d="
	M78.893,30c0,2.445-1.999,4.445-4.442,4.445c-2.447,0-4.447-2-4.447-4.445v-6.664c0-2.445,2-4.445,4.447-4.445
	c2.443,0,4.442,2,4.442,4.445V30z"/>
<path fill="#65AD90" d="M74.45,18.89c-0.385,0-0.756,0.055-1.111,0.147c1.91,0.497,3.333,2.236,3.333,4.298V30
	c0,2.062-1.423,3.801-3.333,4.299c0.355,0.092,0.727,0.146,1.111,0.146c2.443,0,4.442-2,4.442-4.445v-6.664
	C78.893,20.89,76.894,18.89,74.45,18.89z"/>
<path fill="none" stroke="#335C5F" stroke-width="1.5" stroke-linecap="round" stroke-linejoin="round" stroke-miterlimit="10" d="
	M74.45,22.223v2.223V22.223z"/>
<path fill="none" stroke="#335C5F" stroke-width="1.5" stroke-linecap="round" stroke-linejoin="round" stroke-miterlimit="10" d="
	M89.712,27.318c-0.588,0.287-1.241,0.461-1.937,0.461c-2.454,0-4.441-1.989-4.441-4.445l0.003-4.443
	c0-2.454-1.991-4.443-4.444-4.443c-2.456,0-4.446,1.989-4.446,4.443c0-2.454,1.99-4.443,4.446-4.443
	c2.453,0,4.444,1.989,4.444,4.443l-0.003,4.443c0,2.457,1.987,4.445,4.441,4.445C88.471,27.779,89.124,27.604,89.712,27.318z"/>
<path fill="none" stroke="#335C5F" stroke-width="1.5" stroke-linecap="round" stroke-linejoin="round" stroke-miterlimit="10" d="
	M26.109,68.89l-3.331,13.332L26.109,68.89z"/>
<polygon fill="none" stroke="#335C5F" stroke-width="1.5" stroke-linecap="round" stroke-linejoin="round" stroke-miterlimit="10" points="
	29.442,78.887 32.776,75.556 29.442,72.224 32.776,75.556 "/>
<polygon fill="none" stroke="#335C5F" stroke-width="1.5" stroke-linecap="round" stroke-linejoin="round" stroke-miterlimit="10" points="
	19.443,72.224 16.112,75.556 19.443,78.887 16.112,75.556 "/>
<path fill="none" stroke="#335C5F" stroke-width="1.5" stroke-linecap="round" stroke-linejoin="round" stroke-miterlimit="10" d="
	M86.563,33.782c-2.65,3.121-6.594,5.105-11.008,5.105c-7.979,0-14.444-6.468-14.444-14.441c0-4.415,1.984-8.361,5.104-11.01
	C61.257,11.234,55.773,10,49.998,10c-22.087,0-39.994,17.911-39.994,40c0,5.776,1.23,11.261,3.432,16.218
	c2.652-3.119,6.596-5.104,11.009-5.104c7.977,0,14.444,6.467,14.444,14.443c0,4.413-1.984,8.358-5.105,11.007
	C38.741,88.767,44.225,90,49.998,90C72.095,90,90,72.095,90,50C90,44.225,88.766,38.741,86.563,33.782z"/>
<path fill="#3EAED3" d="M61.224,22.712c-0.003,0.02-0.003,0.04-0.007,0.06c0.155-1.32,0.48-2.588,0.965-3.774
	c-1.031-0.405-2.088-0.758-3.165-1.063c-0.469,1.189-0.798,2.445-1.004,3.741L61.224,22.712z"/>
<path fill="none" stroke="#335C5F" stroke-width="1.5" stroke-linecap="round" stroke-linejoin="round" stroke-miterlimit="10" d="
	M78.893,30c0,2.445-1.999,4.445-4.442,4.445c-2.447,0-4.447-2-4.447-4.445v-6.664c0-2.445,2-4.445,4.447-4.445
	c2.443,0,4.442,2,4.442,4.445V30z"/>
<circle fill="none" stroke="#335C5F" stroke-width="1.5" stroke-linecap="round" stroke-linejoin="round" stroke-miterlimit="10" cx="75.555" cy="24.446" r="14.445"/>
<circle fill="none" stroke="#335C5F" stroke-width="1.5" stroke-linecap="round" stroke-linejoin="round" stroke-miterlimit="10" cx="24.444" cy="75.558" r="14.444"/>
<path fill="none" stroke="#335C5F" stroke-width="1.5" stroke-linecap="round" stroke-linejoin="round" stroke-miterlimit="10" d="
	M81.024,37.809c-1.688,0.692-3.531,1.078-5.47,1.078c-7.979,0-14.444-6.468-14.444-14.441c0-0.588,0.046-1.164,0.113-1.734
	l-7.897-2.552l-5.959,1.285l-3.497,3.031l-4.563,2.347l0.062,2.019l1.228,1.085l1.957-1.096l1.697,2.208l1.858-0.519l1.16-1.384
	l-0.146-2.288l3.317-3.049l1.885,0.417l-2.771,2.819l0.31,1.427l4.152-0.413l0.723,1.087l-3.044,0.893l-2.478,2.067l-3.078,0.718
	l-6.32,0.591l-2.802,2.536l-3.616,1.523l1.917,1.356l-0.113,1.675l-4.856,0.321l-0.502,4.327l2.449,0.803l2.527-0.944l3.77-3.644
	l3.104-1.11l3.167,3.714l1.164-0.301l-2.174-4.006l1.286-0.116l3.154,2.643l1.877,4.033l1.045-1.155l-0.672-1.936l2.165,0.364
	l1.659,2.573l4.26,0.317l-0.996,3.74l-3.726,0.203l-4.41-1.676l-1.351,2.275l-5.249-2.734l0.05-2.351l-5.209,0.292l-6.675,2.376
	l-5.61,9.307l-0.273,3.338c5.448,0.275,10.093,3.559,12.307,8.234l1.578-0.275l3.233,2.125l-0.539,3.479l1.513,2.226l1.298,5.207
	l-0.228,0.701c1.841,0.313,3.727,0.486,5.657,0.486c3.932,0,7.701-0.683,11.201-1.933l-0.432-4.103l4.452-5.555l2.885-5.421
	l-0.199-1.527l-4.158,0.894l-1.93-1.947l-4.875-10.623l1.328-0.463l6.021,10.844l6.925-3.246l2.454-3.49l-3.43-1.287l-1.57,0.083
	l-2.379-4.354l1.273-0.239l1.617,2.033l6.121,1.768l2.597-0.317l2.87,3.667l1.032-0.4l0.202,1.596
	c0.856-2.956,1.329-6.076,1.329-9.311C83.334,45.696,82.513,41.585,81.024,37.809z"/>
<path fill="none" stroke="#335C5F" stroke-width="1.5" stroke-linecap="round" stroke-linejoin="round" stroke-miterlimit="10" d="
	M81.003,37.816c-1.682,0.686-3.519,1.07-5.448,1.07c-7.979,0-14.444-6.468-14.444-14.441c0-1.93,0.386-3.767,1.071-5.448
	c-3.778-1.485-7.879-2.331-12.184-2.331c-18.407,0-33.332,14.925-33.332,33.333c0,4.306,0.844,8.406,2.33,12.186
	c1.682-0.688,3.519-1.071,5.448-1.071c7.977,0,14.444,6.467,14.444,14.443c0,1.927-0.386,3.765-1.072,5.448
	c3.778,1.485,7.879,2.327,12.181,2.327c18.413,0,33.336-14.922,33.336-33.333C83.334,45.694,82.488,41.594,81.003,37.816z"/>
</svg>
