<svg xmlns="http://www.w3.org/2000/svg" viewBox="0 0 48 48"><defs><style>.cls-1{fill:#424242;}.cls-2{fill:#263238;}</style></defs><title>Globe</title><g id="Globe"><path class="cls-1" d="M39.93,9.64a.43.43,0,0,0,0-.07,18,18,0,0,0-31.78,0,.43.43,0,0,0,0,.07A17.84,17.84,0,0,0,6,18a17.5,17.5,0,0,0,.65,4.77A3.92,3.92,0,0,1,8.53,22a16,16,0,0,1-.48-3h8c0,1,.08,2,.17,3h2c-.1-1-.16-2-.19-3h5v3h2V19h5c0,1-.09,2-.19,3h2c.09-1,.15-2,.17-3h8a16,16,0,0,1-.48,3,3.92,3.92,0,0,1,1.88.74A17.5,17.5,0,0,0,42,18,17.84,17.84,0,0,0,39.93,9.64ZM16,17h-8a15.92,15.92,0,0,1,1.58-6h7A39.44,39.44,0,0,0,16,17Zm1-8H10.78a16.07,16.07,0,0,1,9-6.41A18,18,0,0,0,17,9Zm6,8H18a35.82,35.82,0,0,1,.62-6H23Zm0-8H19.1c.95-3.55,2.41-6,3.9-6.73Zm2-6.73C26.49,3,28,5.45,28.9,9H25ZM25,17V11h4.36A35.82,35.82,0,0,1,30,17ZM28.23,2.59a16.07,16.07,0,0,1,9,6.41H31A18,18,0,0,0,28.23,2.59ZM32,17a39.44,39.44,0,0,0-.57-6h7A15.92,15.92,0,0,1,40,17Z"/><rect class="cls-2" y="38" width="4" height="4" rx="1"/><rect class="cls-2" x="44" y="38" width="4" height="4" rx="1"/><rect class="cls-2" x="6" y="44" width="4" height="4" rx="1"/><rect class="cls-2" x="38" y="44" width="4" height="4" rx="1"/><path class="cls-1" d="M13,34v6a1,1,0,0,1-1,1H6V39h5V34Z"/><path class="cls-1" d="M42,39v2H36a1,1,0,0,1-1-1V34h2v5Z"/><path class="cls-1" d="M36,45v2H28a1,1,0,0,1-1-1V34h2V45Z"/><path class="cls-1" d="M21,34V46a1,1,0,0,1-1,1H12V45h7V34Z"/><path class="cls-2" d="M39,24H9a2,2,0,0,0-2,2v4a2,2,0,0,0,2,2H39a2,2,0,0,0,2-2V26A2,2,0,0,0,39,24ZM14,29a1,1,0,0,1-1,1H11a1,1,0,0,1-1-1V27a1,1,0,0,1,1-1h2a1,1,0,0,1,1,1Zm6,0a1,1,0,0,1-1,1H17a1,1,0,0,1-1-1V27a1,1,0,0,1,1-1h2a1,1,0,0,1,1,1Zm10,0a1,1,0,0,1-2,0V27a1,1,0,0,1,2,0Zm4,0a1,1,0,0,1-2,0V27a1,1,0,0,1,2,0Zm4,0a1,1,0,0,1-2,0V27a1,1,0,0,1,2,0Z"/></g></svg>