<?xml version="1.0" encoding="utf-8"?>
<!-- Generator: Adobe Illustrator 16.0.0, SVG Export Plug-In . SVG Version: 6.00 Build 0)  -->
<!DOCTYPE svg PUBLIC "-//W3C//DTD SVG 1.0//EN" "http://www.w3.org/TR/2001/REC-SVG-20010904/DTD/svg10.dtd">
<svg version="1.0" id="Layer_1" xmlns="http://www.w3.org/2000/svg" xmlns:xlink="http://www.w3.org/1999/xlink" x="0px" y="0px"
	 width="100px" height="100px" viewBox="0 0 100 100" enable-background="new 0 0 100 100" xml:space="preserve">
<path fill="#E9EAEF" stroke="#335C5F" stroke-width="1.5" stroke-linecap="round" stroke-linejoin="round" stroke-miterlimit="10" d="
	M34.706,12.353h32.941c3.897,0,7.059,3.159,7.059,7.059v0.002v63.528c0,3.898-3.161,7.059-7.059,7.059H34.706
	c-3.897,0-7.059-3.16-7.059-7.059V19.414v-0.002C27.647,15.514,30.806,12.353,34.706,12.353L34.706,12.353z"/>
<path fill="#CACCD1" d="M67.647,12.353h-3.529c3.897,0,7.059,3.159,7.059,7.059v0.002v63.528c0,3.898-3.161,7.059-7.059,7.059h3.529
	c3.897,0,7.059-3.16,7.059-7.059V19.414v-0.002C74.706,15.512,71.545,12.353,67.647,12.353z"/>
<rect x="31.176" y="21.767" fill="#46C6F1" stroke="#335C5F" stroke-width="1.5" stroke-linecap="round" stroke-linejoin="round" stroke-miterlimit="10" width="40.003" height="56.469"/>
<rect x="67.649" y="21.767" fill="#3EAED3" width="3.529" height="56.469"/>
<path fill="none" stroke="#335C5F" stroke-width="1.5" stroke-linecap="round" stroke-linejoin="round" stroke-miterlimit="10" d="
	M54.707,17.061h-7.058H54.707z"/>
<path fill="none" stroke="#335C5F" stroke-width="1.5" stroke-linecap="round" stroke-linejoin="round" stroke-miterlimit="10" d="
	M60.592,17.061h-2.354H60.592z"/>
<rect x="34.706" y="53.532" fill="#FADF7E" stroke="#335C5F" stroke-width="1.5" stroke-linecap="round" stroke-linejoin="round" stroke-miterlimit="10" width="32.941" height="21.176"/>
<rect x="64.118" y="53.532" fill="#D8C26F" width="3.529" height="21.176"/>
<rect x="34.706" y="25.296" fill="#75C6A4" stroke="#335C5F" stroke-width="1.5" stroke-linecap="round" stroke-linejoin="round" stroke-miterlimit="10" width="32.941" height="4.706"/>
<rect x="34.706" y="34.707" fill="#FADF7E" stroke="#335C5F" stroke-width="1.5" stroke-linecap="round" stroke-linejoin="round" stroke-miterlimit="10" width="32.941" height="4.707"/>
<rect x="34.706" y="44.12" fill="#75C6A4" stroke="#335C5F" stroke-width="1.5" stroke-linecap="round" stroke-linejoin="round" stroke-miterlimit="10" width="14.119" height="4.706"/>
<rect x="53.53" y="44.12" fill="#75C6A4" stroke="#335C5F" stroke-width="1.5" stroke-linecap="round" stroke-linejoin="round" stroke-miterlimit="10" width="14.117" height="4.706"/>
<rect x="64.118" y="25.296" fill="#65AD90" width="3.529" height="4.706"/>
<rect x="64.118" y="34.707" fill="#D8C26F" width="3.529" height="4.707"/>
<rect x="45.296" y="44.12" fill="#65AD90" width="3.529" height="4.706"/>
<rect x="64.118" y="44.12" fill="#65AD90" width="3.529" height="4.706"/>
<path fill="none" stroke="#335C5F" stroke-width="1.5" stroke-linecap="round" stroke-linejoin="round" stroke-miterlimit="10" d="
	M54.12,84.119c0,1.621-1.319,2.94-2.94,2.94c-1.625,0-2.941-1.319-2.941-2.94c0-1.624,1.316-2.943,2.941-2.943
	C52.801,81.176,54.12,82.495,54.12,84.119z"/>
<rect x="60.589" y="10" fill="#70929F" stroke="#335C5F" stroke-width="1.5" stroke-linecap="round" stroke-linejoin="round" stroke-miterlimit="10" width="7.059" height="2.353"/>
<rect x="25.294" y="24.119" fill="#70929F" stroke="#335C5F" stroke-width="1.5" stroke-linecap="round" stroke-linejoin="round" stroke-miterlimit="10" width="2.354" height="7.059"/>
<rect x="25.294" y="34.707" fill="#70929F" stroke="#335C5F" stroke-width="1.5" stroke-linecap="round" stroke-linejoin="round" stroke-miterlimit="10" width="2.354" height="7.059"/>
<path fill="none" stroke="#335C5F" stroke-width="1.5" stroke-linecap="round" stroke-linejoin="round" stroke-miterlimit="10" d="
	M34.706,12.353h32.941c3.897,0,7.059,3.159,7.059,7.059v0.002v63.528c0,3.898-3.161,7.059-7.059,7.059H34.706
	c-3.897,0-7.059-3.16-7.059-7.059V19.414v-0.002C27.647,15.514,30.806,12.353,34.706,12.353L34.706,12.353z"/>
<rect x="31.176" y="21.767" fill="none" stroke="#335C5F" stroke-width="1.5" stroke-linecap="round" stroke-linejoin="round" stroke-miterlimit="10" width="40.003" height="56.469"/>
<rect x="34.706" y="53.532" fill="none" stroke="#335C5F" stroke-width="1.5" stroke-linecap="round" stroke-linejoin="round" stroke-miterlimit="10" width="32.941" height="21.176"/>
<rect x="34.706" y="25.296" fill="none" stroke="#335C5F" stroke-width="1.5" stroke-linecap="round" stroke-linejoin="round" stroke-miterlimit="10" width="32.941" height="4.706"/>
<rect x="34.706" y="34.707" fill="none" stroke="#335C5F" stroke-width="1.5" stroke-linecap="round" stroke-linejoin="round" stroke-miterlimit="10" width="32.941" height="4.707"/>
<rect x="34.706" y="44.12" fill="none" stroke="#335C5F" stroke-width="1.5" stroke-linecap="round" stroke-linejoin="round" stroke-miterlimit="10" width="14.119" height="4.706"/>
<rect x="53.53" y="44.12" fill="none" stroke="#335C5F" stroke-width="1.5" stroke-linecap="round" stroke-linejoin="round" stroke-miterlimit="10" width="14.117" height="4.706"/>
</svg>
