<?xml version="1.0" encoding="utf-8"?>
<!-- Generator: Adobe Illustrator 16.0.0, SVG Export Plug-In . SVG Version: 6.00 Build 0)  -->
<!DOCTYPE svg PUBLIC "-//W3C//DTD SVG 1.0//EN" "http://www.w3.org/TR/2001/REC-SVG-20010904/DTD/svg10.dtd">
<svg version="1.0" id="Layer_1" xmlns="http://www.w3.org/2000/svg" xmlns:xlink="http://www.w3.org/1999/xlink" x="0px" y="0px"
	 width="100px" height="100px" viewBox="0 0 100 100" enable-background="new 0 0 100 100" xml:space="preserve">
<path fill="#FADF7E" stroke="#335C5F" stroke-width="1.5" stroke-linecap="round" stroke-linejoin="round" stroke-miterlimit="10" d="
	M60.118,22.615c2.415,0,4.834-0.923,6.677-2.765c1.709-1.713,4.067-2.767,6.68-2.767l0,0l0,0c5.216,0,9.442,4.227,9.442,9.443v0.004
	c0,5.212-4.227,9.444-9.442,9.444l0,0l0,0c-2.612,0-4.971-1.058-6.68-2.767c-1.843-1.844-4.262-2.767-6.677-2.767V22.615z"/>
<path fill="#D8C26F" d="M73.475,17.083c-0.868,0-1.704,0.126-2.502,0.345c4.002,1.096,6.945,4.748,6.945,9.098v0.004
	c0,4.347-2.943,8-6.945,9.098c0.798,0.219,1.634,0.346,2.502,0.346c5.216,0,9.442-4.232,9.442-9.444v-0.004
	C82.917,21.31,78.69,17.083,73.475,17.083z"/>
<rect x="10.004" y="52.352" fill="#E9EAEF" stroke="#335C5F" stroke-width="1.5" stroke-linecap="round" stroke-linejoin="round" stroke-miterlimit="10" width="79.996" height="37.648"/>
<rect x="86.25" y="52.352" fill="#CACCD1" width="3.75" height="37.648"/>
<rect x="54.71" y="61.767" fill="#FADF7E" stroke="#335C5F" stroke-width="1.5" stroke-linecap="round" stroke-linejoin="round" stroke-miterlimit="10" width="11.762" height="4.703"/>
<rect x="12.354" y="68.823" fill="#FADF7E" stroke="#335C5F" stroke-width="1.5" stroke-linecap="round" stroke-linejoin="round" stroke-miterlimit="10" width="11.764" height="4.707"/>
<rect x="12.354" y="75.882" fill="#FADF7E" stroke="#335C5F" stroke-width="1.5" stroke-linecap="round" stroke-linejoin="round" stroke-miterlimit="10" width="11.764" height="4.705"/>
<polygon fill="#FADF7E" stroke="#335C5F" stroke-width="1.5" stroke-linecap="round" stroke-linejoin="round" stroke-miterlimit="10" points="
	61.766,68.823 61.766,75.882 54.71,75.882 54.71,80.587 66.472,80.587 66.472,68.823 "/>
<rect x="26.47" y="82.94" fill="#FADF7E" stroke="#335C5F" stroke-width="1.5" stroke-linecap="round" stroke-linejoin="round" stroke-miterlimit="10" width="32.942" height="4.708"/>
<polygon fill="#E9EAEF" stroke="#335C5F" stroke-width="1.5" stroke-linecap="round" stroke-linejoin="round" stroke-miterlimit="10" points="
	60.118,22.615 52.56,22.615 50.538,23.963 50.538,29.089 52.56,30.44 60.118,30.44 "/>
<path fill="none" stroke="#335C5F" stroke-width="1.5" stroke-linecap="round" stroke-linejoin="round" stroke-miterlimit="10" d="
	M54.451,22.615L52.56,30.44L54.451,22.615z"/>
<path fill="none" stroke="#335C5F" stroke-width="1.5" stroke-linecap="round" stroke-linejoin="round" stroke-miterlimit="10" d="
	M57.993,22.615l-1.892,7.825L57.993,22.615z"/>
<path fill="#E9EAEF" stroke="#335C5F" stroke-width="1.5" stroke-linecap="round" stroke-linejoin="round" stroke-miterlimit="10" d="
	M65.514,27.876c0.744,0,1.351-0.603,1.351-1.351c0-0.744-0.606-1.347-1.351-1.347l0,0h-5.396v2.697H65.514L65.514,27.876z"/>
<path fill="none" stroke="#335C5F" stroke-width="1.5" stroke-linecap="round" stroke-linejoin="round" stroke-miterlimit="10" d="
	M66.313,25.448l7.162-2.97c0,1.492,1.205,2.699,2.697,2.702c-0.744,0.744-0.744,1.95,0,2.697c-1.492,0-2.697,1.206-2.697,2.698
	l-7.162-2.967l7.162,2.967c0-1.492,1.205-2.698,2.697-2.698c-0.744-0.747-0.744-1.953,0-2.697c-1.492-0.003-2.697-1.209-2.697-2.702
	L66.313,25.448z"/>
<path fill="none" stroke="#335C5F" stroke-width="1.5" stroke-linecap="round" stroke-linejoin="round" stroke-miterlimit="10" d="
	M90,26.526h-3.541H90z"/>
<path fill="none" stroke="#335C5F" stroke-width="1.5" stroke-linecap="round" stroke-linejoin="round" stroke-miterlimit="10" d="
	M73.475,10v3.541V10z"/>
<path fill="none" stroke="#335C5F" stroke-width="1.5" stroke-linecap="round" stroke-linejoin="round" stroke-miterlimit="10" d="
	M73.471,43.057v-3.542V43.057z"/>
<path fill="none" stroke="#335C5F" stroke-width="1.5" stroke-linecap="round" stroke-linejoin="round" stroke-miterlimit="10" d="
	M85.156,38.213l-2.501-2.505L85.156,38.213z"/>
<path fill="none" stroke="#335C5F" stroke-width="1.5" stroke-linecap="round" stroke-linejoin="round" stroke-miterlimit="10" d="
	M85.16,14.84l-2.505,2.505L85.16,14.84z"/>
<path fill="none" stroke="#335C5F" stroke-width="1.5" stroke-linecap="round" stroke-linejoin="round" stroke-miterlimit="10" d="
	M61.789,14.84l2.505,2.505L61.789,14.84z"/>
<path fill="none" stroke="#335C5F" stroke-width="1.5" stroke-linecap="round" stroke-linejoin="round" stroke-miterlimit="10" d="
	M61.789,38.213l2.505-2.505L61.789,38.213z"/>
<path fill="none" stroke="#335C5F" stroke-width="1.5" stroke-linecap="round" stroke-linejoin="round" stroke-miterlimit="10" d="
	M88.739,20.204l-6.542,2.708L88.739,20.204z"/>
<path fill="none" stroke="#335C5F" stroke-width="1.5" stroke-linecap="round" stroke-linejoin="round" stroke-miterlimit="10" d="
	M79.796,41.799l-2.708-6.546L79.796,41.799z"/>
<path fill="none" stroke="#335C5F" stroke-width="1.5" stroke-linecap="round" stroke-linejoin="round" stroke-miterlimit="10" d="
	M67.15,11.257l2.711,6.546L67.15,11.257z"/>
<path fill="none" stroke="#335C5F" stroke-width="1.5" stroke-linecap="round" stroke-linejoin="round" stroke-miterlimit="10" d="
	M67.15,41.799l2.711-6.546L67.15,41.799z"/>
<path fill="none" stroke="#335C5F" stroke-width="1.5" stroke-linecap="round" stroke-linejoin="round" stroke-miterlimit="10" d="
	M79.796,11.257l-2.708,6.546L79.796,11.257z"/>
<path fill="none" stroke="#335C5F" stroke-width="1.5" stroke-linecap="round" stroke-linejoin="round" stroke-miterlimit="10" d="
	M88.739,32.852L82.2,30.144L88.739,32.852z"/>
<path fill="none" stroke="#335C5F" stroke-width="1.5" stroke-linecap="round" stroke-linejoin="round" stroke-miterlimit="10" d="
	M50.538,26.53H17.5c-4.141,0-7.5,3.355-7.5,7.5c0,4.141,3.359,7.5,7.5,7.5l25.004-0.002c4.141,0,7.496,3.357,7.496,7.5v3.321v-3.321
	c0-4.143-3.355-7.5-7.496-7.5L17.5,41.53c-4.141,0-7.5-3.359-7.5-7.5c0-4.145,3.359-7.5,7.5-7.5H50.538z"/>
<rect x="12.354" y="54.707" fill="#D7DAE7" stroke="#335C5F" stroke-width="1.5" stroke-linecap="round" stroke-linejoin="round" stroke-miterlimit="10" width="4.706" height="4.704"/>
<rect x="19.412" y="54.707" fill="#D7DAE7" stroke="#335C5F" stroke-width="1.5" stroke-linecap="round" stroke-linejoin="round" stroke-miterlimit="10" width="4.706" height="4.704"/>
<rect x="26.47" y="54.707" fill="#D7DAE7" stroke="#335C5F" stroke-width="1.5" stroke-linecap="round" stroke-linejoin="round" stroke-miterlimit="10" width="4.706" height="4.704"/>
<rect x="33.53" y="54.707" fill="#D7DAE7" stroke="#335C5F" stroke-width="1.5" stroke-linecap="round" stroke-linejoin="round" stroke-miterlimit="10" width="4.706" height="4.704"/>
<rect x="40.588" y="54.707" fill="#D7DAE7" stroke="#335C5F" stroke-width="1.5" stroke-linecap="round" stroke-linejoin="round" stroke-miterlimit="10" width="4.706" height="4.704"/>
<rect x="47.647" y="54.707" fill="#D7DAE7" stroke="#335C5F" stroke-width="1.5" stroke-linecap="round" stroke-linejoin="round" stroke-miterlimit="10" width="4.706" height="4.704"/>
<rect x="54.706" y="54.707" fill="#D7DAE7" stroke="#335C5F" stroke-width="1.5" stroke-linecap="round" stroke-linejoin="round" stroke-miterlimit="10" width="4.706" height="4.704"/>
<rect x="61.766" y="54.707" fill="#D7DAE7" stroke="#335C5F" stroke-width="1.5" stroke-linecap="round" stroke-linejoin="round" stroke-miterlimit="10" width="4.706" height="4.704"/>
<rect x="68.824" y="54.707" fill="#D7DAE7" stroke="#335C5F" stroke-width="1.5" stroke-linecap="round" stroke-linejoin="round" stroke-miterlimit="10" width="4.705" height="4.704"/>
<rect x="75.882" y="54.707" fill="#D7DAE7" stroke="#335C5F" stroke-width="1.5" stroke-linecap="round" stroke-linejoin="round" stroke-miterlimit="10" width="4.706" height="4.704"/>
<rect x="82.941" y="54.707" fill="#D7DAE7" stroke="#335C5F" stroke-width="1.5" stroke-linecap="round" stroke-linejoin="round" stroke-miterlimit="10" width="4.706" height="4.704"/>
<rect x="12.354" y="61.767" fill="#D7DAE7" stroke="#335C5F" stroke-width="1.5" stroke-linecap="round" stroke-linejoin="round" stroke-miterlimit="10" width="4.706" height="4.703"/>
<rect x="19.412" y="61.767" fill="#D7DAE7" stroke="#335C5F" stroke-width="1.5" stroke-linecap="round" stroke-linejoin="round" stroke-miterlimit="10" width="4.706" height="4.703"/>
<rect x="26.47" y="61.767" fill="#D7DAE7" stroke="#335C5F" stroke-width="1.5" stroke-linecap="round" stroke-linejoin="round" stroke-miterlimit="10" width="4.706" height="4.703"/>
<rect x="33.53" y="61.767" fill="#D7DAE7" stroke="#335C5F" stroke-width="1.5" stroke-linecap="round" stroke-linejoin="round" stroke-miterlimit="10" width="4.706" height="4.703"/>
<rect x="40.588" y="61.767" fill="#D7DAE7" stroke="#335C5F" stroke-width="1.5" stroke-linecap="round" stroke-linejoin="round" stroke-miterlimit="10" width="4.706" height="4.703"/>
<rect x="47.647" y="61.767" fill="#D7DAE7" stroke="#335C5F" stroke-width="1.5" stroke-linecap="round" stroke-linejoin="round" stroke-miterlimit="10" width="4.706" height="4.703"/>
<rect x="68.824" y="61.767" fill="#D7DAE7" stroke="#335C5F" stroke-width="1.5" stroke-linecap="round" stroke-linejoin="round" stroke-miterlimit="10" width="4.705" height="4.703"/>
<rect x="75.882" y="61.767" fill="#D7DAE7" stroke="#335C5F" stroke-width="1.5" stroke-linecap="round" stroke-linejoin="round" stroke-miterlimit="10" width="4.706" height="4.703"/>
<rect x="82.941" y="61.767" fill="#D7DAE7" stroke="#335C5F" stroke-width="1.5" stroke-linecap="round" stroke-linejoin="round" stroke-miterlimit="10" width="4.706" height="4.703"/>
<rect x="26.47" y="68.823" fill="#D7DAE7" stroke="#335C5F" stroke-width="1.5" stroke-linecap="round" stroke-linejoin="round" stroke-miterlimit="10" width="4.706" height="4.707"/>
<rect x="33.53" y="68.823" fill="#D7DAE7" stroke="#335C5F" stroke-width="1.5" stroke-linecap="round" stroke-linejoin="round" stroke-miterlimit="10" width="4.706" height="4.707"/>
<rect x="40.588" y="68.823" fill="#D7DAE7" stroke="#335C5F" stroke-width="1.5" stroke-linecap="round" stroke-linejoin="round" stroke-miterlimit="10" width="4.706" height="4.707"/>
<rect x="47.647" y="68.823" fill="#D7DAE7" stroke="#335C5F" stroke-width="1.5" stroke-linecap="round" stroke-linejoin="round" stroke-miterlimit="10" width="4.706" height="4.707"/>
<rect x="54.706" y="68.823" fill="#D7DAE7" stroke="#335C5F" stroke-width="1.5" stroke-linecap="round" stroke-linejoin="round" stroke-miterlimit="10" width="4.706" height="4.707"/>
<rect x="68.824" y="68.823" fill="#D7DAE7" stroke="#335C5F" stroke-width="1.5" stroke-linecap="round" stroke-linejoin="round" stroke-miterlimit="10" width="4.705" height="4.707"/>
<rect x="75.882" y="68.823" fill="#D7DAE7" stroke="#335C5F" stroke-width="1.5" stroke-linecap="round" stroke-linejoin="round" stroke-miterlimit="10" width="4.706" height="4.707"/>
<rect x="82.941" y="68.823" fill="#D7DAE7" stroke="#335C5F" stroke-width="1.5" stroke-linecap="round" stroke-linejoin="round" stroke-miterlimit="10" width="4.706" height="4.707"/>
<rect x="26.47" y="75.882" fill="#D7DAE7" stroke="#335C5F" stroke-width="1.5" stroke-linecap="round" stroke-linejoin="round" stroke-miterlimit="10" width="4.706" height="4.705"/>
<rect x="33.53" y="75.882" fill="#D7DAE7" stroke="#335C5F" stroke-width="1.5" stroke-linecap="round" stroke-linejoin="round" stroke-miterlimit="10" width="4.706" height="4.705"/>
<rect x="40.588" y="75.882" fill="#D7DAE7" stroke="#335C5F" stroke-width="1.5" stroke-linecap="round" stroke-linejoin="round" stroke-miterlimit="10" width="4.706" height="4.705"/>
<rect x="47.647" y="75.882" fill="#D7DAE7" stroke="#335C5F" stroke-width="1.5" stroke-linecap="round" stroke-linejoin="round" stroke-miterlimit="10" width="4.706" height="4.705"/>
<rect x="68.824" y="75.882" fill="#D7DAE7" stroke="#335C5F" stroke-width="1.5" stroke-linecap="round" stroke-linejoin="round" stroke-miterlimit="10" width="4.705" height="4.705"/>
<rect x="75.882" y="75.882" fill="#D7DAE7" stroke="#335C5F" stroke-width="1.5" stroke-linecap="round" stroke-linejoin="round" stroke-miterlimit="10" width="4.706" height="4.705"/>
<rect x="82.941" y="75.882" fill="#D7DAE7" stroke="#335C5F" stroke-width="1.5" stroke-linecap="round" stroke-linejoin="round" stroke-miterlimit="10" width="4.706" height="4.705"/>
<rect x="12.354" y="82.94" fill="#D7DAE7" stroke="#335C5F" stroke-width="1.5" stroke-linecap="round" stroke-linejoin="round" stroke-miterlimit="10" width="4.706" height="4.708"/>
<rect x="19.412" y="82.94" fill="#D7DAE7" stroke="#335C5F" stroke-width="1.5" stroke-linecap="round" stroke-linejoin="round" stroke-miterlimit="10" width="4.706" height="4.708"/>
<rect x="61.766" y="82.94" fill="#D7DAE7" stroke="#335C5F" stroke-width="1.5" stroke-linecap="round" stroke-linejoin="round" stroke-miterlimit="10" width="4.706" height="4.708"/>
<rect x="68.824" y="82.94" fill="#D7DAE7" stroke="#335C5F" stroke-width="1.5" stroke-linecap="round" stroke-linejoin="round" stroke-miterlimit="10" width="4.705" height="4.708"/>
<rect x="75.882" y="82.94" fill="#D7DAE7" stroke="#335C5F" stroke-width="1.5" stroke-linecap="round" stroke-linejoin="round" stroke-miterlimit="10" width="4.706" height="4.708"/>
<rect x="82.941" y="82.94" fill="#D7DAE7" stroke="#335C5F" stroke-width="1.5" stroke-linecap="round" stroke-linejoin="round" stroke-miterlimit="10" width="4.706" height="4.708"/>
<path fill="none" stroke="#335C5F" stroke-width="1.5" stroke-linecap="round" stroke-linejoin="round" stroke-miterlimit="10" d="
	M60.118,22.615c2.415,0,4.834-0.923,6.677-2.765c1.709-1.713,4.067-2.767,6.68-2.767l0,0l0,0c5.216,0,9.442,4.227,9.442,9.443v0.004
	c0,5.212-4.227,9.444-9.442,9.444l0,0l0,0c-2.612,0-4.971-1.058-6.68-2.767c-1.843-1.844-4.262-2.767-6.677-2.767V22.615z"/>
<rect x="15.184" y="54.707" fill="#BBBECA" width="1.876" height="4.704"/>
<rect x="22.242" y="54.707" fill="#BBBECA" width="1.876" height="4.704"/>
<rect x="29.301" y="54.707" fill="#BBBECA" width="1.875" height="4.704"/>
<rect x="36.36" y="54.707" fill="#BBBECA" width="1.876" height="4.704"/>
<rect x="43.418" y="54.707" fill="#BBBECA" width="1.876" height="4.704"/>
<rect x="50.478" y="54.707" fill="#BBBECA" width="1.876" height="4.704"/>
<rect x="15.184" y="61.767" fill="#BBBECA" width="1.876" height="4.703"/>
<rect x="22.242" y="61.767" fill="#BBBECA" width="1.876" height="4.703"/>
<rect x="15.184" y="82.942" fill="#BBBECA" width="1.876" height="4.706"/>
<rect x="22.242" y="82.942" fill="#BBBECA" width="1.876" height="4.706"/>
<rect x="29.301" y="61.767" fill="#BBBECA" width="1.875" height="4.703"/>
<rect x="36.36" y="61.767" fill="#BBBECA" width="1.876" height="4.703"/>
<rect x="43.418" y="61.767" fill="#BBBECA" width="1.876" height="4.703"/>
<rect x="50.478" y="61.767" fill="#BBBECA" width="1.876" height="4.703"/>
<rect x="29.301" y="68.825" fill="#BBBECA" width="1.875" height="4.705"/>
<rect x="36.36" y="68.825" fill="#BBBECA" width="1.876" height="4.705"/>
<rect x="43.418" y="68.825" fill="#BBBECA" width="1.876" height="4.705"/>
<rect x="50.478" y="68.825" fill="#BBBECA" width="1.876" height="4.705"/>
<rect x="29.301" y="75.882" fill="#BBBECA" width="1.875" height="4.705"/>
<rect x="36.36" y="75.882" fill="#BBBECA" width="1.876" height="4.705"/>
<rect x="43.418" y="75.882" fill="#BBBECA" width="1.876" height="4.705"/>
<rect x="50.478" y="75.882" fill="#BBBECA" width="1.876" height="4.705"/>
<rect x="57.536" y="54.707" fill="#BBBECA" width="1.876" height="4.704"/>
<rect x="57.536" y="68.825" fill="#BBBECA" width="1.876" height="4.705"/>
<rect x="64.596" y="54.707" fill="#BBBECA" width="1.876" height="4.704"/>
<rect x="71.653" y="54.707" fill="#BBBECA" width="1.876" height="4.704"/>
<rect x="78.713" y="54.707" fill="#BBBECA" width="1.875" height="4.704"/>
<rect x="85.771" y="54.707" fill="#BBBECA" width="1.876" height="4.704"/>
<rect x="64.596" y="82.942" fill="#BBBECA" width="1.876" height="4.706"/>
<rect x="71.653" y="82.942" fill="#BBBECA" width="1.876" height="4.706"/>
<rect x="78.713" y="82.942" fill="#BBBECA" width="1.875" height="4.706"/>
<rect x="85.771" y="82.942" fill="#BBBECA" width="1.876" height="4.706"/>
<rect x="71.653" y="61.767" fill="#BBBECA" width="1.876" height="4.703"/>
<rect x="78.713" y="61.767" fill="#BBBECA" width="1.875" height="4.703"/>
<rect x="85.771" y="61.767" fill="#BBBECA" width="1.876" height="4.703"/>
<rect x="71.653" y="68.825" fill="#BBBECA" width="1.876" height="4.705"/>
<rect x="78.713" y="68.825" fill="#BBBECA" width="1.875" height="4.705"/>
<rect x="85.771" y="68.825" fill="#BBBECA" width="1.876" height="4.705"/>
<rect x="71.653" y="75.882" fill="#BBBECA" width="1.876" height="4.705"/>
<rect x="78.713" y="75.882" fill="#BBBECA" width="1.875" height="4.705"/>
<rect x="85.771" y="75.882" fill="#BBBECA" width="1.876" height="4.705"/>
<rect x="22.242" y="68.823" fill="#D8C26F" width="1.876" height="4.707"/>
<rect x="22.242" y="75.88" fill="#D8C26F" width="1.876" height="4.707"/>
<rect x="57.536" y="82.94" fill="#D8C26F" width="1.876" height="4.708"/>
<rect x="64.596" y="61.767" fill="#D8C26F" width="1.876" height="4.705"/>
<rect x="64.596" y="68.823" fill="#D8C26F" width="1.876" height="11.764"/>
<rect x="10.004" y="52.352" fill="none" stroke="#335C5F" stroke-width="1.5" stroke-linecap="round" stroke-linejoin="round" stroke-miterlimit="10" width="79.996" height="37.648"/>
<rect x="54.71" y="61.767" fill="none" stroke="#335C5F" stroke-width="1.5" stroke-linecap="round" stroke-linejoin="round" stroke-miterlimit="10" width="11.762" height="4.703"/>
<rect x="12.354" y="68.823" fill="none" stroke="#335C5F" stroke-width="1.5" stroke-linecap="round" stroke-linejoin="round" stroke-miterlimit="10" width="11.764" height="4.707"/>
<rect x="12.354" y="75.882" fill="none" stroke="#335C5F" stroke-width="1.5" stroke-linecap="round" stroke-linejoin="round" stroke-miterlimit="10" width="11.764" height="4.705"/>
<polygon fill="none" stroke="#335C5F" stroke-width="1.5" stroke-linecap="round" stroke-linejoin="round" stroke-miterlimit="10" points="
	61.766,68.823 61.766,75.882 54.71,75.882 54.71,80.587 66.472,80.587 66.472,68.823 "/>
<rect x="26.47" y="82.94" fill="none" stroke="#335C5F" stroke-width="1.5" stroke-linecap="round" stroke-linejoin="round" stroke-miterlimit="10" width="32.942" height="4.708"/>
<rect x="12.354" y="54.707" fill="none" stroke="#335C5F" stroke-width="1.5" stroke-linecap="round" stroke-linejoin="round" stroke-miterlimit="10" width="4.706" height="4.704"/>
<rect x="19.412" y="54.707" fill="none" stroke="#335C5F" stroke-width="1.5" stroke-linecap="round" stroke-linejoin="round" stroke-miterlimit="10" width="4.706" height="4.704"/>
<rect x="26.47" y="54.707" fill="none" stroke="#335C5F" stroke-width="1.5" stroke-linecap="round" stroke-linejoin="round" stroke-miterlimit="10" width="4.706" height="4.704"/>
<rect x="33.53" y="54.707" fill="none" stroke="#335C5F" stroke-width="1.5" stroke-linecap="round" stroke-linejoin="round" stroke-miterlimit="10" width="4.706" height="4.704"/>
<rect x="40.588" y="54.707" fill="none" stroke="#335C5F" stroke-width="1.5" stroke-linecap="round" stroke-linejoin="round" stroke-miterlimit="10" width="4.706" height="4.704"/>
<rect x="47.647" y="54.707" fill="none" stroke="#335C5F" stroke-width="1.5" stroke-linecap="round" stroke-linejoin="round" stroke-miterlimit="10" width="4.706" height="4.704"/>
<rect x="54.706" y="54.707" fill="none" stroke="#335C5F" stroke-width="1.5" stroke-linecap="round" stroke-linejoin="round" stroke-miterlimit="10" width="4.706" height="4.704"/>
<rect x="61.766" y="54.707" fill="none" stroke="#335C5F" stroke-width="1.5" stroke-linecap="round" stroke-linejoin="round" stroke-miterlimit="10" width="4.706" height="4.704"/>
<rect x="68.824" y="54.707" fill="none" stroke="#335C5F" stroke-width="1.5" stroke-linecap="round" stroke-linejoin="round" stroke-miterlimit="10" width="4.705" height="4.704"/>
<rect x="75.882" y="54.707" fill="none" stroke="#335C5F" stroke-width="1.5" stroke-linecap="round" stroke-linejoin="round" stroke-miterlimit="10" width="4.706" height="4.704"/>
<rect x="82.941" y="54.707" fill="none" stroke="#335C5F" stroke-width="1.5" stroke-linecap="round" stroke-linejoin="round" stroke-miterlimit="10" width="4.706" height="4.704"/>
<rect x="12.354" y="61.767" fill="none" stroke="#335C5F" stroke-width="1.5" stroke-linecap="round" stroke-linejoin="round" stroke-miterlimit="10" width="4.706" height="4.703"/>
<rect x="19.412" y="61.767" fill="none" stroke="#335C5F" stroke-width="1.5" stroke-linecap="round" stroke-linejoin="round" stroke-miterlimit="10" width="4.706" height="4.703"/>
<rect x="26.47" y="61.767" fill="none" stroke="#335C5F" stroke-width="1.5" stroke-linecap="round" stroke-linejoin="round" stroke-miterlimit="10" width="4.706" height="4.703"/>
<rect x="33.53" y="61.767" fill="none" stroke="#335C5F" stroke-width="1.5" stroke-linecap="round" stroke-linejoin="round" stroke-miterlimit="10" width="4.706" height="4.703"/>
<rect x="40.588" y="61.767" fill="none" stroke="#335C5F" stroke-width="1.5" stroke-linecap="round" stroke-linejoin="round" stroke-miterlimit="10" width="4.706" height="4.703"/>
<rect x="47.647" y="61.767" fill="none" stroke="#335C5F" stroke-width="1.5" stroke-linecap="round" stroke-linejoin="round" stroke-miterlimit="10" width="4.706" height="4.703"/>
<rect x="68.824" y="61.767" fill="none" stroke="#335C5F" stroke-width="1.5" stroke-linecap="round" stroke-linejoin="round" stroke-miterlimit="10" width="4.705" height="4.703"/>
<rect x="75.882" y="61.767" fill="none" stroke="#335C5F" stroke-width="1.5" stroke-linecap="round" stroke-linejoin="round" stroke-miterlimit="10" width="4.706" height="4.703"/>
<rect x="82.941" y="61.767" fill="none" stroke="#335C5F" stroke-width="1.5" stroke-linecap="round" stroke-linejoin="round" stroke-miterlimit="10" width="4.706" height="4.703"/>
<rect x="26.47" y="68.823" fill="none" stroke="#335C5F" stroke-width="1.5" stroke-linecap="round" stroke-linejoin="round" stroke-miterlimit="10" width="4.706" height="4.707"/>
<rect x="33.53" y="68.823" fill="none" stroke="#335C5F" stroke-width="1.5" stroke-linecap="round" stroke-linejoin="round" stroke-miterlimit="10" width="4.706" height="4.707"/>
<rect x="40.588" y="68.823" fill="none" stroke="#335C5F" stroke-width="1.5" stroke-linecap="round" stroke-linejoin="round" stroke-miterlimit="10" width="4.706" height="4.707"/>
<rect x="47.647" y="68.823" fill="none" stroke="#335C5F" stroke-width="1.5" stroke-linecap="round" stroke-linejoin="round" stroke-miterlimit="10" width="4.706" height="4.707"/>
<rect x="54.706" y="68.823" fill="none" stroke="#335C5F" stroke-width="1.5" stroke-linecap="round" stroke-linejoin="round" stroke-miterlimit="10" width="4.706" height="4.707"/>
<rect x="68.824" y="68.823" fill="none" stroke="#335C5F" stroke-width="1.5" stroke-linecap="round" stroke-linejoin="round" stroke-miterlimit="10" width="4.705" height="4.707"/>
<rect x="75.882" y="68.823" fill="none" stroke="#335C5F" stroke-width="1.5" stroke-linecap="round" stroke-linejoin="round" stroke-miterlimit="10" width="4.706" height="4.707"/>
<rect x="82.941" y="68.823" fill="none" stroke="#335C5F" stroke-width="1.5" stroke-linecap="round" stroke-linejoin="round" stroke-miterlimit="10" width="4.706" height="4.707"/>
<rect x="26.47" y="75.882" fill="none" stroke="#335C5F" stroke-width="1.5" stroke-linecap="round" stroke-linejoin="round" stroke-miterlimit="10" width="4.706" height="4.705"/>
<rect x="33.53" y="75.882" fill="none" stroke="#335C5F" stroke-width="1.5" stroke-linecap="round" stroke-linejoin="round" stroke-miterlimit="10" width="4.706" height="4.705"/>
<rect x="40.588" y="75.882" fill="none" stroke="#335C5F" stroke-width="1.5" stroke-linecap="round" stroke-linejoin="round" stroke-miterlimit="10" width="4.706" height="4.705"/>
<rect x="47.647" y="75.882" fill="none" stroke="#335C5F" stroke-width="1.5" stroke-linecap="round" stroke-linejoin="round" stroke-miterlimit="10" width="4.706" height="4.705"/>
<rect x="68.824" y="75.882" fill="none" stroke="#335C5F" stroke-width="1.5" stroke-linecap="round" stroke-linejoin="round" stroke-miterlimit="10" width="4.705" height="4.705"/>
<rect x="75.882" y="75.882" fill="none" stroke="#335C5F" stroke-width="1.5" stroke-linecap="round" stroke-linejoin="round" stroke-miterlimit="10" width="4.706" height="4.705"/>
<rect x="82.941" y="75.882" fill="none" stroke="#335C5F" stroke-width="1.5" stroke-linecap="round" stroke-linejoin="round" stroke-miterlimit="10" width="4.706" height="4.705"/>
<rect x="12.354" y="82.94" fill="none" stroke="#335C5F" stroke-width="1.5" stroke-linecap="round" stroke-linejoin="round" stroke-miterlimit="10" width="4.706" height="4.708"/>
<rect x="19.412" y="82.94" fill="none" stroke="#335C5F" stroke-width="1.5" stroke-linecap="round" stroke-linejoin="round" stroke-miterlimit="10" width="4.706" height="4.708"/>
<rect x="61.766" y="82.94" fill="none" stroke="#335C5F" stroke-width="1.5" stroke-linecap="round" stroke-linejoin="round" stroke-miterlimit="10" width="4.706" height="4.708"/>
<rect x="68.824" y="82.94" fill="none" stroke="#335C5F" stroke-width="1.5" stroke-linecap="round" stroke-linejoin="round" stroke-miterlimit="10" width="4.705" height="4.708"/>
<rect x="75.882" y="82.94" fill="none" stroke="#335C5F" stroke-width="1.5" stroke-linecap="round" stroke-linejoin="round" stroke-miterlimit="10" width="4.706" height="4.708"/>
<rect x="82.941" y="82.94" fill="none" stroke="#335C5F" stroke-width="1.5" stroke-linecap="round" stroke-linejoin="round" stroke-miterlimit="10" width="4.706" height="4.708"/>
</svg>
