<?xml version="1.0" encoding="utf-8"?>
<!-- Generator: Adobe Illustrator 19.2.0, SVG Export Plug-In . SVG Version: 6.00 Build 0)  -->
<svg version="1.1" id="Layer_1" xmlns="http://www.w3.org/2000/svg" xmlns:xlink="http://www.w3.org/1999/xlink" x="0px" y="0px"
	 viewBox="0 0 500 500" style="enable-background:new 0 0 500 500;" xml:space="preserve">
<style type="text/css">
	.st0{fill:#ECF4F7;}
	.st1{fill:#1C1D21;}
	.st2{fill:#f7f7f7;}
	.st3{fill:#AAB1BA;}
	.st4{fill:none;stroke:#1C1D21;stroke-width:10;stroke-linecap:round;stroke-linejoin:round;stroke-miterlimit:10;}
	.st5{fill:#FDDF7F;}
	.st6{fill:#FFFFFF;}
</style>
<g>
	<g>
		<g>
			<path class="st2" d="M193.4,346.5c-40.9,0-79.4-15.9-108.4-44.9c-28.9-28.9-44.9-67.4-44.9-108.4c0-40.9,15.9-79.4,44.9-108.4
				C114,56,152.5,40.1,193.4,40.1S272.8,56,301.7,84.9c28.9,28.9,44.9,67.4,44.9,108.4c0,40.9-15.9,79.4-44.9,108.4
				C272.8,330.6,234.3,346.5,193.4,346.5z"/>
		</g>
	</g>
	<g>
		<g>
			<path class="st1" d="M173.1,46.4c-2.5,0-4.6-1.8-5-4.3c-0.4-2.7,1.6-5.2,4.3-5.6c6.9-0.9,13.9-1.4,20.9-1.4c2.8,0,5,2.2,5,5
				c0,2.8-2.2,5-5,5c-6.6,0-13.2,0.4-19.6,1.3C173.5,46.4,173.3,46.4,173.1,46.4z"/>
		</g>
	</g>
	<g>
		<g>
			<path class="st1" d="M47.9,150c-0.5,0-1.1-0.1-1.6-0.3c-2.6-0.9-4-3.7-3.2-6.3c7.8-23.4,20.7-44.3,38.3-62
				c14.8-14.8,32-26.4,51.1-34.3c2.5-1.1,5.5,0.1,6.5,2.7c1.1,2.5-0.1,5.5-2.7,6.5c-17.9,7.4-34,18.2-47.9,32.1
				c-16.6,16.6-28.7,36.1-35.9,58C51.9,148.6,50,150,47.9,150z"/>
		</g>
	</g>
	<g>
		<g>
			<path class="st1" d="M470.3,499.9c-7.6,0-15.2-2.9-21-8.7L338.7,380.6c-16.9-16.9-43.1-21.5-65.1-11.5
				c-35.6,16.2-74.8,21.2-113.5,14.5c-39.6-6.9-75.5-25.7-103.9-54.3C19.8,292.7-0.1,244.3,0,192.9c0.1-51.4,20.3-99.7,56.8-136.2
				c75.3-75.3,197.9-75.3,273.3,0c28.5,28.5,47.1,64.4,53.8,104c6.6,38.7,1.4,77.9-14.9,113.4c-10,21.7-5.2,47.7,12,64.8
				l110.4,110.3c0,0,0,0,0,0c11.6,11.6,11.6,30.4,0,42C485.5,497,477.9,499.9,470.3,499.9z M297.8,353.9c17.7,0,35.1,6.8,48,19.7
				l110.6,110.6c7.7,7.7,20.2,7.7,27.8,0c7.7-7.7,7.7-20.2,0-27.8L373.9,346c-20.1-20.1-25.7-50.7-14-76.1
				c31.9-69.3,17.1-152.2-36.9-206.2c-71.4-71.4-187.7-71.4-259.1,0c-71.2,71.2-71.4,187.2-0.5,258.6
				c53.8,54.2,136.6,69.4,206.1,37.7C278.5,355.9,288.2,353.9,297.8,353.9z"/>
		</g>
	</g>
	<g>
		<g>
			<path class="st1" d="M426.4,466.2c-1.3,0-2.6-0.5-3.5-1.5c-2-2-2-5.1,0-7.1l18.6-18.6c2-2,5.1-2,7.1,0c2,2,2,5.1,0,7.1
				l-18.6,18.6C429,465.7,427.7,466.2,426.4,466.2z"/>
		</g>
	</g>
	<g>
		<g>
			<g>
				<path class="st1" d="M150.9,242.3c-0.5,0-1-0.1-1.5-0.2L92.4,224c-2.6-0.8-4.1-3.6-3.3-6.3c0.8-2.6,3.6-4.1,6.3-3.3l55,17.4
					l97.4-53.2c0.2-0.1,0.4-0.2,0.6-0.3l48.3-18.4c2.6-1,5.5,0.3,6.5,2.9c1,2.6-0.3,5.5-2.9,6.5l-48,18.3l-99,54
					C152.6,242.1,151.8,242.3,150.9,242.3z"/>
			</g>
		</g>
		<g>
			<g>
				<g>
					<circle class="st5" cx="67.9" cy="209.6" r="27.7"/>
				</g>
			</g>
			<g>
				<g>
					<path class="st1" d="M67.9,242.3c-18,0-32.7-14.7-32.7-32.7c0-18,14.7-32.7,32.7-32.7c18,0,32.7,14.7,32.7,32.7
						C100.6,227.6,85.9,242.3,67.9,242.3z M67.9,186.8c-12.5,0-22.7,10.2-22.7,22.7c0,12.5,10.2,22.7,22.7,22.7
						c12.5,0,22.7-10.2,22.7-22.7C90.6,197,80.4,186.8,67.9,186.8z"/>
				</g>
			</g>
		</g>
		<g>
			<g>
				<g>
					<circle class="st0" cx="150.9" cy="237.3" r="27.7"/>
				</g>
			</g>
			<g>
				<g>
					<path class="st1" d="M150.9,270c-18,0-32.7-14.7-32.7-32.7c0-18,14.7-32.7,32.7-32.7c18,0,32.7,14.7,32.7,32.7
						C183.7,255.3,169,270,150.9,270z M150.9,214.6c-12.5,0-22.7,10.2-22.7,22.7c0,12.5,10.2,22.7,22.7,22.7
						c12.5,0,22.7-10.2,22.7-22.7C173.7,224.8,163.5,214.6,150.9,214.6z"/>
				</g>
			</g>
		</g>
		<g>
			<g>
				<g>
					<circle class="st3" cx="234" cy="193.6" r="27.7"/>
				</g>
			</g>
			<g>
				<g>
					<path class="st1" d="M234,226.3c-18,0-32.7-14.7-32.7-32.7c0-18,14.7-32.7,32.7-32.7s32.7,14.7,32.7,32.7
						C266.7,211.6,252,226.3,234,226.3z M234,170.9c-12.5,0-22.7,10.2-22.7,22.7c0,12.5,10.2,22.7,22.7,22.7
						c12.5,0,22.7-10.2,22.7-22.7C256.7,181.1,246.5,170.9,234,170.9z"/>
				</g>
			</g>
		</g>
		<g>
			<g>
				<g>
					<circle class="st6" cx="317" cy="159.4" r="27.7"/>
				</g>
			</g>
			<g>
				<g>
					<path class="st1" d="M317,192.1c-18,0-32.7-14.7-32.7-32.7c0-18,14.7-32.7,32.7-32.7c18,0,32.7,14.7,32.7,32.7
						C349.8,177.4,335.1,192.1,317,192.1z M317,136.6c-12.5,0-22.7,10.2-22.7,22.7c0,12.5,10.2,22.7,22.7,22.7
						c12.5,0,22.7-10.2,22.7-22.7C339.8,146.8,329.6,136.6,317,136.6z"/>
				</g>
			</g>
		</g>
	</g>
</g>
</svg>
