<?xml version="1.0" encoding="utf-8"?>
<!-- Generator: Adobe Illustrator 16.0.0, SVG Export Plug-In . SVG Version: 6.00 Build 0)  -->
<!DOCTYPE svg PUBLIC "-//W3C//DTD SVG 1.0//EN" "http://www.w3.org/TR/2001/REC-SVG-20010904/DTD/svg10.dtd">
<svg version="1.0" id="Layer_1" xmlns="http://www.w3.org/2000/svg" xmlns:xlink="http://www.w3.org/1999/xlink" x="0px" y="0px"
	 width="100px" height="100px" viewBox="0 0 100 100" enable-background="new 0 0 100 100" xml:space="preserve">
<path fill="#E9EAEF" stroke="#335C5F" stroke-width="1.5" stroke-linecap="round" stroke-linejoin="round" stroke-miterlimit="10" d="
	M78.886,30.001h-0.017l-4.962,11.974l-5.027,5.803l0.541-7.662l4.189-10.114H21.114c-2.457,0-4.447,1.988-4.447,4.443v42.221h66.667
	V34.445C83.334,31.989,81.343,30.001,78.886,30.001z"/>
<polygon fill="#46C6F1" stroke="#335C5F" stroke-width="1.5" stroke-linecap="round" stroke-linejoin="round" stroke-miterlimit="10" points="
	73.907,41.975 68.88,47.778 69.421,40.116 71.312,35.556 20.001,35.556 20.001,71.107 79.999,71.107 79.999,35.556 76.568,35.556 
	"/>
<rect x="24.445" y="40" fill="#FADF7E" stroke="#335C5F" stroke-width="1.5" stroke-linecap="round" stroke-linejoin="round" stroke-miterlimit="10" width="7.901" height="2.962"/>
<rect x="36.295" y="40" fill="#FADF7E" stroke="#335C5F" stroke-width="1.5" stroke-linecap="round" stroke-linejoin="round" stroke-miterlimit="10" width="20.245" height="2.962"/>
<rect x="32.346" y="45.925" fill="#FADF7E" stroke="#335C5F" stroke-width="1.5" stroke-linecap="round" stroke-linejoin="round" stroke-miterlimit="10" width="15.803" height="2.963"/>
<rect x="32.346" y="51.852" fill="#FADF7E" stroke="#335C5F" stroke-width="1.5" stroke-linecap="round" stroke-linejoin="round" stroke-miterlimit="10" width="3.95" height="2.961"/>
<rect x="40.249" y="51.852" fill="#FADF7E" stroke="#335C5F" stroke-width="1.5" stroke-linecap="round" stroke-linejoin="round" stroke-miterlimit="10" width="33.083" height="2.961"/>
<rect x="52.099" y="45.925" fill="#FADF7E" stroke="#335C5F" stroke-width="1.5" stroke-linecap="round" stroke-linejoin="round" stroke-miterlimit="10" width="10.125" height="2.961"/>
<rect x="32.346" y="57.776" fill="#FADF7E" stroke="#335C5F" stroke-width="1.5" stroke-linecap="round" stroke-linejoin="round" stroke-miterlimit="10" width="11.85" height="2.963"/>
<rect x="48.149" y="57.776" fill="#FADF7E" stroke="#335C5F" stroke-width="1.5" stroke-linecap="round" stroke-linejoin="round" stroke-miterlimit="10" width="19.751" height="2.963"/>
<rect x="24.445" y="63.703" fill="#FADF7E" stroke="#335C5F" stroke-width="1.5" stroke-linecap="round" stroke-linejoin="round" stroke-miterlimit="10" width="3.951" height="2.963"/>
<rect x="32.346" y="63.703" fill="#FADF7E" stroke="#335C5F" stroke-width="1.5" stroke-linecap="round" stroke-linejoin="round" stroke-miterlimit="10" width="19.753" height="2.963"/>
<rect x="56.047" y="63.703" fill="#FADF7E" stroke="#335C5F" stroke-width="1.5" stroke-linecap="round" stroke-linejoin="round" stroke-miterlimit="10" width="8.397" height="2.963"/>
<rect x="10" y="76.666" fill="#D7DAE7" stroke="#335C5F" stroke-width="1.5" stroke-linecap="round" stroke-linejoin="round" stroke-miterlimit="10" width="80" height="4.443"/>
<rect x="85.556" y="76.666" fill="#BBBECA" width="4.444" height="4.443"/>
<polygon fill="#70929F" stroke="#335C5F" stroke-width="1.5" stroke-linecap="round" stroke-linejoin="round" stroke-miterlimit="10" points="
	52.222,32.222 47.779,32.222 45.555,30.001 54.446,30.001 "/>
<rect x="20.001" y="74.442" fill="#70929F" stroke="#335C5F" stroke-width="1.5" stroke-linecap="round" stroke-linejoin="round" stroke-miterlimit="10" width="4.443" height="2.224"/>
<polygon fill="#70929F" stroke="#335C5F" stroke-width="1.5" stroke-linecap="round" stroke-linejoin="round" stroke-miterlimit="10" points="
	85.553,83.332 14.447,83.332 10,81.109 90,81.109 "/>
<polygon fill="#62818C" points="85.555,81.109 81.108,83.332 85.553,83.332 90,81.109 "/>
<path fill="#FADF7E" stroke="#335C5F" stroke-width="1.5" stroke-linecap="round" stroke-linejoin="round" stroke-miterlimit="10" d="
	M81.968,22.521l-4.489-1.859l1.239-2.991c0.344-0.827,1.297-1.222,2.12-0.879l1.491,0.619c0.833,0.345,1.222,1.295,0.878,2.119
	L81.968,22.521z"/>
<path fill="#FADF7E" stroke="#335C5F" stroke-width="1.5" stroke-linecap="round" stroke-linejoin="round" stroke-miterlimit="10" d="
	M80.729,25.514l-6.354,15.337l0,0c-0.257,0.62-0.964,0.916-1.589,0.658c-0.619-0.257-0.909-0.967-0.652-1.586l6.351-15.337
	L80.729,25.514z"/>
<path fill="#E9EAEF" stroke="#335C5F" stroke-width="1.5" stroke-linecap="round" stroke-linejoin="round" stroke-miterlimit="10" d="
	M74.376,40.851l-0.469,1.124l-5.027,5.803l0.541-7.662l0.466-1.121c-0.257,0.617,0.04,1.327,0.656,1.583
	c0.621,0.258,1.335-0.037,1.592-0.656c-0.257,0.619,0.033,1.329,0.652,1.586C73.412,41.767,74.119,41.471,74.376,40.851
	L74.376,40.851z"/>
<path fill="#FADF7E" stroke="#335C5F" stroke-width="1.5" stroke-linecap="round" stroke-linejoin="round" stroke-miterlimit="10" d="
	M76.24,23.655l-6.354,15.34c-0.257,0.617,0.04,1.327,0.656,1.583c0.621,0.258,1.335-0.037,1.592-0.656l6.351-15.337L76.24,23.655z"
	/>
<polygon fill="#3EAED3" points="76.568,35.556 73.907,41.975 72.51,43.589 72.213,47.778 76.666,42.638 76.666,71.107 
	79.999,71.107 79.999,35.556 "/>
<rect x="76.675" y="21.468" transform="matrix(0.9239 0.3826 -0.3826 0.9239 14.8507 -28.5067)" fill="#75C6A4" stroke="#335C5F" stroke-width="1.5" stroke-linecap="round" stroke-linejoin="round" stroke-miterlimit="10" width="4.859" height="3.24"/>
<rect x="26.172" y="63.703" fill="#D8C26F" width="2.223" height="2.963"/>
<rect x="30.123" y="40" fill="#D8C26F" width="2.223" height="2.962"/>
<rect x="54.317" y="40" fill="#D8C26F" width="2.223" height="2.962"/>
<rect x="34.073" y="51.852" fill="#D8C26F" width="2.222" height="2.963"/>
<rect x="45.927" y="45.925" fill="#D8C26F" width="2.222" height="2.963"/>
<rect x="60.001" y="45.925" fill="#D8C26F" width="2.223" height="2.963"/>
<rect x="71.11" y="51.852" fill="#D8C26F" width="2.222" height="2.963"/>
<rect x="41.974" y="57.776" fill="#D8C26F" width="2.222" height="2.963"/>
<rect x="65.677" y="57.776" fill="#D8C26F" width="2.224" height="2.963"/>
<rect x="49.877" y="63.703" fill="#D8C26F" width="2.221" height="2.963"/>
<rect x="62.22" y="63.703" fill="#D8C26F" width="2.225" height="2.963"/>
<rect x="24.445" y="40" fill="none" stroke="#335C5F" stroke-width="1.5" stroke-linecap="round" stroke-linejoin="round" stroke-miterlimit="10" width="7.901" height="2.962"/>
<rect x="36.295" y="40" fill="none" stroke="#335C5F" stroke-width="1.5" stroke-linecap="round" stroke-linejoin="round" stroke-miterlimit="10" width="20.245" height="2.962"/>
<rect x="32.346" y="45.925" fill="none" stroke="#335C5F" stroke-width="1.5" stroke-linecap="round" stroke-linejoin="round" stroke-miterlimit="10" width="15.803" height="2.963"/>
<rect x="32.346" y="51.852" fill="none" stroke="#335C5F" stroke-width="1.5" stroke-linecap="round" stroke-linejoin="round" stroke-miterlimit="10" width="3.95" height="2.961"/>
<rect x="40.249" y="51.852" fill="none" stroke="#335C5F" stroke-width="1.5" stroke-linecap="round" stroke-linejoin="round" stroke-miterlimit="10" width="33.083" height="2.961"/>
<rect x="52.099" y="45.925" fill="none" stroke="#335C5F" stroke-width="1.5" stroke-linecap="round" stroke-linejoin="round" stroke-miterlimit="10" width="10.125" height="2.961"/>
<rect x="32.346" y="57.776" fill="none" stroke="#335C5F" stroke-width="1.5" stroke-linecap="round" stroke-linejoin="round" stroke-miterlimit="10" width="11.85" height="2.963"/>
<rect x="48.149" y="57.776" fill="none" stroke="#335C5F" stroke-width="1.5" stroke-linecap="round" stroke-linejoin="round" stroke-miterlimit="10" width="19.751" height="2.963"/>
<rect x="24.445" y="63.703" fill="none" stroke="#335C5F" stroke-width="1.5" stroke-linecap="round" stroke-linejoin="round" stroke-miterlimit="10" width="3.951" height="2.963"/>
<rect x="32.346" y="63.703" fill="none" stroke="#335C5F" stroke-width="1.5" stroke-linecap="round" stroke-linejoin="round" stroke-miterlimit="10" width="19.753" height="2.963"/>
<rect x="56.047" y="63.703" fill="none" stroke="#335C5F" stroke-width="1.5" stroke-linecap="round" stroke-linejoin="round" stroke-miterlimit="10" width="8.397" height="2.963"/>
<path fill="#CACCD1" d="M78.886,30.001h-0.017L78.43,31.06c0.002,0,0.002,0.001,0.002,0.001l-1.863,4.496h3.335l0.096-0.233v41.343
	h3.335V34.445C83.334,31.989,81.343,30.001,78.886,30.001z"/>
<path fill="none" stroke="#335C5F" stroke-width="1.5" stroke-linecap="round" stroke-linejoin="round" stroke-miterlimit="10" d="
	M78.886,30.001h-0.017l-4.962,11.974l-5.027,5.803l0.541-7.662l4.189-10.114H21.114c-2.457,0-4.447,1.988-4.447,4.443v42.221h66.667
	V34.445C83.334,31.989,81.343,30.001,78.886,30.001z"/>
<polygon fill="none" stroke="#335C5F" stroke-width="1.5" stroke-linecap="round" stroke-linejoin="round" stroke-miterlimit="10" points="
	73.907,41.975 68.88,47.778 69.421,40.116 71.312,35.556 20.001,35.556 20.001,71.107 79.999,71.107 79.999,35.556 76.568,35.556 
	"/>
<rect x="10" y="76.666" fill="none" stroke="#335C5F" stroke-width="1.5" stroke-linecap="round" stroke-linejoin="round" stroke-miterlimit="10" width="80" height="4.443"/>
<polygon fill="none" stroke="#335C5F" stroke-width="1.5" stroke-linecap="round" stroke-linejoin="round" stroke-miterlimit="10" points="
	85.553,83.332 14.447,83.332 10,81.109 90,81.109 "/>
<rect x="75.555" y="74.442" fill="#70929F" stroke="#335C5F" stroke-width="1.5" stroke-linecap="round" stroke-linejoin="round" stroke-miterlimit="10" width="4.444" height="2.224"/>
</svg>
