<?xml version="1.0" encoding="utf-8"?>
<!-- Generator: Adobe Illustrator 16.0.0, SVG Export Plug-In . SVG Version: 6.00 Build 0)  -->
<!DOCTYPE svg PUBLIC "-//W3C//DTD SVG 1.0//EN" "http://www.w3.org/TR/2001/REC-SVG-20010904/DTD/svg10.dtd">
<svg version="1.0" id="Layer_1" xmlns="http://www.w3.org/2000/svg" xmlns:xlink="http://www.w3.org/1999/xlink" x="0px" y="0px"
	 width="100px" height="100px" viewBox="0 0 100 100" enable-background="new 0 0 100 100" xml:space="preserve">
<circle fill="#70929F" stroke="#335C5F" stroke-width="1.5" stroke-linecap="round" stroke-linejoin="round" stroke-miterlimit="10" cx="73.89" cy="35.001" r="16.11"/>
<path fill="#62818C" d="M73.889,18.89c-0.755,0-1.493,0.071-2.222,0.171c7.844,1.085,13.889,7.799,13.889,15.94
	c0,8.143-6.045,14.857-13.889,15.941c0.729,0.101,1.467,0.171,2.222,0.171C82.788,51.113,90,43.9,90,35.001
	C90,26.104,82.788,18.89,73.889,18.89z"/>
<path fill="#E9EAEF" stroke="#335C5F" stroke-width="1.5" stroke-linecap="round" stroke-linejoin="round" stroke-miterlimit="10" d="
	M73.889,51.113c-8.897,0-16.109-7.213-16.109-16.112c0-2.6,0.631-5.049,1.726-7.224H21.11c-2.453,0-4.443,1.988-4.443,4.443v42.222
	h66.667V48.036C80.679,49.964,77.424,51.113,73.889,51.113z"/>
<path fill="#CACCD1" d="M57.779,35.001c0-2.6,0.631-5.049,1.726-7.224h-2.463c-0.955,2.218-1.486,4.66-1.486,7.224
	c0,10.11,8.226,18.336,18.333,18.336c3.453,0,6.685-0.962,9.445-2.627v-2.674c-2.655,1.928-5.91,3.077-9.445,3.077
	C64.991,51.113,57.779,43.9,57.779,35.001z"/>
<path fill="#46C6F1" stroke="#335C5F" stroke-width="1.5" stroke-linecap="round" stroke-linejoin="round" stroke-miterlimit="10" d="
	M73.889,51.113c-8.897,0-16.109-7.213-16.109-16.112c0-0.563,0.03-1.121,0.089-1.669H20.002v35.554h60v-18.98
	C78.116,50.681,76.056,51.113,73.889,51.113z"/>
<path fill="#3EAED3" d="M57.779,35.001c0-0.563,0.03-1.121,0.089-1.669h-2.232c-0.049,0.551-0.08,1.106-0.08,1.669
	c0,10.11,8.226,18.336,18.333,18.336c2.143,0,4.2-0.373,6.113-1.052v-2.379c-1.886,0.775-3.946,1.208-6.113,1.208
	C64.991,51.113,57.779,43.9,57.779,35.001z"/>
<path fill="#3EAED3" d="M76.669,50.857v18.028h3.333v-18.98C78.943,50.341,77.825,50.652,76.669,50.857z"/>
<rect x="10" y="74.442" fill="#D7DAE7" stroke="#335C5F" stroke-width="1.5" stroke-linecap="round" stroke-linejoin="round" stroke-miterlimit="10" width="80" height="4.445"/>
<rect x="85.556" y="74.442" fill="#CACCD1" width="4.444" height="4.445"/>
<polygon fill="#70929F" stroke="#335C5F" stroke-width="1.5" stroke-linecap="round" stroke-linejoin="round" stroke-miterlimit="10" points="
	52.224,29.998 47.781,29.998 45.557,27.777 54.444,27.777 "/>
<rect x="20.002" y="72.221" fill="#70929F" stroke="#335C5F" stroke-width="1.5" stroke-linecap="round" stroke-linejoin="round" stroke-miterlimit="10" width="4.444" height="2.222"/>
<rect x="75.56" y="72.221" fill="#70929F" stroke="#335C5F" stroke-width="1.5" stroke-linecap="round" stroke-linejoin="round" stroke-miterlimit="10" width="4.442" height="2.222"/>
<polygon fill="#70929F" stroke="#335C5F" stroke-width="1.5" stroke-linecap="round" stroke-linejoin="round" stroke-miterlimit="10" points="
	85.558,81.109 14.447,81.109 10,78.888 90,78.888 "/>
<polygon fill="#62818C" points="85.556,78.888 81.113,81.109 85.558,81.109 90,78.888 "/>
<rect x="24.446" y="37.775" fill="#FADF7E" stroke="#335C5F" stroke-width="1.5" stroke-linecap="round" stroke-linejoin="round" stroke-miterlimit="10" width="7.901" height="2.964"/>
<rect x="36.296" y="37.775" fill="#FADF7E" stroke="#335C5F" stroke-width="1.5" stroke-linecap="round" stroke-linejoin="round" stroke-miterlimit="10" width="15.802" height="2.964"/>
<rect x="32.347" y="43.701" fill="#FADF7E" stroke="#335C5F" stroke-width="1.5" stroke-linecap="round" stroke-linejoin="round" stroke-miterlimit="10" width="15.801" height="2.965"/>
<rect x="32.347" y="49.629" fill="#FADF7E" stroke="#335C5F" stroke-width="1.5" stroke-linecap="round" stroke-linejoin="round" stroke-miterlimit="10" width="3.95" height="2.963"/>
<rect x="40.247" y="49.629" fill="#FADF7E" stroke="#335C5F" stroke-width="1.5" stroke-linecap="round" stroke-linejoin="round" stroke-miterlimit="10" width="19.751" height="2.963"/>
<rect x="32.347" y="55.554" fill="#FADF7E" stroke="#335C5F" stroke-width="1.5" stroke-linecap="round" stroke-linejoin="round" stroke-miterlimit="10" width="11.851" height="2.962"/>
<rect x="48.148" y="55.554" fill="#FADF7E" stroke="#335C5F" stroke-width="1.5" stroke-linecap="round" stroke-linejoin="round" stroke-miterlimit="10" width="19.755" height="2.962"/>
<rect x="24.446" y="61.479" fill="#FADF7E" stroke="#335C5F" stroke-width="1.5" stroke-linecap="round" stroke-linejoin="round" stroke-miterlimit="10" width="3.95" height="2.962"/>
<rect x="32.347" y="61.479" fill="#FADF7E" stroke="#335C5F" stroke-width="1.5" stroke-linecap="round" stroke-linejoin="round" stroke-miterlimit="10" width="19.754" height="2.962"/>
<rect x="56.049" y="61.479" fill="#FADF7E" stroke="#335C5F" stroke-width="1.5" stroke-linecap="round" stroke-linejoin="round" stroke-miterlimit="10" width="3.949" height="2.962"/>
<path fill="#FADF7E" stroke="#335C5F" stroke-width="1.5" stroke-linecap="round" stroke-linejoin="round" stroke-miterlimit="10" d="
	M60.346,43.701h-8.245v2.965h10.694C61.864,45.779,61.04,44.787,60.346,43.701z"/>
<path fill="#D8C26F" d="M57.755,43.701c0.571,1.055,1.242,2.048,2,2.965h3.04c-0.931-0.887-1.755-1.879-2.449-2.965H57.755z"/>
<path fill="#62818C" d="M80.462,36.629l-9.203,5.113c-1.607,0.894-2.924,0.119-2.924-1.721v2.221c0,1.841,1.316,2.615,2.924,1.721
	l9.203-5.113c1.328-0.74,1.54-1.863,0.672-2.736C80.951,36.297,80.74,36.474,80.462,36.629z"/>
<path fill="#E9EAEF" stroke="#335C5F" stroke-width="1.5" stroke-linecap="round" stroke-linejoin="round" stroke-miterlimit="10" d="
	M71.259,28.266c-1.607-0.894-2.924-0.12-2.924,1.72v10.034c0,1.84,1.316,2.615,2.924,1.721l9.203-5.113
	c1.607-0.896,1.607-2.357,0-3.251L71.259,28.266z"/>
<path fill="#CACCD1" d="M71.259,30.487l9.203,5.113c0.278,0.155,0.489,0.331,0.672,0.514c0.868-0.875,0.656-1.997-0.672-2.736
	l-9.203-5.112c-1.607-0.894-2.924-0.12-2.924,1.72v2.222C68.335,30.368,69.651,29.595,71.259,30.487z"/>
<path fill="none" stroke="#335C5F" stroke-width="1.5" stroke-linecap="round" stroke-linejoin="round" stroke-miterlimit="10" d="
	M71.259,28.266c-1.607-0.894-2.924-0.12-2.924,1.72v10.034c0,1.84,1.316,2.615,2.924,1.721l9.203-5.113
	c1.607-0.896,1.607-2.357,0-3.251L71.259,28.266z"/>
<circle fill="none" stroke="#335C5F" stroke-width="1.5" stroke-linecap="round" stroke-linejoin="round" stroke-miterlimit="10" cx="73.89" cy="35.001" r="16.11"/>
<rect x="26.174" y="61.479" fill="#D8C26F" width="2.222" height="2.962"/>
<rect x="30.124" y="37.775" fill="#D8C26F" width="2.223" height="2.963"/>
<rect x="49.875" y="37.775" fill="#D8C26F" width="2.223" height="2.963"/>
<rect x="34.074" y="49.629" fill="#D8C26F" width="2.222" height="2.963"/>
<rect x="45.926" y="43.701" fill="#D8C26F" width="2.222" height="2.964"/>
<rect x="57.776" y="49.629" fill="#D8C26F" width="2.222" height="2.963"/>
<rect x="41.975" y="55.554" fill="#D8C26F" width="2.222" height="2.962"/>
<rect x="65.681" y="55.554" fill="#D8C26F" width="2.223" height="2.962"/>
<rect x="49.879" y="61.479" fill="#D8C26F" width="2.222" height="2.962"/>
<rect x="57.776" y="61.479" fill="#D8C26F" width="2.222" height="2.962"/>
<path fill="none" stroke="#335C5F" stroke-width="1.5" stroke-linecap="round" stroke-linejoin="round" stroke-miterlimit="10" d="
	M73.889,51.113c-8.897,0-16.109-7.213-16.109-16.112c0-2.6,0.631-5.049,1.726-7.224H21.11c-2.453,0-4.443,1.988-4.443,4.443v42.222
	h66.667V48.036C80.679,49.964,77.424,51.113,73.889,51.113z"/>
<path fill="none" stroke="#335C5F" stroke-width="1.5" stroke-linecap="round" stroke-linejoin="round" stroke-miterlimit="10" d="
	M73.889,51.113c-8.897,0-16.109-7.213-16.109-16.112c0-0.563,0.03-1.121,0.089-1.669H20.002v35.554h60v-18.98
	C78.116,50.681,76.056,51.113,73.889,51.113z"/>
<rect x="24.446" y="37.775" fill="none" stroke="#335C5F" stroke-width="1.5" stroke-linecap="round" stroke-linejoin="round" stroke-miterlimit="10" width="7.901" height="2.964"/>
<rect x="36.296" y="37.775" fill="none" stroke="#335C5F" stroke-width="1.5" stroke-linecap="round" stroke-linejoin="round" stroke-miterlimit="10" width="15.802" height="2.964"/>
<rect x="32.347" y="43.701" fill="none" stroke="#335C5F" stroke-width="1.5" stroke-linecap="round" stroke-linejoin="round" stroke-miterlimit="10" width="15.801" height="2.965"/>
<rect x="32.347" y="49.629" fill="none" stroke="#335C5F" stroke-width="1.5" stroke-linecap="round" stroke-linejoin="round" stroke-miterlimit="10" width="3.95" height="2.963"/>
<rect x="40.247" y="49.629" fill="none" stroke="#335C5F" stroke-width="1.5" stroke-linecap="round" stroke-linejoin="round" stroke-miterlimit="10" width="19.751" height="2.963"/>
<rect x="32.347" y="55.554" fill="none" stroke="#335C5F" stroke-width="1.5" stroke-linecap="round" stroke-linejoin="round" stroke-miterlimit="10" width="11.851" height="2.962"/>
<rect x="48.148" y="55.554" fill="none" stroke="#335C5F" stroke-width="1.5" stroke-linecap="round" stroke-linejoin="round" stroke-miterlimit="10" width="19.755" height="2.962"/>
<rect x="24.446" y="61.479" fill="none" stroke="#335C5F" stroke-width="1.5" stroke-linecap="round" stroke-linejoin="round" stroke-miterlimit="10" width="3.95" height="2.962"/>
<rect x="32.347" y="61.479" fill="none" stroke="#335C5F" stroke-width="1.5" stroke-linecap="round" stroke-linejoin="round" stroke-miterlimit="10" width="19.754" height="2.962"/>
<rect x="56.049" y="61.479" fill="none" stroke="#335C5F" stroke-width="1.5" stroke-linecap="round" stroke-linejoin="round" stroke-miterlimit="10" width="3.949" height="2.962"/>
<path fill="none" stroke="#335C5F" stroke-width="1.5" stroke-linecap="round" stroke-linejoin="round" stroke-miterlimit="10" d="
	M60.346,43.701h-8.245v2.965h10.694C61.864,45.779,61.04,44.787,60.346,43.701z"/>
<rect x="10" y="74.442" fill="none" stroke="#335C5F" stroke-width="1.5" stroke-linecap="round" stroke-linejoin="round" stroke-miterlimit="10" width="80" height="4.445"/>
<polygon fill="none" stroke="#335C5F" stroke-width="1.5" stroke-linecap="round" stroke-linejoin="round" stroke-miterlimit="10" points="
	85.558,81.109 14.447,81.109 10,78.888 90,78.888 "/>
</svg>
