<svg xmlns="http://www.w3.org/2000/svg" viewBox="0 0 48 48"><defs><style>.cls-1{fill:#263238;}.cls-2{fill:#424242;}</style></defs><title>Laptop Storage</title><g id="Laptop_Storage" data-name="Laptop Storage"><path class="cls-1" d="M18,38H30a0,0,0,0,1,0,0v2a2,2,0,0,1-2,2H20a2,2,0,0,1-2-2V38A0,0,0,0,1,18,38Z"/><path class="cls-2" d="M47,38H46V8a3,3,0,0,0-3-3V6a3.66,3.66,0,0,1-.13,1H43a1,1,0,0,1,1,1V38H32v2H46v4a2,2,0,0,1-2,2H4a2,2,0,0,1-2-2V40H16V38H4V8A1,1,0,0,1,5,7h.13A3.66,3.66,0,0,1,5,6V5A3,3,0,0,0,2,8V38H1a1,1,0,0,0-1,1v5a4,4,0,0,0,4,4H44a4,4,0,0,0,4-4V39A1,1,0,0,0,47,38Z"/><path class="cls-2" d="M42,18.64V35a1,1,0,0,1-1,1H7a1,1,0,0,1-1-1V18.64a4,4,0,0,0,2,1.23V34H40V19.87A4,4,0,0,0,42,18.64Z"/><path class="cls-1" d="M39,0H9A2,2,0,0,0,7,2V6A2,2,0,0,0,9,8H39a2,2,0,0,0,2-2V2A2,2,0,0,0,39,0ZM14,5a1,1,0,0,1-1,1H11a1,1,0,0,1-1-1V3a1,1,0,0,1,1-1h2a1,1,0,0,1,1,1Zm6,0a1,1,0,0,1-1,1H17a1,1,0,0,1-1-1V3a1,1,0,0,1,1-1h2a1,1,0,0,1,1,1ZM30,5a1,1,0,0,1-2,0V3a1,1,0,0,1,2,0Zm4,0a1,1,0,0,1-2,0V3a1,1,0,0,1,2,0Zm4,0a1,1,0,0,1-2,0V3a1,1,0,0,1,2,0Z"/><path class="cls-1" d="M39,10H9a2,2,0,0,0-2,2v4a2,2,0,0,0,2,2H39a2,2,0,0,0,2-2V12A2,2,0,0,0,39,10ZM14,15a1,1,0,0,1-1,1H11a1,1,0,0,1-1-1V13a1,1,0,0,1,1-1h2a1,1,0,0,1,1,1Zm6,0a1,1,0,0,1-1,1H17a1,1,0,0,1-1-1V13a1,1,0,0,1,1-1h2a1,1,0,0,1,1,1Zm10,0a1,1,0,0,1-2,0V13a1,1,0,0,1,2,0Zm4,0a1,1,0,0,1-2,0V13a1,1,0,0,1,2,0Zm4,0a1,1,0,0,1-2,0V13a1,1,0,0,1,2,0Z"/><path class="cls-2" d="M11,27H22.28a2,2,0,0,0,3.44,0H37a1,1,0,0,0,0-2H25.72a1.91,1.91,0,0,0-.72-.72V20H23v4.28a1.91,1.91,0,0,0-.72.72H11a1,1,0,0,0,0,2Z"/></g></svg>