<?xml version="1.0" encoding="utf-8"?>
<!-- Generator: Adobe Illustrator 16.0.0, SVG Export Plug-In . SVG Version: 6.00 Build 0)  -->
<!DOCTYPE svg PUBLIC "-//W3C//DTD SVG 1.0//EN" "http://www.w3.org/TR/2001/REC-SVG-20010904/DTD/svg10.dtd">
<svg version="1.0" id="Layer_1" xmlns="http://www.w3.org/2000/svg" xmlns:xlink="http://www.w3.org/1999/xlink" x="0px" y="0px"
	 width="100px" height="100px" viewBox="0 0 100 100" enable-background="new 0 0 100 100" xml:space="preserve">
<path fill="#E9EAEF" stroke="#335C5F" stroke-width="1.5" stroke-linecap="round" stroke-linejoin="round" stroke-miterlimit="10" d="
	M66.666,30c1.84,0,3.331,1.493,3.331,3.335v32.22H16.667v-32.22c0-1.842,1.491-3.335,3.335-3.335H66.666z"/>
<path fill="#CACCD1" d="M66.666,30h-3.333c1.84,0,3.331,1.493,3.331,3.335v32.22h3.333v-32.22C69.997,31.493,68.506,30,66.666,30z"
	/>
<path fill="#E9EAEF" stroke="#335C5F" stroke-width="1.5" stroke-linecap="round" stroke-linejoin="round" stroke-miterlimit="10" d="
	M86.665,36.668H69.997v28.887h5.56c0.609,0,1.11,0.501,1.11,1.112c0,0.421-0.239,0.838-0.578,1.11h10.576
	c1.841,0,3.332-1.491,3.332-3.333L90,40.001C90,38.161,88.509,36.668,86.665,36.668z"/>
<path fill="#CACCD1" d="M86.665,36.668h-3.333c1.844,0,3.335,1.493,3.335,3.333l-0.003,24.443c0,1.842-1.492,3.333-3.332,3.333
	h3.333c1.841,0,3.332-1.491,3.332-3.333L90,40.001C90,38.161,88.509,36.668,86.665,36.668z"/>
<path fill="#D7DAE7" stroke="#335C5F" stroke-width="1.5" stroke-linecap="round" stroke-linejoin="round" stroke-miterlimit="10" d="
	M68.855,69.73C68.262,69.88,67.275,70,66.666,70H20.001c-0.613,0-1.595-0.12-2.189-0.27l-6.734-1.683
	C10.487,67.899,10,67.278,10,66.667l0,0c0-0.611,0.503-1.112,1.112-1.112h64.444c0.609,0,1.11,0.501,1.11,1.112l0,0
	c0,0.611-0.485,1.232-1.078,1.381L68.855,69.73z"/>
<path fill="#BBBECA" d="M75.557,65.555H71.11c0.609,0,1.112,0.501,1.112,1.112s-0.487,1.232-1.077,1.381l-6.734,1.683
	C63.817,69.88,62.831,70,62.222,70h4.444c0.609,0,1.596-0.12,2.189-0.27l6.733-1.683c0.593-0.148,1.078-0.77,1.078-1.381
	S76.166,65.555,75.557,65.555z"/>
<rect x="36.669" y="65.555" fill="#70929F" stroke="#335C5F" stroke-width="1.5" stroke-linecap="round" stroke-linejoin="round" stroke-miterlimit="10" width="13.333" height="2.224"/>
<rect x="20.001" y="35.556" fill="#46C6F1" stroke="#335C5F" stroke-width="1.5" stroke-linecap="round" stroke-linejoin="round" stroke-miterlimit="10" width="46.665" height="26.666"/>
<rect x="63.333" y="35.556" fill="#3EAED3" width="3.333" height="26.666"/>
<path fill="none" stroke="#335C5F" stroke-width="1.5" stroke-linecap="round" stroke-linejoin="round" stroke-miterlimit="10" d="
	M42.224,32.779h2.221H42.224z"/>
<rect x="69.997" y="41.113" fill="#46C6F1" stroke="#335C5F" stroke-width="1.5" stroke-linecap="round" stroke-linejoin="round" stroke-miterlimit="10" width="16.668" height="22.221"/>
<rect x="83.332" y="41.113" fill="#3EAED3" width="3.333" height="22.221"/>
<path fill="none" stroke="#335C5F" stroke-width="1.5" stroke-linecap="round" stroke-linejoin="round" stroke-miterlimit="10" d="
	M66.666,30c1.84,0,3.331,1.493,3.331,3.335v32.22H16.667v-32.22c0-1.842,1.491-3.335,3.335-3.335H66.666z"/>
<path fill="none" stroke="#335C5F" stroke-width="1.5" stroke-linecap="round" stroke-linejoin="round" stroke-miterlimit="10" d="
	M86.665,36.668H69.997v28.887h5.56c0.609,0,1.11,0.501,1.11,1.112c0,0.421-0.239,0.838-0.578,1.11h10.576
	c1.841,0,3.332-1.491,3.332-3.333L90,40.001C90,38.161,88.509,36.668,86.665,36.668z"/>
<path fill="none" stroke="#335C5F" stroke-width="1.5" stroke-linecap="round" stroke-linejoin="round" stroke-miterlimit="10" d="
	M68.855,69.73C68.262,69.88,67.275,70,66.666,70H20.001c-0.613,0-1.595-0.12-2.189-0.27l-6.734-1.683
	C10.487,67.899,10,67.278,10,66.667l0,0c0-0.611,0.503-1.112,1.112-1.112h64.444c0.609,0,1.11,0.501,1.11,1.112l0,0
	c0,0.611-0.485,1.232-1.078,1.381L68.855,69.73z"/>
<rect x="20.001" y="35.556" fill="none" stroke="#335C5F" stroke-width="1.5" stroke-linecap="round" stroke-linejoin="round" stroke-miterlimit="10" width="46.665" height="26.666"/>
<rect x="69.997" y="41.113" fill="none" stroke="#335C5F" stroke-width="1.5" stroke-linecap="round" stroke-linejoin="round" stroke-miterlimit="10" width="16.668" height="22.221"/>
</svg>
