<?xml version="1.0" encoding="utf-8"?>
<!-- Generator: Adobe Illustrator 16.0.0, SVG Export Plug-In . SVG Version: 6.00 Build 0)  -->
<!DOCTYPE svg PUBLIC "-//W3C//DTD SVG 1.0//EN" "http://www.w3.org/TR/2001/REC-SVG-20010904/DTD/svg10.dtd">
<svg version="1.0" id="Layer_1" xmlns="http://www.w3.org/2000/svg" xmlns:xlink="http://www.w3.org/1999/xlink" x="0px" y="0px"
	 width="100px" height="100px" viewBox="0 0 100 100" enable-background="new 0 0 100 100" xml:space="preserve">
<path fill="#E9EAEF" stroke="#335C5F" stroke-width="1.5" stroke-linecap="round" stroke-linejoin="round" stroke-miterlimit="10" d="
	M75.456,70.052l-7.765,8.959l0.837-11.83l14.353-34.646c0.372-0.899,1.213-1.457,2.118-1.526V14.999H55v27.999H14.999V90h70V47.012
	L75.456,70.052z"/>
<polygon fill="#CACCD1" points="55,42.998 14.999,42.998 14.999,45.499 57.499,45.499 57.499,14.999 55,14.999 "/>
<rect x="10" y="10" fill="#E9EAEF" stroke="#335C5F" stroke-width="1.5" stroke-linecap="round" stroke-linejoin="round" stroke-miterlimit="10" width="45" height="32.998"/>
<rect x="52.498" y="10" fill="#CACCD1" width="2.502" height="32.998"/>
<rect x="12.997" y="12.997" fill="#46C6F1" stroke="#335C5F" stroke-width="1.5" stroke-linecap="round" stroke-linejoin="round" stroke-miterlimit="10" width="39.002" height="27"/>
<rect x="49.498" y="12.997" fill="#3EAED3" width="2.501" height="27"/>
<path fill="none" stroke="#335C5F" stroke-width="1.5" stroke-linecap="round" stroke-linejoin="round" stroke-miterlimit="10" d="
	M44.495,19.748v15.753V19.748z"/>
<polygon fill="none" stroke="#335C5F" stroke-width="1.5" stroke-linecap="round" stroke-linejoin="round" stroke-miterlimit="10" points="
	46.249,21.499 44.499,19.748 42.745,21.499 44.499,19.748 "/>
<polygon fill="none" stroke="#335C5F" stroke-width="1.5" stroke-linecap="round" stroke-linejoin="round" stroke-miterlimit="10" points="
	41.87,25.624 44.499,22.999 47.124,25.624 44.499,22.999 "/>
<polygon fill="none" stroke="#335C5F" stroke-width="1.5" stroke-linecap="round" stroke-linejoin="round" stroke-miterlimit="10" points="
	47.996,29.75 44.499,26.25 40.995,29.75 44.499,26.25 "/>
<polygon fill="none" stroke="#335C5F" stroke-width="1.5" stroke-linecap="round" stroke-linejoin="round" stroke-miterlimit="10" points="
	40.747,33.248 44.499,29.5 48.247,33.248 44.499,29.5 "/>
<path fill="#75C6A4" stroke="#335C5F" stroke-width="1.5" stroke-linecap="round" stroke-linejoin="round" stroke-miterlimit="10" d="
	M27.997,35.498c-1.66,0-3.094,0.909-3.876,2.249H12.997v2.25h39.002v-4.499H27.997z"/>
<rect x="49.498" y="35.498" fill="#65AD90" width="2.501" height="4.499"/>
<path fill="#70929F" stroke="#335C5F" stroke-width="1.5" stroke-linecap="round" stroke-linejoin="round" stroke-miterlimit="10" d="
	M24.121,37.747c0.782-1.34,2.216-2.249,3.876-2.249l0,0h10.125l-14.624-19.5l-10.501,14v7.749H24.121z"/>
<polygon fill="#62818C" points="23.498,15.998 21.622,18.498 34.372,35.498 38.122,35.498 "/>
<path fill="#FADF7E" stroke="#335C5F" stroke-width="1.5" stroke-linecap="round" stroke-linejoin="round" stroke-miterlimit="10" d="
	M33.551,29.4c2.811-0.496,4.947-2.946,4.947-5.9c0-3.314-2.688-6-5.998-6c-2.356,0-4.393,1.36-5.375,3.336L33.551,29.4z"/>
<path fill="#D8C26F" d="M32.5,17.5c-0.653,0-1.278,0.113-1.866,0.307c2.388,0.791,4.114,3.038,4.114,5.693
	c0,1.855-0.845,3.509-2.167,4.608l0.97,1.292c2.811-0.496,4.947-2.946,4.947-5.9C38.498,20.186,35.811,17.5,32.5,17.5z"/>
<polygon fill="#FADF7E" stroke="#335C5F" stroke-width="1.5" stroke-linecap="round" stroke-linejoin="round" stroke-miterlimit="10" points="
	55,25 55,42.998 19.997,42.998 19.997,58 65.001,58 65.001,25 "/>
<rect x="62.5" y="25" fill="#D8C26F" width="2.501" height="33"/>
<polygon fill="#D8C26F" points="57.499,45.499 57.499,25 55,25 55,42.998 19.997,42.998 19.997,45.499 "/>
<rect x="55" y="14.999" fill="#E9EAEF" stroke="#335C5F" stroke-width="1.5" stroke-linecap="round" stroke-linejoin="round" stroke-miterlimit="10" width="14.999" height="4.998"/>
<rect x="55" y="14.999" fill="#CACCD1" width="2.499" height="4.998"/>
<rect x="19.997" y="63.001" fill="#46C6F1" stroke="#335C5F" stroke-width="1.5" stroke-linecap="round" stroke-linejoin="round" stroke-miterlimit="10" width="45.004" height="4.998"/>
<rect x="62.5" y="63.001" fill="#3EAED3" width="2.501" height="4.998"/>
<path fill="none" stroke="#335C5F" stroke-width="1.5" stroke-linecap="round" stroke-linejoin="round" stroke-miterlimit="10" d="
	M19.997,72.999h10.002H19.997z"/>
<path fill="none" stroke="#335C5F" stroke-width="1.5" stroke-linecap="round" stroke-linejoin="round" stroke-miterlimit="10" d="
	M19.997,78.001h19.999H19.997z"/>
<path fill="none" stroke="#335C5F" stroke-width="1.5" stroke-linecap="round" stroke-linejoin="round" stroke-miterlimit="10" d="
	M19.997,83.001h15H19.997z"/>
<path fill="none" stroke="#335C5F" stroke-width="1.5" stroke-linecap="round" stroke-linejoin="round" stroke-miterlimit="10" d="
	M44.998,72.999H62.5H44.998z"/>
<path fill="none" stroke="#335C5F" stroke-width="1.5" stroke-linecap="round" stroke-linejoin="round" stroke-miterlimit="10" d="
	M69.999,25h4.999H69.999z"/>
<path fill="none" stroke="#335C5F" stroke-width="1.5" stroke-linecap="round" stroke-linejoin="round" stroke-miterlimit="10" d="
	M69.999,29.999h9.998H69.999z"/>
<path fill="none" stroke="#335C5F" stroke-width="1.5" stroke-linecap="round" stroke-linejoin="round" stroke-miterlimit="10" d="
	M69.999,34.998h7.5H69.999z"/>
<path fill="none" stroke="#335C5F" stroke-width="1.5" stroke-linecap="round" stroke-linejoin="round" stroke-miterlimit="10" d="
	M44.998,78.001h12.503H44.998z"/>
<path fill="none" stroke="#335C5F" stroke-width="1.5" stroke-linecap="round" stroke-linejoin="round" stroke-miterlimit="10" d="
	M44.998,83.001h35.003H44.998z"/>
<polygon fill="#CACCD1" points="81.249,56.064 81.249,56.064 75.456,70.052 71.773,74.298 71.441,79.011 79.206,70.052 
	81.249,65.12 81.249,90 84.999,90 84.999,47.012 "/>
<rect x="10" y="10" fill="none" stroke="#335C5F" stroke-width="1.5" stroke-linecap="round" stroke-linejoin="round" stroke-miterlimit="10" width="45" height="32.998"/>
<rect x="12.997" y="12.997" fill="none" stroke="#335C5F" stroke-width="1.5" stroke-linecap="round" stroke-linejoin="round" stroke-miterlimit="10" width="39.002" height="27"/>
<path fill="none" stroke="#335C5F" stroke-width="1.5" stroke-linecap="round" stroke-linejoin="round" stroke-miterlimit="10" d="
	M27.997,35.498c-1.66,0-3.094,0.909-3.876,2.249H12.997v2.25h39.002v-4.499H27.997z"/>
<path fill="none" stroke="#335C5F" stroke-width="1.5" stroke-linecap="round" stroke-linejoin="round" stroke-miterlimit="10" d="
	M24.121,37.747c0.782-1.34,2.216-2.249,3.876-2.249l0,0h10.125l-14.624-19.5l-10.501,14v7.749H24.121z"/>
<path fill="none" stroke="#335C5F" stroke-width="1.5" stroke-linecap="round" stroke-linejoin="round" stroke-miterlimit="10" d="
	M33.551,29.4c2.811-0.496,4.947-2.946,4.947-5.9c0-3.314-2.688-6-5.998-6c-2.356,0-4.393,1.36-5.375,3.336L33.551,29.4z"/>
<rect x="55" y="14.999" fill="none" stroke="#335C5F" stroke-width="1.5" stroke-linecap="round" stroke-linejoin="round" stroke-miterlimit="10" width="14.999" height="4.998"/>
<polygon fill="none" stroke="#335C5F" stroke-width="1.5" stroke-linecap="round" stroke-linejoin="round" stroke-miterlimit="10" points="
	55,25 55,42.998 19.997,42.998 19.997,58 65.001,58 65.001,25 "/>
<rect x="19.997" y="63.001" fill="none" stroke="#335C5F" stroke-width="1.5" stroke-linecap="round" stroke-linejoin="round" stroke-miterlimit="10" width="45.004" height="4.998"/>
<path fill="#CACCD1" d="M81.249,36.473l1.632-3.938c0.372-0.899,1.213-1.457,2.118-1.526V14.999h-3.75V36.473z"/>
<rect x="80.001" y="14.999" fill="#FADF7E" stroke="#335C5F" stroke-width="1.5" stroke-linecap="round" stroke-linejoin="round" stroke-miterlimit="10" width="4.998" height="4.998"/>
<rect x="74.998" y="14.999" fill="#FADF7E" stroke="#335C5F" stroke-width="1.5" stroke-linecap="round" stroke-linejoin="round" stroke-miterlimit="10" width="5.003" height="4.998"/>
<rect x="69.999" y="14.999" fill="#FADF7E" stroke="#335C5F" stroke-width="1.5" stroke-linecap="round" stroke-linejoin="round" stroke-miterlimit="10" width="4.999" height="4.998"/>
<path fill="#FADF7E" stroke="#335C5F" stroke-width="1.5" stroke-linecap="round" stroke-linejoin="round" stroke-miterlimit="10" d="
	M87.894,40.023l-6.929-2.87l1.916-4.619c0.527-1.276,1.994-1.885,3.266-1.354l2.309,0.954c1.281,0.53,1.881,1.999,1.354,3.27
	L87.894,40.023z"/>
<path fill="#FADF7E" stroke="#335C5F" stroke-width="1.5" stroke-linecap="round" stroke-linejoin="round" stroke-miterlimit="10" d="
	M85.981,44.645l-9.809,23.674v-0.002c-0.393,0.957-1.488,1.414-2.449,1.016c-0.954-0.395-1.405-1.492-1.01-2.447l9.805-23.675
	L85.981,44.645z"/>
<path fill="#E9EAEF" stroke="#335C5F" stroke-width="1.5" stroke-linecap="round" stroke-linejoin="round" stroke-miterlimit="10" d="
	M76.173,68.319l-0.717,1.732l-7.765,8.959l0.837-11.83l0.717-1.727c-0.396,0.951,0.059,2.047,1.017,2.443
	c0.957,0.398,2.057-0.057,2.452-1.012c-0.396,0.955,0.056,2.053,1.01,2.447c0.961,0.398,2.057-0.059,2.449-1.016V68.319z"/>
<path fill="#FADF7E" stroke="#335C5F" stroke-width="1.5" stroke-linecap="round" stroke-linejoin="round" stroke-miterlimit="10" d="
	M79.053,41.774l-9.808,23.68c-0.396,0.951,0.059,2.047,1.017,2.443c0.957,0.398,2.057-0.057,2.452-1.012l9.805-23.675L79.053,41.774
	z"/>
<rect x="79.723" y="38.399" transform="matrix(0.9238 0.3828 -0.3828 0.9238 22.0109 -28.8354)" fill="#75C6A4" stroke="#335C5F" stroke-width="1.5" stroke-linecap="round" stroke-linejoin="round" stroke-miterlimit="10" width="7.5" height="5.001"/>
<path fill="none" stroke="#335C5F" stroke-width="1.5" stroke-linecap="round" stroke-linejoin="round" stroke-miterlimit="10" d="
	M75.456,70.052l-7.765,8.959l0.837-11.83l14.353-34.646c0.372-0.899,1.213-1.457,2.118-1.526V14.999H55v27.999H14.999V90h70V47.012
	L75.456,70.052z"/>
</svg>
