<svg xmlns="http://www.w3.org/2000/svg" viewBox="0 0 48 48"><defs><style>.cls-1{fill:#424242;}.cls-2{fill:#263238;}</style></defs><title>Local Network</title><g id="Local_Network" data-name="Local Network"><rect class="cls-1" x="10" y="10" width="2" height="20"/><rect class="cls-1" x="15" y="5" width="11" height="2"/><rect class="cls-2" x="9" y="4" width="4" height="4" rx="1"/><rect class="cls-1" x="22" y="37" width="11" height="2"/><rect class="cls-1" x="36" y="18" width="2" height="16"/><rect class="cls-2" x="35" y="36" width="4" height="4" rx="1"/><path class="cls-2" d="M20,44V34a2,2,0,0,0-2-2H4a2,2,0,0,0-2,2V44H0v2a2,2,0,0,0,2,2H20a2,2,0,0,0,2-2V44ZM4,44V34H18V44Z"/><path class="cls-2" d="M46,12V3a3,3,0,0,0-3-3H31a3,3,0,0,0-3,3v9H26v2a2,2,0,0,0,2,2H46a2,2,0,0,0,2-2V12ZM30,3a1,1,0,0,1,1-1H43a1,1,0,0,1,1,1v9H30Z"/></g></svg>