<?xml version="1.0" encoding="utf-8"?>
<!-- Generator: Adobe Illustrator 16.0.0, SVG Export Plug-In . SVG Version: 6.00 Build 0)  -->
<!DOCTYPE svg PUBLIC "-//W3C//DTD SVG 1.0//EN" "http://www.w3.org/TR/2001/REC-SVG-20010904/DTD/svg10.dtd">
<svg version="1.0" id="Layer_1" xmlns="http://www.w3.org/2000/svg" xmlns:xlink="http://www.w3.org/1999/xlink" x="0px" y="0px"
	 width="100px" height="100px" viewBox="0 0 100 100" enable-background="new 0 0 100 100" xml:space="preserve">
<path fill="#E9EAEF" stroke="#335C5F" stroke-width="1.5" stroke-linecap="round" stroke-linejoin="round" stroke-miterlimit="10" d="
	M90,55.002C90,57.751,87.75,60,85,60H34.998c-2.749,0-4.999-2.249-4.999-4.998V15.001c0-2.751,2.25-5.001,4.999-5.001H85
	c2.75,0,5,2.25,5,5.001V55.002z"/>
<path fill="#CACCD1" d="M85,10h-4.998C82.75,10,85,12.25,85,15.001v40.001C85,57.751,82.75,60,80.002,60H85c2.75,0,5-2.249,5-4.998
	V15.001C90,12.25,87.75,10,85,10z"/>
<path fill="#46C6F1" stroke="#335C5F" stroke-width="1.5" stroke-linecap="round" stroke-linejoin="round" stroke-miterlimit="10" d="
	M73.125,33.75c-0.207,0-0.416,0.013-0.623,0.031c0-0.011,0-0.019,0-0.027c0-6.214-5.037-11.252-11.256-11.252
	c-5.209,0-9.584,3.551-10.859,8.362c-0.627-0.148-1.281-0.236-1.95-0.236c-4.661,0-8.44,3.777-8.44,8.439
	c0,4.656,3.779,8.433,8.44,8.433h24.688c3.801,0,6.877-3.077,6.877-6.873C80.002,36.83,76.926,33.75,73.125,33.75z"/>
<path fill="none" stroke="#335C5F" stroke-width="1.5" stroke-linecap="round" stroke-linejoin="round" stroke-miterlimit="10" d="
	M49.998,33.754c0-1.003,0.145-1.967,0.39-2.89C50.142,31.787,49.998,32.751,49.998,33.754z"/>
<path fill="#3EAED3" d="M55.855,23.88c0.537-0.078,1.082-0.127,1.641-0.127c6.219,0,11.256,5.037,11.256,11.251
	c0,0.009,0,0.018,0,0.028c0.139-0.014,0.279-0.017,0.422-0.021c0.955-0.676,2.098-1.094,3.328-1.208v-0.049
	c0-6.214-5.037-11.252-11.256-11.252C59.293,22.502,57.457,23.002,55.855,23.88z"/>
<path fill="none" stroke="#335C5F" stroke-width="1.5" stroke-linecap="round" stroke-linejoin="round" stroke-miterlimit="10" d="
	M25,24.998c-2.76,0-4.999,2.24-4.999,5.003C20.001,27.238,22.241,24.998,25,24.998z"/>
<path fill="none" stroke="#335C5F" stroke-width="1.5" stroke-linecap="round" stroke-linejoin="round" stroke-miterlimit="10" d="
	M19.998,64.999v5.003c0,2.759,2.239,4.999,5.003,4.999c-2.764,0-5.003-2.24-5.003-4.999V64.999z"/>
<path fill="none" stroke="#335C5F" stroke-width="1.5" stroke-linecap="round" stroke-linejoin="round" stroke-miterlimit="10" d="
	M70,74.997h5.002c2.76,0,5-2.239,5-4.999c0,2.76-2.24,4.999-5,4.999H70z"/>
<path fill="none" stroke="#335C5F" stroke-width="1.5" stroke-linecap="round" stroke-linejoin="round" stroke-miterlimit="10" d="
	M20.001,34.999v4.999V34.999z"/>
<path fill="none" stroke="#335C5F" stroke-width="1.5" stroke-linecap="round" stroke-linejoin="round" stroke-miterlimit="10" d="
	M20.001,44.999v5V44.999z"/>
<path fill="none" stroke="#335C5F" stroke-width="1.5" stroke-linecap="round" stroke-linejoin="round" stroke-miterlimit="10" d="
	M20.001,54.998V60V54.998z"/>
<path fill="none" stroke="#335C5F" stroke-width="1.5" stroke-linecap="round" stroke-linejoin="round" stroke-miterlimit="10" d="
	M80.002,60v4.999V60z"/>
<path fill="none" stroke="#335C5F" stroke-width="1.5" stroke-linecap="round" stroke-linejoin="round" stroke-miterlimit="10" d="
	M70,75.001v4.998V75.001z"/>
<path fill="none" stroke="#335C5F" stroke-width="1.5" stroke-linecap="round" stroke-linejoin="round" stroke-miterlimit="10" d="
	M29.999,75.001h5.003H29.999z"/>
<path fill="none" stroke="#335C5F" stroke-width="1.5" stroke-linecap="round" stroke-linejoin="round" stroke-miterlimit="10" d="
	M40,75.001h5.002H40z"/>
<path fill="none" stroke="#335C5F" stroke-width="1.5" stroke-linecap="round" stroke-linejoin="round" stroke-miterlimit="10" d="
	M50.001,75.001H55H50.001z"/>
<path fill="none" stroke="#335C5F" stroke-width="1.5" stroke-linecap="round" stroke-linejoin="round" stroke-miterlimit="10" d="
	M60,75.001h5.002H60z"/>
<path fill="none" stroke="#335C5F" stroke-width="1.5" stroke-linecap="round" stroke-linejoin="round" stroke-miterlimit="10" d="
	M14.999,39.998C12.24,39.998,10,42.237,10,45C10,42.237,12.24,39.998,14.999,39.998z"/>
<path fill="none" stroke="#335C5F" stroke-width="1.5" stroke-linecap="round" stroke-linejoin="round" stroke-miterlimit="10" d="
	M10,79.999v5.002C10,87.761,12.24,90,15.002,90C12.24,90,10,87.761,10,85.001V79.999z"/>
<path fill="none" stroke="#335C5F" stroke-width="1.5" stroke-linecap="round" stroke-linejoin="round" stroke-miterlimit="10" d="
	M60,89.996h5.002c2.76,0,4.998-2.239,4.998-4.999c0,2.76-2.238,4.999-4.998,4.999H60z"/>
<path fill="none" stroke="#335C5F" stroke-width="1.5" stroke-linecap="round" stroke-linejoin="round" stroke-miterlimit="10" d="
	M10,49.999v4.999V49.999z"/>
<path fill="none" stroke="#335C5F" stroke-width="1.5" stroke-linecap="round" stroke-linejoin="round" stroke-miterlimit="10" d="
	M10,59.999v5V59.999z"/>
<path fill="none" stroke="#335C5F" stroke-width="1.5" stroke-linecap="round" stroke-linejoin="round" stroke-miterlimit="10" d="
	M10,69.998v5.003V69.998z"/>
<path fill="none" stroke="#335C5F" stroke-width="1.5" stroke-linecap="round" stroke-linejoin="round" stroke-miterlimit="10" d="
	M20.001,90h5.002H20.001z"/>
<path fill="none" stroke="#335C5F" stroke-width="1.5" stroke-linecap="round" stroke-linejoin="round" stroke-miterlimit="10" d="
	M30.002,90h4.999H30.002z"/>
<path fill="none" stroke="#335C5F" stroke-width="1.5" stroke-linecap="round" stroke-linejoin="round" stroke-miterlimit="10" d="
	M40.003,90h4.999H40.003z"/>
<path fill="none" stroke="#335C5F" stroke-width="1.5" stroke-linecap="round" stroke-linejoin="round" stroke-miterlimit="10" d="
	M50.001,90H55H50.001z"/>
<path fill="none" stroke="#335C5F" stroke-width="1.5" stroke-linecap="round" stroke-linejoin="round" stroke-miterlimit="10" d="
	M90,55.002C90,57.751,87.75,60,85,60H34.998c-2.749,0-4.999-2.249-4.999-4.998V15.001c0-2.751,2.25-5.001,4.999-5.001H85
	c2.75,0,5,2.25,5,5.001V55.002z"/>
<path fill="#3EAED3" d="M72.502,33.781c0.207-0.019,0.416-0.031,0.623-0.031c3.801,0,6.877,3.08,6.877,6.877
	c0,3.796-3.076,6.873-6.877,6.873h-3.75c3.801,0,6.877-3.077,6.877-6.873c0-3.144-2.111-5.79-4.994-6.609
	c0.596-0.168,1.221-0.264,1.871-0.264L72.502,33.781z"/>
<path fill="none" stroke="#335C5F" stroke-width="1.5" stroke-linecap="round" stroke-linejoin="round" stroke-miterlimit="10" d="
	M73.129,33.754c-1.898,0-3.617,0.769-4.857,2.012C69.512,34.522,71.23,33.754,73.129,33.754z"/>
<path fill="none" stroke="#335C5F" stroke-width="1.5" stroke-linecap="round" stroke-linejoin="round" stroke-miterlimit="10" d="
	M73.125,33.75c-0.207,0-0.416,0.013-0.623,0.031c0-0.011,0-0.019,0-0.027c0-6.214-5.037-11.252-11.256-11.252
	c-5.209,0-9.584,3.551-10.859,8.362c-0.627-0.148-1.281-0.236-1.95-0.236c-4.661,0-8.44,3.777-8.44,8.439
	c0,4.656,3.779,8.433,8.44,8.433h24.688c3.801,0,6.877-3.077,6.877-6.873C80.002,36.83,76.926,33.75,73.125,33.75z"/>
</svg>
