<svg xmlns="http://www.w3.org/2000/svg" viewBox="0 0 48 48"><defs><style>.cls-1{fill:#424242;}.cls-2{fill:#263238;}</style></defs><title>Mail Server</title><g id="Mail_Server" data-name="Mail Server"><path class="cls-1" d="M45,0H11A3,3,0,0,0,8,3V18h2V3.3L22.7,13.89,18.59,18h2.82l2.83-2.83,3.12,2.6a1,1,0,0,0,1.28,0l3.12-2.6L44.59,28H35.46a3.78,3.78,0,0,1-.82,1,3.78,3.78,0,0,1,.82,1H45a3,3,0,0,0,3-3V3A3,3,0,0,0,45,0ZM28,15.7,11.56,2H44.44ZM46,26.59,33.3,13.89,46,3.3Z"/><path class="cls-2" d="M32,20H2a2,2,0,0,0-2,2v4a2,2,0,0,0,2,2H32a2,2,0,0,0,2-2V22A2,2,0,0,0,32,20ZM7,25a1,1,0,0,1-1,1H4a1,1,0,0,1-1-1V23a1,1,0,0,1,1-1H6a1,1,0,0,1,1,1Zm6,0a1,1,0,0,1-1,1H10a1,1,0,0,1-1-1V23a1,1,0,0,1,1-1h2a1,1,0,0,1,1,1Zm10,0a1,1,0,0,1-2,0V23a1,1,0,0,1,2,0Zm4,0a1,1,0,0,1-2,0V23a1,1,0,0,1,2,0Zm4,0a1,1,0,0,1-2,0V23a1,1,0,0,1,2,0Z"/><path class="cls-2" d="M32,30H2a2,2,0,0,0-2,2v4a2,2,0,0,0,2,2H32a2,2,0,0,0,2-2V32A2,2,0,0,0,32,30ZM7,35a1,1,0,0,1-1,1H4a1,1,0,0,1-1-1V33a1,1,0,0,1,1-1H6a1,1,0,0,1,1,1Zm6,0a1,1,0,0,1-1,1H10a1,1,0,0,1-1-1V33a1,1,0,0,1,1-1h2a1,1,0,0,1,1,1Zm10,0a1,1,0,0,1-2,0V33a1,1,0,0,1,2,0Zm4,0a1,1,0,0,1-2,0V33a1,1,0,0,1,2,0Zm4,0a1,1,0,0,1-2,0V33a1,1,0,0,1,2,0Z"/><path class="cls-1" d="M4,47H15.28a2,2,0,0,0,3.44,0H30a1,1,0,0,0,0-2H18.72a1.91,1.91,0,0,0-.72-.72V40H16v4.28a1.91,1.91,0,0,0-.72.72H4a1,1,0,0,0,0,2Z"/></g></svg>