<svg xmlns="http://www.w3.org/2000/svg" viewBox="0 0 48 48"><defs><style>.cls-1{fill:#263238;}.cls-2{fill:#424242;}</style></defs><title>Main Servers</title><g id="Main_Servers" data-name="Main Servers"><rect class="cls-1" x="10" y="12" width="4" height="4" rx="1"/><rect class="cls-1" x="16" y="12" width="4" height="4" rx="1"/><path class="cls-1" d="M37,16a1,1,0,0,1-1-1V13a1,1,0,0,1,2,0v2A1,1,0,0,1,37,16Z"/><path class="cls-1" d="M33,16a1,1,0,0,1-1-1V13a1,1,0,0,1,2,0v2A1,1,0,0,1,33,16Z"/><path class="cls-1" d="M29,16a1,1,0,0,1-1-1V13a1,1,0,0,1,2,0v2A1,1,0,0,1,29,16Z"/><rect class="cls-1" x="10" y="32" width="4" height="4" rx="1"/><rect class="cls-1" x="16" y="32" width="4" height="4" rx="1"/><path class="cls-1" d="M37,36a1,1,0,0,1-1-1V33a1,1,0,0,1,2,0v2A1,1,0,0,1,37,36Z"/><path class="cls-1" d="M33,36a1,1,0,0,1-1-1V33a1,1,0,0,1,2,0v2A1,1,0,0,1,33,36Z"/><path class="cls-1" d="M29,36a1,1,0,0,1-1-1V33a1,1,0,0,1,2,0v2A1,1,0,0,1,29,36Z"/><rect class="cls-1" x="10" y="22" width="4" height="4" rx="1"/><rect class="cls-1" x="16" y="22" width="4" height="4" rx="1"/><path class="cls-1" d="M37,26a1,1,0,0,1-1-1V23a1,1,0,0,1,2,0v2A1,1,0,0,1,37,26Z"/><path class="cls-1" d="M33,26a1,1,0,0,1-1-1V23a1,1,0,0,1,2,0v2A1,1,0,0,1,33,26Z"/><path class="cls-1" d="M29,26a1,1,0,0,1-1-1V23a1,1,0,0,1,2,0v2A1,1,0,0,1,29,26Z"/><rect class="cls-1" y="44" width="4" height="4" rx="1"/><rect class="cls-1" x="18" y="44" width="4" height="4" rx="1"/><rect class="cls-1" x="26" y="44" width="4" height="4" rx="1"/><rect class="cls-1" x="44" y="44" width="4" height="4" rx="1"/><rect class="cls-1" width="4" height="4" rx="1"/><rect class="cls-1" x="18" width="4" height="4" rx="1"/><rect class="cls-1" x="26" width="4" height="4" rx="1"/><path class="cls-1" d="M47,4H45a1,1,0,0,1-1-1V1a1,1,0,0,1,1-1h2a1,1,0,0,1,1,1V3A1,1,0,0,1,47,4ZM46,2h0Z"/><path class="cls-2" d="M42,3V1H36a1,1,0,0,0-1,1V8H29V6H27V8H21V6H19V8H13V2a1,1,0,0,0-1-1H6V3h5V8H9a3,3,0,0,0-3,3v6a3,3,0,0,0,.78,2A3,3,0,0,0,6,21v6a3,3,0,0,0,.78,2A3,3,0,0,0,6,31v6a3,3,0,0,0,3,3h2v5H6v2h6a1,1,0,0,0,1-1V40h6v2h2V40h6v2h2V40h6v6a1,1,0,0,0,1,1h6V45H37V40h2a3,3,0,0,0,3-3V31a3,3,0,0,0-.78-2A3,3,0,0,0,42,27V21a3,3,0,0,0-.78-2A3,3,0,0,0,42,17V11a3,3,0,0,0-3-3H37V3ZM40,37a1,1,0,0,1-1,1H9a1,1,0,0,1-1-1V31a1,1,0,0,1,1-1H39a1,1,0,0,1,1,1Zm0-10a1,1,0,0,1-1,1H9a1,1,0,0,1-1-1V21a1,1,0,0,1,1-1H39a1,1,0,0,1,1,1ZM39,10a1,1,0,0,1,1,1v6a1,1,0,0,1-1,1H9a1,1,0,0,1-1-1V11a1,1,0,0,1,1-1Z"/></g></svg>