<svg xmlns="http://www.w3.org/2000/svg" viewBox="0 0 48 48"><defs><style>.cls-1{fill:#424242;}.cls-2{fill:#263238;}</style></defs><title>Maintenance Service</title><g id="Maintenance_Service" data-name="Maintenance Service"><path class="cls-1" d="M38,20a10,10,0,0,0-19.8-2h2.05A8,8,0,0,1,36,20a7.62,7.62,0,0,1-.09,1.18A3.68,3.68,0,0,1,36,22v4A9.9,9.9,0,0,0,38,20Z"/><path class="cls-1" d="M47.32,16.68l-4.9-1.63a17.18,17.18,0,0,0-.71-1.75L44,8.69a1,1,0,0,0-.19-1.15L40.46,4.19A1,1,0,0,0,39.31,4L34.7,6.29A17.18,17.18,0,0,0,33,5.58L31.32.68A1,1,0,0,0,30.38,0H25.62a1,1,0,0,0-.94.68l-1.63,4.9a17.18,17.18,0,0,0-1.75.71L16.69,4a1,1,0,0,0-1.15.19L12.19,7.54A1,1,0,0,0,12,8.69l2.29,4.61a17.18,17.18,0,0,0-.71,1.75l-4.9,1.63a1,1,0,0,0-.68.94V18h3.05l3.63-1.21a1,1,0,0,0,.64-.64,15,15,0,0,1,1-2.38,1,1,0,0,0,0-.91l-2.2-4.42,2.33-2.33,4.42,2.2a1,1,0,0,0,.91,0,15,15,0,0,1,2.38-1,1,1,0,0,0,.64-.64L26.35,2h3.3l1.56,4.68a1,1,0,0,0,.64.64,15,15,0,0,1,2.38,1,1,1,0,0,0,.91,0l4.42-2.2,2.33,2.33-2.2,4.42a1,1,0,0,0,0,.91,15,15,0,0,1,1,2.38,1,1,0,0,0,.64.64L46,18.35v3.3l-4.68,1.56a1,1,0,0,0-.64.64,15,15,0,0,1-1,2.38,1,1,0,0,0,0,.91l2.2,4.42-2.33,2.33L36,32.12v2.24L39.31,36a1,1,0,0,0,1.15-.19l3.35-3.35A1,1,0,0,0,44,31.31L41.71,26.7A17.18,17.18,0,0,0,42.42,25l4.9-1.63a1,1,0,0,0,.68-.94V17.62A1,1,0,0,0,47.32,16.68Z"/><path class="cls-2" d="M32,20H2a2,2,0,0,0-2,2v4a2,2,0,0,0,2,2H32a2,2,0,0,0,2-2V22A2,2,0,0,0,32,20ZM7,25a1,1,0,0,1-1,1H4a1,1,0,0,1-1-1V23a1,1,0,0,1,1-1H6a1,1,0,0,1,1,1Zm6,0a1,1,0,0,1-1,1H10a1,1,0,0,1-1-1V23a1,1,0,0,1,1-1h2a1,1,0,0,1,1,1Zm10,0a1,1,0,0,1-2,0V23a1,1,0,0,1,2,0Zm4,0a1,1,0,0,1-2,0V23a1,1,0,0,1,2,0Zm4,0a1,1,0,0,1-2,0V23a1,1,0,0,1,2,0Z"/><path class="cls-2" d="M32,30H2a2,2,0,0,0-2,2v4a2,2,0,0,0,2,2H32a2,2,0,0,0,2-2V32A2,2,0,0,0,32,30ZM7,35a1,1,0,0,1-1,1H4a1,1,0,0,1-1-1V33a1,1,0,0,1,1-1H6a1,1,0,0,1,1,1Zm6,0a1,1,0,0,1-1,1H10a1,1,0,0,1-1-1V33a1,1,0,0,1,1-1h2a1,1,0,0,1,1,1Zm10,0a1,1,0,0,1-2,0V33a1,1,0,0,1,2,0Zm4,0a1,1,0,0,1-2,0V33a1,1,0,0,1,2,0Zm4,0a1,1,0,0,1-2,0V33a1,1,0,0,1,2,0Z"/><path class="cls-1" d="M4,47H15.28a2,2,0,0,0,3.44,0H30a1,1,0,0,0,0-2H18.72a1.91,1.91,0,0,0-.72-.72V40H16v4.28a1.91,1.91,0,0,0-.72.72H4a1,1,0,0,0,0,2Z"/></g></svg>