<?xml version="1.0" encoding="utf-8"?>
<!-- Generator: Adobe Illustrator 19.2.0, SVG Export Plug-In . SVG Version: 6.00 Build 0)  -->
<svg version="1.1" id="Layer_1" xmlns="http://www.w3.org/2000/svg" xmlns:xlink="http://www.w3.org/1999/xlink" x="0px" y="0px"
	 viewBox="0 0 500 500" style="enable-background:new 0 0 500 500;" xml:space="preserve">
<style type="text/css">
	.st0{fill:#ECF4F7;}
	.st1{fill:#1C1D21;}
	.st2{fill:#f7f7f7;}
	.st3{fill:#AAB1BA;}
	.st4{fill:none;stroke:#1C1D21;stroke-width:10;stroke-linecap:round;stroke-linejoin:round;stroke-miterlimit:10;}
	.st5{fill:#FDDF7F;}
	.st6{fill:#FFFFFF;}
</style>
<g>
	<g>
		<g>
			<path class="st2" d="M300,298.4c-6.3-9.7-9.7-21-9.7-32.6v-56.9h-80.6v56.9c0,11.6-3.4,22.9-9.7,32.6l-72.9,111.6
				c-4.6,7-7,15.2-7,23.5v43c0,10.2,8.3,18.5,18.5,18.5h222.7c10.2,0,18.5-8.3,18.5-18.5v-43c0-8.4-2.4-16.5-7-23.5L300,298.4z"/>
		</g>
	</g>
	<g>
		<g>
			<g>
				<path class="st1" d="M186.8,95c-1.3,0-2.6-0.5-3.5-1.5c-1.9-1.9-1.9-5.1,0-7.1l63-63c0.9-0.9,2.2-1.5,3.5-1.5
					c1.3,0,2.6,0.5,3.5,1.5l59.4,59.4l59.4-59.4c1.9-1.9,5.1-1.9,7.1,0c1.9,1.9,1.9,5.1,0,7.1l-63,63c-0.9,0.9-2.2,1.5-3.5,1.5
					c-1.3,0-2.6-0.5-3.5-1.5l-59.4-59.4l-59.4,59.4C189.4,94.5,188.1,95,186.8,95z"/>
			</g>
		</g>
		<g>
			<g>
				<g>
					<circle class="st5" cx="186.8" cy="90" r="22"/>
				</g>
			</g>
			<g>
				<g>
					<path class="st1" d="M186.8,117c-14.9,0-27-12.1-27-27c0-14.9,12.1-27,27-27c14.9,0,27,12.1,27,27
						C213.9,104.9,201.7,117,186.8,117z M186.8,73c-9.4,0-17,7.6-17,17c0,9.4,7.6,17,17,17c9.4,0,17-7.6,17-17
						C203.9,80.6,196.2,73,186.8,73z"/>
				</g>
			</g>
		</g>
		<g>
			<g>
				<g>
					<circle class="st5" cx="249.8" cy="27" r="22"/>
				</g>
			</g>
			<g>
				<g>
					<path class="st1" d="M249.8,54c-14.9,0-27-12.1-27-27c0-14.9,12.1-27,27-27c14.9,0,27,12.1,27,27C276.8,41.9,264.7,54,249.8,54
						z M249.8,10c-9.4,0-17,7.6-17,17c0,9.4,7.6,17,17,17s17-7.6,17-17C266.9,17.6,259.2,10,249.8,10z"/>
				</g>
			</g>
		</g>
		<g>
			<g>
				<g>
					<circle class="st5" cx="312.8" cy="90" r="22"/>
				</g>
			</g>
			<g>
				<g>
					<path class="st1" d="M312.8,117c-14.9,0-27-12.1-27-27c0-14.9,12.1-27,27-27c14.9,0,27,12.1,27,27
						C339.8,104.9,327.7,117,312.8,117z M312.8,73c-9.4,0-17,7.6-17,17c0,9.4,7.6,17,17,17c9.4,0,17-7.6,17-17
						C329.8,80.6,322.2,73,312.8,73z"/>
				</g>
			</g>
		</g>
		<g>
			<g>
				<g>
					<circle class="st5" cx="375.8" cy="27" r="22"/>
				</g>
			</g>
			<g>
				<g>
					<path class="st1" d="M375.8,54c-14.9,0-27-12.1-27-27c0-14.9,12.1-27,27-27c14.9,0,27,12.1,27,27C402.8,41.9,390.7,54,375.8,54
						z M375.8,10c-9.4,0-17,7.6-17,17c0,9.4,7.6,17,17,17c9.4,0,17-7.6,17-17C392.8,17.6,385.2,10,375.8,10z"/>
				</g>
			</g>
		</g>
	</g>
	<g>
		<g>
			<path class="st1" d="M238.5,213.9h-27.6c-2.8,0-5-2.2-5-5c0-2.8,2.2-5,5-5h27.6c2.8,0,5,2.2,5,5
				C243.5,211.6,241.3,213.9,238.5,213.9z"/>
		</g>
	</g>
	<g>
		<g>
			<path class="st1" d="M238.5,253h-27.6c-2.8,0-5-2.2-5-5s2.2-5,5-5h27.6c2.8,0,5,2.2,5,5S241.3,253,238.5,253z"/>
		</g>
	</g>
	<g>
		<g>
			<path class="st1" d="M238.5,292.2h-35.7c-2.8,0-5-2.2-5-5c0-2.8,2.2-5,5-5h35.7c2.8,0,5,2.2,5,5
				C243.5,289.9,241.3,292.2,238.5,292.2z"/>
		</g>
	</g>
	<g>
		<g>
			<circle class="st6" cx="326" cy="438.4" r="13.2"/>
		</g>
	</g>
	<g>
		<g>
			<circle class="st6" cx="238.5" cy="328.3" r="13.2"/>
		</g>
	</g>
	<g>
		<g>
			<circle class="st6" cx="186.8" cy="447.4" r="17.1"/>
		</g>
	</g>
	<g>
		<g>
			<circle class="st6" cx="259.3" cy="392.1" r="20.8"/>
		</g>
	</g>
	<g>
		<g>
			<g>
				<g>
					<path class="st1" d="M150.7,500H75c-2.8,0-5-2.2-5-5s2.2-5,5-5h75.7c2.8,0,5,2.2,5,5S153.5,500,150.7,500z"/>
				</g>
			</g>
			<g>
				<g>
					<path class="st1" d="M47.7,500H27.7c-2.8,0-5-2.2-5-5s2.2-5,5-5h20.1c2.8,0,5,2.2,5,5S50.5,500,47.7,500z"/>
				</g>
			</g>
		</g>
		<g>
			<g>
				<g>
					<path class="st1" d="M425,500h-75.7c-2.8,0-5-2.2-5-5s2.2-5,5-5H425c2.8,0,5,2.2,5,5S427.8,500,425,500z"/>
				</g>
			</g>
			<g>
				<g>
					<path class="st1" d="M472.3,500h-20.1c-2.8,0-5-2.2-5-5s2.2-5,5-5h20.1c2.8,0,5,2.2,5,5S475.1,500,472.3,500z"/>
				</g>
			</g>
		</g>
	</g>
	<g>
		<g>
			<path class="st1" d="M361.4,500H138.6c-13,0-23.5-10.5-23.5-23.5v-43c0-9.3,2.7-18.4,7.8-26.3l62.4-95.6
				c12.7-19.4,19.3-41.9,19.3-65v-84.9c0-0.1,0-0.1,0-0.2v-11.2c0-4.3-3.5-7.7-7.7-7.7c-4.3,0-7.7,3.5-7.7,7.7c0,2.8-2.2,5-5,5
				c-2.8,0-5-2.2-5-5c0-9.8,7.9-17.7,17.7-17.7c9.8,0,17.7,7.9,17.7,17.7v11c0,0.1,0,0.1,0,0.2v85.1c0,25.1-7.3,49.4-21,70.5
				l-62.4,95.6c-4,6.2-6.2,13.4-6.2,20.8v43c0,7.5,6.1,13.5,13.5,13.5h222.7c7.5,0,13.5-6.1,13.5-13.5v-43c0-7.4-2.1-14.6-6.2-20.8
				l-62.4-95.6c-13.7-21-21-45.4-21-70.5l0-84.1c0-0.3,0-0.7,0-1h0v-11.2c0-9.8,7.9-17.7,17.7-17.7c9.8,0,17.7,7.9,17.7,17.7
				c0,2.8-2.2,5-5,5s-5-2.2-5-5c0-4.3-3.5-7.7-7.7-7.7c-4.3,0-7.7,3.5-7.7,7.7v11.2c0,0,0,0,0,0l0,0c0,0.6,0,85.1,0,85.1
				c0,23.1,6.7,45.6,19.3,65l62.4,95.6c5.1,7.8,7.8,16.9,7.8,26.3v43C384.9,489.5,374.3,500,361.4,500z"/>
		</g>
	</g>
</g>
</svg>
