<?xml version="1.0" encoding="utf-8"?>
<!-- Generator: Adobe Illustrator 19.2.0, SVG Export Plug-In . SVG Version: 6.00 Build 0)  -->
<svg version="1.1" id="Layer_1" xmlns="http://www.w3.org/2000/svg" xmlns:xlink="http://www.w3.org/1999/xlink" x="0px" y="0px"
	 viewBox="0 0 500 500" style="enable-background:new 0 0 500 500;" xml:space="preserve">
<style type="text/css">
	.st0{fill:#ECF4F7;}
	.st1{fill:#1C1D21;}
	.st2{fill:#f7f7f7;}
	.st3{fill:#AAB1BA;}
	.st4{fill:none;stroke:#1C1D21;stroke-width:10;stroke-linecap:round;stroke-linejoin:round;stroke-miterlimit:10;}
	.st5{fill:#FDDF7F;}
	.st6{fill:#FFFFFF;}
</style>
<g>
	<g>
		<g>
			<g>
				<g>
					<path class="st1" d="M99.7,10H86.5c-2.8,0-5-2.2-5-5c0-2.8,2.2-5,5-5h13.1c2.8,0,5,2.2,5,5C104.7,7.7,102.4,10,99.7,10z"/>
				</g>
			</g>
			<g>
				<g>
					<path class="st1" d="M252,500H35c-19.3,0-35-15.7-35-35V154c0-2.8,2.2-5,5-5s5,2.2,5,5v311c0,13.8,11.2,25,25,25h217
						c13.8,0,25-11.2,25-25V35c0-13.8-11.2-25-25-25H124.3c-2.8,0-5-2.2-5-5c0-2.8,2.2-5,5-5H252c19.3,0,35,15.7,35,35v430
						C287,484.3,271.3,500,252,500z"/>
				</g>
			</g>
			<g>
				<g>
					<path class="st1" d="M5,117.6c-2.8,0-5-2.2-5-5V35C0,15.7,15.7,0,35,0h17.3c2.8,0,5,2.2,5,5c0,2.8-2.2,5-5,5H35
						c-13.8,0-25,11.2-25,25v77.6C10,115.4,7.8,117.6,5,117.6z"/>
				</g>
			</g>
		</g>
		<g>
			<g>
				<path class="st2" d="M40,412.5V60c0-11,9-20,20-20h167c11,0,20,9,20,20v352.5c0,11-9,20-20,20H60C49,432.5,40,423.5,40,412.5z"
					/>
			</g>
		</g>
		<g>
			<g>
				<path class="st1" d="M227,437.5H60c-13.8,0-25-11.2-25-25V60c0-13.8,11.2-25,25-25h167c13.8,0,25,11.2,25,25v352.5
					C252,426.3,240.8,437.5,227,437.5z M60,45c-8.3,0-15,6.7-15,15v352.5c0,8.3,6.7,15,15,15h167c8.3,0,15-6.7,15-15V60
					c0-8.3-6.7-15-15-15H60z"/>
			</g>
		</g>
		<g>
			<g>
				<circle class="st3" cx="143.5" cy="463.7" r="31.2"/>
			</g>
		</g>
		<g>
			<g>
				<path class="st1" d="M143.5,500c-20,0-36.2-16.3-36.2-36.2s16.3-36.2,36.2-36.2s36.2,16.3,36.2,36.2S163.5,500,143.5,500z
					 M143.5,437.5c-14.5,0-26.2,11.8-26.2,26.2c0,14.5,11.8,26.2,26.2,26.2c14.5,0,26.2-11.8,26.2-26.2
					C169.8,449.3,158,437.5,143.5,437.5z"/>
			</g>
		</g>
	</g>
	<g>
		<g>
			<g>
				<path class="st5" d="M495,207.3v-47.7c0-17.1-13.8-30.9-30.9-30.9H210.7c-25,0-49.2,8.4-68.9,23.7l-46.3,36.2
					c-12.1,9.5-12.1,27.8,0,37.2l46.3,36.2c19.7,15.4,43.9,23.7,68.9,23.7h253.4c17.1,0,30.9-13.8,30.9-30.9V207.3z"/>
			</g>
		</g>
		<g>
			<g>
				<path class="st1" d="M464.1,290.9H210.7c-26,0-51.5-8.8-72-24.8l-46.3-36.2c-7-5.5-11-13.7-11-22.5c0-8.9,4-17.1,11-22.5
					l46.3-36.2c20.4-16,46-24.8,72-24.8h253.4c19.8,0,35.9,16.1,35.9,35.9V255C500,274.8,483.9,290.9,464.1,290.9z M210.7,133.7
					c-23.7,0-47.1,8.1-65.8,22.7l-46.3,36.2c-4.5,3.6-7.1,8.9-7.1,14.7c0,5.8,2.6,11.1,7.1,14.7l46.3,36.2
					c18.7,14.6,42.1,22.7,65.8,22.7h253.4c14.3,0,25.9-11.6,25.9-25.9v-95.3c0-14.3-11.6-25.9-25.9-25.9H210.7z"/>
			</g>
		</g>
		<g>
			<g>
				<circle class="st2" cx="172.6" cy="207.3" r="26.3"/>
			</g>
		</g>
		<g>
			<g>
				<path class="st1" d="M172.6,238.6c-17.2,0-31.3-14-31.3-31.3c0-17.2,14-31.3,31.3-31.3s31.3,14,31.3,31.3
					C203.9,224.5,189.9,238.6,172.6,238.6z M172.6,186c-11.7,0-21.3,9.5-21.3,21.3c0,11.7,9.5,21.3,21.3,21.3
					c11.7,0,21.3-9.5,21.3-21.3C193.9,195.6,184.4,186,172.6,186z"/>
			</g>
		</g>
	</g>
	<g>
		<g>
			<g>
				<path class="st1" d="M307.3,203.9c-11.9,0-21.5-9.6-21.5-21.5c0-11.9,9.6-21.5,21.5-21.5c11.9,0,21.5,9.6,21.5,21.5
					C328.8,194.3,319.1,203.9,307.3,203.9z M307.3,170.9c-6.3,0-11.5,5.2-11.5,11.5c0,6.3,5.2,11.5,11.5,11.5
					c6.3,0,11.5-5.2,11.5-11.5C318.8,176.1,313.6,170.9,307.3,170.9z"/>
			</g>
		</g>
		<g>
			<g>
				<path class="st1" d="M354.8,261.6c-11.9,0-21.5-9.6-21.5-21.5c0-11.9,9.6-21.5,21.5-21.5c11.9,0,21.5,9.6,21.5,21.5
					C376.3,252,366.7,261.6,354.8,261.6z M354.8,228.6c-6.3,0-11.5,5.2-11.5,11.5s5.2,11.5,11.5,11.5c6.3,0,11.5-5.2,11.5-11.5
					S361.2,228.6,354.8,228.6z"/>
			</g>
		</g>
		<g>
			<g>
				<path class="st1" d="M285.7,261.6c-1.3,0-2.6-0.5-3.5-1.5c-2-2-2-5.1,0-7.1l90.7-90.7c2-2,5.1-2,7.1,0c2,2,2,5.1,0,7.1
					l-90.7,90.7C288.3,261.1,287,261.6,285.7,261.6z"/>
			</g>
		</g>
	</g>
</g>
</svg>
