<?xml version="1.0" encoding="utf-8"?>
<!-- Generator: Adobe Illustrator 16.0.0, SVG Export Plug-In . SVG Version: 6.00 Build 0)  -->
<!DOCTYPE svg PUBLIC "-//W3C//DTD SVG 1.0//EN" "http://www.w3.org/TR/2001/REC-SVG-20010904/DTD/svg10.dtd">
<svg version="1.0" id="Layer_1" xmlns="http://www.w3.org/2000/svg" xmlns:xlink="http://www.w3.org/1999/xlink" x="0px" y="0px"
	 width="100px" height="100px" viewBox="0 0 100 100" enable-background="new 0 0 100 100" xml:space="preserve">
<path fill="#E9EAEF" stroke="#335C5F" stroke-width="1.5" stroke-linecap="round" stroke-linejoin="round" stroke-miterlimit="10" d="
	M59.575,36.665c0.942,0,1.708,0.769,1.708,1.711v30.771c0,0.943-0.768,1.709-1.712,1.709H11.712c-0.943,0-1.712-0.766-1.712-1.709
	V38.376c0-0.942,0.769-1.711,1.712-1.711H59.575z"/>
<path fill="#CACCD1" d="M59.575,36.665h-3.334c0.943,0,1.709,0.769,1.709,1.711v30.771c0,0.943-0.768,1.709-1.712,1.709h3.333
	c0.944,0,1.712-0.766,1.712-1.709V38.376C61.283,37.434,60.518,36.665,59.575,36.665z"/>
<path fill="#E9EAEF" stroke="#335C5F" stroke-width="1.5" stroke-linecap="round" stroke-linejoin="round" stroke-miterlimit="10" d="
	M73.935,27.778H16.499c-1.133,0-2.052,0.919-2.052,2.052v6.835h45.129c0.942,0,1.708,0.769,1.708,1.711v30.427h12.647
	c1.134,0,2.052-0.918,2.052-2.049V29.83C75.982,28.697,75.064,27.778,73.935,27.778z"/>
<path fill="#CACCD1" d="M73.935,27.778h-3.334c1.131,0,2.049,0.919,2.049,2.052v36.925c0,1.131-0.918,2.049-2.052,2.049h3.333
	c1.134,0,2.052-0.918,2.052-2.049V29.83C75.982,28.697,75.064,27.778,73.935,27.778z"/>
<path fill="#E9EAEF" stroke="#335C5F" stroke-width="1.5" stroke-linecap="round" stroke-linejoin="round" stroke-miterlimit="10" d="
	M87.607,18.888H20.599c-1.323,0-2.395,1.072-2.395,2.395v6.495h55.73c1.13,0,2.048,0.919,2.048,2.052v36.923h11.622
	c1.323,0,2.396-1.072,2.396-2.392V21.283C90,19.96,88.928,18.888,87.607,18.888z"/>
<path fill="#CACCD1" d="M87.607,18.888h-4.444c1.319,0,2.391,1.072,2.391,2.395v43.079c0,1.319-1.071,2.392-2.394,2.392h4.444
	c1.323,0,2.396-1.072,2.396-2.392V21.283C90,19.96,88.928,18.888,87.607,18.888z"/>
<rect x="52.302" y="18.888" fill="#70929F" stroke="#335C5F" stroke-width="1.5" stroke-linecap="round" stroke-linejoin="round" stroke-miterlimit="10" width="3.593" height="3.592"/>
<path fill="#46C6F1" stroke="#335C5F" stroke-width="1.5" stroke-linecap="round" stroke-linejoin="round" stroke-miterlimit="10" d="
	M21.796,22.48v5.298h52.138c1.13,0,2.048,0.919,2.048,2.052v33.333H86.41V22.48H21.796z"/>
<rect x="83.076" y="22.48" fill="#3EAED3" width="3.334" height="40.683"/>
<rect x="43.672" y="27.778" fill="#70929F" stroke="#335C5F" stroke-width="1.5" stroke-linecap="round" stroke-linejoin="round" stroke-miterlimit="10" width="3.077" height="3.078"/>
<path fill="#46C6F1" stroke="#335C5F" stroke-width="1.5" stroke-linecap="round" stroke-linejoin="round" stroke-miterlimit="10" d="
	M17.524,30.856v5.809h42.051c0.942,0,1.708,0.769,1.708,1.711v27.35h11.621V30.856H17.524z"/>
<rect x="69.571" y="30.856" fill="#3EAED3" width="3.333" height="34.871"/>
<rect x="12.563" y="39.231" fill="#46C6F1" stroke="#335C5F" stroke-width="1.5" stroke-linecap="round" stroke-linejoin="round" stroke-miterlimit="10" width="46.153" height="29.062"/>
<rect x="55.384" y="39.231" fill="#3EAED3" width="3.333" height="29.062"/>
<rect x="34.358" y="36.665" fill="#70929F" stroke="#335C5F" stroke-width="1.5" stroke-linecap="round" stroke-linejoin="round" stroke-miterlimit="10" width="2.566" height="2.566"/>
<rect x="33.078" y="68.293" fill="#70929F" stroke="#335C5F" stroke-width="1.5" stroke-linecap="round" stroke-linejoin="round" stroke-miterlimit="10" width="5.13" height="2.563"/>
<polygon fill="#D7DAE7" stroke="#335C5F" stroke-width="1.5" stroke-linecap="round" stroke-linejoin="round" stroke-miterlimit="10" points="
	42.478,81.112 28.806,81.112 31.369,70.856 39.914,70.856 "/>
<path fill="#D7DAE7" stroke="#335C5F" stroke-width="1.5" stroke-linecap="round" stroke-linejoin="round" stroke-miterlimit="10" d="
	M60.929,70.14c-0.313,0.422-0.79,0.717-1.357,0.717h-8.717l2.565,10.256h10.256L60.929,70.14z"/>
<polygon fill="#D7DAE7" stroke="#335C5F" stroke-width="1.5" stroke-linecap="round" stroke-linejoin="round" stroke-miterlimit="10" points="
	39.914,70.856 42.478,81.112 53.42,81.112 50.854,70.856 "/>
<polygon fill="none" stroke="#335C5F" stroke-width="1.5" stroke-linecap="round" stroke-linejoin="round" stroke-miterlimit="10" points="
	31.195,44.873 26.751,44.873 26.751,49.315 26.751,44.873 "/>
<polygon fill="none" stroke="#335C5F" stroke-width="1.5" stroke-linecap="round" stroke-linejoin="round" stroke-miterlimit="10" points="
	44.53,49.315 44.53,44.869 40.084,44.869 44.53,44.869 "/>
<polygon fill="none" stroke="#335C5F" stroke-width="1.5" stroke-linecap="round" stroke-linejoin="round" stroke-miterlimit="10" points="
	40.084,62.652 44.53,62.652 44.53,58.206 44.53,62.652 "/>
<polygon fill="none" stroke="#335C5F" stroke-width="1.5" stroke-linecap="round" stroke-linejoin="round" stroke-miterlimit="10" points="
	26.751,58.202 26.751,62.652 31.195,62.652 26.751,62.652 "/>
<path fill="none" stroke="#335C5F" stroke-width="1.5" stroke-linecap="round" stroke-linejoin="round" stroke-miterlimit="10" d="
	M26.751,44.873l17.779,17.78L26.751,44.873z"/>
<path fill="none" stroke="#335C5F" stroke-width="1.5" stroke-linecap="round" stroke-linejoin="round" stroke-miterlimit="10" d="
	M26.751,62.652l17.779-17.78L26.751,62.652z"/>
<path fill="#BBBECA" d="M61.665,73.078l-0.736-2.938c-0.313,0.422-0.79,0.717-1.357,0.717h-8.717l0.556,2.222l0,0l2.01,8.034h2.223
	l-2.011-8.034H61.665z"/>
<polygon fill="#BBBECA" points="51.41,73.078 50.854,70.856 39.914,70.856 42.478,81.112 44.701,81.112 42.692,73.078 "/>
<polygon fill="#BBBECA" points="40.469,73.078 39.914,70.856 31.369,70.856 30.814,73.078 "/>
<polygon fill="none" stroke="#335C5F" stroke-width="1.5" stroke-linecap="round" stroke-linejoin="round" stroke-miterlimit="10" points="
	42.478,81.112 28.806,81.112 31.369,70.856 39.914,70.856 "/>
<path fill="none" stroke="#335C5F" stroke-width="1.5" stroke-linecap="round" stroke-linejoin="round" stroke-miterlimit="10" d="
	M60.929,70.14c-0.313,0.422-0.79,0.717-1.357,0.717h-8.717l2.565,10.256h10.256L60.929,70.14z"/>
<polygon fill="none" stroke="#335C5F" stroke-width="1.5" stroke-linecap="round" stroke-linejoin="round" stroke-miterlimit="10" points="
	39.914,70.856 42.478,81.112 53.42,81.112 50.854,70.856 "/>
<path fill="#3EAED3" d="M73.935,25.556H21.796v2.222h52.138c1.13,0,2.048,0.919,2.048,2.052v33.333h2.225V29.83
	C78.207,27.473,76.29,25.556,73.935,25.556z"/>
<rect x="18.204" y="25.556" fill="#CACCD1" width="3.592" height="2.222"/>
<rect x="75.982" y="63.163" fill="#CACCD1" width="2.225" height="3.59"/>
<rect x="14.446" y="34.442" fill="#CACCD1" width="3.078" height="2.223"/>
<rect x="61.283" y="65.727" fill="#CACCD1" width="2.224" height="3.077"/>
<path fill="#3EAED3" d="M59.575,34.442H17.524v2.223h42.051c0.942,0,1.708,0.769,1.708,1.711v27.35h2.224v-27.35
	C63.507,36.208,61.743,34.442,59.575,34.442z"/>
<path fill="none" stroke="#335C5F" stroke-width="1.5" stroke-linecap="round" stroke-linejoin="round" stroke-miterlimit="10" d="
	M59.575,36.665c0.942,0,1.708,0.769,1.708,1.711v30.771c0,0.943-0.768,1.709-1.712,1.709H11.712c-0.943,0-1.712-0.766-1.712-1.709
	V38.376c0-0.942,0.769-1.711,1.712-1.711H59.575z"/>
<path fill="none" stroke="#335C5F" stroke-width="1.5" stroke-linecap="round" stroke-linejoin="round" stroke-miterlimit="10" d="
	M73.935,27.778H16.499c-1.133,0-2.052,0.919-2.052,2.052v6.835h45.129c0.942,0,1.708,0.769,1.708,1.711v30.427h12.647
	c1.134,0,2.052-0.918,2.052-2.049V29.83C75.982,28.697,75.064,27.778,73.935,27.778z"/>
<path fill="none" stroke="#335C5F" stroke-width="1.5" stroke-linecap="round" stroke-linejoin="round" stroke-miterlimit="10" d="
	M87.607,18.888H20.599c-1.323,0-2.395,1.072-2.395,2.395v6.495h55.73c1.13,0,2.048,0.919,2.048,2.052v36.923h11.622
	c1.323,0,2.396-1.072,2.396-2.392V21.283C90,19.96,88.928,18.888,87.607,18.888z"/>
<path fill="none" stroke="#335C5F" stroke-width="1.5" stroke-linecap="round" stroke-linejoin="round" stroke-miterlimit="10" d="
	M21.796,22.48v5.298h52.138c1.13,0,2.048,0.919,2.048,2.052v33.333H86.41V22.48H21.796z"/>
<path fill="none" stroke="#335C5F" stroke-width="1.5" stroke-linecap="round" stroke-linejoin="round" stroke-miterlimit="10" d="
	M17.524,30.856v5.809h42.051c0.942,0,1.708,0.769,1.708,1.711v27.35h11.621V30.856H17.524z"/>
<rect x="12.563" y="39.231" fill="none" stroke="#335C5F" stroke-width="1.5" stroke-linecap="round" stroke-linejoin="round" stroke-miterlimit="10" width="46.153" height="29.062"/>
</svg>
