<?xml version="1.0" encoding="utf-8"?>
<!-- Generator: Adobe Illustrator 16.0.0, SVG Export Plug-In . SVG Version: 6.00 Build 0)  -->
<!DOCTYPE svg PUBLIC "-//W3C//DTD SVG 1.0//EN" "http://www.w3.org/TR/2001/REC-SVG-20010904/DTD/svg10.dtd">
<svg version="1.0" id="Layer_1" xmlns="http://www.w3.org/2000/svg" xmlns:xlink="http://www.w3.org/1999/xlink" x="0px" y="0px"
	 width="100px" height="100px" viewBox="0 0 100 100" enable-background="new 0 0 100 100" xml:space="preserve">
<path fill="#75C6A4" stroke="#335C5F" stroke-width="1.5" stroke-linecap="round" stroke-linejoin="round" stroke-miterlimit="10" d="
	M29.999,64.996c0-5.522-4.479-9.998-10.001-9.998c-5.522,0-9.997,4.476-9.997,9.998v0.002l0,0v14.998l0,0c0,5.524,4.479,10,9.997,10
	c5.523,0,9.999-4.476,10.001-10l0,0V64.998l0,0V64.996z"/>
<path fill="#65AD90" d="M19.997,54.998c-0.642,0-1.268,0.066-1.875,0.182c4.625,0.878,8.126,4.935,8.126,9.816v0.002v14.998
	c-0.003,4.882-3.502,8.94-8.126,9.819c0.608,0.115,1.233,0.181,1.875,0.181c5.523,0,9.999-4.476,10.001-10V64.998v-0.002
	C29.999,59.474,25.52,54.998,19.997,54.998z"/>
<path fill="#FADF7E" stroke="#335C5F" stroke-width="1.5" stroke-linecap="round" stroke-linejoin="round" stroke-miterlimit="10" d="
	M69.558,39.885c0-2.418-0.92-4.836-2.766-6.679c-1.709-1.709-2.764-4.068-2.764-6.677l0,0l0,0c0-5.218,4.227-9.446,9.443-9.446l0,0
	c5.215,0,9.441,4.228,9.441,9.446l0,0l0,0c0,2.608-1.055,4.967-2.766,6.677c-1.844,1.843-2.766,4.261-2.766,6.679H69.558z"/>
<path fill="#D8C26F" d="M73.472,17.083c-0.643,0-1.27,0.065-1.875,0.188c4.316,0.87,7.568,4.684,7.568,9.258
	c0,2.608-1.055,4.967-2.768,6.677c-1.844,1.843-2.766,4.261-2.766,6.679h3.75c0-2.418,0.922-4.836,2.766-6.679
	c1.711-1.709,2.766-4.068,2.766-6.677C82.913,21.311,78.687,17.083,73.472,17.083z"/>
<polygon fill="#E9EAEF" stroke="#335C5F" stroke-width="1.5" stroke-linecap="round" stroke-linejoin="round" stroke-miterlimit="10" points="
	69.558,39.885 69.558,47.44 70.907,49.461 76.034,49.461 77.382,47.44 77.382,39.885 "/>
<polygon fill="#CACCD1" points="73.63,39.885 73.63,47.44 72.284,49.461 76.034,49.461 77.382,47.44 77.382,39.885 "/>
<path fill="none" stroke="#335C5F" stroke-width="1.5" stroke-linecap="round" stroke-linejoin="round" stroke-miterlimit="10" d="
	M69.558,45.551l7.824,1.891L69.558,45.551z"/>
<path fill="none" stroke="#335C5F" stroke-width="1.5" stroke-linecap="round" stroke-linejoin="round" stroke-miterlimit="10" d="
	M69.558,42.008l7.824,1.89L69.558,42.008z"/>
<path fill="#E9EAEF" stroke="#335C5F" stroke-width="1.5" stroke-linecap="round" stroke-linejoin="round" stroke-miterlimit="10" d="
	M74.817,34.487c0-0.744-0.602-1.349-1.346-1.349c-0.748,0-1.348,0.604-1.352,1.349l0,0v5.398h2.697V34.487L74.817,34.487z"/>
<path fill="none" stroke="#335C5F" stroke-width="1.5" stroke-linecap="round" stroke-linejoin="round" stroke-miterlimit="10" d="
	M72.39,33.688l-2.967-7.159c1.488,0,2.697-1.209,2.697-2.701c0.748,0.748,1.953,0.748,2.697,0.004c0,1.488,1.211,2.697,2.701,2.697
	l-2.965,7.159l2.965-7.159c-1.49,0-2.701-1.209-2.701-2.697c-0.744,0.744-1.949,0.744-2.697-0.004c0,1.492-1.209,2.701-2.697,2.701
	L72.39,33.688z"/>
<path fill="none" stroke="#335C5F" stroke-width="1.5" stroke-linecap="round" stroke-linejoin="round" stroke-miterlimit="10" d="
	M73.472,10v3.541V10z"/>
<path fill="none" stroke="#335C5F" stroke-width="1.5" stroke-linecap="round" stroke-linejoin="round" stroke-miterlimit="10" d="
	M56.941,26.527h3.541H56.941z"/>
<path fill="none" stroke="#335C5F" stroke-width="1.5" stroke-linecap="round" stroke-linejoin="round" stroke-miterlimit="10" d="
	M90,26.527h-3.545H90z"/>
<path fill="none" stroke="#335C5F" stroke-width="1.5" stroke-linecap="round" stroke-linejoin="round" stroke-miterlimit="10" d="
	M85.156,14.84l-2.505,2.505L85.156,14.84z"/>
<path fill="none" stroke="#335C5F" stroke-width="1.5" stroke-linecap="round" stroke-linejoin="round" stroke-miterlimit="10" d="
	M61.786,14.842l2.504,2.503L61.786,14.842z"/>
<path fill="none" stroke="#335C5F" stroke-width="1.5" stroke-linecap="round" stroke-linejoin="round" stroke-miterlimit="10" d="
	M61.786,38.211l2.504-2.503L61.786,38.211z"/>
<path fill="none" stroke="#335C5F" stroke-width="1.5" stroke-linecap="round" stroke-linejoin="round" stroke-miterlimit="10" d="
	M85.156,38.211l-2.505-2.504L85.156,38.211z"/>
<path fill="none" stroke="#335C5F" stroke-width="1.5" stroke-linecap="round" stroke-linejoin="round" stroke-miterlimit="10" d="
	M67.146,11.261l2.711,6.542L67.146,11.261z"/>
<path fill="none" stroke="#335C5F" stroke-width="1.5" stroke-linecap="round" stroke-linejoin="round" stroke-miterlimit="10" d="
	M88.74,20.204l-6.544,2.71L88.74,20.204z"/>
<path fill="none" stroke="#335C5F" stroke-width="1.5" stroke-linecap="round" stroke-linejoin="round" stroke-miterlimit="10" d="
	M58.201,32.851l6.544-2.712L58.201,32.851z"/>
<path fill="none" stroke="#335C5F" stroke-width="1.5" stroke-linecap="round" stroke-linejoin="round" stroke-miterlimit="10" d="
	M88.74,32.851l-6.548-2.71L88.74,32.851z"/>
<path fill="none" stroke="#335C5F" stroke-width="1.5" stroke-linecap="round" stroke-linejoin="round" stroke-miterlimit="10" d="
	M58.201,20.204l6.544,2.71L58.201,20.204z"/>
<path fill="none" stroke="#335C5F" stroke-width="1.5" stroke-linecap="round" stroke-linejoin="round" stroke-miterlimit="10" d="
	M79.792,11.261l-2.707,6.542L79.792,11.261z"/>
<path fill="#E9EAEF" stroke="#335C5F" stroke-width="1.5" stroke-linecap="round" stroke-linejoin="round" stroke-miterlimit="10" d="
	M21.427,67.854c0,0.787-0.644,1.43-1.43,1.43c-0.785,0-1.426-0.643-1.426-1.43v-5.714c0-0.786,0.641-1.429,1.426-1.429
	c0.786,0,1.43,0.643,1.43,1.429V67.854z"/>
<path fill="none" stroke="#335C5F" stroke-width="1.5" stroke-linecap="round" stroke-linejoin="round" stroke-miterlimit="10" d="
	M19.997,54.998v5.714V54.998z"/>
<path fill="none" stroke="#335C5F" stroke-width="1.5" stroke-linecap="round" stroke-linejoin="round" stroke-miterlimit="10" d="
	M19.997,69.284v2.855V69.284z"/>
<path fill="none" stroke="#335C5F" stroke-width="1.5" stroke-linecap="round" stroke-linejoin="round" stroke-miterlimit="10" d="
	M73.468,49.462V82.5c0,4.144-3.359,7.5-7.5,7.5h-23.47c-4.141,0-7.5-3.358-7.5-7.5v-0.004c0-4.14,3.359-7.499,7.5-7.499l15,0.002
	c4.146,0,7.501-3.357,7.501-7.498c0.004-4.14-3.355-7.498-7.497-7.498l-15.004-0.006c-4.141,0-7.5-3.357-7.5-7.501
	c0-4.14,3.359-7.498,7.5-7.498L45,44.999c4.142,0,7.5-3.357,7.5-7.5V17.5c0-4.142-3.359-7.5-7.5-7.5H27.498
	c-4.141,0-7.5,3.358-7.5,7.5v37.498V17.5c0-4.142,3.36-7.5,7.5-7.5H45c4.142,0,7.5,3.358,7.5,7.5v19.999c0,4.143-3.359,7.5-7.5,7.5
	l-2.501-0.001c-4.141,0-7.5,3.358-7.5,7.498c0,4.144,3.359,7.501,7.5,7.501l15.004,0.006c4.142,0,7.501,3.358,7.497,7.498
	c0,4.141-3.355,7.498-7.501,7.498l-15-0.002c-4.141,0-7.5,3.359-7.5,7.499V82.5c0,4.142,3.359,7.5,7.5,7.5h23.47
	c4.141,0,7.5-3.356,7.5-7.5V49.462z"/>
<path fill="none" stroke="#335C5F" stroke-width="1.5" stroke-linecap="round" stroke-linejoin="round" stroke-miterlimit="10" d="
	M29.999,64.996c0-5.522-4.479-9.998-10.001-9.998c-5.522,0-9.997,4.476-9.997,9.998v0.002l0,0v14.998l0,0c0,5.524,4.479,10,9.997,10
	c5.523,0,9.999-4.476,10.001-10l0,0V64.998l0,0V64.996z"/>
<path fill="none" stroke="#335C5F" stroke-width="1.5" stroke-linecap="round" stroke-linejoin="round" stroke-miterlimit="10" d="
	M69.558,39.885c0-2.418-0.92-4.836-2.766-6.679c-1.709-1.709-2.764-4.068-2.764-6.677l0,0l0,0c0-5.218,4.227-9.446,9.443-9.446l0,0
	c5.215,0,9.441,4.228,9.441,9.446l0,0l0,0c0,2.608-1.055,4.967-2.766,6.677c-1.844,1.843-2.766,4.261-2.766,6.679H69.558z"/>
<polygon fill="none" stroke="#335C5F" stroke-width="1.5" stroke-linecap="round" stroke-linejoin="round" stroke-miterlimit="10" points="
	69.558,39.885 69.558,47.44 70.907,49.461 76.034,49.461 77.382,47.44 77.382,39.885 "/>
</svg>
