<svg xmlns="http://www.w3.org/2000/svg" viewBox="0 0 48 48"><defs><style>.cls-1{fill:#424242;}.cls-2{fill:#263238;}</style></defs><title>Movie Server</title><g id="Movie_Server" data-name="Movie Server"><path class="cls-1" d="M47,0H9A1,1,0,0,0,8,1V5.28A2,2,0,0,0,8,8.72V18h2V8.72A1.91,1.91,0,0,0,10.72,8H46V28H35.46a3.78,3.78,0,0,1-.82,1,3.78,3.78,0,0,1,.82,1H47a1,1,0,0,0,1-1V1A1,1,0,0,0,47,0ZM10.72,6A1.91,1.91,0,0,0,10,5.28V2h5.13L12.46,6Zm4.15,0,2.67-4h3.59L18.46,6Zm6,0,2.67-4h5.59L26.46,6Zm8,0,2.67-4h3.59L32.46,6Zm6,0,2.67-4h5.59L40.46,6ZM46,6H42.87l2.67-4H46Z"/><path class="cls-2" d="M32,20H2a2,2,0,0,0-2,2v4a2,2,0,0,0,2,2H32a2,2,0,0,0,2-2V22A2,2,0,0,0,32,20ZM7,25a1,1,0,0,1-1,1H4a1,1,0,0,1-1-1V23a1,1,0,0,1,1-1H6a1,1,0,0,1,1,1Zm6,0a1,1,0,0,1-1,1H10a1,1,0,0,1-1-1V23a1,1,0,0,1,1-1h2a1,1,0,0,1,1,1Zm10,0a1,1,0,0,1-2,0V23a1,1,0,0,1,2,0Zm4,0a1,1,0,0,1-2,0V23a1,1,0,0,1,2,0Zm4,0a1,1,0,0,1-2,0V23a1,1,0,0,1,2,0Z"/><path class="cls-2" d="M32,30H2a2,2,0,0,0-2,2v4a2,2,0,0,0,2,2H32a2,2,0,0,0,2-2V32A2,2,0,0,0,32,30ZM7,35a1,1,0,0,1-1,1H4a1,1,0,0,1-1-1V33a1,1,0,0,1,1-1H6a1,1,0,0,1,1,1Zm6,0a1,1,0,0,1-1,1H10a1,1,0,0,1-1-1V33a1,1,0,0,1,1-1h2a1,1,0,0,1,1,1Zm10,0a1,1,0,0,1-2,0V33a1,1,0,0,1,2,0Zm4,0a1,1,0,0,1-2,0V33a1,1,0,0,1,2,0Zm4,0a1,1,0,0,1-2,0V33a1,1,0,0,1,2,0Z"/><path class="cls-1" d="M4,47H15.28a2,2,0,0,0,3.44,0H30a1,1,0,0,0,0-2H18.72a1.91,1.91,0,0,0-.72-.72V40H16v4.28a1.91,1.91,0,0,0-.72.72H4a1,1,0,0,0,0,2Z"/></g></svg>