<?xml version="1.0" encoding="utf-8"?>
<!-- Generator: Adobe Illustrator 16.0.0, SVG Export Plug-In . SVG Version: 6.00 Build 0)  -->
<!DOCTYPE svg PUBLIC "-//W3C//DTD SVG 1.0//EN" "http://www.w3.org/TR/2001/REC-SVG-20010904/DTD/svg10.dtd">
<svg version="1.0" id="Layer_1" xmlns="http://www.w3.org/2000/svg" xmlns:xlink="http://www.w3.org/1999/xlink" x="0px" y="0px"
	 width="100px" height="100px" viewBox="0 0 100 100" enable-background="new 0 0 100 100" xml:space="preserve">
<path fill="#E9EAEF" stroke="#335C5F" stroke-width="1.5" stroke-linecap="round" stroke-linejoin="round" stroke-miterlimit="10" d="
	M76.666,33.89v-3.333H63.329v-3.334h13.337v-3.89H50.001c-2.451,0-4.447,1.99-4.447,4.447v44.438c0-2.45,1.997-4.441,4.447-4.441
	h26.665v-3.886H54.444v-3.335h22.222v-3.331H58.889v-3.336h17.777v-3.331h-8.893v-3.335h8.893v-9.999h-4.449V33.89H76.666z"/>
<rect x="63.329" y="27.223" fill="#FADF7E" stroke="#335C5F" stroke-width="1.5" stroke-linecap="round" stroke-linejoin="round" stroke-miterlimit="10" width="26.667" height="3.334"/>
<rect x="54.441" y="33.89" fill="#FADF7E" stroke="#335C5F" stroke-width="1.5" stroke-linecap="round" stroke-linejoin="round" stroke-miterlimit="10" width="13.332" height="3.334"/>
<rect x="72.217" y="33.89" fill="#FADF7E" stroke="#335C5F" stroke-width="1.5" stroke-linecap="round" stroke-linejoin="round" stroke-miterlimit="10" width="13.333" height="3.334"/>
<rect x="54.444" y="40.557" fill="#FADF7E" stroke="#335C5F" stroke-width="1.5" stroke-linecap="round" stroke-linejoin="round" stroke-miterlimit="10" width="4.442" height="3.334"/>
<rect x="63.333" y="40.557" fill="#FADF7E" stroke="#335C5F" stroke-width="1.5" stroke-linecap="round" stroke-linejoin="round" stroke-miterlimit="10" width="8.89" height="3.334"/>
<rect x="76.666" y="40.557" fill="#FADF7E" stroke="#335C5F" stroke-width="1.5" stroke-linecap="round" stroke-linejoin="round" stroke-miterlimit="10" width="13.334" height="3.334"/>
<rect x="54.444" y="47.223" fill="#FADF7E" stroke="#335C5F" stroke-width="1.5" stroke-linecap="round" stroke-linejoin="round" stroke-miterlimit="10" width="8.885" height="3.335"/>
<rect x="67.773" y="47.223" fill="#FADF7E" stroke="#335C5F" stroke-width="1.5" stroke-linecap="round" stroke-linejoin="round" stroke-miterlimit="10" width="17.776" height="3.335"/>
<rect x="50.001" y="53.889" fill="#FADF7E" stroke="#335C5F" stroke-width="1.5" stroke-linecap="round" stroke-linejoin="round" stroke-miterlimit="10" width="4.443" height="3.336"/>
<rect x="58.889" y="53.889" fill="#FADF7E" stroke="#335C5F" stroke-width="1.5" stroke-linecap="round" stroke-linejoin="round" stroke-miterlimit="10" width="22.222" height="3.336"/>
<rect x="85.553" y="53.889" fill="#FADF7E" stroke="#335C5F" stroke-width="1.5" stroke-linecap="round" stroke-linejoin="round" stroke-miterlimit="10" width="4.443" height="3.336"/>
<rect x="54.444" y="60.556" fill="#FADF7E" stroke="#335C5F" stroke-width="1.5" stroke-linecap="round" stroke-linejoin="round" stroke-miterlimit="10" width="31.108" height="3.335"/>
<rect x="61.107" y="47.223" fill="#D8C26F" width="2.222" height="3.335"/>
<rect x="83.329" y="47.223" fill="#D8C26F" width="2.221" height="3.335"/>
<rect x="52.222" y="53.889" fill="#D8C26F" width="2.223" height="3.336"/>
<rect x="78.888" y="53.889" fill="#D8C26F" width="2.223" height="3.336"/>
<rect x="87.775" y="53.889" fill="#D8C26F" width="2.221" height="3.336"/>
<rect x="83.331" y="60.556" fill="#D8C26F" width="2.222" height="3.335"/>
<path fill="#75C6A4" stroke="#335C5F" stroke-width="1.5" stroke-linecap="round" stroke-linejoin="round" stroke-miterlimit="10" d="
	M81.106,63.891h-4.44v3.886H50.001c-2.451,0-4.447,1.991-4.447,4.441l0,0c0-2.45-1.991-4.441-4.446-4.441H14.444V27.78H10v44.438
	h31.107l-0.002,0.005c0,2.451,1.99,4.444,4.443,4.444h0.009c2.459,0,4.446-1.993,4.446-4.444l-0.002-0.005h31.105V63.891z"/>
<rect x="78.884" y="63.891" fill="#65AD90" width="2.223" height="8.327"/>
<rect x="76.666" y="57.225" fill="#75C6A4" stroke="#335C5F" stroke-width="1.5" stroke-linecap="round" stroke-linejoin="round" stroke-miterlimit="10" width="4.44" height="3.331"/>
<rect x="76.666" y="50.558" fill="#75C6A4" stroke="#335C5F" stroke-width="1.5" stroke-linecap="round" stroke-linejoin="round" stroke-miterlimit="10" width="4.44" height="3.331"/>
<rect x="76.666" y="43.891" fill="#75C6A4" stroke="#335C5F" stroke-width="1.5" stroke-linecap="round" stroke-linejoin="round" stroke-miterlimit="10" width="4.44" height="3.332"/>
<rect x="76.666" y="37.224" fill="#75C6A4" stroke="#335C5F" stroke-width="1.5" stroke-linecap="round" stroke-linejoin="round" stroke-miterlimit="10" width="4.44" height="3.333"/>
<rect x="78.884" y="57.225" fill="#65AD90" width="2.222" height="3.331"/>
<rect x="78.884" y="50.558" fill="#65AD90" width="2.222" height="3.331"/>
<rect x="78.884" y="43.891" fill="#65AD90" width="2.222" height="3.332"/>
<rect x="78.884" y="37.224" fill="#65AD90" width="2.222" height="3.333"/>
<rect x="76.666" y="30.557" fill="#75C6A4" stroke="#335C5F" stroke-width="1.5" stroke-linecap="round" stroke-linejoin="round" stroke-miterlimit="10" width="4.44" height="3.333"/>
<rect x="78.885" y="30.557" fill="#65AD90" width="2.222" height="3.333"/>
<path fill="#E9EAEF" stroke="#335C5F" stroke-width="1.5" stroke-linecap="round" stroke-linejoin="round" stroke-miterlimit="10" d="
	M41.107,67.776H14.444V23.333h26.664c2.456,0,4.446,1.99,4.446,4.447v44.438C45.554,69.768,43.563,67.776,41.107,67.776z"/>
<path fill="#CACCD1" d="M41.107,23.333h-3.335c2.457,0,4.447,1.99,4.447,4.447v40.144c1.917,0.493,3.334,2.228,3.334,4.294V27.78
	C45.554,25.323,43.563,23.333,41.107,23.333z"/>
<path fill="none" stroke="#335C5F" stroke-width="1.5" stroke-linecap="round" stroke-linejoin="round" stroke-miterlimit="10" d="
	M41.107,67.776H14.444V23.333h26.664c2.456,0,4.446,1.99,4.446,4.447v44.438C45.554,69.768,43.563,67.776,41.107,67.776z"/>
<rect x="73.335" y="30.557" fill="#CACCD1" width="3.331" height="3.333"/>
<rect x="73.335" y="37.224" fill="#CACCD1" width="3.331" height="9.999"/>
<rect x="73.335" y="23.333" fill="#CACCD1" width="3.331" height="3.89"/>
<rect x="73.335" y="50.558" fill="#CACCD1" width="3.331" height="3.331"/>
<rect x="73.335" y="63.891" fill="#CACCD1" width="3.331" height="3.886"/>
<rect x="73.335" y="57.225" fill="#CACCD1" width="3.331" height="3.331"/>
<path fill="none" stroke="#335C5F" stroke-width="1.5" stroke-linecap="round" stroke-linejoin="round" stroke-miterlimit="10" d="
	M76.666,33.89v-3.333H63.329v-3.334h13.337v-3.89H50.001c-2.451,0-4.447,1.99-4.447,4.447v44.438c0-2.45,1.997-4.441,4.447-4.441
	h26.665v-3.886H54.444v-3.335h22.222v-3.331H58.889v-3.336h17.777v-3.331h-8.893v-3.335h8.893v-9.999h-4.449V33.89H76.666z"/>
<rect x="87.775" y="27.223" fill="#D8C26F" width="2.221" height="3.334"/>
<rect x="65.552" y="33.89" fill="#D8C26F" width="2.222" height="3.334"/>
<rect x="83.329" y="33.89" fill="#D8C26F" width="2.221" height="3.334"/>
<rect x="56.664" y="40.557" fill="#D8C26F" width="2.223" height="3.334"/>
<rect x="70.001" y="40.557" fill="#D8C26F" width="2.222" height="3.334"/>
<rect x="87.777" y="40.557" fill="#D8C26F" width="2.223" height="3.334"/>
<rect x="63.329" y="27.223" fill="none" stroke="#335C5F" stroke-width="1.5" stroke-linecap="round" stroke-linejoin="round" stroke-miterlimit="10" width="26.667" height="3.334"/>
<rect x="54.441" y="33.89" fill="none" stroke="#335C5F" stroke-width="1.5" stroke-linecap="round" stroke-linejoin="round" stroke-miterlimit="10" width="13.332" height="3.334"/>
<rect x="72.217" y="33.89" fill="none" stroke="#335C5F" stroke-width="1.5" stroke-linecap="round" stroke-linejoin="round" stroke-miterlimit="10" width="13.333" height="3.334"/>
<rect x="54.444" y="40.557" fill="none" stroke="#335C5F" stroke-width="1.5" stroke-linecap="round" stroke-linejoin="round" stroke-miterlimit="10" width="4.442" height="3.334"/>
<rect x="63.333" y="40.557" fill="none" stroke="#335C5F" stroke-width="1.5" stroke-linecap="round" stroke-linejoin="round" stroke-miterlimit="10" width="8.89" height="3.334"/>
<rect x="76.666" y="40.557" fill="none" stroke="#335C5F" stroke-width="1.5" stroke-linecap="round" stroke-linejoin="round" stroke-miterlimit="10" width="13.334" height="3.334"/>
<rect x="54.444" y="47.223" fill="none" stroke="#335C5F" stroke-width="1.5" stroke-linecap="round" stroke-linejoin="round" stroke-miterlimit="10" width="8.885" height="3.335"/>
<rect x="67.773" y="47.223" fill="none" stroke="#335C5F" stroke-width="1.5" stroke-linecap="round" stroke-linejoin="round" stroke-miterlimit="10" width="17.776" height="3.335"/>
<rect x="50.001" y="53.889" fill="none" stroke="#335C5F" stroke-width="1.5" stroke-linecap="round" stroke-linejoin="round" stroke-miterlimit="10" width="4.443" height="3.336"/>
<rect x="58.889" y="53.889" fill="none" stroke="#335C5F" stroke-width="1.5" stroke-linecap="round" stroke-linejoin="round" stroke-miterlimit="10" width="22.222" height="3.336"/>
<rect x="85.553" y="53.889" fill="none" stroke="#335C5F" stroke-width="1.5" stroke-linecap="round" stroke-linejoin="round" stroke-miterlimit="10" width="4.443" height="3.336"/>
<rect x="54.444" y="60.556" fill="none" stroke="#335C5F" stroke-width="1.5" stroke-linecap="round" stroke-linejoin="round" stroke-miterlimit="10" width="31.108" height="3.335"/>
<path fill="none" stroke="#335C5F" stroke-width="1.5" stroke-linecap="round" stroke-linejoin="round" stroke-miterlimit="10" d="
	M81.106,63.891h-4.44v3.886H50.001c-2.451,0-4.447,1.991-4.447,4.441l0,0c0-2.45-1.991-4.441-4.446-4.441H14.444V27.78H10v44.438
	h31.107l-0.002,0.005c0,2.451,1.99,4.444,4.443,4.444h0.009c2.459,0,4.446-1.993,4.446-4.444l-0.002-0.005h31.105V63.891z"/>
<rect x="76.666" y="57.225" fill="none" stroke="#335C5F" stroke-width="1.5" stroke-linecap="round" stroke-linejoin="round" stroke-miterlimit="10" width="4.44" height="3.331"/>
<rect x="76.666" y="50.558" fill="none" stroke="#335C5F" stroke-width="1.5" stroke-linecap="round" stroke-linejoin="round" stroke-miterlimit="10" width="4.44" height="3.331"/>
<rect x="76.666" y="43.891" fill="none" stroke="#335C5F" stroke-width="1.5" stroke-linecap="round" stroke-linejoin="round" stroke-miterlimit="10" width="4.44" height="3.332"/>
<rect x="76.666" y="37.224" fill="none" stroke="#335C5F" stroke-width="1.5" stroke-linecap="round" stroke-linejoin="round" stroke-miterlimit="10" width="4.44" height="3.333"/>
<rect x="76.666" y="30.557" fill="none" stroke="#335C5F" stroke-width="1.5" stroke-linecap="round" stroke-linejoin="round" stroke-miterlimit="10" width="4.44" height="3.333"/>
<rect x="50.001" y="27.223" fill="#FADF7E" stroke="#335C5F" stroke-width="1.5" stroke-linecap="round" stroke-linejoin="round" stroke-miterlimit="10" width="8.886" height="3.334"/>
<rect x="56.664" y="27.223" fill="#D8C26F" width="2.223" height="3.334"/>
<rect x="50.001" y="27.223" fill="none" stroke="#335C5F" stroke-width="1.5" stroke-linecap="round" stroke-linejoin="round" stroke-miterlimit="10" width="8.886" height="3.334"/>
</svg>
