<?xml version="1.0" encoding="utf-8"?>
<!-- Generator: Adobe Illustrator 19.2.0, SVG Export Plug-In . SVG Version: 6.00 Build 0)  -->
<svg version="1.1" id="Layer_1" xmlns="http://www.w3.org/2000/svg" xmlns:xlink="http://www.w3.org/1999/xlink" x="0px" y="0px"
	 viewBox="0 0 500 500" style="enable-background:new 0 0 500 500;" xml:space="preserve">
<style type="text/css">
	.st0{fill:#ECF4F7;}
	.st1{fill:#1C1D21;}
	.st2{fill:#f7f7f7;}
	.st3{fill:#AAB1BA;}
	.st4{fill:none;stroke:#1C1D21;stroke-width:10;stroke-linecap:round;stroke-linejoin:round;stroke-miterlimit:10;}
	.st5{fill:#FDDF7F;}
	.st6{fill:#FFFFFF;}
</style>
<g>
	<g>
		<g>
			<g>
				<path class="st1" d="M32.5,142.1c-0.8,0-1.6-0.2-2.3-0.6c-2.5-1.3-3.4-4.3-2.1-6.7c23.4-44.9,59.3-81.3,104-105.3
					c2.4-1.3,5.5-0.4,6.8,2c1.3,2.4,0.4,5.5-2,6.8C93.9,61.3,59.4,96.3,37,139.4C36.1,141.1,34.3,142.1,32.5,142.1z"/>
			</g>
		</g>
		<g>
			<g>
				<path class="st1" d="M250,500c-66.8,0-129.6-26-176.8-73.2C26,379.6,0,316.8,0,250c0-20.4,2.5-40.7,7.3-60.3
					c0.7-2.7,3.4-4.3,6.1-3.7c2.7,0.7,4.3,3.4,3.7,6.1c-4.7,18.8-7,38.3-7,57.9c0,132.3,107.7,240,240,240s240-107.7,240-240
					c0-126.3-98.6-231.5-224.5-239.5c-5.1-0.3-10.3-0.5-15.5-0.5c-2.8,0-5-2.2-5-5s2.2-5,5-5c5.4,0,10.8,0.2,16.1,0.5
					c63.3,4,122.3,31.8,165.9,78.1c43.8,46.5,68,107.4,68,171.4c0,66.8-26,129.6-73.2,176.8C379.6,474,316.8,500,250,500z"/>
			</g>
		</g>
		<g>
			<g>
				<path class="st1" d="M199.5,15.2c-2.3,0-4.4-1.6-4.9-4c-0.6-2.7,1.2-5.4,3.9-5.9c8.1-1.7,16.4-3,24.6-3.9
					c2.8-0.3,5.2,1.7,5.5,4.4c0.3,2.7-1.7,5.2-4.4,5.5c-7.9,0.8-15.9,2.1-23.7,3.7C200.1,15.2,199.8,15.2,199.5,15.2z"/>
			</g>
		</g>
	</g>
	<g>
		<g>
			<g>
				<path class="st2" d="M407.1,373.6C432,342,447.6,302.7,449.7,260h-88.7c-0.6,25.5-3.3,50.2-7.9,73.3
					C372.9,343.8,391.2,357.3,407.1,373.6z"/>
			</g>
		</g>
		<g>
			<g>
				<path class="st2" d="M338,429.6c1.1-0.6,2.3-1.1,3.4-1.7c1-0.5,2-1.1,3-1.6c0.3-0.2,0.7-0.4,1-0.5c18-9.8,34.4-22.4,48.5-37
					c-13.5-14-28.9-25.8-45.5-35.2c-4.7,17.9-10.7,34.5-17.9,49.3c-7.6,15.8-16.3,29.1-25.8,39.5c11.2-3.2,22-7.3,32.5-12.4
					C337.5,429.8,337.7,429.7,338,429.6z"/>
			</g>
		</g>
		<g>
			<g>
				<path class="st2" d="M260,448.7c29.9-7.5,55.9-48.3,70-104.4c-22-9.6-45.7-15.3-70-16.5V448.7z"/>
			</g>
		</g>
		<g>
			<g>
				<path class="st2" d="M260,240h81.1c-0.5-22.6-2.9-44.3-6.7-64.4c-23.4,9.7-48.6,15.4-74.4,16.6V240z"/>
			</g>
		</g>
		<g>
			<g>
				<path class="st2" d="M260,51.3v120.9c24.3-1.2,48-6.9,70-16.5C315.9,99.5,289.9,58.8,260,51.3z"/>
			</g>
		</g>
		<g>
			<g>
				<path class="st2" d="M407.1,126.4c-15.9,16.3-34.2,29.8-54,40.3c4.7,23.1,7.4,47.8,7.9,73.3h88.7
					C447.6,197.3,432,158,407.1,126.4z"/>
			</g>
		</g>
		<g>
			<g>
				<path class="st2" d="M260,307.8c25.8,1.2,50.9,6.9,74.4,16.6c3.8-20.2,6.2-41.9,6.7-64.4H260V307.8z"/>
			</g>
		</g>
		<g>
			<g>
				<path class="st2" d="M348.4,146.5c16.6-9.4,32-21.2,45.5-35.2c-14.1-14.7-30.5-27.2-48.5-37c-0.3-0.2-0.7-0.4-1-0.5
					c-1-0.5-2-1.1-3-1.6c-1.1-0.6-2.3-1.2-3.5-1.7c-0.2-0.1-0.4-0.2-0.6-0.3c-10.4-5.1-21.3-9.2-32.5-12.4
					c9.5,10.4,18.1,23.7,25.8,39.5C337.7,112,343.7,128.6,348.4,146.5z"/>
			</g>
		</g>
		<g>
			<g>
				<path class="st2" d="M240,448.7V327.8c-24.3,1.2-48,6.9-70,16.5C184.1,400.5,210.1,441.2,240,448.7z"/>
			</g>
		</g>
		<g>
			<g>
				<path class="st2" d="M240,192.2c-25.8-1.2-50.9-6.9-74.4-16.6c-3.8,20.2-6.2,41.9-6.7,64.4H240V192.2z"/>
			</g>
		</g>
		<g>
			<g>
				<path class="st2" d="M92.9,126.4C68,158,52.4,197.3,50.3,240h88.7c0.6-25.5,3.3-50.2,7.9-73.3
					C127.1,156.2,108.8,142.7,92.9,126.4z"/>
			</g>
		</g>
		<g>
			<g>
				<path class="st2" d="M240,51.3c-29.9,7.5-55.9,48.3-70,104.4c22,9.6,45.7,15.3,70,16.5V51.3z"/>
			</g>
		</g>
		<g>
			<g>
				<path class="st2" d="M240,260h-81.1c0.5,22.6,2.9,44.3,6.7,64.4c23.4-9.7,48.6-15.4,74.4-16.6V260z"/>
			</g>
		</g>
		<g>
			<g>
				<path class="st2" d="M154.6,425.7c0.3,0.2,0.7,0.4,1,0.5c1,0.5,2,1.1,3,1.6c1.1,0.6,2.3,1.2,3.5,1.7c0.2,0.1,0.4,0.2,0.6,0.3
					c10.4,5.1,21.3,9.2,32.5,12.4c-9.5-10.4-18.1-23.7-25.8-39.5c-7.2-14.9-13.1-31.5-17.9-49.3c-16.6,9.4-32,21.2-45.5,35.2
					C120.2,403.4,136.6,415.9,154.6,425.7z"/>
			</g>
		</g>
		<g>
			<g>
				<path class="st2" d="M169.4,97.2c7.6-15.8,16.3-29.1,25.8-39.5c-11.2,3.2-22,7.3-32.5,12.4c-0.2,0.1-0.5,0.2-0.7,0.3
					c-1.1,0.6-2.3,1.1-3.4,1.7c-1,0.5-2,1.1-3,1.6c-0.3,0.2-0.7,0.4-1,0.5c-18,9.8-34.4,22.4-48.5,37c13.5,14,28.9,25.8,45.5,35.2
					C156.3,128.6,162.3,112,169.4,97.2z"/>
			</g>
		</g>
		<g>
			<g>
				<path class="st2" d="M92.9,373.6c15.9-16.3,34.2-29.8,54-40.3c-4.7-23.1-7.4-47.8-7.9-73.3H50.3C52.4,302.7,68,342,92.9,373.6z"
					/>
			</g>
		</g>
	</g>
	<g>
		<g>
			<path class="st3" d="M340.5,363.3c0-34.5-19.6-66-50.5-81.3l-0.3-0.1c-25.4-12.6-55.2-12.5-80.6,0.1l0,0
				c-30.8,15.3-50.3,46.8-50.3,81.2V408c0,0,0,47,0,69.5c28.2,11.3,58.9,17.5,91.1,17.5h0c32,0,62.5-6.1,90.5-17.3V408L340.5,363.3z
				"/>
		</g>
	</g>
	<g>
		<g>
			<path class="st1" d="M250,500c-32.1,0-63.4-6-92.9-17.9c-1.9-0.8-3.1-2.6-3.1-4.6V363.2c0-36.5,20.3-69.4,53-85.6
				c26.6-13.2,58.4-13.3,85-0.1l0.3,0.1c16,7.9,29.4,20.1,38.9,35.3c9.4,15.2,14.4,32.6,14.4,50.5v114.4c0,2-1.2,3.9-3.2,4.6
				C313,494.1,281.9,500,250,500z M163.9,474.1c27.5,10.6,56.4,15.9,86.1,15.9c29.5,0,58.3-5.3,85.5-15.7v-111
				c0-32.8-18.3-62.2-47.7-76.8l-0.3-0.1c-23.9-11.8-52.3-11.8-76.2,0.1c-29.3,14.6-47.5,44-47.5,76.7V474.1z M340.5,477.7
				L340.5,477.7L340.5,477.7z"/>
		</g>
	</g>
	<g>
		<g>
			<path class="st5" d="M249.7,386.3L249.7,386.3c-8.3,0-15.1-6.8-15.1-15.1v-41.7c0-8.3,6.8-15.1,15.1-15.1l0,0
				c8.3,0,15.1,6.8,15.1,15.1v41.7C264.8,379.6,258.1,386.3,249.7,386.3z"/>
		</g>
	</g>
	<g>
		<g>
			<path class="st1" d="M249.7,391.3c-11.1,0-20.1-9-20.1-20.1v-41.7c0-11.1,9-20.1,20.1-20.1c11.1,0,20.1,9,20.1,20.1v41.7
				C269.8,382.3,260.8,391.3,249.7,391.3z M249.7,319.5c-5.6,0-10.1,4.5-10.1,10.1v41.7c0,5.6,4.5,10.1,10.1,10.1
				c5.6,0,10.1-4.5,10.1-10.1v-41.7C259.8,324,255.3,319.5,249.7,319.5z"/>
		</g>
	</g>
	<g>
		<g>
			<path class="st1" d="M249.7,319.5c-2.8,0-5-2.2-5-5v-32.2c0-2.8,2.2-5,5-5s5,2.2,5,5v32.2C254.7,317.3,252.5,319.5,249.7,319.5z"
				/>
		</g>
	</g>
	<g>
		<g>
			<path class="st1" d="M249.6,287.3c-2.8,0-5-2.2-5-5v-30.4c0-4.6-1.3-9.1-3.7-12.9c-9.3-14.7-7.1-33.6,5.2-45.9
				c14.1-14.1,37.4-14.4,51.8-0.5c11.3,10.8,28.8,10.9,39.1,0.2c10.1-10.5,10-27.5-0.3-37.8c-11.5-11.6-14.4-28.7-7.2-42.6
				c5.7-11,15.8-18.4,27.6-20.2c11.6-1.8,23.6,2.1,31.9,10.4c8.4,8.3,20.7,10.5,30.7,5.5c8.7-4.4,12.5-11.1,14.1-15.9
				c0.9-2.6,3.7-4,6.3-3.1c2.6,0.9,4,3.7,3.1,6.3c-3.1,9.3-9.9,17-19,21.7c-13.9,7-30.8,4.1-42.3-7.3c-6.1-6.1-14.8-8.9-23.3-7.6
				c-8.7,1.4-16,6.8-20.3,15c-5.2,10-3,22.5,5.4,31c14.1,14.2,14.3,37.4,0.4,51.8c-14.1,14.7-38,14.7-53.3,0.1
				c-10.5-10.1-27.5-9.9-37.8,0.4c-9,9-10.5,22.8-3.8,33.5c3.4,5.5,5.3,11.8,5.3,18.3v30.4C254.6,285,252.4,287.3,249.6,287.3z"/>
		</g>
	</g>
</g>
</svg>
