<?xml version="1.0" encoding="utf-8"?>
<!-- Generator: Adobe Illustrator 19.2.0, SVG Export Plug-In . SVG Version: 6.00 Build 0)  -->
<svg version="1.1" id="Layer_1" xmlns="http://www.w3.org/2000/svg" xmlns:xlink="http://www.w3.org/1999/xlink" x="0px" y="0px"
	 viewBox="0 0 500 500" style="enable-background:new 0 0 500 500;" xml:space="preserve">
<style type="text/css">
	.st0{fill:#ECF4F7;}
	.st1{fill:#1C1D21;}
	.st2{fill:#f7f7f7;}
	.st3{fill:#AAB1BA;}
	.st4{fill:none;stroke:#1C1D21;stroke-width:10;stroke-linecap:round;stroke-linejoin:round;stroke-miterlimit:10;}
	.st5{fill:#FDDF7F;}
	.st6{fill:#FFFFFF;}
</style>
<g>
	<g>
		<g>
			<g>
				<path class="st1" d="M250,448.3c-109.4,0-198.3-89-198.3-198.3c0-109.4,89-198.3,198.3-198.3s198.3,89,198.3,198.3
					C448.3,359.4,359.4,448.3,250,448.3z M250,61.7C146.2,61.7,61.7,146.2,61.7,250c0,103.8,84.5,188.3,188.3,188.3
					S438.3,353.8,438.3,250C438.3,146.2,353.8,61.7,250,61.7z"/>
			</g>
		</g>
		<g>
			<g>
				<path class="st2" d="M250,393c-78.9,0-143-64.1-143-143s64.1-143,143-143c78.8,0,143,64.1,143,143S328.9,393,250,393z"/>
			</g>
		</g>
		<g>
			<g>
				<path class="st1" d="M250,348c-54.1,0-98-44-98-98s44-98,98-98s98,44,98,98S304.1,348,250,348z M250,162c-48.5,0-88,39.5-88,88
					s39.5,88,88,88s88-39.5,88-88S298.5,162,250,162z"/>
			</g>
		</g>
		<g>
			<g>
				<path class="st5" d="M250,288c-20.9,0-38-17-38-38c0-20.9,17-38,38-38c20.9,0,38,17,38,38C288,270.9,270.9,288,250,288z"/>
			</g>
		</g>
		<g>
			<g>
				<path class="st1" d="M250,293c-23.7,0-43-19.3-43-43s19.3-43,43-43c23.7,0,43,19.3,43,43S273.7,293,250,293z M250,217
					c-18.2,0-33,14.8-33,33s14.8,33,33,33s33-14.8,33-33S268.2,217,250,217z"/>
			</g>
		</g>
		<g>
			<g>
				<g>
					<path class="st1" d="M32.5,142.1c-0.8,0-1.6-0.2-2.3-0.6c-2.4-1.3-3.4-4.3-2.1-6.7c23.4-44.9,59.3-81.3,104-105.3
						c2.4-1.3,5.5-0.4,6.8,2c1.3,2.4,0.4,5.5-2,6.8C93.9,61.3,59.4,96.3,37,139.4C36.1,141.1,34.3,142.1,32.5,142.1z"/>
				</g>
			</g>
			<g>
				<g>
					<path class="st1" d="M250,500c-66.8,0-129.6-26-176.8-73.2C26,379.6,0,316.8,0,250c0-20.4,2.5-40.7,7.3-60.3
						c0.7-2.7,3.4-4.3,6.1-3.7c2.7,0.7,4.3,3.4,3.7,6.1c-4.7,18.8-7,38.3-7,57.9c0,132.3,107.7,240,240,240s240-107.7,240-240
						c0-126.3-98.6-231.5-224.5-239.5c-5.1-0.3-10.3-0.5-15.5-0.5c-2.8,0-5-2.2-5-5s2.2-5,5-5c5.4,0,10.8,0.2,16.1,0.5
						c63.3,4,122.3,31.8,165.9,78.1c43.8,46.5,68,107.4,68,171.4c0,66.8-26,129.6-73.2,176.8C379.6,474,316.8,500,250,500z"/>
				</g>
			</g>
			<g>
				<g>
					<path class="st1" d="M199.5,15.2c-2.3,0-4.4-1.6-4.9-4c-0.6-2.7,1.2-5.4,3.9-5.9c8.1-1.7,16.4-3,24.6-3.9
						c2.7-0.3,5.2,1.7,5.5,4.4c0.3,2.7-1.7,5.2-4.4,5.5c-7.9,0.8-15.9,2.1-23.7,3.7C200.1,15.2,199.8,15.2,199.5,15.2z"/>
				</g>
			</g>
		</g>
	</g>
	<g>
		<g>
			<g>
				
					<ellipse transform="matrix(0.7071 -0.7071 0.7071 0.7071 -169.4658 409.1267)" class="st5" cx="409.1" cy="409.1" rx="85.9" ry="85.9"/>
			</g>
		</g>
		<g>
			<g>
				<path class="st1" d="M409.1,500c-24.3,0-47.1-9.5-64.3-26.6c-17.2-17.2-26.6-40-26.6-64.3c0-24.3,9.5-47.1,26.6-64.3
					c17.2-17.2,40-26.6,64.3-26.6c24.3,0,47.1,9.5,64.3,26.6c35.4,35.4,35.4,93.1,0,128.5C456.2,490.5,433.4,500,409.1,500z
					 M409.1,328.3c-21.6,0-41.9,8.4-57.2,23.7c-15.3,15.3-23.7,35.6-23.7,57.2c0,21.6,8.4,41.9,23.7,57.2
					c15.3,15.3,35.6,23.7,57.2,23.7c21.6,0,41.9-8.4,57.2-23.7c31.5-31.5,31.5-82.8,0-114.4C451,336.7,430.7,328.3,409.1,328.3z"/>
			</g>
		</g>
		<g>
			<g>
				<g>
					<path class="st1" d="M413.3,414.1h-14.5c-9.1,0-16.5-7.4-16.5-16.5v-14.6c0-9.1,7.4-16.5,16.5-16.5h32.1c2.8,0,5,2.2,5,5
						c0,2.8-2.2,5-5,5h-32.1c-3.6,0-6.5,2.9-6.5,6.5v14.6c0,3.6,2.9,6.5,6.5,6.5h14.5c2.8,0,5,2.2,5,5S416,414.1,413.3,414.1z"/>
				</g>
			</g>
			<g>
				<g>
					<path class="st1" d="M419.4,451.7h-32.1c-2.8,0-5-2.2-5-5s2.2-5,5-5h32.1c3.6,0,6.5-2.9,6.5-6.5v-14.6c0-3.6-2.9-6.5-6.5-6.5
						h-15c-2.8,0-5-2.2-5-5s2.2-5,5-5h15c9.1,0,16.5,7.4,16.5,16.5v14.6C435.9,444.3,428.5,451.7,419.4,451.7z"/>
				</g>
			</g>
			<g>
				<g>
					<path class="st1" d="M409.1,468.8c-2.8,0-5-2.2-5-5v-17.2c0-2.8,2.2-5,5-5c2.8,0,5,2.2,5,5v17.2
						C414.1,466.6,411.9,468.8,409.1,468.8z"/>
				</g>
			</g>
			<g>
				<g>
					<path class="st1" d="M409.1,376.6c-2.8,0-5-2.2-5-5v-17.2c0-2.8,2.2-5,5-5c2.8,0,5,2.2,5,5v17.2
						C414.1,374.4,411.9,376.6,409.1,376.6z"/>
				</g>
			</g>
		</g>
	</g>
	<g>
		<g>
			<path class="st1" d="M348.4,353.4c-1.3,0-2.6-0.5-3.5-1.5l-98.4-98.4c-2-2-2-5.1,0-7.1c2-2,5.1-2,7.1,0l98.4,98.4
				c2,2,2,5.1,0,7.1C351,352.9,349.7,353.4,348.4,353.4z"/>
		</g>
	</g>
</g>
</svg>
