<svg xmlns="http://www.w3.org/2000/svg" viewBox="0 0 48 48"><defs><style>.cls-1{fill:#424242;}.cls-2{fill:#263238;}</style></defs><title>Picture server</title><g id="Picture_server" data-name="Picture server"><path class="cls-1" d="M31,4a3,3,0,1,0,3,3A3,3,0,0,0,31,4Zm0,4a1,1,0,1,1,1-1A1,1,0,0,1,31,8Z"/><path class="cls-1" d="M45,0H11A3,3,0,0,0,8,3V18h2V3a1,1,0,0,1,1-1H45a1,1,0,0,1,1,1V21.08l-9.27-9.77a1,1,0,0,0-1.46,0L30.73,16.1l-7-7.77a1,1,0,0,0-1.48,0L13.56,18h2.69L23,10.5,29.75,18H32a3.59,3.59,0,0,1,.47,0l-.4-.44L36,13.45,46,24v3a1,1,0,0,1-1,1H41.45L36,22v3L38.75,28H35.46a3.78,3.78,0,0,1-.82,1,3.78,3.78,0,0,1,.82,1H45a3,3,0,0,0,3-3V3A3,3,0,0,0,45,0Z"/><path class="cls-2" d="M32,20H2a2,2,0,0,0-2,2v4a2,2,0,0,0,2,2H32a2,2,0,0,0,2-2V22A2,2,0,0,0,32,20ZM7,25a1,1,0,0,1-1,1H4a1,1,0,0,1-1-1V23a1,1,0,0,1,1-1H6a1,1,0,0,1,1,1Zm6,0a1,1,0,0,1-1,1H10a1,1,0,0,1-1-1V23a1,1,0,0,1,1-1h2a1,1,0,0,1,1,1Zm10,0a1,1,0,0,1-2,0V23a1,1,0,0,1,2,0Zm4,0a1,1,0,0,1-2,0V23a1,1,0,0,1,2,0Zm4,0a1,1,0,0,1-2,0V23a1,1,0,0,1,2,0Z"/><path class="cls-2" d="M32,30H2a2,2,0,0,0-2,2v4a2,2,0,0,0,2,2H32a2,2,0,0,0,2-2V32A2,2,0,0,0,32,30ZM7,35a1,1,0,0,1-1,1H4a1,1,0,0,1-1-1V33a1,1,0,0,1,1-1H6a1,1,0,0,1,1,1Zm6,0a1,1,0,0,1-1,1H10a1,1,0,0,1-1-1V33a1,1,0,0,1,1-1h2a1,1,0,0,1,1,1Zm10,0a1,1,0,0,1-2,0V33a1,1,0,0,1,2,0Zm4,0a1,1,0,0,1-2,0V33a1,1,0,0,1,2,0Zm4,0a1,1,0,0,1-2,0V33a1,1,0,0,1,2,0Z"/><path class="cls-1" d="M4,47H15.28a2,2,0,0,0,3.44,0H30a1,1,0,0,0,0-2H18.72a1.91,1.91,0,0,0-.72-.72V40H16v4.28a1.91,1.91,0,0,0-.72.72H4a1,1,0,0,0,0,2Z"/></g></svg>