<?xml version="1.0" encoding="utf-8"?>
<!-- Generator: Adobe Illustrator 19.2.0, SVG Export Plug-In . SVG Version: 6.00 Build 0)  -->
<svg version="1.1" id="Layer_1" xmlns="http://www.w3.org/2000/svg" xmlns:xlink="http://www.w3.org/1999/xlink" x="0px" y="0px"
	 viewBox="0 0 500 500" style="enable-background:new 0 0 500 500;" xml:space="preserve">
<style type="text/css">
	.st0{fill:#ECF4F7;}
	.st1{fill:#1C1D21;}
	.st2{fill:#f7f7f7;}
	.st3{fill:#AAB1BA;}
	.st4{fill:none;stroke:#1C1D21;stroke-width:10;stroke-linecap:round;stroke-linejoin:round;stroke-miterlimit:10;}
	.st5{fill:#FDDF7F;}
	.st6{fill:#FFFFFF;}
</style>
<g>
	<g>
		<g>
			<path class="st0" d="M197.4,385H81.7c-31,0-56.1-25.1-56.1-56.1v-20.4c0-16.9,13.7-30.6,30.6-30.6h166.7
				c16.9,0,30.6,13.7,30.6,30.6v20.4C253.5,359.9,228.4,385,197.4,385z"/>
		</g>
	</g>
	<g>
		<g>
			<path class="st0" d="M66.2,495c0-40.5,32.8-73.3,73.3-73.3c40.5,0,73.3,32.8,73.3,73.3H66.2z"/>
		</g>
	</g>
	<g>
		<g>
			<path class="st3" d="M213,278H66.2V78.4C66.2,37.9,99,5,139.6,5h0C180.1,5,213,37.9,213,78.4V278z"/>
		</g>
	</g>
	<g>
		<g>
			<g>
				<path class="st2" d="M288.5,5c-20.7,0-37.4,16.7-37.4,37.4v149.1v32.6c0,8.1,9.6,12.4,15.7,7l33.5-30.1c6.9-6.2,15.8-9.6,25-9.6
					H437c20.7,0,37.4-16.7,37.4-37.4V42.4C474.4,21.7,457.6,5,437,5H288.5z"/>
			</g>
		</g>
		<g>
			<g>
				<path class="st1" d="M251.1,95.4c-2.8,0-5-2.2-5-5V69.3c0-2.8,2.2-5,5-5c2.8,0,5,2.2,5,5v21.1C256.1,93.2,253.9,95.4,251.1,95.4
					z"/>
			</g>
		</g>
		<g>
			<g>
				<path class="st1" d="M260.6,238.5c-2,0-4-0.4-5.9-1.3c-5.3-2.4-8.5-7.4-8.5-13.2V122.9c0-2.8,2.2-5,5-5c2.8,0,5,2.2,5,5v101.2
					c0,2.7,2,3.7,2.6,4c0.6,0.3,2.8,1,4.7-0.7l33.5-30.1c7.8-7,17.8-10.8,28.3-10.8H437c17.9,0,32.4-14.5,32.4-32.4V42.4
					c0-17.9-14.5-32.4-32.4-32.4H288.5c-17.9,0-32.4,14.5-32.4,32.4c0,2.8-2.2,5-5,5c-2.8,0-5-2.2-5-5c0-23.4,19-42.4,42.4-42.4H437
					c23.4,0,42.4,19,42.4,42.4v111.7c0,23.4-19,42.4-42.4,42.4H325.3c-8,0-15.7,2.9-21.6,8.3l-33.5,30.1
					C267.4,237.3,264,238.5,260.6,238.5z"/>
			</g>
		</g>
		<g>
			<g>
				<g>
					<circle class="st6" cx="313.2" cy="99.7" r="11.3"/>
				</g>
			</g>
			<g>
				<g>
					<circle class="st6" cx="362.8" cy="99.7" r="11.3"/>
				</g>
			</g>
			<g>
				<g>
					<circle class="st6" cx="412.3" cy="99.7" r="11.3"/>
				</g>
			</g>
		</g>
	</g>
	<g>
		<g>
			<path class="st1" d="M213,283H66.2c-2.8,0-5-2.2-5-5V78.4C61.2,35.2,96.3,0,139.6,0C182.8,0,218,35.2,218,78.4V278
				C218,280.7,215.7,283,213,283z M71.2,273H208V78.4c0-37.7-30.7-68.4-68.4-68.4c-37.7,0-68.4,30.7-68.4,68.4V273z"/>
		</g>
	</g>
	<g>
		<g>
			<path class="st1" d="M197.4,390H81.7c-33.7,0-61.1-27.4-61.1-61.1v-20.4c0-19.6,16-35.6,35.6-35.6h166.7
				c19.6,0,35.6,16,35.6,35.6v20.4C258.5,362.6,231.1,390,197.4,390z M56.2,283c-14.1,0-25.6,11.5-25.6,25.6v20.4
				c0,28.2,22.9,51.1,51.1,51.1h115.7c28.2,0,51.1-22.9,51.1-51.1v-20.4c0-14.1-11.5-25.6-25.6-25.6H56.2z"/>
		</g>
	</g>
	<g>
		<g>
			<path class="st1" d="M212.9,500H66.2c-2.8,0-5-2.2-5-5c0-43.2,35.1-78.3,78.3-78.3c43.2,0,78.3,35.1,78.3,78.3
				C217.9,497.8,215.6,500,212.9,500z M71.4,490h136.3c-2.6-35.4-32.2-63.3-68.2-63.3C103.6,426.7,74,454.6,71.4,490z"/>
		</g>
	</g>
	<g>
		<g>
			<path class="st1" d="M139.6,426.7c-2.8,0-5-2.2-5-5V385c0-2.8,2.2-5,5-5s5,2.2,5,5v36.7C144.6,424.4,142.3,426.7,139.6,426.7z"/>
		</g>
	</g>
	<g>
		<g>
			<g>
				<path class="st1" d="M101.9,118.3H66.2c-2.8,0-5-2.2-5-5s2.2-5,5-5h35.7c2.8,0,5,2.2,5,5S104.6,118.3,101.9,118.3z"/>
			</g>
		</g>
		<g>
			<g>
				<path class="st1" d="M101.9,146.5H66.2c-2.8,0-5-2.2-5-5c0-2.8,2.2-5,5-5h35.7c2.8,0,5,2.2,5,5
					C106.9,144.2,104.6,146.5,101.9,146.5z"/>
			</g>
		</g>
		<g>
			<g>
				<path class="st1" d="M101.9,174.6H66.2c-2.8,0-5-2.2-5-5s2.2-5,5-5h35.7c2.8,0,5,2.2,5,5S104.6,174.6,101.9,174.6z"/>
			</g>
		</g>
	</g>
	<g>
		<g>
			<g>
				<path class="st1" d="M213,118.3h-35.7c-2.8,0-5-2.2-5-5s2.2-5,5-5H213c2.8,0,5,2.2,5,5S215.7,118.3,213,118.3z"/>
			</g>
		</g>
		<g>
			<g>
				<path class="st1" d="M213,146.5h-35.7c-2.8,0-5-2.2-5-5c0-2.8,2.2-5,5-5H213c2.8,0,5,2.2,5,5C218,144.2,215.7,146.5,213,146.5z"
					/>
			</g>
		</g>
		<g>
			<g>
				<path class="st1" d="M213,174.6h-35.7c-2.8,0-5-2.2-5-5s2.2-5,5-5H213c2.8,0,5,2.2,5,5S215.7,174.6,213,174.6z"/>
			</g>
		</g>
	</g>
	<g>
		<g>
			<path class="st1" d="M75.6,333.9H25.6c-2.8,0-5-2.2-5-5c0-2.8,2.2-5,5-5h49.9c2.8,0,5,2.2,5,5C80.6,331.7,78.3,333.9,75.6,333.9z
				"/>
		</g>
	</g>
	<g>
		<g>
			<path class="st1" d="M116.6,333.9h-14.7c-2.8,0-5-2.2-5-5c0-2.8,2.2-5,5-5h14.7c2.8,0,5,2.2,5,5
				C121.6,331.7,119.3,333.9,116.6,333.9z"/>
		</g>
	</g>
</g>
</svg>
