<?xml version="1.0" encoding="utf-8"?>
<!-- Generator: Adobe Illustrator 16.0.0, SVG Export Plug-In . SVG Version: 6.00 Build 0)  -->
<!DOCTYPE svg PUBLIC "-//W3C//DTD SVG 1.0//EN" "http://www.w3.org/TR/2001/REC-SVG-20010904/DTD/svg10.dtd">
<svg version="1.0" id="Layer_1" xmlns="http://www.w3.org/2000/svg" xmlns:xlink="http://www.w3.org/1999/xlink" x="0px" y="0px"
	 width="100px" height="100px" viewBox="0 0 100 100" enable-background="new 0 0 100 100" xml:space="preserve">
<path fill="#E9EAEF" stroke="#335C5F" stroke-width="1.5" stroke-linecap="round" stroke-linejoin="round" stroke-miterlimit="10" d="
	M60.382,66.523c-1.895-1.898-4.517-3.069-7.41-3.073c-2.681,0-5.364-1.02-7.411-3.065c-2.88-2.877-3.721-7.015-2.553-10.639
	l6.594,6.597c1.86,1.86,4.882,1.857,6.742,0c1.857-1.86,1.857-4.878,0-6.738l-6.601-6.593c3.628-1.175,7.762-0.327,10.642,2.549
	c2.047,2.049,3.07,4.729,3.066,7.413c0,2.895,1.175,5.516,3.069,7.411l13.479,13.478V14.999H10v65.003h63.859L60.382,66.523z"/>
<path fill="#CACCD1" d="M60.385,45.561c2.047,2.049,3.07,4.729,3.066,7.413c0,2.895,1.175,5.516,3.069,7.411l13.479,13.478v-3.536
	l-11.71-11.709c-1.507-1.508-2.338-3.512-2.338-5.64c0.005-3.467-1.344-6.729-3.799-9.186C59.704,41.347,56.449,40,52.988,40
	c-1.366,0-2.717,0.214-4.015,0.634l-3.889,1.258l9.49,9.479c0.882,0.884,0.882,2.322,0.003,3.203
	c-0.429,0.427-0.999,0.663-1.606,0.663c-0.605,0-1.175-0.235-1.601-0.661l-9.487-9.491l-1.255,3.895
	c-1.505,4.672-0.293,9.72,3.165,13.173c2.449,2.449,5.708,3.799,9.175,3.799c2.137,0.002,4.141,0.832,5.646,2.34l11.709,11.711
	h3.536L60.382,66.523c-1.895-1.898-4.517-3.069-7.41-3.073c-2.681,0-5.364-1.02-7.411-3.065c-2.88-2.877-3.721-7.015-2.553-10.639
	l6.594,6.597c1.86,1.86,4.882,1.857,6.742,0c1.857-1.86,1.857-4.878,0-6.738l-6.601-6.593
	C53.371,41.837,57.505,42.685,60.385,45.561z"/>
<polygon fill="#CACCD1" points="77.499,71.361 79.999,73.862 79.999,14.999 77.499,14.999 "/>
<rect x="10" y="10" fill="#E9EAEF" stroke="#335C5F" stroke-width="1.5" stroke-linecap="round" stroke-linejoin="round" stroke-miterlimit="10" width="54.998" height="4.999"/>
<rect x="75" y="10" fill="#FADF7E" stroke="#335C5F" stroke-width="1.5" stroke-linecap="round" stroke-linejoin="round" stroke-miterlimit="10" width="4.999" height="4.999"/>
<rect x="77.5" y="10" fill="#D8C26F" width="2.499" height="4.999"/>
<rect x="69.997" y="10" fill="#FADF7E" stroke="#335C5F" stroke-width="1.5" stroke-linecap="round" stroke-linejoin="round" stroke-miterlimit="10" width="5.003" height="4.999"/>
<rect x="64.998" y="10" fill="#FADF7E" stroke="#335C5F" stroke-width="1.5" stroke-linecap="round" stroke-linejoin="round" stroke-miterlimit="10" width="4.999" height="4.999"/>
<path fill="#FADF7E" stroke="#335C5F" stroke-width="1.5" stroke-linecap="round" stroke-linejoin="round" stroke-miterlimit="10" d="
	M27.546,24.455c0.496,0.176,0.851,0.643,0.851,1.197c0,1.088-0.552,1.97-1.24,1.998c-0.631,1.949-1.923,3.29-3.407,3.29
	c-1.492,0-2.776-1.341-3.41-3.29c-0.686-0.028-1.24-0.91-1.24-1.998c0-0.555,0.358-1.021,0.854-1.197v-1.094
	c0.231-1.894,1.839-3.359,3.796-3.359c1.953,0,3.565,1.466,3.797,3.359V24.455z"/>
<path fill="#FADF7E" stroke="#335C5F" stroke-width="1.5" stroke-linecap="round" stroke-linejoin="round" stroke-miterlimit="10" d="
	M32.5,36.407c0-0.854-0.348-1.626-0.909-2.188l-5.047-2.093c-0.221-0.088-0.42-0.222-0.582-0.388
	c-0.327-0.323-0.531-0.775-0.531-1.271V30.32c-0.506,0.393-1.074,0.62-1.681,0.62s-1.179-0.228-1.685-0.62v0.147
	c0,0.496-0.203,0.948-0.527,1.271c-0.165,0.166-0.365,0.3-0.581,0.388l-5.051,2.093c-0.562,0.562-0.907,1.333-0.907,2.188v5.133
	h17.5V36.407z"/>
<path fill="#D8C26F" d="M26.962,32.299l-0.419-0.173c-0.221-0.088-0.42-0.222-0.582-0.388c-0.327-0.323-0.531-0.775-0.531-1.271
	V30.32c-0.506,0.393-1.074,0.62-1.681,0.62s-1.179-0.228-1.685-0.62v0.147c0,0.496-0.203,0.948-0.527,1.271
	c-0.165,0.166-0.365,0.3-0.581,0.388l-0.418,0.173c0.944,0.731,2.039,1.141,3.211,1.141C24.922,33.44,26.018,33.031,26.962,32.299z"
	/>
<path fill="none" stroke="#335C5F" stroke-width="1.5" stroke-linecap="round" stroke-linejoin="round" stroke-miterlimit="10" d="
	M14.999,46.539h10H14.999z"/>
<path fill="none" stroke="#335C5F" stroke-width="1.5" stroke-linecap="round" stroke-linejoin="round" stroke-miterlimit="10" d="
	M14.999,51.541h17.5H14.999z"/>
<path fill="none" stroke="#335C5F" stroke-width="1.5" stroke-linecap="round" stroke-linejoin="round" stroke-miterlimit="10" d="
	M14.999,56.54h12.499H14.999z"/>
<path fill="none" stroke="#335C5F" stroke-width="1.5" stroke-linecap="round" stroke-linejoin="round" stroke-miterlimit="10" d="
	M14.999,61.542h17.5H14.999z"/>
<polygon fill="#46C6F1" stroke="#335C5F" stroke-width="1.5" stroke-linecap="round" stroke-linejoin="round" stroke-miterlimit="10" points="
	61.356,67.498 14.999,67.498 14.999,74.999 68.856,74.999 "/>
<path fill="#46C6F1" stroke="#335C5F" stroke-width="1.5" stroke-linecap="round" stroke-linejoin="round" stroke-miterlimit="10" d="
	M43.008,49.746l6.594,6.597c1.86,1.86,4.882,1.857,6.742,0c1.857-1.86,1.857-4.878,0-6.738l-6.601-6.593
	c3.628-1.175,7.762-0.327,10.642,2.549c2.047,2.049,3.07,4.729,3.066,7.413c0,2.708,1.037,5.168,2.722,7.024H75V20.001H37.499
	v39.997h7.728C42.636,57.146,41.889,53.219,43.008,49.746z"/>
<path fill="none" stroke="#335C5F" stroke-width="1.5" stroke-linecap="round" stroke-linejoin="round" stroke-miterlimit="10" d="
	M52.972,63.45c2.68,0,5.363-1.02,7.413-3.069C58.335,62.431,55.651,63.45,52.972,63.45z"/>
<path fill="#3EAED3" d="M57.679,67.498c0.327,0.24,0.643,0.5,0.936,0.793l6.708,6.708h3.534l-7.5-7.501H57.679z"/>
<path fill="#3EAED3" d="M68.289,58.617c-1.507-1.508-2.338-3.512-2.338-5.64c0.005-3.467-1.344-6.729-3.799-9.186
	C59.704,41.347,56.449,40,52.988,40c-1.366,0-2.717,0.214-4.015,0.634l-3.889,1.258l9.49,9.479c0.882,0.884,0.882,2.322,0.003,3.203
	c-0.429,0.427-0.999,0.663-1.606,0.663c-0.605,0-1.175-0.235-1.601-0.661l-9.487-9.491l-1.255,3.895
	c-1.216,3.774-0.656,7.793,1.426,11.019h3.172c-2.591-2.853-3.338-6.779-2.219-10.252l6.594,6.597c1.86,1.86,4.882,1.857,6.742,0
	c1.857-1.86,1.857-4.878,0-6.738l-6.601-6.593c3.628-1.175,7.762-0.327,10.642,2.549c2.047,2.049,3.07,4.729,3.066,7.413
	c0,2.708,1.037,5.168,2.722,7.024h3.498L68.289,58.617z"/>
<path fill="#70929F" stroke="#335C5F" stroke-width="1.5" stroke-linecap="round" stroke-linejoin="round" stroke-miterlimit="10" d="
	M88.729,82.593L66.521,60.385c-1.895-1.896-3.069-4.517-3.069-7.411c0.004-2.684-1.02-5.364-3.066-7.413
	c-2.88-2.876-7.014-3.724-10.642-2.549l6.601,6.593c1.857,1.86,1.857,4.878,0,6.738c-1.86,1.857-4.882,1.86-6.742,0l-6.594-6.597
	c-1.168,3.624-0.327,7.762,2.553,10.639c2.047,2.046,4.73,3.065,7.411,3.065c2.894,0.004,5.516,1.175,7.41,3.073L82.59,88.731
	c1.695,1.691,4.444,1.691,6.139,0C90.424,87.033,90.424,84.287,88.729,82.593z"/>
<path fill="none" stroke="#335C5F" stroke-width="1.5" stroke-linecap="round" stroke-linejoin="round" stroke-miterlimit="10" d="
	M19.038,36.154l-0.672,5.386L19.038,36.154z"/>
<path fill="none" stroke="#335C5F" stroke-width="1.5" stroke-linecap="round" stroke-linejoin="round" stroke-miterlimit="10" d="
	M28.458,36.154l0.676,5.386L28.458,36.154z"/>
<rect x="72.5" y="20.001" fill="#3EAED3" width="2.5" height="39.997"/>
<rect x="75" y="10" fill="none" stroke="#335C5F" stroke-width="1.5" stroke-linecap="round" stroke-linejoin="round" stroke-miterlimit="10" width="4.999" height="4.999"/>
<path fill="none" stroke="#335C5F" stroke-width="1.5" stroke-linecap="round" stroke-linejoin="round" stroke-miterlimit="10" d="
	M60.382,66.523c-1.895-1.898-4.517-3.069-7.41-3.073c-2.681,0-5.364-1.02-7.411-3.065c-2.88-2.877-3.721-7.015-2.553-10.639
	l6.594,6.597c1.86,1.86,4.882,1.857,6.742,0c1.857-1.86,1.857-4.878,0-6.738l-6.601-6.593c3.628-1.175,7.762-0.327,10.642,2.549
	c2.047,2.049,3.07,4.729,3.066,7.413c0,2.895,1.175,5.516,3.069,7.411l13.479,13.478V14.999H10v65.003h63.859L60.382,66.523z"/>
<path fill="none" stroke="#335C5F" stroke-width="1.5" stroke-linecap="round" stroke-linejoin="round" stroke-miterlimit="10" d="
	M32.5,36.407c0-0.854-0.348-1.626-0.909-2.188l-5.047-2.093c-0.221-0.088-0.42-0.222-0.582-0.388
	c-0.327-0.323-0.531-0.775-0.531-1.271V30.32c-0.506,0.393-1.074,0.62-1.681,0.62s-1.179-0.228-1.685-0.62v0.147
	c0,0.496-0.203,0.948-0.527,1.271c-0.165,0.166-0.365,0.3-0.581,0.388l-5.051,2.093c-0.562,0.562-0.907,1.333-0.907,2.188v5.133
	h17.5V36.407z"/>
<polygon fill="none" stroke="#335C5F" stroke-width="1.5" stroke-linecap="round" stroke-linejoin="round" stroke-miterlimit="10" points="
	61.356,67.498 14.999,67.498 14.999,74.999 68.856,74.999 "/>
<path fill="none" stroke="#335C5F" stroke-width="1.5" stroke-linecap="round" stroke-linejoin="round" stroke-miterlimit="10" d="
	M43.008,49.746l6.594,6.597c1.86,1.86,4.882,1.857,6.742,0c1.857-1.86,1.857-4.878,0-6.738l-6.601-6.593
	c3.628-1.175,7.762-0.327,10.642,2.549c2.047,2.049,3.07,4.729,3.066,7.413c0,2.708,1.037,5.168,2.722,7.024H75V20.001H37.499
	v39.997h7.728C42.636,57.146,41.889,53.219,43.008,49.746z"/>
</svg>
