<svg xmlns="http://www.w3.org/2000/svg" viewBox="0 0 48 48"><defs><style>.cls-1{fill:#424242;}.cls-2{fill:#263238;}</style></defs><title>Protection  Server</title><g id="Protection_Server" data-name="Protection  Server"><path class="cls-1" d="M47,6a5,5,0,0,1-5-5,1,1,0,0,0-1-1H19a1,1,0,0,0-1,1,5,5,0,0,1-5,5,1,1,0,0,0-1,1v8a27.69,27.69,0,0,0,.17,3h2A23.48,23.48,0,0,1,14,15v-7A7,7,0,0,0,19.93,2H40.07A7,7,0,0,0,46,7.93v7A24.51,24.51,0,0,1,36,34.7V36a3.85,3.85,0,0,1-.21,1.27A26.52,26.52,0,0,0,48,15V7A1,1,0,0,0,47,6Z"/><path class="cls-1" d="M43.4,9.25A9,9,0,0,1,38.75,4.6a1,1,0,0,0-.92-.6H22.17a1,1,0,0,0-.92.6A9,9,0,0,1,16.6,9.25a1,1,0,0,0-.6.92V15a21.83,21.83,0,0,0,.21,3h2A20.3,20.3,0,0,1,18,15V10.8A11,11,0,0,0,22.8,6H37.2A11,11,0,0,0,42,10.8V15a20.49,20.49,0,0,1-6.55,15A3.93,3.93,0,0,1,36,32v.17A22.45,22.45,0,0,0,44,15v-4.8A1,1,0,0,0,43.4,9.25Z"/><path class="cls-2" d="M32,20H2a2,2,0,0,0-2,2v4a2,2,0,0,0,2,2H32a2,2,0,0,0,2-2V22A2,2,0,0,0,32,20ZM7,25a1,1,0,0,1-1,1H4a1,1,0,0,1-1-1V23a1,1,0,0,1,1-1H6a1,1,0,0,1,1,1Zm6,0a1,1,0,0,1-1,1H10a1,1,0,0,1-1-1V23a1,1,0,0,1,1-1h2a1,1,0,0,1,1,1Zm10,0a1,1,0,0,1-2,0V23a1,1,0,0,1,2,0Zm4,0a1,1,0,0,1-2,0V23a1,1,0,0,1,2,0Zm4,0a1,1,0,0,1-2,0V23a1,1,0,0,1,2,0Z"/><path class="cls-2" d="M32,30H2a2,2,0,0,0-2,2v4a2,2,0,0,0,2,2H32a2,2,0,0,0,2-2V32A2,2,0,0,0,32,30ZM7,35a1,1,0,0,1-1,1H4a1,1,0,0,1-1-1V33a1,1,0,0,1,1-1H6a1,1,0,0,1,1,1Zm6,0a1,1,0,0,1-1,1H10a1,1,0,0,1-1-1V33a1,1,0,0,1,1-1h2a1,1,0,0,1,1,1Zm10,0a1,1,0,0,1-2,0V33a1,1,0,0,1,2,0Zm4,0a1,1,0,0,1-2,0V33a1,1,0,0,1,2,0Zm4,0a1,1,0,0,1-2,0V33a1,1,0,0,1,2,0Z"/><path class="cls-1" d="M4,47H15.28a2,2,0,0,0,3.44,0H30a1,1,0,0,0,0-2H18.72a1.91,1.91,0,0,0-.72-.72V40H16v4.28a1.91,1.91,0,0,0-.72.72H4a1,1,0,0,0,0,2Z"/></g></svg>