<?xml version="1.0" encoding="utf-8"?>
<!-- Generator: Adobe Illustrator 19.2.0, SVG Export Plug-In . SVG Version: 6.00 Build 0)  -->
<svg version="1.1" id="Layer_1" xmlns="http://www.w3.org/2000/svg" xmlns:xlink="http://www.w3.org/1999/xlink" x="0px" y="0px"
	 viewBox="0 0 500 500" style="enable-background:new 0 0 500 500;" xml:space="preserve">
<style type="text/css">
	.st0{fill:#ECF4F7;}
	.st1{fill:#1C1D21;}
	.st2{fill:#f7f7f7;}
	.st3{fill:#AAB1BA;}
	.st4{fill:none;stroke:#1C1D21;stroke-width:10;stroke-linecap:round;stroke-linejoin:round;stroke-miterlimit:10;}
	.st5{fill:#FDDF7F;}
	.st6{fill:#FFFFFF;}
</style>
<g>
	<g>
		<g>
			<g>
				<path class="st2" d="M279.5,295l68.4-48.4c28.1-19.9,61.6-30.5,96-30.5h0c33.3,0,57.6,31.3,49.5,63.5l0,0
					c-5.8,23.1-5.8,47.4,0,70.5l0,0c8.1,32.3-16.3,63.5-49.5,63.5h0c-34.4,0-67.9-10.7-96-30.5l-68.4-48.4h-58.9l-68.4,48.4
					c-28.1,19.9-61.6,30.5-96,30.5h0c-33.3,0-57.6-31.3-49.5-63.5l0,0c5.8-23.1,5.8-47.4,0-70.5l0,0c-8.1-32.3,16.3-63.5,49.5-63.5
					h0c34.4,0,67.9,10.7,96,30.5l68.4,48.4H279.5z"/>
			</g>
		</g>
		<g>
			<g>
				<path class="st1" d="M29.7,228.4c-1.7,0-3.3-0.9-4.3-2.4c-1.4-2.4-0.7-5.4,1.7-6.9c8.7-5.3,18.7-8,29-8c5.4,0,11,0.3,16.4,0.8
					c2.7,0.3,4.8,2.7,4.5,5.5c-0.3,2.7-2.7,4.8-5.5,4.5c-5.1-0.5-10.3-0.7-15.4-0.7c-8.4,0-16.7,2.3-23.8,6.6
					C31.5,228.2,30.6,228.4,29.7,228.4z"/>
			</g>
		</g>
		<g>
			<g>
				<path class="st1" d="M443.9,418.6c-35.6,0-69.8-10.9-98.9-31.4l-67.1-47.5h-55.7L155,387.2c-29.1,20.6-63.3,31.4-98.9,31.4
					c-17.4,0-33.5-7.9-44.2-21.6C1.2,383.3-2.5,365.8,1.7,348.9c5.6-22.3,5.6-45.8,0-68.1C-1,270-0.5,258.7,3.3,248.3
					c0.9-2.6,3.8-3.9,6.4-3c2.6,0.9,3.9,3.8,3,6.4c-3.1,8.6-3.5,17.8-1.3,26.7c6,23.9,6,49.1,0,72.9c-3.5,13.9-0.4,28.3,8.4,39.6
					c8.8,11.3,22,17.7,36.3,17.7c33.5,0,65.7-10.2,93.1-29.6l68.4-48.4c0.8-0.6,1.9-0.9,2.9-0.9h58.9c1,0,2,0.3,2.9,0.9l68.4,48.4
					c27.4,19.4,59.6,29.6,93.1,29.6c14.3,0,27.5-6.5,36.3-17.7c8.8-11.3,11.8-25.7,8.4-39.6c-6-23.9-6-49.1,0-72.9
					c3.5-13.9,0.4-28.3-8.4-39.6c-8.8-11.3-22-17.7-36.3-17.7c-33.5,0-65.7,10.2-93.1,29.6l-68.4,48.4c-0.8,0.6-1.9,0.9-2.9,0.9
					h-58.9c-1,0-2-0.3-2.9-0.9l-68.4-48.4c-15-10.6-31.7-18.6-49.4-23.6c-2.7-0.7-4.2-3.5-3.5-6.2c0.7-2.7,3.5-4.2,6.2-3.5
					c18.8,5.3,36.5,13.7,52.4,25l67.1,47.5h55.7l67.1-47.5c29.1-20.6,63.3-31.4,98.9-31.4c17.4,0,33.5,7.9,44.2,21.6
					c10.7,13.7,14.4,31.3,10.2,48.2c-5.6,22.3-5.6,45.8,0,68.1c4.2,16.9,0.5,34.4-10.2,48.2C477.4,410.8,461.3,418.6,443.9,418.6z"
					/>
			</g>
		</g>
		<g>
			<g>
				<circle class="st0" cx="250" cy="314.9" r="50"/>
			</g>
		</g>
		<g>
			<g>
				<path class="st1" d="M250,369.9c-30.3,0-55-24.7-55-55c0-30.3,24.7-55,55-55s55,24.7,55,55C305,345.2,280.3,369.9,250,369.9z
					 M250,269.9c-24.8,0-45,20.2-45,45c0,24.8,20.2,45,45,45s45-20.2,45-45C295,290,274.8,269.9,250,269.9z"/>
			</g>
		</g>
		<g>
			<g>
				<g>
					<path class="st1" d="M200,319.9h-49.5c-2.8,0-5-2.2-5-5c0-2.8,2.2-5,5-5H200c2.8,0,5,2.2,5,5C205,317.6,202.8,319.9,200,319.9z
						"/>
				</g>
			</g>
			<g>
				<g>
					<path class="st1" d="M125.5,319.9H105c-2.8,0-5-2.2-5-5c0-2.8,2.2-5,5-5h20.5c2.8,0,5,2.2,5,5
						C130.5,317.6,128.3,319.9,125.5,319.9z"/>
				</g>
			</g>
			<g>
				<g>
					<path class="st1" d="M81,319.9h-9c-2.8,0-5-2.2-5-5c0-2.8,2.2-5,5-5h9c2.8,0,5,2.2,5,5C86,317.6,83.8,319.9,81,319.9z"/>
				</g>
			</g>
		</g>
		<g>
			<g>
				<g>
					<path class="st1" d="M349.5,319.9H300c-2.8,0-5-2.2-5-5c0-2.8,2.2-5,5-5h49.5c2.8,0,5,2.2,5,5
						C354.5,317.6,352.3,319.9,349.5,319.9z"/>
				</g>
			</g>
			<g>
				<g>
					<path class="st1" d="M395,319.9h-20.5c-2.8,0-5-2.2-5-5c0-2.8,2.2-5,5-5H395c2.8,0,5,2.2,5,5C400,317.6,397.8,319.9,395,319.9z
						"/>
				</g>
			</g>
			<g>
				<g>
					<path class="st1" d="M428,319.9h-9c-2.8,0-5-2.2-5-5c0-2.8,2.2-5,5-5h9c2.8,0,5,2.2,5,5C433,317.6,430.8,319.9,428,319.9z"/>
				</g>
			</g>
		</g>
	</g>
	<g>
		<g>
			<g>
				<path class="st5" d="M39.6,152.2l-12.2,6.4c-5.4,2.8-11.6-1.7-10.6-7.7l2.3-13.6c0.4-2.4-0.4-4.8-2.1-6.5l-9.9-9.6
					c-4.3-4.2-1.9-11.6,4-12.5l13.6-2c2.4-0.3,4.4-1.8,5.5-4l6.1-12.3c2.7-5.4,10.4-5.4,13.1,0l6.1,12.3c1.1,2.2,3.1,3.6,5.5,4
					l13.6,2c6,0.9,8.4,8.2,4,12.5l-9.9,9.6c-1.7,1.7-2.5,4.1-2.1,6.5l2.3,13.6c1,6-5.2,10.5-10.6,7.7l-12.2-6.4
					C44.3,151,41.8,151,39.6,152.2z"/>
			</g>
		</g>
		<g>
			<g>
				<path class="st5" d="M143.1,152.2l-12.2,6.4c-5.4,2.8-11.6-1.7-10.6-7.7l2.3-13.6c0.4-2.4-0.4-4.8-2.1-6.5l-9.9-9.6
					c-4.3-4.2-1.9-11.6,4-12.5l13.6-2c2.4-0.3,4.4-1.8,5.5-4l6.1-12.3c2.7-5.4,10.4-5.4,13.1,0l6.1,12.3c1.1,2.2,3.1,3.6,5.5,4
					l13.6,2c6,0.9,8.4,8.2,4,12.5l-9.9,9.6c-1.7,1.7-2.5,4.1-2.1,6.5l2.3,13.6c1,6-5.2,10.5-10.6,7.7l-12.2-6.4
					C147.8,151,145.2,151,143.1,152.2z"/>
			</g>
		</g>
		<g>
			<g>
				<path class="st5" d="M246.6,152.2l-12.2,6.4c-5.4,2.8-11.6-1.7-10.6-7.7l2.3-13.6c0.4-2.4-0.4-4.8-2.1-6.5l-9.9-9.6
					c-4.3-4.2-1.9-11.6,4-12.5l13.6-2c2.4-0.3,4.4-1.8,5.5-4l6.1-12.3c2.7-5.4,10.4-5.4,13.1,0l6.1,12.3c1.1,2.2,3.1,3.6,5.5,4
					l13.6,2c6,0.9,8.4,8.2,4,12.5l-9.9,9.6c-1.7,1.7-2.5,4.1-2.1,6.5l2.3,13.6c1,6-5.2,10.5-10.6,7.7l-12.2-6.4
					C251.3,151,248.7,151,246.6,152.2z"/>
			</g>
		</g>
		<g>
			<g>
				<path class="st5" d="M350.1,152.2l-12.2,6.4c-5.4,2.8-11.6-1.7-10.6-7.7l2.3-13.6c0.4-2.4-0.4-4.8-2.1-6.5l-9.9-9.6
					c-4.3-4.2-1.9-11.6,4-12.5l13.6-2c2.4-0.3,4.4-1.8,5.5-4l6.1-12.3c2.7-5.4,10.4-5.4,13.1,0l6.1,12.3c1.1,2.2,3.1,3.6,5.5,4
					l13.6,2c6,0.9,8.4,8.2,4,12.5l-9.9,9.6c-1.7,1.7-2.5,4.1-2.1,6.5l2.3,13.6c1,6-5.2,10.5-10.6,7.7l-12.2-6.4
					C354.8,151,352.2,151,350.1,152.2z"/>
			</g>
		</g>
		<g>
			<g>
				<path class="st5" d="M453.6,152.2l-12.2,6.4c-5.4,2.8-11.6-1.7-10.6-7.7l2.3-13.6c0.4-2.4-0.4-4.8-2.1-6.5l-9.9-9.6
					c-4.3-4.2-1.9-11.6,4-12.5l13.6-2c2.4-0.3,4.4-1.8,5.5-4l6.1-12.3c2.7-5.4,10.4-5.4,13.1,0l6.1,12.3c1.1,2.2,3.1,3.6,5.5,4
					l13.6,2c6,0.9,8.4,8.2,4,12.5l-9.9,9.6c-1.7,1.7-2.5,4.1-2.1,6.5l2.3,13.6c1,6-5.2,10.5-10.6,7.7l-12.2-6.4
					C458.2,151,455.7,151,453.6,152.2z"/>
			</g>
		</g>
	</g>
	<g>
		<g>
			<g>
				<path class="st1" d="M62,164.4c-2,0-3.9-0.5-5.7-1.4l-12.2-6.4c-0.7-0.4-1.5-0.4-2.1,0l0,0L29.8,163c-4.2,2.2-9.1,1.8-13-0.9
					c-3.8-2.8-5.7-7.4-4.9-12l2.3-13.6c0.1-0.7-0.1-1.5-0.7-2l-9.9-9.6c-3.4-3.3-4.6-8.1-3.1-12.6c1.5-4.5,5.3-7.7,9.9-8.4l13.6-2
					c0.8-0.1,1.4-0.6,1.7-1.3L32,88.2c2.1-4.2,6.3-6.9,11-6.9c0,0,0,0,0,0c4.7,0,8.9,2.6,11,6.9l6.1,12.3c0.3,0.7,1,1.2,1.7,1.3
					l13.6,2c4.7,0.7,8.5,3.9,9.9,8.4c1.5,4.5,0.3,9.3-3.1,12.6l-9.9,9.6c-0.5,0.5-0.8,1.3-0.7,2l2.3,13.6c0.8,4.6-1.1,9.3-4.9,12
					C67.1,163.6,64.6,164.4,62,164.4z M43,91.4c-0.4,0-1.5,0.1-2.1,1.3L34.9,105c-1.8,3.6-5.3,6.1-9.3,6.7l-13.6,2
					c-1.3,0.2-1.7,1.2-1.9,1.6c-0.1,0.4-0.3,1.5,0.6,2.4l9.9,9.6c2.9,2.8,4.2,6.9,3.5,10.9l-2.3,13.6c-0.2,1.3,0.6,2,0.9,2.3
					c0.3,0.3,1.3,0.8,2.4,0.2l12.2-6.4c3.6-1.9,7.9-1.9,11.5,0l12.2,6.4c1.1,0.6,2.1,0.1,2.4-0.2c0.3-0.3,1.1-1,0.9-2.3L62,138.1
					c-0.7-4,0.6-8.1,3.5-10.9l9.9-9.6c0.9-0.9,0.7-2,0.6-2.4c-0.1-0.4-0.6-1.4-1.9-1.6l-13.6-2c-4-0.6-7.5-3.1-9.3-6.7l-6.1-12.3
					C44.5,91.5,43.5,91.4,43,91.4z M39.6,152.2L39.6,152.2L39.6,152.2z"/>
			</g>
		</g>
		<g>
			<g>
				<path class="st1" d="M127.5,164.4c-2.5,0-5.1-0.8-7.2-2.4c-3.8-2.8-5.7-7.4-4.9-12l2.3-13.6c0.1-0.7-0.1-1.5-0.7-2l-9.9-9.6
					c-3.4-3.3-4.6-8.1-3.1-12.6c1.5-4.5,5.3-7.7,9.9-8.4l13.6-2c0.8-0.1,1.4-0.6,1.7-1.3l6.1-12.3c2.1-4.2,6.3-6.9,11-6.9
					c0,0,0,0,0,0c4.7,0,8.9,2.6,11,6.9l6.1,12.3c0.3,0.7,1,1.2,1.7,1.3l13.6,2c4.7,0.7,8.5,3.9,9.9,8.4c1.5,4.5,0.3,9.3-3.1,12.6
					l-9.9,9.6c-0.5,0.5-0.8,1.3-0.7,2l2.3,13.6c0.8,4.6-1.1,9.3-4.9,12c-3.8,2.8-8.8,3.1-13,0.9l-12.2-6.4c-0.7-0.4-1.5-0.4-2.1,0
					l0,0l-12.2,6.4C131.4,163.9,129.5,164.4,127.5,164.4z M146.5,91.4c-0.4,0-1.5,0.1-2.1,1.3l-6.1,12.3c-1.8,3.6-5.3,6.1-9.3,6.7
					l-13.6,2c-1.3,0.2-1.7,1.2-1.9,1.6c-0.1,0.4-0.3,1.5,0.6,2.4l9.9,9.6c2.9,2.8,4.2,6.9,3.5,10.9l-2.3,13.6
					c-0.2,1.3,0.6,2,0.9,2.3c0.3,0.3,1.3,0.8,2.4,0.2l12.2-6.4c3.6-1.9,7.9-1.9,11.5,0l12.2,6.4c1.1,0.6,2.1,0.1,2.4-0.2
					c0.3-0.3,1.1-1,0.9-2.3l-2.3-13.6c-0.7-4,0.6-8.1,3.5-10.9l9.9-9.6c0.9-0.9,0.7-2,0.6-2.4c-0.1-0.4-0.6-1.4-1.9-1.6l-13.6-2
					c-4-0.6-7.5-3.1-9.3-6.7l-6.1-12.3C148,91.5,146.9,91.4,146.5,91.4z M143.1,152.2L143.1,152.2L143.1,152.2z"/>
			</g>
		</g>
		<g>
			<g>
				<path class="st1" d="M269,164.4c-2,0-3.9-0.5-5.7-1.4l-12.2-6.4c-0.7-0.4-1.5-0.4-2.1,0l0,0l-12.2,6.4c-4.2,2.2-9.1,1.8-13-0.9
					c-3.8-2.8-5.7-7.4-4.9-12l2.3-13.6c0.1-0.7-0.1-1.5-0.7-2l-9.9-9.6c-3.4-3.3-4.6-8.1-3.1-12.6c1.5-4.5,5.3-7.7,9.9-8.4l13.6-2
					c0.8-0.1,1.4-0.6,1.7-1.3l6.1-12.3c2.1-4.2,6.3-6.9,11-6.9s8.9,2.6,11,6.9l6.1,12.3c0.3,0.7,1,1.2,1.7,1.3l13.6,2
					c4.7,0.7,8.5,3.9,9.9,8.4c1.5,4.5,0.3,9.3-3.1,12.6l-9.9,9.6c-0.5,0.5-0.8,1.3-0.7,2l2.3,13.6c0.8,4.6-1.1,9.3-4.9,12
					C274.1,163.6,271.5,164.4,269,164.4z M250,146.3c2,0,3.9,0.5,5.7,1.4l12.2,6.4c1.1,0.6,2.1,0.1,2.4-0.2c0.3-0.3,1.1-1,0.9-2.3
					l-2.3-13.6c-0.7-4,0.6-8.1,3.5-10.9l9.9-9.6c0.9-0.9,0.7-2,0.6-2.4c-0.1-0.4-0.6-1.4-1.9-1.6l-13.6-2c-4-0.6-7.5-3.1-9.3-6.7
					l-6.1-12.3c-0.6-1.2-1.6-1.3-2.1-1.3c-0.4,0-1.5,0.1-2.1,1.3l-6.1,12.3c-1.8,3.6-5.3,6.1-9.3,6.7l-13.6,2
					c-1.3,0.2-1.7,1.2-1.9,1.6c-0.1,0.4-0.3,1.5,0.6,2.4l9.9,9.6c2.9,2.8,4.2,6.9,3.5,10.9l-2.3,13.6c-0.2,1.3,0.6,2,0.9,2.3
					c0.3,0.3,1.3,0.8,2.4,0.2l12.2-6.4C246.1,146.8,248,146.3,250,146.3z M246.6,152.2L246.6,152.2L246.6,152.2z"/>
			</g>
		</g>
		<g>
			<g>
				<path class="st1" d="M372.5,164.4c-2,0-3.9-0.5-5.7-1.4l-12.2-6.4c-0.7-0.4-1.5-0.4-2.1,0l0,0l-12.2,6.4
					c-4.2,2.2-9.1,1.8-13-0.9c-3.8-2.8-5.7-7.4-4.9-12l2.3-13.6c0.1-0.7-0.1-1.5-0.7-2l-9.9-9.6c-3.4-3.3-4.6-8.1-3.1-12.6
					c1.5-4.5,5.3-7.7,9.9-8.4l13.6-2c0.8-0.1,1.4-0.6,1.7-1.3l6.1-12.3c2.1-4.2,6.3-6.9,11-6.9c4.7,0,8.9,2.6,11,6.9l6.1,12.3
					c0.3,0.7,1,1.2,1.7,1.3l13.6,2c4.7,0.7,8.5,3.9,9.9,8.4c1.5,4.5,0.3,9.3-3.1,12.6l-9.9,9.6c-0.5,0.5-0.8,1.3-0.7,2l2.3,13.6
					c0.8,4.6-1.1,9.3-4.9,12C377.5,163.6,375,164.4,372.5,164.4z M353.5,146.3c2,0,3.9,0.5,5.7,1.4l12.2,6.4
					c1.1,0.6,2.1,0.1,2.4-0.2c0.3-0.3,1.1-1,0.9-2.3l-2.3-13.6c-0.7-4,0.6-8.1,3.5-10.9l9.9-9.6c0.9-0.9,0.7-2,0.6-2.4
					c-0.1-0.4-0.6-1.4-1.9-1.6l-13.6-2c-4-0.6-7.5-3.1-9.3-6.7l-6.1-12.3c-0.6-1.2-1.6-1.3-2.1-1.3c-0.4,0-1.5,0.1-2.1,1.3
					l-6.1,12.3c-1.8,3.6-5.3,6.1-9.3,6.7l-13.6,2c-1.3,0.2-1.7,1.2-1.9,1.6c-0.1,0.4-0.3,1.5,0.6,2.4l9.9,9.6
					c2.9,2.8,4.2,6.9,3.5,10.9l-2.3,13.6c-0.2,1.3,0.6,2,0.9,2.3c0.3,0.3,1.3,0.8,2.4,0.2l12.2-6.4
					C349.6,146.8,351.5,146.3,353.5,146.3z M350.1,152.2L350.1,152.2L350.1,152.2z"/>
			</g>
		</g>
		<g>
			<g>
				<path class="st1" d="M476,164.4c-2,0-3.9-0.5-5.7-1.4l-12.2-6.4c-0.7-0.4-1.5-0.4-2.1,0l-12.2,6.4c-4.2,2.2-9.1,1.8-13-0.9
					c-3.8-2.8-5.7-7.4-4.9-12l2.3-13.6c0.1-0.7-0.1-1.5-0.7-2l-9.9-9.6c-3.4-3.3-4.6-8.1-3.1-12.6c1.5-4.5,5.3-7.7,9.9-8.4l13.6-2
					c0.8-0.1,1.4-0.6,1.7-1.3l6.1-12.3c2.1-4.2,6.3-6.9,11-6.9c4.7,0,8.9,2.6,11,6.9l6.1,12.3c0.3,0.7,1,1.2,1.7,1.3l13.6,2
					c4.7,0.7,8.5,3.9,9.9,8.4c1.5,4.5,0.3,9.3-3.1,12.6l-9.9,9.6c-0.5,0.5-0.8,1.3-0.7,2l2.3,13.6c0.8,4.6-1.1,9.3-4.9,12
					C481,163.6,478.5,164.4,476,164.4z M457,146.3c2,0,3.9,0.5,5.7,1.4l12.2,6.4c1.1,0.6,2.1,0.1,2.4-0.2c0.3-0.3,1.1-1,0.9-2.3
					l-2.3-13.6c-0.7-4,0.6-8.1,3.5-10.9l9.9-9.6c0.9-0.9,0.7-2,0.6-2.4c-0.1-0.4-0.6-1.4-1.9-1.6l-13.6-2c-4-0.6-7.5-3.1-9.3-6.7
					L459,92.7c-0.6-1.2-1.6-1.3-2.1-1.3c-0.4,0-1.5,0.1-2.1,1.3l-6.1,12.3c-1.8,3.6-5.3,6.1-9.3,6.7l-13.6,2
					c-1.3,0.2-1.7,1.2-1.9,1.6c-0.1,0.4-0.3,1.5,0.6,2.4l9.9,9.6c2.9,2.8,4.2,6.9,3.5,10.9l-2.3,13.6c-0.2,1.3,0.6,2,0.9,2.3
					c0.3,0.3,1.3,0.8,2.4,0.2l12.2-6.4l0,0C453,146.8,455,146.3,457,146.3z"/>
			</g>
		</g>
	</g>
</g>
</svg>
