<?xml version="1.0" encoding="utf-8"?>
<!-- Generator: Adobe Illustrator 19.2.0, SVG Export Plug-In . SVG Version: 6.00 Build 0)  -->
<svg version="1.1" id="Layer_1" xmlns="http://www.w3.org/2000/svg" xmlns:xlink="http://www.w3.org/1999/xlink" x="0px" y="0px"
	 viewBox="0 0 500 500" style="enable-background:new 0 0 500 500;" xml:space="preserve">
<style type="text/css">
	.st0{fill:#ECF4F7;}
	.st1{fill:#1C1D21;}
	.st2{fill:#f7f7f7;}
	.st3{fill:#AAB1BA;}
	.st4{fill:none;stroke:#1C1D21;stroke-width:10;stroke-linecap:round;stroke-linejoin:round;stroke-miterlimit:10;}
	.st5{fill:#FDDF7F;}
	.st6{fill:#FFFFFF;}
</style>
<g>
	<g>
		<g>
			<path class="st2" d="M36.1,321.9V83.5c0-11,9-20,20-20h333c11,0,20,9,20,20v238.4c0,11-9,20-20,20h-333
				C45,341.9,36.1,333,36.1,321.9z"/>
		</g>
	</g>
	<g>
		<g>
			<g>
				<path class="st1" d="M329.8,472.6H115.3c-2.8,0-5-2.2-5-5v-8.9c0-19.9,16.2-36.1,36.1-36.1h22.1c8.1,0,14.6-6.6,14.6-14.6v-12
					c0-9.9-8.1-18-18-18H31.6C14.2,378,0,363.8,0,346.4V59.1c0-17.4,14.2-31.6,31.6-31.6h381.9c17.4,0,31.6,14.2,31.6,31.6v287.3
					c0,2.8-2.2,5-5,5c-2.8,0-5-2.2-5-5V59.1c0-11.9-9.7-21.6-21.6-21.6H31.6C19.7,37.4,10,47.1,10,59.1v287.3
					c0,11.9,9.7,21.6,21.6,21.6h133.5c15.4,0,28,12.6,28,28v12c0,13.6-11.1,24.6-24.6,24.6h-22.1c-14.4,0-26.1,11.7-26.1,26.1v3.9
					h204.5v-3.9c0-14.4-11.7-26.1-26.1-26.1h-25.4c-2.8,0-5-2.2-5-5c0-2.8,2.2-5,5-5h25.4c19.9,0,36.1,16.2,36.1,36.1v8.9
					C334.8,470.3,332.6,472.6,329.8,472.6z"/>
			</g>
		</g>
		<g>
			<g>
				<path class="st1" d="M200,378h-40.5c-2.8,0-5-2.2-5-5c0-2.8,2.2-5,5-5H200c2.8,0,5,2.2,5,5C205,375.8,202.8,378,200,378z"/>
			</g>
		</g>
		<g>
			<g>
				<path class="st1" d="M282.7,432.6h-49.1c-2.8,0-5-2.2-5-5c0-2.8,2.2-5,5-5h49.1c2.8,0,5,2.2,5,5
					C287.7,430.4,285.4,432.6,282.7,432.6z"/>
			</g>
		</g>
	</g>
	<g>
		<g>
			<g>
				<path class="st1" d="M329.8,472.6H115.3c-2.8,0-5-2.2-5-5v-8.9c0-19.9,16.2-36.1,36.1-36.1h25.4c2.8,0,5,2.2,5,5
					c0,2.8-2.2,5-5,5h-25.4c-14.4,0-26.1,11.7-26.1,26.1v3.9h204.5v-3.9c0-14.4-11.7-26.1-26.1-26.1h-22.1
					c-13.6,0-24.6-11.1-24.6-24.6v-12c0-15.4,12.6-28,28-28h133.5c11.9,0,21.6-9.7,21.6-21.6V59.1c0-11.9-9.7-21.6-21.6-21.6H31.6
					C19.7,37.4,10,47.1,10,59.1v287.3c0,2.8-2.2,5-5,5s-5-2.2-5-5V59.1c0-17.4,14.2-31.6,31.6-31.6h381.9
					c17.4,0,31.6,14.2,31.6,31.6v287.3c0,17.4-14.2,31.6-31.6,31.6H280c-9.9,0-18,8.1-18,18v12c0,8.1,6.6,14.6,14.6,14.6h22.1
					c19.9,0,36.1,16.2,36.1,36.1v8.9C334.8,470.3,332.6,472.6,329.8,472.6z"/>
			</g>
		</g>
		<g>
			<g>
				<path class="st1" d="M222.6,378h-8.4c-2.8,0-5-2.2-5-5c0-2.8,2.2-5,5-5h8.4c2.8,0,5,2.2,5,5C227.6,375.8,225.3,378,222.6,378z"
					/>
			</g>
		</g>
		<g>
			<g>
				<path class="st1" d="M211.6,432.6h-49.1c-2.8,0-5-2.2-5-5c0-2.8,2.2-5,5-5h49.1c2.8,0,5,2.2,5,5
					C216.6,430.4,214.4,432.6,211.6,432.6z"/>
			</g>
		</g>
	</g>
	<g>
		<g>
			<g>
				<path class="st1" d="M36.1,86.3c-2.8,0-5-2.2-5-5c0-12.6,10.2-22.8,22.8-22.8h15.4c2.8,0,5,2.2,5,5s-2.2,5-5,5H53.8
					c-7,0-12.8,5.7-12.8,12.8C41.1,84,38.8,86.3,36.1,86.3z"/>
			</g>
		</g>
		<g>
			<g>
				<path class="st1" d="M36.1,175.7c-2.8,0-5-2.2-5-5V105c0-2.8,2.2-5,5-5c2.8,0,5,2.2,5,5v65.7C41.1,173.4,38.8,175.7,36.1,175.7z
					"/>
			</g>
		</g>
		<g>
			<g>
				<path class="st1" d="M95.6,68.5h-6.7c-2.8,0-5-2.2-5-5s2.2-5,5-5h6.7c2.8,0,5,2.2,5,5S98.3,68.5,95.6,68.5z"/>
			</g>
		</g>
	</g>
	<g>
		<g>
			<g>
				<path class="st0" d="M308.6,210.2V158c0-11.2,9-20.2,20.2-20.2h11.7h23h8.8h16.6h85.9c11.2,0,20.2,9,20.2,20.2v289.4
					c0,11.2-9,20.2-20.2,20.2H328.8c-11.2,0-20.2-9-20.2-20.2V238.1V210.2z"/>
			</g>
		</g>
	</g>
	<g>
		<g>
			<g>
				<path class="st1" d="M372.3,142.8h-8.8c-2.8,0-5-2.2-5-5c0-2.8,2.2-5,5-5h8.8c2.8,0,5,2.2,5,5
					C377.3,140.6,375,142.8,372.3,142.8z"/>
			</g>
		</g>
		<g>
			<g>
				<path class="st1" d="M474.8,472.6H328.8c-13.9,0-25.2-11.3-25.2-25.2V238.1c0-2.8,2.2-5,5-5s5,2.2,5,5v209.3
					c0,8.4,6.8,15.2,15.2,15.2h146.1c8.4,0,15.2-6.8,15.2-15.2V158c0-8.4-6.8-15.2-15.2-15.2h-85.9c-2.8,0-5-2.2-5-5
					c0-2.8,2.2-5,5-5h85.9c13.9,0,25.2,11.3,25.2,25.2v289.4C500,461.3,488.7,472.6,474.8,472.6z"/>
			</g>
		</g>
		<g>
			<g>
				<path class="st1" d="M308.6,215.2c-2.8,0-5-2.2-5-5V158c0-13.9,11.3-25.2,25.2-25.2h11.7c2.8,0,5,2.2,5,5c0,2.8-2.2,5-5,5h-11.7
					c-8.4,0-15.2,6.8-15.2,15.2v52.2C313.6,213,311.3,215.2,308.6,215.2z"/>
			</g>
		</g>
	</g>
	<g>
		<g>
			<path class="st5" d="M333.4,403V183.9c0-11,9-20,20-20h96.7c11,0,20,9,20,20V403c0,11-9,20-20,20h-96.7
				C342.4,423,333.4,414.1,333.4,403z"/>
		</g>
	</g>
	<g>
		<g>
			<path class="st1" d="M450.1,428h-96.7c-13.8,0-25-11.2-25-25V183.9c0-13.8,11.2-25,25-25h96.7c13.8,0,25,11.2,25,25V403
				C475.1,416.8,463.9,428,450.1,428z M353.4,168.9c-8.3,0-15,6.7-15,15V403c0,8.3,6.7,15,15,15h96.7c8.3,0,15-6.7,15-15V183.9
				c0-8.3-6.7-15-15-15H353.4z"/>
		</g>
	</g>
	<g>
		<g>
			<circle class="st3" cx="401.8" cy="446.5" r="21"/>
		</g>
	</g>
	<g>
		<g>
			<path class="st1" d="M401.8,472.6c-14.3,0-26-11.7-26-26c0-14.3,11.7-26,26-26c14.3,0,26,11.7,26,26
				C427.8,460.9,416.1,472.6,401.8,472.6z M401.8,430.5c-8.8,0-16,7.2-16,16s7.2,16,16,16c8.8,0,16-7.2,16-16
				S410.6,430.5,401.8,430.5z"/>
		</g>
	</g>
</g>
</svg>
