<?xml version="1.0" encoding="utf-8"?>
<!-- Generator: Adobe Illustrator 19.2.0, SVG Export Plug-In . SVG Version: 6.00 Build 0)  -->
<svg version="1.1" id="Layer_1" xmlns="http://www.w3.org/2000/svg" xmlns:xlink="http://www.w3.org/1999/xlink" x="0px" y="0px"
	 viewBox="0 0 500 500" style="enable-background:new 0 0 500 500;" xml:space="preserve">
<style type="text/css">
	.st0{fill:#ECF4F7;}
	.st1{fill:#1C1D21;}
	.st2{fill:#f7f7f7;}
	.st3{fill:#AAB1BA;}
	.st4{fill:none;stroke:#1C1D21;stroke-width:10;stroke-linecap:round;stroke-linejoin:round;stroke-miterlimit:10;}
	.st5{fill:#FDDF7F;}
	.st6{fill:#FFFFFF;}
</style>
<g>
	<g>
		<g>
			<path class="st1" d="M421.9,351.9c-16.3,0-29.6-13.3-29.6-29.6s13.3-29.6,29.6-29.6c16.3,0,29.6,13.3,29.6,29.6
				S438.2,351.9,421.9,351.9z M421.9,302.7c-10.8,0-19.6,8.8-19.6,19.6c0,10.8,8.8,19.6,19.6,19.6c10.8,0,19.6-8.8,19.6-19.6
				C441.5,311.5,432.7,302.7,421.9,302.7z"/>
		</g>
	</g>
	<g>
		<g>
			<path class="st1" d="M421.9,302.7h-49.5c-2.8,0-5-2.2-5-5c0-2.8,2.2-5,5-5h49.5c2.8,0,5,2.2,5,5
				C426.9,300.4,424.7,302.7,421.9,302.7z"/>
		</g>
	</g>
	<g>
		<g>
			<path class="st1" d="M446.5,373.8c-2.8,0-5-2.2-5-5V325c0-2.8,2.2-5,5-5c2.8,0,5,2.2,5,5v43.8
				C451.5,371.6,449.3,373.8,446.5,373.8z"/>
		</g>
	</g>
	<g>
		<g>
			<path class="st0" d="M105.8,238.1c0,0-1.4-28.6-21.2-48.1c-4.1-4.1-1.4-11.1,4.4-11.3c17-0.6,42.7,2.6,56.5,23.5l-12.9,41.4
				L105.8,238.1z"/>
		</g>
	</g>
	<g>
		<g>
			<path class="st1" d="M132.7,248.6c-0.3,0-0.7,0-1-0.1l-26.9-5.5c-2.2-0.5-3.9-2.4-4-4.7c0-0.4-1.6-27-19.7-44.8
				c-3.4-3.3-4.4-8.1-2.7-12.5c1.7-4.4,5.7-7.2,10.4-7.4c19.6-0.6,46,3.3,60.9,25.7c0.8,1.3,1,2.8,0.6,4.2l-12.9,41.4
				C136.8,247.2,134.8,248.6,132.7,248.6z M110.4,234l18.8,3.8l10.8-34.8c-12.5-16.9-34.4-19.9-50.9-19.3c-0.9,0-1.3,0.7-1.4,1
				c-0.2,0.5-0.3,1.1,0.4,1.7C104.9,202.9,109.3,225.1,110.4,234z"/>
		</g>
	</g>
	<g>
		<g>
			<circle class="st5" cx="226.2" cy="88.1" r="83.1"/>
		</g>
	</g>
	<g>
		<g>
			<path class="st1" d="M184.4,21.3c-1.7,0-3.4-0.9-4.3-2.5c-1.4-2.4-0.6-5.4,1.8-6.8c2.1-1.2,4.2-2.4,6.4-3.4
				c2.5-1.2,5.5-0.1,6.7,2.4c1.2,2.5,0.1,5.5-2.4,6.7c-1.9,0.9-3.8,1.9-5.7,3C186.1,21,185.3,21.3,184.4,21.3z"/>
		</g>
	</g>
	<g>
		<g>
			<path class="st1" d="M144.4,78.7c-0.3,0-0.6,0-0.9-0.1c-2.7-0.5-4.5-3.1-4.1-5.8c3-17.1,10.9-32.9,23-45.5c1.9-2,5.1-2.1,7.1-0.2
				c2,1.9,2.1,5.1,0.2,7.1c-10.7,11.2-17.7,25.2-20.4,40.4C148.9,77,146.8,78.7,144.4,78.7z"/>
		</g>
	</g>
	<g>
		<g>
			<path class="st1" d="M226.2,176.2c-45.3,0-83-33.9-87.6-78.9c-0.3-2.7,1.7-5.2,4.5-5.5c2.8-0.3,5.2,1.7,5.5,4.5
				c4.1,39.9,37.5,70,77.7,70c43.1,0,78.1-35,78.1-78.1c0-43.1-35-78.1-78.1-78.1c-5.3,0-10.7,0.5-15.9,1.6
				c-2.7,0.6-5.3-1.2-5.9-3.9c-0.6-2.7,1.2-5.3,3.9-5.9c5.8-1.2,11.9-1.8,17.9-1.8c48.6,0,88.1,39.5,88.1,88.1
				C314.3,136.7,274.8,176.2,226.2,176.2z"/>
		</g>
	</g>
	<g>
		<g>
			<g>
				<path class="st1" d="M226.2,93.1H222c-9.1,0-16.5-7.4-16.5-16.5v-10c0-9.1,7.4-16.5,16.5-16.5h20c2.8,0,5,2.2,5,5s-2.2,5-5,5
					h-20c-3.6,0-6.5,2.9-6.5,6.5v10c0,3.6,2.9,6.5,6.5,6.5h4.2c2.8,0,5,2.2,5,5C231.2,90.8,229,93.1,226.2,93.1z"/>
			</g>
		</g>
		<g>
			<g>
				<path class="st1" d="M230.4,126.1h-20c-2.8,0-5-2.2-5-5c0-2.8,2.2-5,5-5h20c3.6,0,6.5-2.9,6.5-6.5v-10c0-3.6-2.9-6.5-6.5-6.5
					h-4.2c-2.8,0-5-2.2-5-5c0-2.8,2.2-5,5-5h4.2c9.1,0,16.5,7.4,16.5,16.5v10C247,118.7,239.6,126.1,230.4,126.1z"/>
			</g>
		</g>
		<g>
			<g>
				<path class="st1" d="M227.7,60c-2.8,0-5-2.2-5-5V40c0-2.8,2.2-5,5-5s5,2.2,5,5V55C232.7,57.8,230.4,60,227.7,60z"/>
			</g>
		</g>
		<g>
			<g>
				<path class="st1" d="M227.7,141.2c-2.8,0-5-2.2-5-5v-15.1c0-2.8,2.2-5,5-5s5,2.2,5,5v15.1C232.7,139,230.4,141.2,227.7,141.2z"
					/>
			</g>
		</g>
	</g>
	<g>
		<g>
			<path class="st0" d="M373.7,318.5c0.6-80.3-64.4-146.6-144.7-147.3c-60.5-0.6-112.6,35.6-135.3,87.5c-2.9,6.5-9.3,10.7-16.4,10.7
				H66.7c-7.3,0-13.2,5.9-13.2,13.2V352c0,7.3,5.9,13.2,13.2,13.2h10.6c7.1,0,13.6,4.2,16.5,10.8c9.1,20.8,23,39.1,40.2,53.4V483
				c0,6.6,5.4,12,12,12h31.7c6.6,0,12-5.4,12-12v-24.6c12.1,3.3,24.9,5,38,5c13.1,0,25.9-1.7,38-5V483c0,6.6,5.4,12,12,12h31.7
				c6.6,0,12-5.4,12-12v-53.6C353.1,402.9,373.4,363.1,373.7,318.5z"/>
		</g>
	</g>
	<g>
		<g>
			<path class="st1" d="M309.3,500h-31.7c-9.4,0-17-7.6-17-17v-18.2c-21.6,4.8-44.4,4.8-66,0V483c0,9.4-7.6,17-17,17h-31.7
				c-9.4,0-17-7.6-17-17v-51.3c-17-14.7-30.7-33.2-39.7-53.8c-2.1-4.7-6.7-7.8-11.9-7.8H66.7c-10,0-18.2-8.2-18.2-18.2v-69.5
				c0-10,8.2-18.2,18.2-18.2h10.6c5.1,0,9.8-3,11.8-7.7c24.4-55.6,79.3-91.1,140-90.5c83.2,0.8,150.3,69.1,149.7,152.4l0,0
				c-0.3,43.6-19.4,84.7-52.4,113.2V483C326.3,492.4,318.7,500,309.3,500z M265.6,453.5c1.1,0,2.2,0.4,3,1c1.2,0.9,2,2.4,2,4V483
				c0,3.8,3.1,7,7,7h31.7c3.8,0,7-3.1,7-7v-53.6c0-1.5,0.7-2.9,1.8-3.8c31.9-26.6,50.3-65.7,50.6-107.2
				c0.6-77.7-62.1-141.5-139.8-142.3c-0.5,0-0.9,0-1.4,0c-56.1,0-106.8,33.1-129.3,84.6c-3.6,8.3-11.9,13.7-21,13.7H66.7
				c-4.5,0-8.2,3.7-8.2,8.2V352c0,4.5,3.7,8.2,8.2,8.2h10.6c9.1,0,17.4,5.4,21,13.8c8.7,19.8,22.1,37.7,38.8,51.6
				c1.1,1,1.8,2.4,1.8,3.8V483c0,3.8,3.1,7,7,7h31.7c3.8,0,7-3.1,7-7v-24.6c0-1.6,0.7-3,2-4c1.2-0.9,2.8-1.3,4.3-0.9
				c23.8,6.4,49.5,6.4,73.4,0C264.7,453.5,265.2,453.5,265.6,453.5z M373.7,318.5L373.7,318.5L373.7,318.5z"/>
		</g>
	</g>
	<g>
		<g>
			<path class="st1" d="M298.7,229.8c-1,0-2-0.3-2.9-0.9c-19.7-13.9-42.9-21.3-67.1-21.6c-14.6-0.1-28.9,2.4-42.6,7.4
				c-2.6,1-5.5-0.4-6.4-2.9c-1-2.6,0.4-5.5,2.9-6.4c14.8-5.5,30.4-8.2,46.2-8.1c26.2,0.2,51.3,8.3,72.7,23.4c2.3,1.6,2.8,4.7,1.2,7
				C301.8,229,300.2,229.8,298.7,229.8z"/>
		</g>
	</g>
	<g>
		<g>
			<path class="st1" d="M151.1,233.7c-1.5,0-3-0.7-3.9-1.9c-1.7-2.2-1.3-5.3,0.9-7c2.7-2.1,5.5-4.1,8.3-6c2.3-1.5,5.4-0.9,6.9,1.4
				c1.5,2.3,0.9,5.4-1.4,6.9c-2.6,1.7-5.2,3.6-7.7,5.5C153.3,233.3,152.2,233.7,151.1,233.7z"/>
		</g>
	</g>
	<g>
		<g>
			<circle class="st3" cx="138.3" cy="284.2" r="20.8"/>
		</g>
	</g>
	<g>
		<g>
			<path class="st1" d="M138.3,310.1c-14.3,0-25.8-11.6-25.8-25.8c0-14.3,11.6-25.8,25.8-25.8c14.3,0,25.8,11.6,25.8,25.8
				C164.1,298.5,152.5,310.1,138.3,310.1z M138.3,268.4c-8.7,0-15.8,7.1-15.8,15.8c0,8.7,7.1,15.8,15.8,15.8
				c8.7,0,15.8-7.1,15.8-15.8C154.1,275.5,147,268.4,138.3,268.4z"/>
		</g>
	</g>
</g>
</svg>
