<svg xmlns="http://www.w3.org/2000/svg" viewBox="0 0 48 48"><defs><style>.cls-1{fill:#424242;}.cls-2{fill:#263238;}</style></defs><title>Scaning</title><g id="Scaning"><path class="cls-1" d="M46.83,41.17l-6.36-6.36h0L37.64,32a1,1,0,0,0-1.42,0l-3.57-3.56a18.06,18.06,0,1,0-4.23,4.23L32,36.22a1,1,0,0,0,0,1.42l2.83,2.82h0l6.36,6.36a4,4,0,0,0,5.66-5.66ZM2,18A16,16,0,1,1,18,34,16,16,0,0,1,2,18ZM31.39,30l3.42,3.41L33.39,34.8,30,31.39A15.64,15.64,0,0,0,31.39,30Zm5.54,4.12,1.41,1.41-2.82,2.83L34.1,36.93Zm8.48,11.31a2,2,0,0,1-2.82,0l-5.66-5.65,2.83-2.83,5.65,5.66a2,2,0,0,1,0,2.82Z"/><ellipse class="cls-2" cx="18" cy="14" rx="3.98" ry="1"/><path class="cls-2" d="M18,19c2.47,0,3.85-.75,4-1.05V16.31A11,11,0,0,1,18,17a11,11,0,0,1-4-.69V18C14.18,18.27,15.56,19,18,19Z"/><path class="cls-2" d="M18,5A13,13,0,1,0,31,18,13,13,0,0,0,18,5Zm6,17c0,2.06-3.11,3-6,3s-6-.94-6-3V14c0-2.06,3.11-3,6-3s6,.94,6,3Z"/><path class="cls-2" d="M18,21a10.83,10.83,0,0,1-4-.69V22c.13.25,1.51,1,4,1s3.87-.75,4-1.05V20.3A10.83,10.83,0,0,1,18,21Z"/></g></svg>