<?xml version="1.0" encoding="utf-8"?>
<!-- Generator: Adobe Illustrator 19.2.0, SVG Export Plug-In . SVG Version: 6.00 Build 0)  -->
<svg version="1.1" id="Layer_1" xmlns="http://www.w3.org/2000/svg" xmlns:xlink="http://www.w3.org/1999/xlink" x="0px" y="0px"
	 viewBox="0 0 500 500" style="enable-background:new 0 0 500 500;" xml:space="preserve">
<style type="text/css">
	.st0{fill:#ECF4F7;}
	.st1{fill:#1C1D21;}
	.st2{fill:#f7f7f7;}
	.st3{fill:#AAB1BA;}
	.st4{fill:none;stroke:#1C1D21;stroke-width:10;stroke-linecap:round;stroke-linejoin:round;stroke-miterlimit:10;}
	.st5{fill:#FDDF7F;}
	.st6{fill:#FFFFFF;}
</style>
<g>
	<g>
		<g>
			<path class="st5" d="M158.7,494.9c0-50.4,40.9-91.3,91.3-91.3s91.3,40.9,91.3,91.3H158.7z"/>
		</g>
	</g>
	<g>
		<g>
			<path class="st5" d="M122.7,18.8c1.7,70.2-1.9,166.1,1.7,236.7c7.2,37.1,29.9,71.7,64.6,89.7c2.4,1.2,6,1.2,8.4,3.6
				c1.2,1.2,3.6,1.2,4.8,1.2c1.2,1.2,2.4,1.2,3.6,2.4c19.1,7.2,40.6,9.6,61,7.2c31.1-4.8,57.4-17.9,78.9-41.8
				c16.7-20.3,29.9-44.2,29.9-70.5c2.4-68.1,1.2-160.5,1.7-228.3"/>
		</g>
	</g>
	<g>
		<g>
			<g>
				<g>
					<g>
						<path class="st1" d="M388.2,499.9h-46.7c-2.8,0-5-2.2-5-5s2.2-5,5-5h46.7c2.8,0,5,2.2,5,5S391,499.9,388.2,499.9z"/>
					</g>
				</g>
				<g>
					<g>
						<path class="st1" d="M446.6,499.9h-19c-2.8,0-5-2.2-5-5s2.2-5,5-5h19c2.8,0,5,2.2,5,5S449.4,499.9,446.6,499.9z"/>
					</g>
				</g>
			</g>
		</g>
		<g>
			<g>
				<g>
					<g>
						<path class="st1" d="M158.5,499.9h-46.7c-2.8,0-5-2.2-5-5s2.2-5,5-5h46.7c2.8,0,5,2.2,5,5S161.2,499.9,158.5,499.9z"/>
					</g>
				</g>
				<g>
					<g>
						<path class="st1" d="M72.3,499.9h-19c-2.8,0-5-2.2-5-5s2.2-5,5-5h19c2.8,0,5,2.2,5,5S75.1,499.9,72.3,499.9z"/>
					</g>
				</g>
			</g>
		</g>
	</g>
	<g>
		<g>
			<path class="st1" d="M250,365c-72.9,0-132.3-59.3-132.3-132.3V33.9c0-0.1,0-0.1,0-0.2V20.3c0-5.6-4.6-10.2-10.2-10.2
				c-5.6,0-10.2,4.6-10.2,10.2c0,2.8-2.2,5-5,5c-2.8,0-5-2.2-5-5c0-11.2,9.1-20.2,20.2-20.2c11.2,0,20.2,9.1,20.2,20.2v13.2
				c0,0.1,0,0.1,0,0.2v199c0,67.4,54.8,122.3,122.3,122.3s122.3-54.8,122.3-122.3v-199c0-0.1,0-0.1,0-0.2V20.3
				c0-11.2,9.1-20.2,20.2-20.2c11.2,0,20.2,9.1,20.2,20.2c0,2.8-2.2,5-5,5c-2.8,0-5-2.2-5-5c0-5.6-4.6-10.2-10.2-10.2
				c-5.6,0-10.2,4.6-10.2,10.2v13.4c0,0.1,0,0.1,0,0.2v198.8C382.3,305.7,322.9,365,250,365z"/>
		</g>
	</g>
	<g>
		<g>
			<path class="st1" d="M341.3,499.9H158.7c-2.8,0-5-2.2-5-5c0-53.1,43.2-96.3,96.3-96.3s96.3,43.2,96.3,96.3
				C346.3,497.7,344,499.9,341.3,499.9z M163.9,489.9h172.3c-2.6-45.3-40.2-81.3-86.1-81.3S166.5,444.7,163.9,489.9z"/>
		</g>
	</g>
	<g>
		<g>
			<path class="st1" d="M250,408.7c-2.8,0-5-2.2-5-5V360c0-2.8,2.2-5,5-5s5,2.2,5,5v43.7C255,406.5,252.8,408.7,250,408.7z"/>
		</g>
	</g>
	<g>
		<g>
			<g>
				<g>
					<path class="st5" d="M91.4,244.7C43.8,244.7,5,205.9,5,158.3s38.8-86.4,86.4-86.4h31.3v35.3H91.4c-28.2,0-51.1,22.9-51.1,51.1
						s22.9,51.1,51.1,51.1h31.3v35.3H91.4z"/>
				</g>
			</g>
		</g>
		<g>
			<g>
				<g>
					<path class="st1" d="M122.7,249.7H91.4C41,249.7,0,208.7,0,158.3c0-50.4,41-91.4,91.4-91.4h31.3c2.8,0,5,2.2,5,5v35.3
						c0,2.8-2.2,5-5,5H91.4c-25.4,0-46.1,20.7-46.1,46.1c0,25.4,20.7,46.1,46.1,46.1h31.3c2.8,0,5,2.2,5,5v35.3
						C127.7,247.4,125.5,249.7,122.7,249.7z M91.4,76.8c-44.9,0-81.4,36.5-81.4,81.4c0,44.9,36.5,81.4,81.4,81.4h26.3v-25.3H91.4
						c-30.9,0-56.1-25.2-56.1-56.1c0-30.9,25.2-56.1,56.1-56.1h26.3V76.8H91.4z"/>
				</g>
			</g>
		</g>
	</g>
	<g>
		<g>
			<g>
				<g>
					<path class="st5" d="M408.6,244.7c47.6,0,86.4-38.8,86.4-86.4s-38.8-86.4-86.4-86.4h-31.3v35.3h31.3
						c28.2,0,51.1,22.9,51.1,51.1s-22.9,51.1-51.1,51.1h-31.3v35.3H408.6z"/>
				</g>
			</g>
		</g>
		<g>
			<g>
				<g>
					<path class="st1" d="M408.6,249.7h-31.3c-2.8,0-5-2.2-5-5v-35.3c0-2.8,2.2-5,5-5h31.3c25.4,0,46.1-20.7,46.1-46.1
						c0-25.4-20.7-46.1-46.1-46.1h-31.3c-2.8,0-5-2.2-5-5V71.8c0-2.8,2.2-5,5-5h31.3c50.4,0,91.4,41,91.4,91.4
						C500,208.7,459,249.7,408.6,249.7z M382.3,239.7h26.3c44.9,0,81.4-36.5,81.4-81.4c0-44.9-36.5-81.4-81.4-81.4h-26.3v25.3h26.3
						c30.9,0,56.1,25.2,56.1,56.1c0,30.9-25.2,56.1-56.1,56.1h-26.3V239.7z"/>
				</g>
			</g>
		</g>
	</g>
	<g>
		<g>
			<path class="st1" d="M165.1,23.8H154c-2.8,0-5-2.2-5-5c0-2.8,2.2-5,5-5h11.2c2.8,0,5,2.2,5,5C170.1,21.5,167.9,23.8,165.1,23.8z"
				/>
		</g>
	</g>
	<g>
		<g>
			<path class="st1" d="M232.1,23.8h-40.6c-2.8,0-5-2.2-5-5c0-2.8,2.2-5,5-5h40.6c2.8,0,5,2.2,5,5C237.1,21.5,234.8,23.8,232.1,23.8
				z"/>
		</g>
	</g>
	<g>
		<g>
			<path class="st1" d="M377.3,23.8H264.9c-2.8,0-5-2.2-5-5c0-2.8,2.2-5,5-5h112.3c2.8,0,5,2.2,5,5C382.3,21.5,380,23.8,377.3,23.8z
				"/>
		</g>
	</g>
	<g>
		<g>
			<path class="st6" d="M310.2,163.4l-33-4.8c-2.5-0.4-4.6-1.9-5.7-4.1l-14.7-29.9c-2.8-5.6-10.8-5.6-13.6,0l-14.7,29.9
				c-1.1,2.2-3.2,3.8-5.7,4.1l-33,4.8c-6.2,0.9-8.7,8.5-4.2,12.9l23.9,23.3c1.8,1.7,2.6,4.3,2.2,6.7l-5.6,32.8
				c-1.1,6.2,5.4,10.9,11,8l29.5-15.5c2.2-1.2,4.8-1.2,7.1,0l29.5,15.5c5.6,2.9,12.1-1.8,11-8l-5.6-32.8c-0.4-2.5,0.4-5,2.2-6.7
				l23.9-23.3C318.9,171.9,316.5,164.3,310.2,163.4z"/>
		</g>
	</g>
	<g>
		<g>
			<path class="st1" d="M213.4,253c-2.6,0-5.2-0.8-7.4-2.4c-3.9-2.8-5.8-7.6-5-12.3l5.6-32.8c0.1-0.8-0.1-1.7-0.7-2.3l-23.9-23.3
				c-3.5-3.4-4.7-8.3-3.2-12.9c1.5-4.6,5.4-7.9,10.2-8.6l33-4.8c0.8-0.1,1.6-0.7,1.9-1.4l14.8-29.9c2.1-4.3,6.5-7,11.3-7
				c4.8,0,9.1,2.7,11.3,7l14.7,29.9c0.4,0.8,1.1,1.3,1.9,1.4l33,4.8c4.8,0.7,8.7,4,10.2,8.6c1.5,4.6,0.3,9.5-3.2,12.9l-23.9,23.3
				c-0.6,0.6-0.9,1.4-0.7,2.3l5.6,32.8c0.8,4.8-1.1,9.5-5,12.3c-3.9,2.8-9,3.2-13.3,1l-29.5-15.5c-0.8-0.4-1.6-0.4-2.4,0l-29.5,15.5
				C217.4,252.6,215.4,253,213.4,253z M250,125.3c-0.5,0-1.7,0.1-2.3,1.4l-14.8,29.9c-1.8,3.7-5.4,6.3-9.5,6.9l-33,4.8
				c-1.4,0.2-1.9,1.3-2.1,1.8c-0.1,0.5-0.4,1.6,0.7,2.6l23.9,23.3c3,2.9,4.3,7.1,3.6,11.1l-5.6,32.8c-0.2,1.4,0.6,2.2,1,2.5
				c0.4,0.3,1.4,0.9,2.7,0.2l29.5-15.5c3.7-1.9,8-1.9,11.7,0l29.5,15.5c1.3,0.7,2.3,0.1,2.7-0.2c0.4-0.3,1.3-1.1,1-2.5l-5.6-32.8
				c-0.7-4.1,0.7-8.2,3.6-11.1l23.9-23.3c1-1,0.8-2.2,0.7-2.6c-0.1-0.5-0.7-1.5-2.1-1.8l0,0l-33-4.8c-4.1-0.6-7.6-3.2-9.5-6.9
				l-14.7-29.9C251.7,125.5,250.5,125.3,250,125.3z"/>
		</g>
	</g>
</g>
</svg>
