<?xml version="1.0" encoding="utf-8"?>
<!-- Generator: Adobe Illustrator 19.2.0, SVG Export Plug-In . SVG Version: 6.00 Build 0)  -->
<svg version="1.1" id="Layer_1" xmlns="http://www.w3.org/2000/svg" xmlns:xlink="http://www.w3.org/1999/xlink" x="0px" y="0px"
	 viewBox="0 0 500 500" style="enable-background:new 0 0 500 500;" xml:space="preserve">
<style type="text/css">
	.st0{fill:#ECF4F7;}
	.st1{fill:#1C1D21;}
	.st2{fill:#f7f7f7;}
	.st3{fill:#AAB1BA;}
	.st4{fill:none;stroke:#1C1D21;stroke-width:10;stroke-linecap:round;stroke-linejoin:round;stroke-miterlimit:10;}
	.st5{fill:#FDDF7F;}
	.st6{fill:#FFFFFF;}
</style>
<g>
	<g>
		<g>
			<path class="st1" d="M183.2,222.3H80.7c-2.8,0-5-2.2-5-5s2.2-5,5-5h101.3l158.6-86.5c0.2-0.1,0.4-0.2,0.6-0.3l77.7-29.6
				c2.6-1,5.5,0.3,6.5,2.9c1,2.6-0.3,5.5-2.9,6.5L345,134.7l-159.4,87C184.9,222.1,184,222.3,183.2,222.3z"/>
		</g>
	</g>
	<g>
		<g>
			<g>
				<circle class="st3" cx="49.6" cy="217.3" r="44.6"/>
			</g>
		</g>
		<g>
			<g>
				<path class="st1" d="M49.6,266.9C22.3,266.9,0,244.6,0,217.3c0-27.4,22.3-49.6,49.6-49.6s49.6,22.3,49.6,49.6
					C99.2,244.6,77,266.9,49.6,266.9z M49.6,177.7c-21.8,0-39.6,17.8-39.6,39.6c0,21.8,17.8,39.6,39.6,39.6
					c21.8,0,39.6-17.8,39.6-39.6C89.2,195.4,71.4,177.7,49.6,177.7z"/>
			</g>
		</g>
	</g>
	<g>
		<g>
			<g>
				<circle class="st0" cx="183.2" cy="217.3" r="44.6"/>
			</g>
		</g>
		<g>
			<g>
				<path class="st1" d="M183.2,266.9c-27.4,0-49.6-22.3-49.6-49.6c0-27.4,22.3-49.6,49.6-49.6s49.6,22.3,49.6,49.6
					C232.8,244.6,210.6,266.9,183.2,266.9z M183.2,177.7c-21.8,0-39.6,17.8-39.6,39.6c0,21.8,17.8,39.6,39.6,39.6
					c21.8,0,39.6-17.8,39.6-39.6C222.8,195.4,205,177.7,183.2,177.7z"/>
			</g>
		</g>
	</g>
	<g>
		<g>
			<g>
				<circle class="st5" cx="316.8" cy="147" r="44.6"/>
			</g>
		</g>
		<g>
			<g>
				<path class="st1" d="M316.8,196.6c-27.4,0-49.6-22.3-49.6-49.6c0-27.4,22.3-49.6,49.6-49.6s49.6,22.3,49.6,49.6
					C366.4,174.4,344.2,196.6,316.8,196.6z M316.8,107.4c-21.8,0-39.6,17.8-39.6,39.6s17.8,39.6,39.6,39.6
					c21.8,0,39.6-17.8,39.6-39.6S338.6,107.4,316.8,107.4z"/>
			</g>
		</g>
	</g>
	<g>
		<g>
			<g>
				<circle class="st2" cx="450.4" cy="91.9" r="44.6"/>
			</g>
		</g>
		<g>
			<g>
				<path class="st1" d="M450.4,141.5c-27.4,0-49.6-22.3-49.6-49.6c0-27.4,22.3-49.6,49.6-49.6S500,64.6,500,91.9
					C500,119.3,477.7,141.5,450.4,141.5z M450.4,52.3c-21.8,0-39.6,17.8-39.6,39.6c0,21.8,17.8,39.6,39.6,39.6
					c21.8,0,39.6-17.8,39.6-39.6C490,70.1,472.2,52.3,450.4,52.3z"/>
			</g>
		</g>
	</g>
	<g>
		<g>
			<path class="st1" d="M49.6,457.7c-2.8,0-5-2.2-5-5V337.5c0-2.8,2.2-5,5-5s5,2.2,5,5v115.1C54.6,455.4,52.4,457.7,49.6,457.7z"/>
		</g>
	</g>
	<g>
		<g>
			<path class="st1" d="M49.6,311.8c-2.8,0-5-2.2-5-5v-13.1c0-2.8,2.2-5,5-5s5,2.2,5,5v13.1C54.6,309.6,52.4,311.8,49.6,311.8z"/>
		</g>
	</g>
	<g>
		<g>
			<path class="st1" d="M183.2,311.8c-2.8,0-5-2.2-5-5v-13.1c0-2.8,2.2-5,5-5c2.8,0,5,2.2,5,5v13.1
				C188.2,309.6,186,311.8,183.2,311.8z"/>
		</g>
	</g>
	<g>
		<g>
			<path class="st1" d="M183.2,457.7c-2.8,0-5-2.2-5-5V337.5c0-2.8,2.2-5,5-5c2.8,0,5,2.2,5,5v115.1
				C188.2,455.4,186,457.7,183.2,457.7z"/>
		</g>
	</g>
	<g>
		<g>
			<path class="st1" d="M316.8,241.5c-2.8,0-5-2.2-5-5v-13.1c0-2.8,2.2-5,5-5c2.8,0,5,2.2,5,5v13.1
				C321.8,239.3,319.6,241.5,316.8,241.5z"/>
		</g>
	</g>
	<g>
		<g>
			<path class="st1" d="M316.8,457.7c-2.8,0-5-2.2-5-5v-185c0-2.8,2.2-5,5-5c2.8,0,5,2.2,5,5v185
				C321.8,455.4,319.6,457.7,316.8,457.7z"/>
		</g>
	</g>
	<g>
		<g>
			<path class="st1" d="M450.4,204.2c-2.8,0-5-2.2-5-5v-13.1c0-2.8,2.2-5,5-5s5,2.2,5,5v13.1C455.4,202,453.2,204.2,450.4,204.2z"/>
		</g>
	</g>
	<g>
		<g>
			<path class="st1" d="M450.4,457.7c-2.8,0-5-2.2-5-5v-222c0-2.8,2.2-5,5-5s5,2.2,5,5v222C455.4,455.4,453.2,457.7,450.4,457.7z"/>
		</g>
	</g>
</g>
</svg>
