<?xml version="1.0" encoding="utf-8"?>
<!-- Generator: Adobe Illustrator 19.2.0, SVG Export Plug-In . SVG Version: 6.00 Build 0)  -->
<svg version="1.1" id="Layer_1" xmlns="http://www.w3.org/2000/svg" xmlns:xlink="http://www.w3.org/1999/xlink" x="0px" y="0px"
	 viewBox="0 0 500 500" style="enable-background:new 0 0 500 500;" xml:space="preserve">
<style type="text/css">
	.st0{fill:#ECF4F7;}
	.st1{fill:#1C1D21;}
	.st2{fill:#f7f7f7;}
	.st3{fill:#AAB1BA;}
	.st4{fill:none;stroke:#1C1D21;stroke-width:10;stroke-linecap:round;stroke-linejoin:round;stroke-miterlimit:10;}
	.st5{fill:#FDDF7F;}
	.st6{fill:#FFFFFF;}
</style>
<g>
	<g>
		<g>
			<g>
				<path class="st1" d="M124.9,295c-1.3,0-2.6-0.5-3.5-1.5c-2-2-2-5.1,0-7.1l93.4-93.4c2-2,5.1-2,7.1,0c2,2,2,5.1,0,7.1l-93.4,93.4
					C127.4,294.5,126.2,295,124.9,295z"/>
			</g>
		</g>
		<g>
			<g>
				<path class="st1" d="M5,500c-1.3,0-2.6-0.5-3.5-1.5c-1.3-1.3-1.8-3.2-1.3-4.9l26.6-92.7c5.2-18.3,15.1-35,28.5-48.4L92.8,315
					c2-2,5.1-2,7.1,0c2,2,2,5.1,0,7.1l-37.5,37.5c-12.2,12.2-21.2,27.5-26,44.1l-24.1,84l84-24.1c16.6-4.8,31.9-13.8,44.1-26
					l333.4-333.4c10.4-10.4,16.2-24.3,16.2-39c0-14.7-5.7-28.6-16.2-39c-10.4-10.4-24.3-16.2-39-16.2c-14.7,0-28.6,5.7-39,16.2
					L244.5,177.5c-2,2-5.1,2-7.1,0c-2-2-2-5.1,0-7.1L388.8,19.1C401.1,6.8,417.4,0,434.8,0c17.4,0,33.8,6.8,46.1,19.1
					C493.2,31.4,500,47.8,500,65.2s-6.8,33.8-19.1,46.1L147.5,444.6c-13.4,13.4-30.2,23.3-48.4,28.5L6.4,499.8
					C5.9,499.9,5.5,500,5,500z"/>
			</g>
		</g>
		<g>
			<g>
				<path class="st1" d="M124.9,461.3c-1.9,0-3.7-1.1-4.6-3l-8.8-19.8c-9.9-22.3-27.7-40.1-50-50l-19.8-8.8
					c-2.5-1.1-3.7-4.1-2.5-6.6c1.1-2.5,4.1-3.7,6.6-2.5l19.8,8.8c24.6,10.9,44.2,30.5,55.1,55.1l8.8,19.8c1.1,2.5,0,5.5-2.5,6.6
					C126.3,461.1,125.6,461.3,124.9,461.3z"/>
			</g>
		</g>
		<g>
			<g>
				<path class="st3" d="M24.8,426L5,495l69-19.8L69,464c-6.5-14.7-18.3-26.4-33-33L24.8,426z"/>
			</g>
		</g>
		<g>
			<g>
				<path class="st1" d="M5,500c-1.3,0-2.6-0.5-3.5-1.5c-1.3-1.3-1.8-3.2-1.3-4.9l19.8-69c0.4-1.4,1.4-2.5,2.7-3.2
					c1.3-0.6,2.8-0.6,4.1,0l11.2,5c15.9,7,28.5,19.6,35.5,35.5l5,11.2c0.6,1.3,0.6,2.8,0,4.1c-0.6,1.3-1.8,2.3-3.2,2.7l-69,19.8
					C5.9,499.9,5.5,500,5,500z M28,432.9l-15.7,54.8L67.1,472l-2.7-6c-6-13.6-16.8-24.4-30.4-30.4L28,432.9z"/>
			</g>
		</g>
		<g>
			<g>
				<path class="st5" d="M392.3,22.6l-27.6,27.6l0.3,3.6l19.8,8.8c23.4,10.4,42.2,29.1,52.6,52.6l8.8,19.8c0,0,0.8,0.6,2.3,1.6
					l28.8-28.8c23.5-23.5,23.5-61.6,0-85.1l0,0C453.9-0.9,415.8-0.9,392.3,22.6z"/>
			</g>
		</g>
		<g>
			<g>
				<path class="st1" d="M448.5,141.5c-1,0-2-0.3-2.8-0.9c-1.5-1-2.3-1.6-2.3-1.6c-0.7-0.5-1.3-1.2-1.7-2.1l-8.8-19.8
					c-9.9-22.3-27.7-40.1-50-50L363,58.3c-1.7-0.7-2.8-2.3-3-4.1l-0.3-3.6c-0.1-1.5,0.4-3,1.4-4l27.6-27.6
					C401.1,6.8,417.4,0,434.8,0c17.4,0,33.8,6.8,46.1,19.1S500,47.8,500,65.2c0,17.4-6.8,33.8-19.1,46.1l-28.8,28.8
					C451.1,141,449.8,141.5,448.5,141.5z M371,50.9l15.9,7c24.6,10.9,44.2,30.5,55.1,55.1l7,15.9l24.8-24.8
					c10.4-10.4,16.2-24.3,16.2-39c0-14.7-5.7-28.6-16.2-39c-10.4-10.4-24.3-16.2-39-16.2c-14.7,0-28.6,5.7-39,16.2L371,50.9z
					 M392.3,22.6L392.3,22.6L392.3,22.6z"/>
			</g>
		</g>
		<g>
			<g>
				<path class="st1" d="M94.7,410.3c-1.3,0-2.6-0.5-3.5-1.5c-2-2-2-5.1,0-7.1L412.5,80.4c2-2,5.1-2,7.1,0c2,2,2,5.1,0,7.1
					L98.2,408.8C97.3,409.8,96,410.3,94.7,410.3z"/>
			</g>
		</g>
	</g>
	<g>
		<g>
			<path class="st1" d="M261.1,500H5c-2.8,0-5-2.2-5-5s2.2-5,5-5h256.1c2.8,0,5,2.2,5,5S263.8,500,261.1,500z"/>
		</g>
	</g>
	<g>
		<g>
			<path class="st1" d="M335.3,500h-43.4c-2.8,0-5-2.2-5-5s2.2-5,5-5h43.4c2.8,0,5,2.2,5,5S338.1,500,335.3,500z"/>
		</g>
	</g>
	<g>
		<g>
			<path class="st1" d="M374.3,500h-14.2c-2.8,0-5-2.2-5-5s2.2-5,5-5h14.2c2.8,0,5,2.2,5,5S377,500,374.3,500z"/>
		</g>
	</g>
</g>
</svg>
