<?xml version="1.0" encoding="utf-8"?>
<!-- Generator: Adobe Illustrator 19.2.0, SVG Export Plug-In . SVG Version: 6.00 Build 0)  -->
<svg version="1.1" id="Layer_1" xmlns="http://www.w3.org/2000/svg" xmlns:xlink="http://www.w3.org/1999/xlink" x="0px" y="0px"
	 viewBox="0 0 500 500" style="enable-background:new 0 0 500 500;" xml:space="preserve">
<style type="text/css">
	.st0{fill:#ECF4F7;}
	.st1{fill:#1C1D21;}
	.st2{fill:#f7f7f7;}
	.st3{fill:#AAB1BA;}
	.st4{fill:none;stroke:#1C1D21;stroke-width:10;stroke-linecap:round;stroke-linejoin:round;stroke-miterlimit:10;}
	.st5{fill:#FDDF7F;}
	.st6{fill:#FFFFFF;}
</style>
<g>
	<g>
		<g>
			<path class="st2" d="M40,333.5V60c0-11,9-20,20-20h380c11,0,20,9,20,20v273.5c0,11-9,20-20,20H60C49,353.5,40,344.5,40,333.5z"/>
		</g>
	</g>
	<g>
		<g>
			<g>
				<path class="st1" d="M370.8,500H129.2c-2.8,0-5-2.2-5-5v-10c0-22.1,17.9-40,40-40h24.9c9.4,0,17.1-7.7,17.1-17.1v-13.5
					c0-11.5-9.4-20.9-20.9-20.9H35c-19.3,0-35-15.7-35-35V35C0,15.7,15.7,0,35,0h430c19.3,0,35,15.7,35,35v323.5
					c0,19.3-15.7,35-35,35H314.6c-11.5,0-20.9,9.4-20.9,20.9v13.5c0,9.4,7.7,17.1,17.1,17.1h24.9c22.1,0,40,17.9,40,40v10
					C375.8,497.8,373.5,500,370.8,500z M134.2,490h231.5v-5c0-16.5-13.5-30-30-30h-24.9c-15,0-27.1-12.2-27.1-27.1v-13.5
					c0-17,13.9-30.9,30.9-30.9H465c13.8,0,25-11.2,25-25V35c0-13.8-11.2-25-25-25H35c-13.8,0-25,11.2-25,25v323.5
					c0,13.8,11.2,25,25,25h150.4c17,0,30.9,13.9,30.9,30.9v13.5c0,15-12.2,27.1-27.1,27.1h-24.9c-16.5,0-30,13.5-30,30V490z"/>
			</g>
		</g>
		<g>
			<g>
				<path class="st1" d="M224.6,393.5H179c-2.8,0-5-2.2-5-5s2.2-5,5-5h45.6c2.8,0,5,2.2,5,5S227.3,393.5,224.6,393.5z"/>
			</g>
		</g>
		<g>
			<g>
				<path class="st1" d="M259.5,393.5H250c-2.8,0-5-2.2-5-5s2.2-5,5-5h9.5c2.8,0,5,2.2,5,5S262.3,393.5,259.5,393.5z"/>
			</g>
		</g>
		<g>
			<g>
				<path class="st1" d="M317.7,455h-55.3c-2.8,0-5-2.2-5-5s2.2-5,5-5h55.3c2.8,0,5,2.2,5,5S320.4,455,317.7,455z"/>
			</g>
		</g>
	</g>
	<g>
		<g>
			<g>
				<path class="st1" d="M40,65c-2.8,0-5-2.2-5-5c0-13.8,11.2-25,25-25h17.3c2.8,0,5,2.2,5,5s-2.2,5-5,5H60c-8.3,0-15,6.7-15,15
					C45,62.8,42.8,65,40,65z"/>
			</g>
		</g>
		<g>
			<g>
				<path class="st1" d="M40,165.7c-2.8,0-5-2.2-5-5v-74c0-2.8,2.2-5,5-5s5,2.2,5,5v74C45,163.4,42.8,165.7,40,165.7z"/>
			</g>
		</g>
		<g>
			<g>
				<path class="st1" d="M107,45h-7.5c-2.8,0-5-2.2-5-5s2.2-5,5-5h7.5c2.8,0,5,2.2,5,5S109.8,45,107,45z"/>
			</g>
		</g>
	</g>
	<g>
		<g>
			<g>
				<path class="st1" d="M440,358.5h-17.3c-2.8,0-5-2.2-5-5s2.2-5,5-5H440c8.3,0,15-6.7,15-15c0-2.8,2.2-5,5-5s5,2.2,5,5
					C465,347.3,453.8,358.5,440,358.5z"/>
			</g>
		</g>
		<g>
			<g>
				<path class="st1" d="M460,311.8c-2.8,0-5-2.2-5-5v-74c0-2.8,2.2-5,5-5s5,2.2,5,5v74C465,309.6,462.8,311.8,460,311.8z"/>
			</g>
		</g>
		<g>
			<g>
				<path class="st1" d="M400.5,358.5H393c-2.8,0-5-2.2-5-5s2.2-5,5-5h7.5c2.8,0,5,2.2,5,5S403.3,358.5,400.5,358.5z"/>
			</g>
		</g>
	</g>
	<g>
		<g>
			<path class="st6" d="M128.3,271.3H79.7c-5.5,0-10,4.5-10,10v33.3c0,5.5,4.5,10,10,10h48.7c5.5,0,10-4.5,10-10v-33.3
				C138.3,275.8,133.9,271.3,128.3,271.3z"/>
		</g>
	</g>
	<g>
		<g>
			<path class="st6" d="M225.7,271.3H177c-5.5,0-10,4.5-10,10v33.3c0,5.5,4.5,10,10,10h48.7c5.5,0,10-4.5,10-10v-33.3
				C235.7,275.8,231.2,271.3,225.7,271.3z"/>
		</g>
	</g>
	<g>
		<g>
			<path class="st6" d="M323,271.3h-48.7c-5.5,0-10,4.5-10,10v33.3c0,5.5,4.5,10,10,10H323c5.5,0,10-4.5,10-10v-33.3
				C333,275.8,328.5,271.3,323,271.3z"/>
		</g>
	</g>
	<g>
		<g>
			<path class="st6" d="M420.3,271.3h-48.7c-5.5,0-10,4.5-10,10v33.3c0,5.5,4.5,10,10,10h48.7c5.5,0,10-4.5,10-10v-33.3
				C430.3,275.8,425.9,271.3,420.3,271.3z"/>
		</g>
	</g>
	<g>
		<g>
			<path class="st1" d="M201.3,202.5h-74.7c-2.8,0-5-2.2-5-5s2.2-5,5-5h73.4l115.2-62.9c0.2-0.1,0.4-0.2,0.6-0.3l56.6-21.6
				c2.6-1,5.5,0.3,6.5,2.9c1,2.6-0.3,5.5-2.9,6.5l-56.3,21.5l-116,63.3C203,202.3,202.2,202.5,201.3,202.5z"/>
		</g>
	</g>
	<g>
		<g>
			<g>
				<circle class="st3" cx="104" cy="197.5" r="22.6"/>
			</g>
		</g>
		<g>
			<g>
				<path class="st1" d="M104,225.1c-15.2,0-27.6-12.4-27.6-27.6s12.4-27.6,27.6-27.6s27.6,12.4,27.6,27.6S119.2,225.1,104,225.1z
					 M104,179.9c-9.7,0-17.6,7.9-17.6,17.6s7.9,17.6,17.6,17.6s17.6-7.9,17.6-17.6S113.7,179.9,104,179.9z"/>
			</g>
		</g>
	</g>
	<g>
		<g>
			<g>
				<circle class="st0" cx="201.3" cy="197.5" r="22.6"/>
			</g>
		</g>
		<g>
			<g>
				<path class="st1" d="M201.3,225.1c-15.2,0-27.6-12.4-27.6-27.6s12.4-27.6,27.6-27.6c15.2,0,27.6,12.4,27.6,27.6
					S216.6,225.1,201.3,225.1z M201.3,179.9c-9.7,0-17.6,7.9-17.6,17.6s7.9,17.6,17.6,17.6c9.7,0,17.6-7.9,17.6-17.6
					S211.1,179.9,201.3,179.9z"/>
			</g>
		</g>
	</g>
	<g>
		<g>
			<g>
				<circle class="st5" cx="298.7" cy="146.3" r="22.6"/>
			</g>
		</g>
		<g>
			<g>
				<path class="st1" d="M298.7,173.9c-15.2,0-27.6-12.4-27.6-27.6s12.4-27.6,27.6-27.6s27.6,12.4,27.6,27.6
					S313.9,173.9,298.7,173.9z M298.7,128.7c-9.7,0-17.6,7.9-17.6,17.6s7.9,17.6,17.6,17.6c9.7,0,17.6-7.9,17.6-17.6
					S308.4,128.7,298.7,128.7z"/>
			</g>
		</g>
	</g>
	<g>
		<g>
			<g>
				<circle class="st5" cx="396" cy="106.2" r="22.6"/>
			</g>
		</g>
		<g>
			<g>
				<path class="st1" d="M396,133.8c-15.2,0-27.6-12.4-27.6-27.6s12.4-27.6,27.6-27.6s27.6,12.4,27.6,27.6S411.2,133.8,396,133.8z
					 M396,88.5c-9.7,0-17.6,7.9-17.6,17.6s7.9,17.6,17.6,17.6s17.6-7.9,17.6-17.6S405.7,88.5,396,88.5z"/>
			</g>
		</g>
	</g>
</g>
</svg>
