<?xml version="1.0" encoding="utf-8"?>
<!-- Generator: Adobe Illustrator 19.2.0, SVG Export Plug-In . SVG Version: 6.00 Build 0)  -->
<svg version="1.1" id="Layer_1" xmlns="http://www.w3.org/2000/svg" xmlns:xlink="http://www.w3.org/1999/xlink" x="0px" y="0px"
	 viewBox="0 0 500 500" style="enable-background:new 0 0 500 500;" xml:space="preserve">
<style type="text/css">
	.st0{fill:#ECF4F7;}
	.st1{fill:#1C1D21;}
	.st2{fill:#f7f7f7;}
	.st3{fill:#AAB1BA;}
	.st4{fill:none;stroke:#1C1D21;stroke-width:10;stroke-linecap:round;stroke-linejoin:round;stroke-miterlimit:10;}
	.st5{fill:#FDDF7F;}
	.st6{fill:#FFFFFF;}
</style>
<g>
	<g>
		<g>
			<path class="st0" d="M403.5,495.2h-307c-16.6,0-30-13.4-30-30V62.6c0-16.6,13.4-30,30-30h307c16.6,0,30,13.4,30,30v402.6
				C433.5,481.8,420.1,495.2,403.5,495.2z"/>
		</g>
	</g>
	<g>
		<g>
			<path class="st1" d="M66.5,81.6c-2.6,0-4.7-2.1-4.7-4.7V60.8c0-18.2,14.8-33.1,33.1-33.1h40.9c2.6,0,4.7,2.1,4.7,4.7
				c0,2.6-2.1,4.7-4.7,4.7H94.8c-13,0-23.6,10.6-23.6,23.6v16.1C71.2,79.5,69.1,81.6,66.5,81.6z"/>
		</g>
	</g>
	<g>
		<g>
			<path class="st1" d="M66.5,138.2c-2.6,0-4.7-2.1-4.7-4.7v-13.1c0-2.6,2.1-4.7,4.7-4.7c2.6,0,4.7,2.1,4.7,4.7v13.1
				C71.2,136.1,69.1,138.2,66.5,138.2z"/>
		</g>
	</g>
	<g>
		<g>
			<path class="st1" d="M66.5,268.6c-2.6,0-4.7-2.1-4.7-4.7v-99.2c0-2.6,2.1-4.7,4.7-4.7c2.6,0,4.7,2.1,4.7,4.7v99.2
				C71.2,266.5,69.1,268.6,66.5,268.6z"/>
		</g>
	</g>
	<g>
		<g>
			<path class="st1" d="M94.8,500c-8.8,0-17.1-3.4-23.4-9.7c-6.2-6.2-9.7-14.5-9.7-23.4V307.7c0-2.6,2.1-4.7,4.7-4.7
				c2.6,0,4.7,2.1,4.7,4.7v159.2c0,6.3,2.5,12.2,6.9,16.7c4.5,4.5,10.4,6.9,16.7,6.9c0,0,0,0,0,0l310.3-0.1
				c13,0,23.6-10.6,23.6-23.6v-406c0-13-10.6-23.6-23.6-23.6H166.6c-2.6,0-4.7-2.1-4.7-4.7c0-2.6,2.1-4.7,4.7-4.7h238.6
				c18.2,0,33.1,14.8,33.1,33.1v406c0,18.2-14.8,33.1-33,33.1L94.8,500C94.9,500,94.8,500,94.8,500z"/>
		</g>
	</g>
	<g>
		<g>
			<g>
				<path class="st5" d="M190.2,375.1c-11,0-19.9,8.9-19.9,19.9v31.3h39.9V395C210.1,384,201.2,375.1,190.2,375.1z"/>
			</g>
		</g>
		<g>
			<g>
				<path class="st5" d="M230.1,319.2c-11,0-19.9,8.9-19.9,19.9v87.2H250v-87.2C250,328.1,241.1,319.2,230.1,319.2z"/>
			</g>
		</g>
		<g>
			<g>
				<path class="st5" d="M269.9,352.8c-11,0-19.9,8.9-19.9,19.9v53.6h39.9v-53.6C289.9,361.8,280.9,352.8,269.9,352.8z"/>
			</g>
		</g>
		<g>
			<g>
				<path class="st5" d="M309.8,301.7c-11,0-19.9,8.9-19.9,19.9v104.7h39.9V321.6C329.7,310.6,320.8,301.7,309.8,301.7z"/>
			</g>
		</g>
		<g>
			<g>
				<path class="st1" d="M210.1,431.1h-39.9c-2.6,0-4.7-2.1-4.7-4.7V395c0-13.6,11.1-24.7,24.7-24.7c13.6,0,24.7,11.1,24.7,24.7
					v31.3C214.9,429,212.7,431.1,210.1,431.1z M175,421.6h30.4V395c0-8.4-6.8-15.2-15.2-15.2c-8.4,0-15.2,6.8-15.2,15.2V421.6z"/>
			</g>
		</g>
		<g>
			<g>
				<path class="st1" d="M250,431.1h-39.9c-2.6,0-4.7-2.1-4.7-4.7v-87.2c0-13.6,11.1-24.7,24.7-24.7c13.6,0,24.7,11.1,24.7,24.7
					v87.2C254.7,429,252.6,431.1,250,431.1z M214.9,421.6h30.4v-82.5c0-8.4-6.8-15.2-15.2-15.2c-8.4,0-15.2,6.8-15.2,15.2V421.6z"/>
			</g>
		</g>
		<g>
			<g>
				<path class="st1" d="M289.9,431.1H250c-2.6,0-4.7-2.1-4.7-4.7v-56.8c0-13.6,11.1-24.7,24.7-24.7c13.6,0,24.7,11.1,24.7,24.7
					v56.8C294.6,429,292.5,431.1,289.9,431.1z M254.7,421.6h30.4v-52c0-8.4-6.8-15.2-15.2-15.2c-8.4,0-15.2,6.8-15.2,15.2V421.6z"/>
			</g>
		</g>
		<g>
			<g>
				<path class="st1" d="M329.7,431.1h-39.9c-2.6,0-4.7-2.1-4.7-4.7V321.6c0-13.6,11.1-24.7,24.7-24.7c13.6,0,24.7,11.1,24.7,24.7
					v104.7C334.5,429,332.3,431.1,329.7,431.1z M294.6,421.6H325v-100c0-8.4-6.8-15.2-15.2-15.2c-8.4,0-15.2,6.8-15.2,15.2V421.6z"
					/>
			</g>
		</g>
	</g>
	<g>
		<g>
			<path class="st2" d="M281.9,60.4h-63.7c-15.4,0-27.8-12.5-27.8-27.8l0,0c0-15.4,12.5-27.8,27.8-27.8h63.7
				c15.4,0,27.8,12.5,27.8,27.8l0,0C309.7,48,297.2,60.4,281.9,60.4z"/>
		</g>
	</g>
	<g>
		<g>
			<path class="st1" d="M281.9,65.1h-63.7c-18,0-32.6-14.6-32.6-32.6c0-18,14.6-32.6,32.6-32.6h63.7c18,0,32.6,14.6,32.6,32.6
				C314.4,50.5,299.8,65.1,281.9,65.1z M218.1,9.4c-12.8,0-23.1,10.4-23.1,23.1c0,12.8,10.4,23.1,23.1,23.1h63.7
				c12.8,0,23.1-10.4,23.1-23.1c0-12.8-10.4-23.1-23.1-23.1H218.1z"/>
		</g>
	</g>
	<g>
		<g>
			<g>
				<circle class="st5" cx="250" cy="185.5" r="74.6"/>
			</g>
		</g>
		<g>
			<g>
				<path class="st1" d="M250,264.8c-43.8,0-79.4-35.6-79.4-79.4s35.6-79.4,79.4-79.4s79.4,35.6,79.4,79.4S293.8,264.8,250,264.8z
					 M250,115.5c-38.6,0-69.9,31.4-69.9,69.9c0,38.6,31.4,69.9,69.9,69.9s69.9-31.4,69.9-69.9C319.9,146.9,288.6,115.5,250,115.5z"
					/>
			</g>
		</g>
		<g>
			<g>
				<path class="st3" d="M250,110.8v74.6h74.6C324.6,144.2,291.2,110.8,250,110.8z"/>
			</g>
		</g>
		<g>
			<g>
				<path class="st1" d="M324.6,190.2H250c-2.6,0-4.7-2.1-4.7-4.7v-74.6c0-2.6,2.1-4.7,4.7-4.7c43.8,0,79.4,35.6,79.4,79.4
					C329.4,188.1,327.3,190.2,324.6,190.2z M254.7,180.7h65c-2.3-34.8-30.2-62.7-65-65V180.7z"/>
			</g>
		</g>
		<g>
			<g>
				<path class="st2" d="M175.4,185.5c0,20.6,8.3,39.3,21.8,52.8h0l52.8-52.8v-74.6C208.8,110.8,175.4,144.2,175.4,185.5z"/>
			</g>
		</g>
		<g>
			<g>
				<path class="st1" d="M197.2,242.9c-1.3,0-2.5-0.5-3.4-1.4c-15-15-23.2-34.9-23.2-56.1c0-43.8,35.6-79.4,79.4-79.4
					c2.6,0,4.7,2.1,4.7,4.7v74.6c0,1.3-0.5,2.5-1.4,3.3l-52.8,52.8C199.7,242.4,198.5,242.9,197.2,242.9z M245.3,115.7
					c-36.4,2.4-65.2,32.8-65.2,69.8c0,17.1,6.1,33.3,17.3,46l47.9-47.9V115.7z"/>
			</g>
		</g>
	</g>
	<g>
		<g>
			<g>
				<path class="st1" d="M210.1,431.1h-71.9c-2.6,0-4.7-2.1-4.7-4.7c0-2.6,2.1-4.7,4.7-4.7h71.9c2.6,0,4.7,2.1,4.7,4.7
					C214.9,429,212.7,431.1,210.1,431.1z"/>
			</g>
		</g>
		<g>
			<g>
				<path class="st1" d="M117.4,431.1h-8.5c-2.6,0-4.7-2.1-4.7-4.7c0-2.6,2.1-4.7,4.7-4.7h8.5c2.6,0,4.7,2.1,4.7,4.7
					C122.1,429,120,431.1,117.4,431.1z"/>
			</g>
		</g>
		<g>
			<g>
				<path class="st1" d="M361.8,431.1h-71.9c-2.6,0-4.7-2.1-4.7-4.7c0-2.6,2.1-4.7,4.7-4.7h71.9c2.6,0,4.7,2.1,4.7,4.7
					C366.5,429,364.4,431.1,361.8,431.1z"/>
			</g>
		</g>
		<g>
			<g>
				<path class="st1" d="M391.1,431.1h-8.5c-2.6,0-4.7-2.1-4.7-4.7c0-2.6,2.1-4.7,4.7-4.7h8.5c2.6,0,4.7,2.1,4.7,4.7
					C395.8,429,393.7,431.1,391.1,431.1z"/>
			</g>
		</g>
	</g>
</g>
</svg>
