<?xml version="1.0" encoding="utf-8"?>
<!-- Generator: Adobe Illustrator 19.2.0, SVG Export Plug-In . SVG Version: 6.00 Build 0)  -->
<svg version="1.1" id="Layer_1" xmlns="http://www.w3.org/2000/svg" xmlns:xlink="http://www.w3.org/1999/xlink" x="0px" y="0px"
	 viewBox="0 0 500 500" style="enable-background:new 0 0 500 500;" xml:space="preserve">
<style type="text/css">
	.st0{fill:#ECF4F7;}
	.st1{fill:#1C1D21;}
	.st2{fill:#f7f7f7;}
	.st3{fill:#AAB1BA;}
	.st4{fill:none;stroke:#1C1D21;stroke-width:10;stroke-linecap:round;stroke-linejoin:round;stroke-miterlimit:10;}
	.st5{fill:#FDDF7F;}
	.st6{fill:#FFFFFF;}
</style>
<g>
	<g>
		<g>
			<path class="st2" d="M483.3,313.4L252.2,82.2c-22.8-22.8-52.5-37.3-84.5-41.2l-75.2-9.2c-19.7-2.4-36.3,14.3-33.9,33.9l9.2,75.2
				c3.9,32,18.4,61.7,41.2,84.5L340,456.7c15.6,15.6,40.8,15.6,56.4,0l43.5-43.5l43.5-43.5C498.9,354.1,498.9,328.9,483.3,313.4z
				 M121.9,143.1c-13.2-13.2-13.2-34.7,0-47.9c13.2-13.2,34.7-13.2,47.9,0s13.2,34.7,0,47.9C156.5,156.3,135.1,156.3,121.9,143.1z"
				/>
		</g>
	</g>
	<g>
		<g>
			<path class="st1" d="M368.2,473.3c-12,0-23.2-4.7-31.7-13.1L105.4,229.1c-23.4-23.4-38.6-54.5-42.6-87.4l-9.2-75.2
				C52.3,55.5,56,44.8,63.7,37.1c7.8-7.8,18.5-11.5,29.4-10.1l75.2,9.2c32.9,4,64,19.1,87.4,42.6l231.1,231.1
				c8.5,8.5,13.1,19.7,13.1,31.7c0,12-4.7,23.2-13.1,31.7l-87,87C391.4,468.7,380.2,473.3,368.2,473.3z M88.8,36.7
				c-6.7,0-13.1,2.6-18,7.5c-5.6,5.6-8.2,13.3-7.3,21.1l9.2,75.2c3.7,30.7,17.9,59.7,39.7,81.6l231.1,231.1
				c6.6,6.6,15.3,10.2,24.6,10.2c9.3,0,18.1-3.6,24.6-10.2l87-87c6.6-6.6,10.2-15.3,10.2-24.6c0-9.3-3.6-18.1-10.2-24.6L248.7,85.8
				c-21.9-21.9-50.8-36-81.6-39.7l-75.2-9.2C90.9,36.7,89.8,36.7,88.8,36.7z M145.8,158c-10,0-19.9-3.8-27.5-11.4v0v0
				c-7.3-7.3-11.4-17.1-11.4-27.5c0-10.4,4-20.1,11.4-27.5c7.3-7.3,17.1-11.4,27.5-11.4c10.4,0,20.1,4,27.5,11.4
				c15.2,15.2,15.2,39.8,0,55C165.7,154.2,155.8,158,145.8,158z M145.8,90.3c-7.7,0-15,3-20.4,8.5c-5.5,5.5-8.5,12.7-8.5,20.4
				c0,7.7,3,15,8.5,20.4v0c11.3,11.3,29.6,11.3,40.8,0c11.3-11.3,11.3-29.6,0-40.8C160.8,93.3,153.5,90.3,145.8,90.3z"/>
		</g>
	</g>
	<g>
		<g>
			<path class="st1" d="M113.3,330.9c-42.3,0-80.8-23.3-100.4-60.8C4.4,253.9,0,235.8,0,217.6c0-5.2,0.4-10.5,1.1-15.6
				c0.4-2.7,2.9-4.7,5.6-4.3c2.7,0.4,4.6,2.9,4.3,5.6c-0.6,4.7-1,9.5-1,14.2c0,16.6,4,33.2,11.7,47.8c17.9,34.2,53,55.5,91.6,55.5
				c24.5,0,48.3-8.7,66.9-24.6c2.1-1.8,5.3-1.5,7,0.6c1.8,2.1,1.5,5.3-0.6,7C166.2,321.3,140.2,330.9,113.3,330.9z"/>
		</g>
	</g>
	<g>
		<g>
			<path class="st1" d="M15.6,175.8c-0.7,0-1.5-0.2-2.2-0.5c-2.5-1.2-3.5-4.2-2.3-6.7c1.1-2.3,2.3-4.6,3.6-6.8
				c1.4-2.4,4.4-3.2,6.8-1.9c2.4,1.4,3.2,4.4,1.9,6.8c-1.1,2-2.2,4.1-3.2,6.2C19.2,174.8,17.4,175.8,15.6,175.8z"/>
		</g>
	</g>
	<g>
		<g>
			<path class="st1" d="M37.9,144.8c-1.3,0-2.6-0.5-3.6-1.5c-1.9-2-1.9-5.1,0.1-7.1c21.2-20.6,49.3-31.9,78.9-31.9
				c24.5,0,47.8,7.7,67.4,22.2c2.2,1.6,2.7,4.8,1,7c-1.6,2.2-4.8,2.7-7,1c-17.9-13.3-39.1-20.3-61.5-20.3c-27,0-52.5,10.3-71.9,29.1
				C40.4,144.3,39.2,144.8,37.9,144.8z"/>
		</g>
	</g>
</g>
</svg>
