<svg xmlns="http://www.w3.org/2000/svg" viewBox="0 0 48 48"><defs><style>.cls-1{fill:#424242;}.cls-2{fill:#263238;}</style></defs><title>Server</title><g id="Server"><path class="cls-1" d="M45,16H3a3,3,0,0,1-3-3V7A3,3,0,0,1,3,4H45a3,3,0,0,1,3,3v6A3,3,0,0,1,45,16ZM3,6A1,1,0,0,0,2,7v6a1,1,0,0,0,1,1H45a1,1,0,0,0,1-1V7a1,1,0,0,0-1-1Z"/><path class="cls-1" d="M45,30H3a3,3,0,0,1-3-3V21a3,3,0,0,1,3-3H45a3,3,0,0,1,3,3v6A3,3,0,0,1,45,30ZM3,20a1,1,0,0,0-1,1v6a1,1,0,0,0,1,1H45a1,1,0,0,0,1-1V21a1,1,0,0,0-1-1Z"/><rect class="cls-2" x="4" y="8" width="4" height="4" rx="1"/><rect class="cls-2" x="10" y="8" width="4" height="4" rx="1"/><path class="cls-2" d="M43,12a1,1,0,0,1-1-1V9a1,1,0,0,1,2,0v2A1,1,0,0,1,43,12Z"/><path class="cls-2" d="M39,12a1,1,0,0,1-1-1V9a1,1,0,0,1,2,0v2A1,1,0,0,1,39,12Z"/><path class="cls-2" d="M35,12a1,1,0,0,1-1-1V9a1,1,0,0,1,2,0v2A1,1,0,0,1,35,12Z"/><rect class="cls-2" x="4" y="22" width="4" height="4" rx="1"/><rect class="cls-2" x="10" y="22" width="4" height="4" rx="1"/><path class="cls-2" d="M43,26a1,1,0,0,1-1-1V23a1,1,0,0,1,2,0v2A1,1,0,0,1,43,26Z"/><path class="cls-2" d="M39,26a1,1,0,0,1-1-1V23a1,1,0,0,1,2,0v2A1,1,0,0,1,39,26Z"/><path class="cls-2" d="M35,26a1,1,0,0,1-1-1V23a1,1,0,0,1,2,0v2A1,1,0,0,1,35,26Z"/><path class="cls-1" d="M45,44H3a3,3,0,0,1-3-3V35a3,3,0,0,1,3-3H45a3,3,0,0,1,3,3v6A3,3,0,0,1,45,44ZM3,34a1,1,0,0,0-1,1v6a1,1,0,0,0,1,1H45a1,1,0,0,0,1-1V35a1,1,0,0,0-1-1Z"/><rect class="cls-2" x="4" y="36" width="4" height="4" rx="1"/><rect class="cls-2" x="10" y="36" width="4" height="4" rx="1"/><path class="cls-2" d="M43,40a1,1,0,0,1-1-1V37a1,1,0,0,1,2,0v2A1,1,0,0,1,43,40Z"/><path class="cls-2" d="M39,40a1,1,0,0,1-1-1V37a1,1,0,0,1,2,0v2A1,1,0,0,1,39,40Z"/><path class="cls-2" d="M35,40a1,1,0,0,1-1-1V37a1,1,0,0,1,2,0v2A1,1,0,0,1,35,40Z"/><rect class="cls-2" x="3" y="16" width="42" height="2"/><rect class="cls-2" x="3" y="30" width="42" height="2"/></g></svg>