<?xml version="1.0" encoding="utf-8"?>
<!-- Generator: Adobe Illustrator 19.2.0, SVG Export Plug-In . SVG Version: 6.00 Build 0)  -->
<svg version="1.1" id="Layer_1" xmlns="http://www.w3.org/2000/svg" xmlns:xlink="http://www.w3.org/1999/xlink" x="0px" y="0px"
	 viewBox="0 0 500 500" style="enable-background:new 0 0 500 500;" xml:space="preserve">
<style type="text/css">
	.st0{fill:#ECF4F7;}
	.st1{fill:#1C1D21;}
	.st2{fill:#f7f7f7;}
	.st3{fill:#AAB1BA;}
	.st4{fill:none;stroke:#1C1D21;stroke-width:10;stroke-linecap:round;stroke-linejoin:round;stroke-miterlimit:10;}
	.st5{fill:#FDDF7F;}
	.st6{fill:#FFFFFF;}
</style>
<g>
	<g>
		<g>
			<polygon class="st0" points="250,61.4 423.4,155.4 250,249.4 76.6,155.4 			"/>
		</g>
	</g>
	<g>
		<g>
			<path class="st1" d="M250,254.4c-0.8,0-1.6-0.2-2.4-0.6l-173.4-94c-1.6-0.9-2.6-2.6-2.6-4.4c0-1.8,1-3.5,2.6-4.4l173.4-94
				c1.5-0.8,3.3-0.8,4.8,0l173.4,94c1.6,0.9,2.6,2.6,2.6,4.4c0,1.8-1,3.5-2.6,4.4l-173.4,94C251.6,254.2,250.8,254.4,250,254.4z
				 M87,155.4l163,88.3l163-88.3L250,67.1L87,155.4z"/>
		</g>
	</g>
	<g>
		<g>
			<polygon class="st5" points="76.6,382.9 250,476.9 423.4,382.9 423.4,155.4 250,249.4 76.6,155.4 			"/>
		</g>
	</g>
	<g>
		<g>
			<path class="st1" d="M250,481.9c-0.8,0-1.6-0.2-2.4-0.6l-173.4-94c-1.6-0.9-2.6-2.6-2.6-4.4V155.4c0-1.8,0.9-3.4,2.4-4.3
				c1.5-0.9,3.4-0.9,4.9-0.1L250,243.7L421.1,151c1.5-0.8,3.4-0.8,4.9,0.1c1.5,0.9,2.4,2.5,2.4,4.3v227.5c0,1.8-1,3.5-2.6,4.4
				l-173.4,94C251.6,481.7,250.8,481.9,250,481.9z M81.6,379.9L250,471.2l168.4-91.3V163.8l-166.1,90c-1.5,0.8-3.3,0.8-4.8,0
				l-166.1-90V379.9z"/>
		</g>
	</g>
	<g>
		<g>
			<path class="st1" d="M250,481.9c-2.8,0-5-2.2-5-5V249.4c0-2.8,2.2-5,5-5s5,2.2,5,5v227.5C255,479.7,252.8,481.9,250,481.9z"/>
		</g>
	</g>
	<g>
		<g>
			<polygon class="st2" points="76.6,155.4 250,249.4 178.4,287.8 5,193.8 			"/>
		</g>
	</g>
	<g>
		<g>
			<polygon class="st2" points="321.6,23.1 495,117.1 423.4,155.4 250,61.4 			"/>
		</g>
	</g>
	<g>
		<g>
			<polygon class="st2" points="423.4,155.4 250,249.4 321.6,287.8 495,193.8 			"/>
		</g>
	</g>
	<g>
		<g>
			<polygon class="st2" points="178.4,23.1 5,117.1 76.6,155.4 250,61.4 			"/>
		</g>
	</g>
	<g>
		<g>
			<path class="st1" d="M178.4,292.8c-0.8,0-1.6-0.2-2.4-0.6l-173.4-94C1,197.3,0,195.6,0,193.7s1-3.5,2.6-4.4L74.2,151
				c1.5-0.8,3.3-0.8,4.7,0l173.4,94c1.6,0.9,2.6,2.6,2.6,4.4c0,1.8-1,3.5-2.6,4.4l-71.6,38.3C180.1,292.6,179.3,292.8,178.4,292.8z
				 M15.5,193.8l162.9,88.3l61-32.7L76.5,161.1L15.5,193.8z"/>
		</g>
	</g>
	<g>
		<g>
			<path class="st1" d="M423.4,160.4c-0.8,0-1.6-0.2-2.4-0.6l-173.4-94c-1.6-0.9-2.6-2.6-2.6-4.4c0-1.8,1-3.5,2.6-4.4l71.6-38.3
				c1.5-0.8,3.3-0.8,4.7,0l173.4,94c1.6,0.9,2.6,2.6,2.6,4.4c0,1.8-1,3.5-2.6,4.4l-71.6,38.3C425.1,160.2,424.3,160.4,423.4,160.4z
				 M260.5,61.4l162.9,88.3l61-32.7L321.5,28.8L260.5,61.4z"/>
		</g>
	</g>
	<g>
		<g>
			<path class="st1" d="M321.6,292.8c-0.8,0-1.6-0.2-2.4-0.6l-71.6-38.3c-1.6-0.9-2.6-2.6-2.6-4.4c0-1.8,1-3.5,2.6-4.4l173.4-94
				c1.5-0.8,3.3-0.8,4.7,0l71.6,38.3c1.6,0.9,2.6,2.6,2.6,4.4c0,1.8-1,3.5-2.6,4.4l-173.4,94C323.2,292.6,322.4,292.8,321.6,292.8z
				 M260.5,249.4l61,32.7l162.9-88.3l-61-32.7L260.5,249.4z"/>
		</g>
	</g>
	<g>
		<g>
			<path class="st1" d="M76.6,160.4c-0.8,0-1.6-0.2-2.4-0.6L2.6,121.5C1,120.6,0,118.9,0,117.1c0-1.8,1-3.5,2.6-4.4l24.9-13.5
				c2.4-1.3,5.5-0.4,6.8,2c1.3,2.4,0.4,5.5-2,6.8l-16.8,9.1l61,32.7l162.9-88.3l-61-32.7l-14.1,7.7c-2.4,1.3-5.5,0.4-6.8-2
				c-1.3-2.4-0.4-5.5,2-6.8l16.5-8.9c1.5-0.8,3.3-0.8,4.7,0L252.4,57c1.6,0.9,2.6,2.6,2.6,4.4c0,1.8-1,3.5-2.6,4.4l-173.4,94
				C78.2,160.2,77.4,160.4,76.6,160.4z"/>
		</g>
	</g>
	<g>
		<g>
			<path class="st1" d="M53.7,95.7c-1.8,0-3.5-0.9-4.4-2.6c-1.3-2.4-0.4-5.5,2-6.8l49.2-26.7c2.4-1.3,5.5-0.4,6.8,2
				c1.3,2.4,0.4,5.5-2,6.8L56.1,95.1C55.3,95.5,54.5,95.7,53.7,95.7z"/>
		</g>
	</g>
	<g>
		<g>
			<path class="st1" d="M124.6,57.3c-1.8,0-3.5-0.9-4.4-2.6c-1.3-2.4-0.4-5.5,2-6.8l17.9-9.7c2.4-1.3,5.5-0.4,6.8,2
				c1.3,2.4,0.4,5.5-2,6.8L127,56.7C126.2,57.1,125.4,57.3,124.6,57.3z"/>
		</g>
	</g>
	<g>
		<g>
			<g>
				<g>
					<path class="st1" d="M236.7,150.5c-1.3,0-2.7-0.5-3.7-1.6l-21.3-22.9l-21.3,22.9c-1.9,2-5,2.1-7.1,0.3c-2-1.9-2.1-5-0.3-7.1
						l24.9-26.8c0.9-1,2.3-1.6,3.7-1.6c1.4,0,2.7,0.6,3.7,1.6l24.9,26.8c1.9,2,1.8,5.2-0.3,7.1C239.2,150.1,238,150.5,236.7,150.5z"
						/>
				</g>
			</g>
			<g>
				<g>
					<path class="st1" d="M211.8,187.2c-2.8,0-5-2.2-5-5v-63.5c0-2.8,2.2-5,5-5s5,2.2,5,5v63.5C216.8,185,214.6,187.2,211.8,187.2z"
						/>
				</g>
			</g>
		</g>
		<g>
			<g>
				<g>
					<path class="st1" d="M313.1,150.5c-1.3,0-2.7-0.5-3.7-1.6l-21.3-22.9l-21.3,22.9c-1.9,2-5,2.1-7.1,0.3c-2-1.9-2.1-5-0.3-7.1
						l24.9-26.8c0.9-1,2.3-1.6,3.7-1.6c1.4,0,2.7,0.6,3.7,1.6l24.9,26.8c1.9,2,1.8,5.2-0.3,7.1C315.5,150.1,314.3,150.5,313.1,150.5
						z"/>
				</g>
			</g>
			<g>
				<g>
					<path class="st1" d="M288.2,187.2c-2.8,0-5-2.2-5-5v-63.5c0-2.8,2.2-5,5-5c2.8,0,5,2.2,5,5v63.5
						C293.2,185,290.9,187.2,288.2,187.2z"/>
				</g>
			</g>
		</g>
	</g>
</g>
</svg>
