<?xml version="1.0" encoding="utf-8"?>
<!-- Generator: Adobe Illustrator 16.0.0, SVG Export Plug-In . SVG Version: 6.00 Build 0)  -->
<!DOCTYPE svg PUBLIC "-//W3C//DTD SVG 1.0//EN" "http://www.w3.org/TR/2001/REC-SVG-20010904/DTD/svg10.dtd">
<svg version="1.0" id="Layer_1" xmlns="http://www.w3.org/2000/svg" xmlns:xlink="http://www.w3.org/1999/xlink" x="0px" y="0px"
	 width="100px" height="100px" viewBox="0 0 100 100" enable-background="new 0 0 100 100" xml:space="preserve">
<polygon fill="#E9EAEF" stroke="#335C5F" stroke-width="1.5" stroke-linecap="round" stroke-linejoin="round" stroke-miterlimit="10" points="
	10,14.999 10,70.002 45,70.002 45,59.999 85.002,59.999 85.002,70.002 90,70.002 90,14.999 "/>
<rect x="10" y="10" fill="#E9EAEF" stroke="#335C5F" stroke-width="1.5" stroke-linecap="round" stroke-linejoin="round" stroke-miterlimit="10" width="64.999" height="4.999"/>
<rect x="14.998" y="40" fill="#46C6F1" stroke="#335C5F" stroke-width="1.5" stroke-linecap="round" stroke-linejoin="round" stroke-miterlimit="10" width="25.003" height="5.001"/>
<rect x="14.998" y="50.002" fill="#46C6F1" stroke="#335C5F" stroke-width="1.5" stroke-linecap="round" stroke-linejoin="round" stroke-miterlimit="10" width="25.003" height="4.999"/>
<rect x="14.998" y="60.001" fill="#46C6F1" stroke="#335C5F" stroke-width="1.5" stroke-linecap="round" stroke-linejoin="round" stroke-miterlimit="10" width="25.003" height="5"/>
<rect x="14.998" y="20.002" fill="#75C6A4" stroke="#335C5F" stroke-width="1.5" stroke-linecap="round" stroke-linejoin="round" stroke-miterlimit="10" width="25.003" height="15.001"/>
<rect x="36.251" y="40" fill="#3EAED3" width="3.75" height="5.001"/>
<rect x="36.251" y="50.002" fill="#3EAED3" width="3.75" height="4.999"/>
<rect x="36.251" y="60.001" fill="#3EAED3" width="3.75" height="5"/>
<rect x="36.251" y="20.002" fill="#65AD90" width="3.75" height="15.001"/>
<polygon fill="#CACCD1" points="85.002,14.999 85.002,57.499 42.499,57.499 42.499,70.002 45,70.002 45,59.999 85.002,59.999 
	85.002,70.002 90,70.002 90,14.999 "/>
<rect x="45" y="59.999" fill="#46C6F1" stroke="#335C5F" stroke-width="1.5" stroke-linecap="round" stroke-linejoin="round" stroke-miterlimit="10" width="40.002" height="30.001"/>
<rect x="81.251" y="59.999" fill="#3EAED3" width="3.751" height="30.001"/>
<rect x="85.002" y="10" fill="#FADF7E" stroke="#335C5F" stroke-width="1.5" stroke-linecap="round" stroke-linejoin="round" stroke-miterlimit="10" width="4.998" height="4.999"/>
<rect x="79.999" y="10" fill="#FADF7E" stroke="#335C5F" stroke-width="1.5" stroke-linecap="round" stroke-linejoin="round" stroke-miterlimit="10" width="5.003" height="4.999"/>
<rect x="74.999" y="10" fill="#FADF7E" stroke="#335C5F" stroke-width="1.5" stroke-linecap="round" stroke-linejoin="round" stroke-miterlimit="10" width="5" height="4.999"/>
<path fill="#75C6A4" stroke="#335C5F" stroke-width="1.5" stroke-linecap="round" stroke-linejoin="round" stroke-miterlimit="10" d="
	M60.385,84.323c-1.701,0-3.176,0.937-3.975,2.308H45V90h40.002v-5.677H60.385z"/>
<rect x="81.251" y="84.323" fill="#65AD90" width="3.751" height="5.677"/>
<path fill="#70929F" stroke="#335C5F" stroke-width="1.5" stroke-linecap="round" stroke-linejoin="round" stroke-miterlimit="10" d="
	M56.41,86.631c0.799-1.371,2.273-2.308,3.975-2.308l0,0h10.384L55.773,64.327L45,78.686v7.945H56.41z"/>
<polygon fill="#62818C" points="55.773,64.327 53.898,66.827 67.021,84.323 70.769,84.323 "/>
<path fill="#FADF7E" stroke="#335C5F" stroke-width="1.5" stroke-linecap="round" stroke-linejoin="round" stroke-miterlimit="10" d="
	M66.085,78.069c2.877-0.51,5.07-3.021,5.07-6.053c0-3.396-2.756-6.152-6.156-6.152c-2.414,0-4.499,1.395-5.505,3.424L66.085,78.069z
	"/>
<path fill="#D8C26F" d="M64.999,65.864c-0.65,0-1.275,0.108-1.863,0.297c2.477,0.797,4.27,3.117,4.27,5.855
	c0,1.931-0.891,3.647-2.281,4.772l0.961,1.28c2.877-0.51,5.07-3.021,5.07-6.053C71.155,68.62,68.399,65.864,64.999,65.864z"/>
<path fill="none" stroke="#335C5F" stroke-width="1.5" stroke-linecap="round" stroke-linejoin="round" stroke-miterlimit="10" d="
	M72.499,20h5.002H72.499z"/>
<path fill="none" stroke="#335C5F" stroke-width="1.5" stroke-linecap="round" stroke-linejoin="round" stroke-miterlimit="10" d="
	M62.501,20h5H62.501z"/>
<path fill="none" stroke="#335C5F" stroke-width="1.5" stroke-linecap="round" stroke-linejoin="round" stroke-miterlimit="10" d="
	M52.5,20h5.002H52.5z"/>
<path fill="none" stroke="#335C5F" stroke-width="1.5" stroke-linecap="round" stroke-linejoin="round" stroke-miterlimit="10" d="
	M72.499,50.002h5.002H72.499z"/>
<path fill="none" stroke="#335C5F" stroke-width="1.5" stroke-linecap="round" stroke-linejoin="round" stroke-miterlimit="10" d="
	M52.5,50.002h5.002H52.5z"/>
<path fill="none" stroke="#335C5F" stroke-width="1.5" stroke-linecap="round" stroke-linejoin="round" stroke-miterlimit="10" d="
	M85.002,27.499V32.5V27.499z"/>
<path fill="none" stroke="#335C5F" stroke-width="1.5" stroke-linecap="round" stroke-linejoin="round" stroke-miterlimit="10" d="
	M85.002,37.5V42.5V37.5z"/>
<path fill="none" stroke="#335C5F" stroke-width="1.5" stroke-linecap="round" stroke-linejoin="round" stroke-miterlimit="10" d="
	M45,27.499V32.5V27.499z"/>
<path fill="none" stroke="#335C5F" stroke-width="1.5" stroke-linecap="round" stroke-linejoin="round" stroke-miterlimit="10" d="
	M45,37.5V42.5V37.5z"/>
<polygon fill="none" stroke="#335C5F" stroke-width="1.5" stroke-linecap="round" stroke-linejoin="round" stroke-miterlimit="10" points="
	85.002,47.502 85.002,50.002 82.499,50.002 85.002,50.002 "/>
<polygon fill="none" stroke="#335C5F" stroke-width="1.5" stroke-linecap="round" stroke-linejoin="round" stroke-miterlimit="10" points="
	82.503,20 85.002,20 85.002,22.5 85.002,20 "/>
<polygon fill="none" stroke="#335C5F" stroke-width="1.5" stroke-linecap="round" stroke-linejoin="round" stroke-miterlimit="10" points="
	45,22.5 45,19.998 47.501,19.998 45,19.998 "/>
<polygon fill="none" stroke="#335C5F" stroke-width="1.5" stroke-linecap="round" stroke-linejoin="round" stroke-miterlimit="10" points="
	47.501,50.002 45,50.002 45,47.502 45,50.002 "/>
<rect x="14.998" y="40" fill="none" stroke="#335C5F" stroke-width="1.5" stroke-linecap="round" stroke-linejoin="round" stroke-miterlimit="10" width="25.003" height="5.001"/>
<rect x="14.998" y="50.002" fill="none" stroke="#335C5F" stroke-width="1.5" stroke-linecap="round" stroke-linejoin="round" stroke-miterlimit="10" width="25.003" height="4.999"/>
<rect x="14.998" y="60.001" fill="none" stroke="#335C5F" stroke-width="1.5" stroke-linecap="round" stroke-linejoin="round" stroke-miterlimit="10" width="25.003" height="5"/>
<rect x="14.998" y="20.002" fill="none" stroke="#335C5F" stroke-width="1.5" stroke-linecap="round" stroke-linejoin="round" stroke-miterlimit="10" width="25.003" height="15.001"/>
<rect x="67.501" y="40" fill="#CACCD1" width="3.748" height="14.999"/>
<polygon fill="#CACCD1" points="68.753,32.5 66.878,34.75 71.251,40 75.001,40 "/>
<polygon fill="#FADF7E" stroke="#335C5F" stroke-width="1.5" stroke-linecap="round" stroke-linejoin="round" stroke-miterlimit="10" points="
	71.251,40 65.003,32.5 58.75,40 62.501,40 62.501,54.999 67.501,54.999 67.501,40 "/>
<polygon fill="none" stroke="#335C5F" stroke-width="1.5" stroke-linecap="round" stroke-linejoin="round" stroke-miterlimit="10" points="
	10,14.999 10,70.002 45,70.002 45,59.999 85.002,59.999 85.002,70.002 90,70.002 90,14.999 "/>
<rect x="45" y="59.999" fill="none" stroke="#335C5F" stroke-width="1.5" stroke-linecap="round" stroke-linejoin="round" stroke-miterlimit="10" width="40.002" height="30.001"/>
<path fill="none" stroke="#335C5F" stroke-width="1.5" stroke-linecap="round" stroke-linejoin="round" stroke-miterlimit="10" d="
	M60.385,84.323c-1.701,0-3.176,0.937-3.975,2.308H45V90h40.002v-5.677H60.385z"/>
<path fill="none" stroke="#335C5F" stroke-width="1.5" stroke-linecap="round" stroke-linejoin="round" stroke-miterlimit="10" d="
	M56.41,86.631c0.799-1.371,2.273-2.308,3.975-2.308l0,0h10.384L55.773,64.327L45,78.686v7.945H56.41z"/>
<path fill="none" stroke="#335C5F" stroke-width="1.5" stroke-linecap="round" stroke-linejoin="round" stroke-miterlimit="10" d="
	M66.085,78.069c2.877-0.51,5.07-3.021,5.07-6.053c0-3.396-2.756-6.152-6.156-6.152c-2.414,0-4.499,1.395-5.505,3.424L66.085,78.069z
	"/>
</svg>
