<?xml version="1.0" encoding="utf-8"?>
<!-- Generator: Adobe Illustrator 19.2.0, SVG Export Plug-In . SVG Version: 6.00 Build 0)  -->
<svg version="1.1" id="Layer_1" xmlns="http://www.w3.org/2000/svg" xmlns:xlink="http://www.w3.org/1999/xlink" x="0px" y="0px"
	 viewBox="0 0 500 500" style="enable-background:new 0 0 500 500;" xml:space="preserve">
<style type="text/css">
	.st0{fill:#ECF4F7;}
	.st1{fill:#1C1D21;}
	.st2{fill:#f7f7f7;}
	.st3{fill:#AAB1BA;}
	.st4{fill:none;stroke:#1C1D21;stroke-width:10;stroke-linecap:round;stroke-linejoin:round;stroke-miterlimit:10;}
	.st5{fill:#FDDF7F;}
	.st6{fill:#FFFFFF;}
</style>
<g>
	<g>
		<g>
			<path class="st0" d="M280,90.5H220V34.2C220,18.1,233,5,249.1,5h1.8C267,5,280,18.1,280,34.2V90.5z"/>
		</g>
	</g>
	<g>
		<g>
			<path class="st1" d="M280,95.5H220c-2.8,0-5-2.2-5-5V34.2C215,15.3,230.3,0,249.1,0h1.8C269.7,0,285,15.3,285,34.2v56.4
				C285,93.3,282.8,95.5,280,95.5z M225,85.5H275V34.2c0-13.3-10.8-24.2-24.2-24.2h-1.8C235.8,10,225,20.8,225,34.2V85.5z"/>
		</g>
	</g>
	<g>
		<g>
			<path class="st5" d="M365.1,285.2v-94.4c0-63.6-51.5-115.1-115.1-115.1h0c-63.6,0-115.1,51.5-115.1,115.1v94.4
				c0,33.6-8.9,66.5-25.9,95.5l-6.6,11.3c-12.1,20.7,2.8,46.7,26.8,46.7h241.6c24,0,38.9-26,26.8-46.7l-6.6-11.3
				C374,351.8,365.1,318.8,365.1,285.2z"/>
		</g>
	</g>
	<g>
		<g>
			<g>
				<path class="st1" d="M104,244.5c-2.8,0-5-2.2-5-5v-48.7c0-2.8,2.2-5,5-5c2.8,0,5,2.2,5,5v48.7C109,242.3,106.7,244.5,104,244.5z
					"/>
			</g>
		</g>
		<g>
			<g>
				<path class="st1" d="M100.8,321.8c-0.3,0-0.7,0-1-0.1c-2.7-0.6-4.5-3.2-3.9-5.9c2-10.1,3.1-20.3,3.1-30.6c0-2.8,2.2-5,5-5
					c2.8,0,5,2.2,5,5c0,10.9-1.1,21.9-3.3,32.6C105.2,320.2,103.1,321.8,100.8,321.8z"/>
			</g>
		</g>
		<g>
			<g>
				<path class="st1" d="M75.5,443.5c-1.7,0-3.4-0.9-4.3-2.5c-12.1-21.1-12-46.1,0.3-67.1l6.6-11.3c1.4-2.4,4.5-3.2,6.8-1.8
					c2.4,1.4,3.2,4.5,1.8,6.8L80.1,379c-10.4,17.8-10.5,39.2-0.2,57.1c1.4,2.4,0.5,5.5-1.8,6.8C77.2,443.3,76.3,443.5,75.5,443.5z"
					/>
			</g>
		</g>
		<g>
			<g>
				<path class="st1" d="M121.8,125.9c-0.8,0-1.6-0.2-2.4-0.6c-2.4-1.3-3.3-4.4-2-6.8c4-7.2,8.6-14.2,13.7-20.8
					c10.4-13.3,22.9-24.7,37-33.8c2.3-1.5,5.4-0.8,6.9,1.5c1.5,2.3,0.8,5.4-1.5,6.9c-13.2,8.6-24.9,19.2-34.6,31.6
					c-4.8,6.1-9.1,12.6-12.8,19.4C125.3,125,123.6,125.9,121.8,125.9z"/>
			</g>
		</g>
	</g>
	<g>
		<g>
			<g>
				<path class="st1" d="M396,244.5c-2.8,0-5-2.2-5-5v-48.7c0-2.8,2.2-5,5-5s5,2.2,5,5v48.7C401,242.3,398.8,244.5,396,244.5z"/>
			</g>
		</g>
		<g>
			<g>
				<path class="st1" d="M399.2,321.8c-2.3,0-4.4-1.6-4.9-4c-2.2-10.7-3.3-21.7-3.3-32.6c0-2.8,2.2-5,5-5s5,2.2,5,5
					c0,10.2,1,20.5,3.1,30.6c0.6,2.7-1.2,5.3-3.9,5.9C399.9,321.8,399.5,321.8,399.2,321.8z"/>
			</g>
		</g>
		<g>
			<g>
				<path class="st1" d="M424.5,443.5c-0.8,0-1.7-0.2-2.5-0.7c-2.4-1.4-3.2-4.4-1.8-6.8c10.3-17.9,10.2-39.2-0.2-57.1l-6.6-11.3
					c-1.4-2.4-0.6-5.4,1.8-6.8c2.4-1.4,5.4-0.6,6.8,1.8l6.6,11.3c12.3,21,12.4,46,0.3,67.1C427.9,442.6,426.2,443.5,424.5,443.5z"/>
			</g>
		</g>
		<g>
			<g>
				<path class="st1" d="M378.2,125.9c-1.8,0-3.5-0.9-4.4-2.6c-3.7-6.8-8-13.3-12.8-19.4c-9.7-12.4-21.4-23-34.6-31.6
					c-2.3-1.5-3-4.6-1.5-6.9c1.5-2.3,4.6-3,6.9-1.5c14.2,9.2,26.6,20.5,37,33.8c5.1,6.5,9.7,13.5,13.7,20.8c1.3,2.4,0.4,5.5-2,6.8
					C379.8,125.7,379,125.9,378.2,125.9z"/>
			</g>
		</g>
	</g>
	<g>
		<g>
			<path class="st1" d="M370.8,443.8H129.2c-13.1,0-24.8-6.8-31.3-18.1c-6.5-11.3-6.5-24.8,0.1-36.1l6.6-11.3
				c16.5-28.2,25.2-60.3,25.2-93v-94.4c0-66.2,53.9-120.1,120.1-120.1s120.1,53.9,120.1,120.1v94.4c0,32.6,8.7,64.8,25.2,93
				l6.6,11.3c6.6,11.3,6.6,24.8,0.1,36.1C395.5,437,383.8,443.8,370.8,443.8z M250,80.7c-60.7,0-110.1,49.4-110.1,110.1v94.4
				c0,34.4-9.2,68.3-26.5,98l-6.6,11.3c-4.8,8.2-4.8,17.9-0.1,26.1c4.7,8.2,13.1,13.1,22.6,13.1h241.6c9.4,0,17.9-4.9,22.6-13.1
				c4.7-8.2,4.7-17.9-0.1-26.1l-6.6-11.3c-17.4-29.7-26.5-63.6-26.5-98v-94.4C360.1,130.1,310.7,80.7,250,80.7z"/>
		</g>
	</g>
	<g>
		<g>
			<path class="st3" d="M304.6,440.4c0,30.1-24.4,54.6-54.6,54.6s-54.6-24.4-54.6-54.6H304.6z"/>
		</g>
	</g>
	<g>
		<g>
			<path class="st1" d="M250,500c-32.9,0-59.6-26.7-59.6-59.6c0-2.8,2.2-5,5-5h109.2c2.8,0,5,2.2,5,5C309.6,473.3,282.9,500,250,500
				z M200.7,445.4c2.5,25,23.7,44.6,49.3,44.6s46.8-19.6,49.3-44.6H200.7z"/>
		</g>
	</g>
	<g>
		<g>
			<path class="st1" d="M227.2,385.8h-80.8c-2.8,0-5-2.2-5-5c0-2.8,2.2-5,5-5h80.8c2.8,0,5,2.2,5,5
				C232.2,383.5,230,385.8,227.2,385.8z"/>
		</g>
	</g>
	<g>
		<g>
			<path class="st1" d="M287.9,385.8H258c-2.8,0-5-2.2-5-5c0-2.8,2.2-5,5-5h29.9c2.8,0,5,2.2,5,5
				C292.9,383.5,290.7,385.8,287.9,385.8z"/>
		</g>
	</g>
	<g>
		<g>
			<path class="st1" d="M325.4,385.8h-9.5c-2.8,0-5-2.2-5-5c0-2.8,2.2-5,5-5h9.5c2.8,0,5,2.2,5,5
				C330.4,383.5,328.2,385.8,325.4,385.8z"/>
		</g>
	</g>
</g>
</svg>
