<?xml version="1.0" encoding="utf-8"?>
<!-- Generator: Adobe Illustrator 16.0.0, SVG Export Plug-In . SVG Version: 6.00 Build 0)  -->
<!DOCTYPE svg PUBLIC "-//W3C//DTD SVG 1.0//EN" "http://www.w3.org/TR/2001/REC-SVG-20010904/DTD/svg10.dtd">
<svg version="1.0" id="Layer_1" xmlns="http://www.w3.org/2000/svg" xmlns:xlink="http://www.w3.org/1999/xlink" x="0px" y="0px"
	 width="100px" height="100px" viewBox="0 0 100 100" enable-background="new 0 0 100 100" xml:space="preserve">
<path fill="#E9EAEF" stroke="#335C5F" stroke-width="1.5" stroke-linecap="round" stroke-linejoin="round" stroke-miterlimit="10" d="
	M60.002,59.254l-5.176-5.175c-1.607-1.607-2.603-3.831-2.603-6.285c0-2.456,0.991-4.679,2.603-6.287l11.253,11.254v-5.557V15.493
	V15.49c0-3.03-2.458-5.49-5.487-5.49H34.97c-3.035,0-5.491,2.46-5.491,5.49v0.003v49.411c0,3.029,2.459,5.49,5.491,5.49h1.697
	h23.335V59.254z"/>
<path fill="#46C6F1" stroke="#335C5F" stroke-width="1.5" stroke-linecap="round" stroke-linejoin="round" stroke-miterlimit="10" d="
	M60.002,59.254l-5.176-5.175c-1.607-1.607-2.603-3.831-2.603-6.285c0-2.456,0.991-4.679,2.603-6.287l8.511,8.51V17.323H32.223
	v43.921h27.779V59.254z"/>
<path fill="#9DD1D9" stroke="#335C5F" stroke-width="1.5" stroke-linecap="round" stroke-linejoin="round" stroke-miterlimit="10" d="
	M42.221,41.111c1.743,0,3.313,0.682,4.501,1.778h6.977c0.33-0.499,0.705-0.962,1.127-1.381l1.382,1.381h1.348
	c1.347,0,2.442-1.096,2.442-2.445V25.778c0-1.35-1.096-2.445-2.446-2.445H37.998c-1.35,0-2.443,1.096-2.443,2.445v14.667
	c0,1.264,0.961,2.291,2.192,2.419C38.932,41.785,40.491,41.111,42.221,41.111z"/>
<path fill="#89B7BF" d="M57.552,23.333h-3.333c1.351,0,2.447,1.096,2.447,2.445v14.666c0,0.792-0.383,1.489-0.968,1.936l0.51,0.51
	h1.348c1.347,0,2.442-1.096,2.442-2.445V25.778C59.998,24.429,58.902,23.333,57.552,23.333z"/>
<path fill="#75C6A4" stroke="#335C5F" stroke-width="1.5" stroke-linecap="round" stroke-linejoin="round" stroke-miterlimit="10" d="
	M37.747,42.864c1.185-1.079,2.744-1.752,4.474-1.752c0.447,0,0.882,0.047,1.305,0.131l1.559-2.496l-3.656-5.85
	c-0.542-0.867-1.427-0.867-1.972,0l-3.902,6.246v1.302C35.555,41.708,36.516,42.735,37.747,42.864z"/>
<path fill="#75C6A4" stroke="#335C5F" stroke-width="1.5" stroke-linecap="round" stroke-linejoin="round" stroke-miterlimit="10" d="
	M53.699,42.889c0.33-0.499,0.705-0.962,1.127-1.381l1.382,1.381h1.348c1.347,0,2.442-1.096,2.442-2.445v-2.092l-6.065-9.706
	c-0.695-1.115-1.839-1.115-2.533,0l-7.874,12.596c1.225,0.242,2.315,0.833,3.197,1.647H53.699z"/>
<path fill="#65AD90" d="M42.221,38.889c-2.497,0-4.752,1.037-6.369,2.701c0.375,0.694,1.07,1.188,1.895,1.273
	c1.185-1.079,2.744-1.752,4.474-1.752c0.447,0,0.882,0.047,1.305,0.131l1.236-1.979C43.956,39.023,43.104,38.889,42.221,38.889z"/>
<path fill="#65AD90" d="M44.763,39.264l-1.237,1.978c1.225,0.242,2.315,0.833,3.197,1.647h2.915
	C48.5,41.168,46.781,39.867,44.763,39.264z"/>
<circle fill="#E9EAEF" stroke="#335C5F" stroke-width="1.5" stroke-linecap="round" stroke-linejoin="round" stroke-miterlimit="10" cx="42.221" cy="47.778" r="6.667"/>
<path fill="#FADF7E" stroke="#335C5F" stroke-width="1.5" stroke-linecap="round" stroke-linejoin="round" stroke-miterlimit="10" d="
	M66.079,52.762v-5.557l8.366,8.367c1.482,1.481,2.221,3.423,2.221,5.363V90H51.103v-5.171L36.667,70.395h23.335V59.254l-5.176-5.175
	c-1.607-1.607-2.603-3.831-2.603-6.285c0-2.456,0.991-4.679,2.603-6.287L66.079,52.762z"/>
<path fill="#D8C26F" d="M74.445,55.572l-8.366-8.367v3.333l5.033,5.034c1.482,1.481,2.221,3.423,2.221,5.363V90h3.333V60.936
	C76.666,58.995,75.928,57.054,74.445,55.572z"/>
<path fill="none" stroke="#335C5F" stroke-width="1.5" stroke-linecap="round" stroke-linejoin="round" stroke-miterlimit="10" d="
	M50.526,13.661h-5.494H50.526z"/>
<path fill="none" stroke="#335C5F" stroke-width="1.5" stroke-linecap="round" stroke-linejoin="round" stroke-miterlimit="10" d="
	M55.103,13.661h-1.832H55.103z"/>
<path fill="none" stroke="#335C5F" stroke-width="1.5" stroke-linecap="round" stroke-linejoin="round" stroke-miterlimit="10" d="
	M50.066,65.819c0,1.26-1.022,2.286-2.287,2.286c-1.265,0-2.288-1.026-2.288-2.286c0-1.265,1.022-2.29,2.288-2.29
	C49.044,63.529,50.066,64.555,50.066,65.819z"/>
<path fill="#FADF7E" stroke="#335C5F" stroke-width="1.5" stroke-linecap="round" stroke-linejoin="round" stroke-miterlimit="10" d="
	M29.479,22.824l-3.542-3.543c-1.608,1.611-2.603,3.835-2.603,6.288c0,2.456,0.995,4.676,2.603,6.286l3.542,3.54V22.824z"/>
<path fill="#FADF7E" stroke="#335C5F" stroke-width="1.5" stroke-linecap="round" stroke-linejoin="round" stroke-miterlimit="10" d="
	M29.479,35.396l-5.035,5.034v20.414c1.765,0,3.522-0.539,5.035-1.582V35.396z"/>
<path fill="#D8C26F" d="M27.257,60.372c0.777-0.263,1.526-0.63,2.222-1.11V35.396l-2.222,2.223V60.372z"/>
<polygon fill="#D8C26F" points="27.257,33.175 29.479,35.396 29.479,22.824 27.257,20.602 "/>
<path fill="#FADF7E" stroke="#335C5F" stroke-width="1.5" stroke-linecap="round" stroke-linejoin="round" stroke-miterlimit="10" d="
	M48.386,28.222c0,1.688-1.366,3.057-3.056,3.057c-1.684,0-3.053-1.369-3.053-3.057c0-1.687,1.369-3.055,3.053-3.055
	C47.02,25.167,48.386,26.535,48.386,28.222z"/>
<path fill="#E9EAEF" stroke="#335C5F" stroke-width="1.5" stroke-linecap="round" stroke-linejoin="round" stroke-miterlimit="10" d="
	M52.665,35.555c1.736,0,3.324-0.605,4.579-1.611l-3.312-5.297c-0.695-1.115-1.839-1.115-2.533,0l-3.314,5.299
	C49.341,34.95,50.931,35.555,52.665,35.555z"/>
<path fill="none" stroke="#335C5F" stroke-width="1.5" stroke-linecap="round" stroke-linejoin="round" stroke-miterlimit="10" d="
	M29.479,22.824l-3.542-3.543c-1.608,1.611-2.603,3.835-2.603,6.288c0,2.456,0.995,4.676,2.603,6.286l3.542,3.54V22.824z"/>
<path fill="none" stroke="#335C5F" stroke-width="1.5" stroke-linecap="round" stroke-linejoin="round" stroke-miterlimit="10" d="
	M29.479,35.396l-5.035,5.034v20.414c1.765,0,3.522-0.539,5.035-1.582V35.396z"/>
<polygon fill="#D8C26F" points="60.002,73.728 60.002,70.395 36.667,70.395 40,73.728 "/>
<polygon fill="#CACCD1" points="63.859,47.205 63.859,50.541 66.079,52.762 66.079,49.426 "/>
<rect x="57.779" y="61.244" fill="#CACCD1" width="2.223" height="9.15"/>
<path fill="#CACCD1" d="M42.221,41.111c-0.577,0-1.132,0.081-1.666,0.218c2.875,0.741,5,3.343,5,6.449c0,3.107-2.125,5.708-5,6.451
	c0.534,0.137,1.089,0.218,1.666,0.218c3.684,0,6.667-2.985,6.667-6.668C48.888,44.096,45.905,41.111,42.221,41.111z"/>
<path fill="none" stroke="#335C5F" stroke-width="1.5" stroke-linecap="round" stroke-linejoin="round" stroke-miterlimit="10" d="
	M42.221,44.444v6.668V44.444z"/>
<path fill="none" stroke="#335C5F" stroke-width="1.5" stroke-linecap="round" stroke-linejoin="round" stroke-miterlimit="10" d="
	M38.89,47.778h6.667H38.89z"/>
<path fill="#D8C26F" d="M45.33,25.167c-0.393,0-0.767,0.08-1.112,0.215c1.136,0.446,1.945,1.546,1.945,2.84
	c0,1.294-0.809,2.395-1.945,2.841c0.345,0.135,0.719,0.215,1.112,0.215c1.688,0,3.056-1.369,3.056-3.057
	C48.386,26.535,47.017,25.167,45.33,25.167z"/>
<path fill="#3EAED3" d="M61.114,17.323v27.33l-6.286-6.286l-1.571,1.568c-2.101,2.095-3.255,4.886-3.255,7.859
	c0,2.967,1.155,5.757,3.253,7.857l4.524,4.522v1.07h2.223v-1.99l-5.176-5.175c-1.607-1.607-2.603-3.831-2.603-6.285
	c0-2.456,0.991-4.679,2.603-6.287l8.511,8.51V17.323H61.114z"/>
<path fill="none" stroke="#335C5F" stroke-width="1.5" stroke-linecap="round" stroke-linejoin="round" stroke-miterlimit="10" d="
	M69.258,55.94l-3.179-3.179L69.258,55.94z"/>
<path fill="none" stroke="#335C5F" stroke-width="1.5" stroke-linecap="round" stroke-linejoin="round" stroke-miterlimit="10" d="
	M60.002,70.395v4.049V70.395z"/>
<path fill="none" stroke="#335C5F" stroke-width="1.5" stroke-linecap="round" stroke-linejoin="round" stroke-miterlimit="10" d="
	M60.002,59.254l-5.176-5.175c-1.607-1.607-2.603-3.831-2.603-6.285c0-2.456,0.991-4.679,2.603-6.287l11.253,11.254v-5.557V15.493
	V15.49c0-3.03-2.458-5.49-5.487-5.49H34.97c-3.035,0-5.491,2.46-5.491,5.49v0.003v49.411c0,3.029,2.459,5.49,5.491,5.49h1.697
	h23.335V59.254z"/>
<path fill="none" stroke="#335C5F" stroke-width="1.5" stroke-linecap="round" stroke-linejoin="round" stroke-miterlimit="10" d="
	M60.002,59.254l-5.176-5.175c-1.607-1.607-2.603-3.831-2.603-6.285c0-2.456,0.991-4.679,2.603-6.287l8.511,8.51V17.323H32.223
	v43.921h27.779V59.254z"/>
<path fill="#65AD90" d="M56.666,33.021v7.184l-1.838-1.837l-1.571,1.568c-0.877,0.874-1.578,1.874-2.109,2.954h2.552
	c0.002-0.002,0.002-0.003,0.004-0.006c0.328-0.495,0.703-0.957,1.123-1.375l1.384,1.381h1.346c1.347,0,2.442-1.096,2.442-2.445
	v-2.092L56.666,33.021z"/>
<path fill="none" stroke="#335C5F" stroke-width="1.5" stroke-linecap="round" stroke-linejoin="round" stroke-miterlimit="10" d="
	M66.079,52.762v-5.557l8.366,8.367c1.482,1.481,2.221,3.423,2.221,5.363V90H51.103v-5.171L36.667,70.395h23.335V59.254l-5.176-5.175
	c-1.607-1.607-2.603-3.831-2.603-6.285c0-2.456,0.991-4.679,2.603-6.287L66.079,52.762z"/>
<circle fill="none" stroke="#335C5F" stroke-width="1.5" stroke-linecap="round" stroke-linejoin="round" stroke-miterlimit="10" cx="42.221" cy="47.778" r="6.667"/>
<path fill="none" stroke="#335C5F" stroke-width="1.5" stroke-linecap="round" stroke-linejoin="round" stroke-miterlimit="10" d="
	M42.221,41.111c1.743,0,3.313,0.682,4.501,1.778h6.977c0.33-0.499,0.705-0.962,1.127-1.381l1.382,1.381h1.348
	c1.347,0,2.442-1.096,2.442-2.445V25.778c0-1.35-1.096-2.445-2.446-2.445H37.998c-1.35,0-2.443,1.096-2.443,2.445v14.667
	c0,1.264,0.961,2.291,2.192,2.419C38.932,41.785,40.491,41.111,42.221,41.111z"/>
<path fill="none" stroke="#335C5F" stroke-width="1.5" stroke-linecap="round" stroke-linejoin="round" stroke-miterlimit="10" d="
	M48.386,28.222c0,1.688-1.366,3.057-3.056,3.057c-1.684,0-3.053-1.369-3.053-3.057c0-1.687,1.369-3.055,3.053-3.055
	C47.02,25.167,48.386,26.535,48.386,28.222z"/>
<path fill="none" stroke="#335C5F" stroke-width="1.5" stroke-linecap="round" stroke-linejoin="round" stroke-miterlimit="10" d="
	M37.747,42.864c1.185-1.079,2.744-1.752,4.474-1.752c0.447,0,0.882,0.047,1.305,0.131l1.559-2.496l-3.656-5.85
	c-0.542-0.867-1.427-0.867-1.972,0l-3.902,6.246v1.302C35.555,41.708,36.516,42.735,37.747,42.864z"/>
<path fill="none" stroke="#335C5F" stroke-width="1.5" stroke-linecap="round" stroke-linejoin="round" stroke-miterlimit="10" d="
	M53.699,42.889c0.33-0.499,0.705-0.962,1.127-1.381l1.382,1.381h1.348c1.347,0,2.442-1.096,2.442-2.445v-2.092l-6.065-9.706
	c-0.695-1.115-1.839-1.115-2.533,0l-7.874,12.596c1.225,0.242,2.315,0.833,3.197,1.647H53.699z"/>
<path fill="none" stroke="#335C5F" stroke-width="1.5" stroke-linecap="round" stroke-linejoin="round" stroke-miterlimit="10" d="
	M52.665,35.555c1.736,0,3.324-0.605,4.579-1.611l-3.312-5.297c-0.695-1.115-1.839-1.115-2.533,0l-3.314,5.299
	C49.341,34.95,50.931,35.555,52.665,35.555z"/>
</svg>
