<?xml version="1.0" encoding="utf-8"?>
<!-- Generator: Adobe Illustrator 16.0.0, SVG Export Plug-In . SVG Version: 6.00 Build 0)  -->
<!DOCTYPE svg PUBLIC "-//W3C//DTD SVG 1.0//EN" "http://www.w3.org/TR/2001/REC-SVG-20010904/DTD/svg10.dtd">
<svg version="1.0" id="Layer_1" xmlns="http://www.w3.org/2000/svg" xmlns:xlink="http://www.w3.org/1999/xlink" x="0px" y="0px"
	 width="100px" height="100px" viewBox="0 0 100 100" enable-background="new 0 0 100 100" xml:space="preserve">
<path fill="#E9EAEF" stroke="#335C5F" stroke-width="1.5" stroke-linecap="round" stroke-linejoin="round" stroke-miterlimit="10" d="
	M60.001,59.255l-5.175-5.175c-1.607-1.608-2.604-3.832-2.604-6.285c0-2.456,0.992-4.679,2.604-6.286L66.08,52.762v-5.556V15.494
	v-0.003c0-3.03-2.459-5.491-5.487-5.491H34.97c-3.035,0-5.49,2.461-5.49,5.491v0.003v49.41c0,3.029,2.458,5.491,5.49,5.491h1.696
	h23.334V59.255z"/>
<path fill="#46C6F1" stroke="#335C5F" stroke-width="1.5" stroke-linecap="round" stroke-linejoin="round" stroke-miterlimit="10" d="
	M60.001,59.255l-5.175-5.175c-1.607-1.608-2.604-3.832-2.604-6.285c0-2.456,0.992-4.679,2.604-6.286l8.51,8.51V17.324H32.224v43.92
	h27.777V59.255z"/>
<path fill="#9DD1D9" stroke="#335C5F" stroke-width="1.5" stroke-linecap="round" stroke-linejoin="round" stroke-miterlimit="10" d="
	M42.222,41.112c1.742,0,3.316,0.682,4.504,1.778h6.974c0.331-0.498,0.708-0.962,1.127-1.381l1.385,1.381h1.344
	c1.351,0,2.443-1.096,2.443-2.445V25.779c0-1.351-1.093-2.445-2.443-2.445H37.999c-1.347,0-2.443,1.095-2.443,2.445v14.666
	c0,1.264,0.964,2.291,2.195,2.419C38.936,41.786,40.494,41.112,42.222,41.112z"/>
<path fill="#89B7BF" d="M57.555,23.334h-3.333c1.351,0,2.444,1.095,2.444,2.445v14.665c0,0.792-0.383,1.489-0.967,1.936l0.512,0.51
	h1.344c1.351,0,2.443-1.096,2.443-2.445V25.779C59.998,24.429,58.905,23.334,57.555,23.334z"/>
<path fill="#75C6A4" stroke="#335C5F" stroke-width="1.5" stroke-linecap="round" stroke-linejoin="round" stroke-miterlimit="10" d="
	M37.75,42.864c1.185-1.079,2.744-1.752,4.471-1.752c0.447,0,0.884,0.047,1.307,0.131l1.559-2.496l-3.66-5.851
	c-0.539-0.866-1.427-0.866-1.969,0l-3.904,6.246v1.303C35.555,41.709,36.52,42.736,37.75,42.864z"/>
<path fill="#75C6A4" stroke="#335C5F" stroke-width="1.5" stroke-linecap="round" stroke-linejoin="round" stroke-miterlimit="10" d="
	M53.699,42.89c0.331-0.498,0.708-0.962,1.127-1.381l1.385,1.381h1.344c1.351,0,2.443-1.096,2.443-2.445v-2.092l-6.063-9.706
	c-0.697-1.114-1.84-1.114-2.535,0l-7.873,12.596c1.225,0.242,2.315,0.833,3.199,1.646H53.699z"/>
<circle fill="#E9EAEF" stroke="#335C5F" stroke-width="1.5" stroke-linecap="round" stroke-linejoin="round" stroke-miterlimit="10" cx="42.222" cy="47.778" r="6.667"/>
<path fill="#CACCD1" d="M42.222,41.112c-0.576,0-1.133,0.081-1.666,0.218c2.874,0.742,5,3.343,5,6.449c0,3.107-2.125,5.708-5,6.451
	c0.533,0.137,1.089,0.217,1.666,0.217c3.684,0,6.667-2.984,6.667-6.668C48.888,44.095,45.906,41.112,42.222,41.112z"/>
<path fill="#FADF7E" stroke="#335C5F" stroke-width="1.5" stroke-linecap="round" stroke-linejoin="round" stroke-miterlimit="10" d="
	M66.08,52.762v-5.556l8.365,8.367c1.482,1.481,2.222,3.424,2.222,5.363V90H51.103v-5.172L36.667,70.396h23.334V59.255l-5.175-5.175
	c-1.607-1.608-2.604-3.832-2.604-6.285c0-2.456,0.992-4.679,2.604-6.286L66.08,52.762z"/>
<polygon fill="#CACCD1" points="63.858,47.206 63.858,50.542 66.08,52.762 66.08,49.427 "/>
<path fill="#D8C26F" d="M74.446,55.572l-8.366-8.367v3.333l5.033,5.034c1.482,1.481,2.22,3.424,2.22,5.363V90h3.334V60.936
	C76.667,58.996,75.929,57.054,74.446,55.572z"/>
<path fill="none" stroke="#335C5F" stroke-width="1.5" stroke-linecap="round" stroke-linejoin="round" stroke-miterlimit="10" d="
	M50.527,13.662h-5.492H50.527z"/>
<path fill="none" stroke="#335C5F" stroke-width="1.5" stroke-linecap="round" stroke-linejoin="round" stroke-miterlimit="10" d="
	M55.102,13.662h-1.831H55.102z"/>
<path fill="none" stroke="#335C5F" stroke-width="1.5" stroke-linecap="round" stroke-linejoin="round" stroke-miterlimit="10" d="
	M50.068,65.819c0,1.26-1.022,2.286-2.288,2.286c-1.265,0-2.288-1.026-2.288-2.286c0-1.265,1.023-2.29,2.288-2.29
	C49.045,63.529,50.068,64.555,50.068,65.819z"/>
<path fill="#FADF7E" stroke="#335C5F" stroke-width="1.5" stroke-linecap="round" stroke-linejoin="round" stroke-miterlimit="10" d="
	M29.48,22.825l-3.543-3.543c-1.607,1.611-2.603,3.834-2.603,6.287c0,2.456,0.996,4.676,2.603,6.287l3.543,3.54V22.825z"/>
<path fill="#FADF7E" stroke="#335C5F" stroke-width="1.5" stroke-linecap="round" stroke-linejoin="round" stroke-miterlimit="10" d="
	M29.48,35.396l-5.035,5.035v20.413c1.764,0,3.521-0.538,5.035-1.582V35.396z"/>
<path fill="#D8C26F" d="M27.257,60.373c0.778-0.264,1.527-0.63,2.223-1.111V35.396l-2.223,2.222V60.373z"/>
<polygon fill="#D8C26F" points="27.257,33.176 29.48,35.396 29.48,22.825 27.257,20.602 "/>
<circle fill="#FADF7E" stroke="#335C5F" stroke-width="1.5" stroke-linecap="round" stroke-linejoin="round" stroke-miterlimit="10" cx="45.333" cy="28.223" r="3.056"/>
<path fill="#D8C26F" d="M45.333,25.167c-0.393,0-0.766,0.08-1.112,0.215c1.136,0.446,1.945,1.547,1.945,2.84
	c0,1.294-0.809,2.395-1.945,2.84c0.346,0.135,0.719,0.216,1.112,0.216c1.688,0,3.057-1.369,3.057-3.056S47.02,25.167,45.333,25.167z
	"/>
<path fill="#E9EAEF" stroke="#335C5F" stroke-width="1.5" stroke-linecap="round" stroke-linejoin="round" stroke-miterlimit="10" d="
	M52.667,35.556c1.733,0,3.323-0.605,4.578-1.611l-3.311-5.298c-0.697-1.114-1.84-1.114-2.535,0l-3.311,5.299
	C49.345,34.951,50.934,35.556,52.667,35.556z"/>
<path fill="#65AD90" d="M42.222,38.889c-2.497,0-4.752,1.039-6.369,2.702c0.376,0.693,1.073,1.188,1.897,1.274
	c1.185-1.079,2.744-1.752,4.471-1.752c0.447,0,0.884,0.047,1.307,0.131l1.236-1.979C43.958,39.023,43.105,38.889,42.222,38.889z"/>
<path fill="#65AD90" d="M44.763,39.265l-1.237,1.979c1.225,0.242,2.315,0.833,3.199,1.646h2.912
	C48.5,41.169,46.781,39.868,44.763,39.265z"/>
<circle fill="none" stroke="#335C5F" stroke-width="1.5" stroke-linecap="round" stroke-linejoin="round" stroke-miterlimit="10" cx="42.222" cy="47.778" r="6.667"/>
<path fill="none" stroke="#335C5F" stroke-width="1.5" stroke-linecap="round" stroke-linejoin="round" stroke-miterlimit="10" d="
	M29.48,22.825l-3.543-3.543c-1.607,1.611-2.603,3.834-2.603,6.287c0,2.456,0.996,4.676,2.603,6.287l3.543,3.54V22.825z"/>
<path fill="none" stroke="#335C5F" stroke-width="1.5" stroke-linecap="round" stroke-linejoin="round" stroke-miterlimit="10" d="
	M29.48,35.396l-5.035,5.035v20.413c1.764,0,3.521-0.538,5.035-1.582V35.396z"/>
<polygon fill="#D8C26F" points="60.001,73.729 60.001,70.396 36.667,70.396 40,73.729 "/>
<rect x="57.779" y="61.244" fill="#CACCD1" width="2.222" height="9.151"/>
<path fill="#FADF7E" stroke="#335C5F" stroke-width="1.5" stroke-linecap="round" stroke-linejoin="round" stroke-miterlimit="10" d="
	M42.222,51.527c-0.037,0-0.076-0.014-0.104-0.041l-3.127-3.129c-0.003-0.001-0.003-0.004-0.006-0.008
	c-0.181-0.183-0.322-0.395-0.423-0.635c-0.098-0.24-0.15-0.494-0.15-0.754c0-0.262,0.052-0.519,0.15-0.758
	c0.101-0.242,0.245-0.458,0.429-0.643c0.187-0.184,0.401-0.326,0.644-0.427c0.48-0.203,1.032-0.201,1.512,0
	c0.242,0.098,0.46,0.243,0.644,0.427c0.184,0.185,0.328,0.401,0.429,0.643c0,0,0.003,0.004,0.003,0.009
	c0.002-0.004,0.002-0.008,0.006-0.009c0.098-0.242,0.242-0.458,0.425-0.643c0.184-0.184,0.401-0.328,0.644-0.427
	c0.481-0.201,1.032-0.203,1.513,0c0.242,0.101,0.459,0.243,0.644,0.427c0.183,0.185,0.331,0.401,0.428,0.643
	c0.102,0.241,0.15,0.496,0.15,0.758c0,0.259-0.049,0.514-0.15,0.754c-0.101,0.242-0.245,0.457-0.428,0.643l-3.127,3.129
	C42.298,51.514,42.258,51.527,42.222,51.527z"/>
<path fill="none" stroke="#335C5F" stroke-width="1.5" stroke-linecap="round" stroke-linejoin="round" stroke-miterlimit="10" d="
	M69.258,55.94l-3.178-3.179L69.258,55.94z"/>
<path fill="none" stroke="#335C5F" stroke-width="1.5" stroke-linecap="round" stroke-linejoin="round" stroke-miterlimit="10" d="
	M60.001,70.396v4.048V70.396z"/>
<path fill="#3EAED3" d="M61.113,17.324v27.33l-6.285-6.286l-1.572,1.568c-2.099,2.095-3.255,4.886-3.255,7.859
	c0,2.967,1.156,5.757,3.253,7.855l4.525,4.524v1.069h2.222v-1.989l-5.175-5.175c-1.607-1.608-2.604-3.832-2.604-6.285
	c0-2.456,0.992-4.679,2.604-6.286l8.51,8.51V17.324H61.113z"/>
<path fill="none" stroke="#335C5F" stroke-width="1.5" stroke-linecap="round" stroke-linejoin="round" stroke-miterlimit="10" d="
	M60.001,59.255l-5.175-5.175c-1.607-1.608-2.604-3.832-2.604-6.285c0-2.456,0.992-4.679,2.604-6.286L66.08,52.762v-5.556V15.494
	v-0.003c0-3.03-2.459-5.491-5.487-5.491H34.97c-3.035,0-5.49,2.461-5.49,5.491v0.003v49.41c0,3.029,2.458,5.491,5.49,5.491h1.696
	h23.334V59.255z"/>
<path fill="none" stroke="#335C5F" stroke-width="1.5" stroke-linecap="round" stroke-linejoin="round" stroke-miterlimit="10" d="
	M60.001,59.255l-5.175-5.175c-1.607-1.608-2.604-3.832-2.604-6.285c0-2.456,0.992-4.679,2.604-6.286l8.51,8.51V17.324H32.224v43.92
	h27.777V59.255z"/>
<path fill="#65AD90" d="M56.666,33.019v7.187l-1.838-1.838l-1.572,1.568c-0.876,0.875-1.577,1.874-2.109,2.954h2.553
	c0.002-0.002,0.002-0.003,0.004-0.006c0.328-0.495,0.704-0.957,1.123-1.375l0.873,0.871l0,0l0.512,0.51h1.344
	c1.351,0,2.443-1.096,2.443-2.445v-2.092L56.666,33.019z"/>
<path fill="none" stroke="#335C5F" stroke-width="1.5" stroke-linecap="round" stroke-linejoin="round" stroke-miterlimit="10" d="
	M66.08,52.762v-5.556l8.365,8.367c1.482,1.481,2.222,3.424,2.222,5.363V90H51.103v-5.172L36.667,70.396h23.334V59.255l-5.175-5.175
	c-1.607-1.608-2.604-3.832-2.604-6.285c0-2.456,0.992-4.679,2.604-6.286L66.08,52.762z"/>
<path fill="none" stroke="#335C5F" stroke-width="1.5" stroke-linecap="round" stroke-linejoin="round" stroke-miterlimit="10" d="
	M42.222,41.112c1.742,0,3.316,0.682,4.504,1.778h6.974c0.331-0.498,0.708-0.962,1.127-1.381l1.385,1.381h1.344
	c1.351,0,2.443-1.096,2.443-2.445V25.779c0-1.351-1.093-2.445-2.443-2.445H37.999c-1.347,0-2.443,1.095-2.443,2.445v14.666
	c0,1.264,0.964,2.291,2.195,2.419C38.936,41.786,40.494,41.112,42.222,41.112z"/>
<path fill="none" stroke="#335C5F" stroke-width="1.5" stroke-linecap="round" stroke-linejoin="round" stroke-miterlimit="10" d="
	M37.75,42.864c1.185-1.079,2.744-1.752,4.471-1.752c0.447,0,0.884,0.047,1.307,0.131l1.559-2.496l-3.66-5.851
	c-0.539-0.866-1.427-0.866-1.969,0l-3.904,6.246v1.303C35.555,41.709,36.52,42.736,37.75,42.864z"/>
<path fill="none" stroke="#335C5F" stroke-width="1.5" stroke-linecap="round" stroke-linejoin="round" stroke-miterlimit="10" d="
	M53.699,42.89c0.331-0.498,0.708-0.962,1.127-1.381l1.385,1.381h1.344c1.351,0,2.443-1.096,2.443-2.445v-2.092l-6.063-9.706
	c-0.697-1.114-1.84-1.114-2.535,0l-7.873,12.596c1.225,0.242,2.315,0.833,3.199,1.646H53.699z"/>
<circle fill="none" stroke="#335C5F" stroke-width="1.5" stroke-linecap="round" stroke-linejoin="round" stroke-miterlimit="10" cx="45.333" cy="28.223" r="3.056"/>
<path fill="none" stroke="#335C5F" stroke-width="1.5" stroke-linecap="round" stroke-linejoin="round" stroke-miterlimit="10" d="
	M52.667,35.556c1.733,0,3.323-0.605,4.578-1.611l-3.311-5.298c-0.697-1.114-1.84-1.114-2.535,0l-3.311,5.299
	C49.345,34.951,50.934,35.556,52.667,35.556z"/>
</svg>
