<?xml version="1.0" encoding="utf-8"?>
<!-- Generator: Adobe Illustrator 16.0.0, SVG Export Plug-In . SVG Version: 6.00 Build 0)  -->
<!DOCTYPE svg PUBLIC "-//W3C//DTD SVG 1.0//EN" "http://www.w3.org/TR/2001/REC-SVG-20010904/DTD/svg10.dtd">
<svg version="1.0" id="Layer_1" xmlns="http://www.w3.org/2000/svg" xmlns:xlink="http://www.w3.org/1999/xlink" x="0px" y="0px"
	 width="100px" height="100px" viewBox="0 0 100 100" enable-background="new 0 0 100 100" xml:space="preserve">
<path fill="#E9EAEF" stroke="#335C5F" stroke-width="1.5" stroke-linecap="round" stroke-linejoin="round" stroke-miterlimit="10" d="
	M43.751,39.38v-0.003c0-2.797-2.27-5.061-5.066-5.061H15.061c-2.794,0-5.061,2.268-5.061,5.061v0.003v45.559
	C10,87.74,12.27,90,15.061,90h23.624c2.797,0,5.066-2.26,5.066-5.061V39.38z"/>
<path fill="#CACCD1" d="M38.685,34.316h-3.751c2.798,0,5.067,2.264,5.067,5.061v0.003v45.559c0,2.801-2.27,5.061-5.067,5.061h3.751
	c2.797,0,5.066-2.26,5.066-5.061V39.38v-0.003C43.751,36.58,41.481,34.316,38.685,34.316z"/>
<path fill="#E9EAEF" stroke="#335C5F" stroke-width="1.5" stroke-linecap="round" stroke-linejoin="round" stroke-miterlimit="10" d="
	M85.002,10H40.001c-2.75,0-4.999,2.25-4.999,4.999v19.317h3.683c2.797,0,5.066,2.264,5.066,5.061v0.003v40.618h41.251
	C87.752,79.998,90,77.749,90,75V14.999C90,12.25,87.752,10,85.002,10z"/>
<path fill="#CACCD1" d="M85.002,10h-3.751c2.75,0,4.999,2.25,4.999,4.999V75c0,2.749-2.249,4.998-4.999,4.998h3.751
	C87.752,79.998,90,77.749,90,75V14.999C90,12.25,87.752,10,85.002,10z"/>
<rect x="13.617" y="42.034" fill="#46C6F1" stroke="#335C5F" stroke-width="1.5" stroke-linecap="round" stroke-linejoin="round" stroke-miterlimit="10" width="26.515" height="38.568"/>
<rect x="37.631" y="42.034" fill="#3EAED3" width="2.501" height="38.568"/>
<path fill="#46C6F1" stroke="#335C5F" stroke-width="1.5" stroke-linecap="round" stroke-linejoin="round" stroke-miterlimit="10" d="
	M38.75,14.999v19.325c2.766,0.034,5.001,2.28,5.001,5.053v0.003v30.622h42.503V14.999H38.75z"/>
<rect x="43.751" y="19.998" fill="#FADF7E" stroke="#335C5F" stroke-width="1.5" stroke-linecap="round" stroke-linejoin="round" stroke-miterlimit="10" width="9.165" height="7.5"/>
<rect x="43.751" y="32.5" fill="#FADF7E" stroke="#335C5F" stroke-width="1.5" stroke-linecap="round" stroke-linejoin="round" stroke-miterlimit="10" width="9.165" height="7.5"/>
<rect x="43.751" y="45" fill="#FADF7E" stroke="#335C5F" stroke-width="1.5" stroke-linecap="round" stroke-linejoin="round" stroke-miterlimit="10" width="9.165" height="7.499"/>
<rect x="43.751" y="57.498" fill="#FADF7E" stroke="#335C5F" stroke-width="1.5" stroke-linecap="round" stroke-linejoin="round" stroke-miterlimit="10" width="9.165" height="7.501"/>
<rect x="57.918" y="19.998" fill="#FADF7E" stroke="#335C5F" stroke-width="1.5" stroke-linecap="round" stroke-linejoin="round" stroke-miterlimit="10" width="9.169" height="7.5"/>
<rect x="57.918" y="32.5" fill="#FADF7E" stroke="#335C5F" stroke-width="1.5" stroke-linecap="round" stroke-linejoin="round" stroke-miterlimit="10" width="9.169" height="7.5"/>
<rect x="57.918" y="45" fill="#FADF7E" stroke="#335C5F" stroke-width="1.5" stroke-linecap="round" stroke-linejoin="round" stroke-miterlimit="10" width="9.169" height="7.499"/>
<rect x="57.918" y="57.498" fill="#FADF7E" stroke="#335C5F" stroke-width="1.5" stroke-linecap="round" stroke-linejoin="round" stroke-miterlimit="10" width="9.169" height="7.501"/>
<rect x="59.998" y="72.503" fill="none" stroke="#335C5F" stroke-width="1.5" stroke-linecap="round" stroke-linejoin="round" stroke-miterlimit="10" width="5.005" height="4.998"/>
<path fill="none" stroke="#335C5F" stroke-width="1.5" stroke-linecap="round" stroke-linejoin="round" stroke-miterlimit="10" d="
	M29.407,37.693h-5.062H29.407z"/>
<path fill="none" stroke="#335C5F" stroke-width="1.5" stroke-linecap="round" stroke-linejoin="round" stroke-miterlimit="10" d="
	M33.627,37.693h-1.688H33.627z"/>
<path fill="none" stroke="#335C5F" stroke-width="1.5" stroke-linecap="round" stroke-linejoin="round" stroke-miterlimit="10" d="
	M28.986,85.298c0,1.164-0.943,2.115-2.108,2.115c-1.164,0-2.108-0.951-2.108-2.115s0.944-2.109,2.108-2.109
	C28.042,83.188,28.986,84.134,28.986,85.298z"/>
<rect x="18.616" y="69.412" fill="#FADF7E" stroke="#335C5F" stroke-width="1.5" stroke-linecap="round" stroke-linejoin="round" stroke-miterlimit="10" width="16.517" height="6.191"/>
<rect x="18.616" y="47.033" fill="#FADF7E" stroke="#335C5F" stroke-width="1.5" stroke-linecap="round" stroke-linejoin="round" stroke-miterlimit="10" width="16.517" height="6.189"/>
<rect x="18.616" y="58.222" fill="#FADF7E" stroke="#335C5F" stroke-width="1.5" stroke-linecap="round" stroke-linejoin="round" stroke-miterlimit="10" width="16.517" height="6.192"/>
<rect x="31.382" y="69.412" fill="#D8C26F" width="3.75" height="6.191"/>
<rect x="31.382" y="47.033" fill="#D8C26F" width="3.75" height="6.189"/>
<rect x="31.382" y="58.222" fill="#D8C26F" width="3.75" height="6.192"/>
<rect x="72.087" y="19.998" fill="#FADF7E" stroke="#335C5F" stroke-width="1.5" stroke-linecap="round" stroke-linejoin="round" stroke-miterlimit="10" width="9.166" height="7.5"/>
<rect x="72.087" y="32.5" fill="#FADF7E" stroke="#335C5F" stroke-width="1.5" stroke-linecap="round" stroke-linejoin="round" stroke-miterlimit="10" width="9.166" height="7.5"/>
<rect x="72.087" y="45" fill="#FADF7E" stroke="#335C5F" stroke-width="1.5" stroke-linecap="round" stroke-linejoin="round" stroke-miterlimit="10" width="9.166" height="7.499"/>
<rect x="72.087" y="57.498" fill="#FADF7E" stroke="#335C5F" stroke-width="1.5" stroke-linecap="round" stroke-linejoin="round" stroke-miterlimit="10" width="9.166" height="7.501"/>
<rect x="77.503" y="19.998" fill="#D8C26F" width="3.75" height="7.5"/>
<rect x="77.503" y="32.5" fill="#D8C26F" width="3.75" height="7.501"/>
<rect x="77.503" y="45.001" fill="#D8C26F" width="3.75" height="7.499"/>
<rect x="77.503" y="57.499" fill="#D8C26F" width="3.75" height="7.501"/>
<rect x="63.337" y="19.998" fill="#D8C26F" width="3.75" height="7.5"/>
<rect x="63.337" y="32.5" fill="#D8C26F" width="3.75" height="7.501"/>
<rect x="63.337" y="45.001" fill="#D8C26F" width="3.75" height="7.499"/>
<rect x="63.337" y="57.499" fill="#D8C26F" width="3.75" height="7.501"/>
<rect x="49.166" y="19.998" fill="#D8C26F" width="3.75" height="7.5"/>
<rect x="49.166" y="32.5" fill="#D8C26F" width="3.75" height="7.501"/>
<rect x="49.166" y="45.001" fill="#D8C26F" width="3.75" height="7.499"/>
<rect x="49.166" y="57.499" fill="#D8C26F" width="3.75" height="7.501"/>
<rect x="83.753" y="14.999" fill="#3EAED3" width="2.501" height="55.003"/>
<path fill="none" stroke="#335C5F" stroke-width="1.5" stroke-linecap="round" stroke-linejoin="round" stroke-miterlimit="10" d="
	M43.751,39.38v-0.003c0-2.797-2.27-5.061-5.066-5.061H15.061c-2.794,0-5.061,2.268-5.061,5.061v0.003v45.559
	C10,87.74,12.27,90,15.061,90h23.624c2.797,0,5.066-2.26,5.066-5.061V39.38z"/>
<path fill="none" stroke="#335C5F" stroke-width="1.5" stroke-linecap="round" stroke-linejoin="round" stroke-miterlimit="10" d="
	M85.002,10H40.001c-2.75,0-4.999,2.25-4.999,4.999v19.317h3.683c2.797,0,5.066,2.264,5.066,5.061v0.003v40.618h41.251
	C87.752,79.998,90,77.749,90,75V14.999C90,12.25,87.752,10,85.002,10z"/>
<rect x="13.617" y="42.034" fill="none" stroke="#335C5F" stroke-width="1.5" stroke-linecap="round" stroke-linejoin="round" stroke-miterlimit="10" width="26.515" height="38.568"/>
<path fill="none" stroke="#335C5F" stroke-width="1.5" stroke-linecap="round" stroke-linejoin="round" stroke-miterlimit="10" d="
	M38.75,14.999v19.325c2.766,0.034,5.001,2.28,5.001,5.053v0.003v30.622h42.503V14.999H38.75z"/>
<rect x="43.751" y="19.998" fill="none" stroke="#335C5F" stroke-width="1.5" stroke-linecap="round" stroke-linejoin="round" stroke-miterlimit="10" width="9.165" height="7.5"/>
<rect x="43.751" y="32.5" fill="none" stroke="#335C5F" stroke-width="1.5" stroke-linecap="round" stroke-linejoin="round" stroke-miterlimit="10" width="9.165" height="7.5"/>
<rect x="43.751" y="45" fill="none" stroke="#335C5F" stroke-width="1.5" stroke-linecap="round" stroke-linejoin="round" stroke-miterlimit="10" width="9.165" height="7.499"/>
<rect x="43.751" y="57.498" fill="none" stroke="#335C5F" stroke-width="1.5" stroke-linecap="round" stroke-linejoin="round" stroke-miterlimit="10" width="9.165" height="7.501"/>
<rect x="57.918" y="19.998" fill="none" stroke="#335C5F" stroke-width="1.5" stroke-linecap="round" stroke-linejoin="round" stroke-miterlimit="10" width="9.169" height="7.5"/>
<rect x="57.918" y="32.5" fill="none" stroke="#335C5F" stroke-width="1.5" stroke-linecap="round" stroke-linejoin="round" stroke-miterlimit="10" width="9.169" height="7.5"/>
<rect x="57.918" y="45" fill="none" stroke="#335C5F" stroke-width="1.5" stroke-linecap="round" stroke-linejoin="round" stroke-miterlimit="10" width="9.169" height="7.499"/>
<rect x="57.918" y="57.498" fill="none" stroke="#335C5F" stroke-width="1.5" stroke-linecap="round" stroke-linejoin="round" stroke-miterlimit="10" width="9.169" height="7.501"/>
<rect x="18.616" y="69.412" fill="none" stroke="#335C5F" stroke-width="1.5" stroke-linecap="round" stroke-linejoin="round" stroke-miterlimit="10" width="16.517" height="6.191"/>
<rect x="18.616" y="47.033" fill="none" stroke="#335C5F" stroke-width="1.5" stroke-linecap="round" stroke-linejoin="round" stroke-miterlimit="10" width="16.517" height="6.189"/>
<rect x="18.616" y="58.222" fill="none" stroke="#335C5F" stroke-width="1.5" stroke-linecap="round" stroke-linejoin="round" stroke-miterlimit="10" width="16.517" height="6.192"/>
<rect x="72.087" y="19.998" fill="none" stroke="#335C5F" stroke-width="1.5" stroke-linecap="round" stroke-linejoin="round" stroke-miterlimit="10" width="9.166" height="7.5"/>
<rect x="72.087" y="32.5" fill="none" stroke="#335C5F" stroke-width="1.5" stroke-linecap="round" stroke-linejoin="round" stroke-miterlimit="10" width="9.166" height="7.5"/>
<rect x="72.087" y="45" fill="none" stroke="#335C5F" stroke-width="1.5" stroke-linecap="round" stroke-linejoin="round" stroke-miterlimit="10" width="9.166" height="7.499"/>
<rect x="72.087" y="57.498" fill="none" stroke="#335C5F" stroke-width="1.5" stroke-linecap="round" stroke-linejoin="round" stroke-miterlimit="10" width="9.166" height="7.501"/>
</svg>
