<?xml version="1.0" encoding="utf-8"?>
<!-- Generator: Adobe Illustrator 16.0.0, SVG Export Plug-In . SVG Version: 6.00 Build 0)  -->
<!DOCTYPE svg PUBLIC "-//W3C//DTD SVG 1.0//EN" "http://www.w3.org/TR/2001/REC-SVG-20010904/DTD/svg10.dtd">
<svg version="1.0" id="Layer_1" xmlns="http://www.w3.org/2000/svg" xmlns:xlink="http://www.w3.org/1999/xlink" x="0px" y="0px"
	 width="100px" height="100px" viewBox="0 0 100 100" enable-background="new 0 0 100 100" xml:space="preserve">
<polygon fill="#46C6F1" stroke="#335C5F" stroke-width="1.5" stroke-linecap="round" stroke-linejoin="round" stroke-miterlimit="10" points="
	68.572,30 25.715,30 31.428,24.287 62.859,24.287 "/>
<polygon fill="#3EAED3" points="62.859,24.287 58.573,24.287 64.286,30 68.572,30 "/>
<path fill="#46C6F1" stroke="#335C5F" stroke-width="1.5" stroke-linecap="round" stroke-linejoin="round" stroke-miterlimit="10" d="
	M21.428,32.858c0-1.579,1.279-2.858,2.858-2.858h45.715c1.579,0,2.858,1.279,2.858,2.858H21.428z"/>
<path fill="#3EAED3" d="M70.001,30h-4.285c1.578,0,2.858,1.279,2.858,2.858h4.285C72.859,31.279,71.58,30,70.001,30z"/>
<path fill="#E9EAEF" stroke="#335C5F" stroke-width="1.5" stroke-linecap="round" stroke-linejoin="round" stroke-miterlimit="10" d="
	M27.747,49.118c6.56-2.042,13.398-1.603,19.399,0.882c6.335,2.626,13.071,2.796,19.162,0.961l2.265-18.103H25.715L27.747,49.118z"/>
<path fill="#CACCD1" d="M64.286,32.858l-2.383,19.055c1.494-0.202,2.968-0.52,4.404-0.952l2.265-18.103H64.286z"/>
<path fill="#FADF7E" stroke="#335C5F" stroke-width="1.5" stroke-linecap="round" stroke-linejoin="round" stroke-miterlimit="10" d="
	M27.747,49.118c6.56-2.042,13.398-1.603,19.399,0.882c6.335,2.626,13.071,2.796,19.162,0.961L61.43,90H32.857L27.747,49.118z"/>
<path fill="#D8C26F" d="M61.902,51.913L57.144,90h4.286l4.878-39.039C64.871,51.394,63.397,51.711,61.902,51.913z"/>
<polygon fill="#75C6A4" stroke="#335C5F" stroke-width="1.5" stroke-linecap="round" stroke-linejoin="round" stroke-miterlimit="10" points="
	53.862,32.858 37.298,72.857 40.385,72.857 56.953,32.858 "/>
<path fill="#75C6A4" stroke="#335C5F" stroke-width="1.5" stroke-linecap="round" stroke-linejoin="round" stroke-miterlimit="10" d="
	M67.143,10c-0.771,0-1.512,0.155-2.186,0.435c-0.696,0.287-1.326,0.71-1.854,1.236v0.01c-0.528,0.525-0.949,1.153-1.24,1.85
	L57.41,24.287h3.091l4.004-9.664c0.146-0.349,0.354-0.664,0.618-0.925v-0.006c0.264-0.262,0.578-0.473,0.929-0.618
	c0.335-0.138,0.705-0.216,1.091-0.216h11.43V10H67.143z"/>
<circle fill="#E9EAEF" stroke="#335C5F" stroke-width="1.5" stroke-linecap="round" stroke-linejoin="round" stroke-miterlimit="10" cx="34.287" cy="54.284" r="1.429"/>
<circle fill="#E9EAEF" stroke="#335C5F" stroke-width="1.5" stroke-linecap="round" stroke-linejoin="round" stroke-miterlimit="10" cx="52.859" cy="57.143" r="1.429"/>
<path fill="#E9EAEF" stroke="#335C5F" stroke-width="1.5" stroke-linecap="round" stroke-linejoin="round" stroke-miterlimit="10" d="
	M37.141,61.428c0,0.789-0.638,1.428-1.425,1.428c-0.792,0-1.429-0.639-1.429-1.428s0.638-1.427,1.429-1.427
	C36.503,60.001,37.141,60.639,37.141,61.428z"/>
<path fill="#E9EAEF" stroke="#335C5F" stroke-width="1.5" stroke-linecap="round" stroke-linejoin="round" stroke-miterlimit="10" d="
	M47.142,84.285c0,0.792-0.638,1.43-1.425,1.43c-0.792,0-1.429-0.638-1.429-1.43c0-0.787,0.638-1.427,1.429-1.427
	C46.504,82.858,47.142,83.498,47.142,84.285z"/>
<path fill="#E9EAEF" stroke="#335C5F" stroke-width="1.5" stroke-linecap="round" stroke-linejoin="round" stroke-miterlimit="10" d="
	M58.571,75.714c0,0.792-0.638,1.43-1.429,1.43c-0.788,0-1.426-0.638-1.426-1.43c0-0.789,0.638-1.429,1.426-1.429
	C57.934,74.285,58.571,74.925,58.571,75.714z"/>
<path fill="#E9EAEF" stroke="#335C5F" stroke-width="1.5" stroke-linecap="round" stroke-linejoin="round" stroke-miterlimit="10" d="
	M52.858,67.143c0,0.791-0.638,1.43-1.429,1.43c-0.788,0-1.426-0.639-1.426-1.43c0-0.789,0.638-1.429,1.426-1.429
	C52.221,65.714,52.858,66.354,52.858,67.143z"/>
<path fill="#E9EAEF" stroke="#335C5F" stroke-width="1.5" stroke-linecap="round" stroke-linejoin="round" stroke-miterlimit="10" d="
	M60.717,64.284c0,1.186-0.96,2.144-2.142,2.144c-1.185,0-2.146-0.958-2.146-2.144c0-1.181,0.961-2.142,2.146-2.142
	C59.757,62.143,60.717,63.104,60.717,64.284z"/>
<path fill="#E9EAEF" stroke="#335C5F" stroke-width="1.5" stroke-linecap="round" stroke-linejoin="round" stroke-miterlimit="10" d="
	M50.717,75.714c0,1.186-0.961,2.142-2.142,2.142c-1.185,0-2.146-0.956-2.146-2.142c0-1.183,0.961-2.142,2.146-2.142
	C49.756,73.572,50.717,74.531,50.717,75.714z"/>
<path fill="#E9EAEF" stroke="#335C5F" stroke-width="1.5" stroke-linecap="round" stroke-linejoin="round" stroke-miterlimit="10" d="
	M56.43,84.287c0,1.184-0.961,2.14-2.142,2.14c-1.186,0-2.146-0.956-2.146-2.14c0-1.185,0.961-2.142,2.146-2.142
	C55.469,82.146,56.43,83.103,56.43,84.287z"/>
<path fill="#E9EAEF" stroke="#335C5F" stroke-width="1.5" stroke-linecap="round" stroke-linejoin="round" stroke-miterlimit="10" d="
	M40.716,80c0,1.183-0.96,2.144-2.142,2.144c-1.185,0-2.146-0.961-2.146-2.144c0-1.184,0.961-2.145,2.146-2.145
	C39.755,77.855,40.716,78.816,40.716,80z"/>
<polygon fill="none" stroke="#335C5F" stroke-width="1.5" stroke-linecap="round" stroke-linejoin="round" stroke-miterlimit="10" points="
	68.572,30 25.715,30 31.428,24.287 62.859,24.287 "/>
<path fill="none" stroke="#335C5F" stroke-width="1.5" stroke-linecap="round" stroke-linejoin="round" stroke-miterlimit="10" d="
	M21.428,32.858c0-1.579,1.279-2.858,2.858-2.858h45.715c1.579,0,2.858,1.279,2.858,2.858H21.428z"/>
<path fill="none" stroke="#335C5F" stroke-width="1.5" stroke-linecap="round" stroke-linejoin="round" stroke-miterlimit="10" d="
	M27.747,49.118c6.56-2.042,13.398-1.603,19.399,0.882c6.335,2.626,13.071,2.796,19.162,0.961l2.265-18.103H25.715L27.747,49.118z"/>
<path fill="none" stroke="#335C5F" stroke-width="1.5" stroke-linecap="round" stroke-linejoin="round" stroke-miterlimit="10" d="
	M27.747,49.118c6.56-2.042,13.398-1.603,19.399,0.882c6.335,2.626,13.071,2.796,19.162,0.961L61.43,90H32.857L27.747,49.118z"/>
</svg>
