<?xml version="1.0" encoding="utf-8"?>
<!-- Generator: Adobe Illustrator 19.2.0, SVG Export Plug-In . SVG Version: 6.00 Build 0)  -->
<svg version="1.1" id="Layer_1" xmlns="http://www.w3.org/2000/svg" xmlns:xlink="http://www.w3.org/1999/xlink" x="0px" y="0px"
	 viewBox="0 0 500 500" style="enable-background:new 0 0 500 500;" xml:space="preserve">
<style type="text/css">
	.st0{fill:#ECF4F7;}
	.st1{fill:#1C1D21;}
	.st2{fill:#f7f7f7;}
	.st3{fill:#AAB1BA;}
	.st4{fill:none;stroke:#1C1D21;stroke-width:10;stroke-linecap:round;stroke-linejoin:round;stroke-miterlimit:10;}
	.st5{fill:#FDDF7F;}
	.st6{fill:#FFFFFF;}
</style>
<g>
	<g>
		<g>
			<path class="st0" d="M495,238.4L495,238.4c0-19.1-15.5-34.5-34.5-34.5h-26.3h-32.1h-3.9h-13.7c-36.5,0-63.2-34.3-54.3-69.6
				l12.1-48.3c4.5-18.1-0.8-37.3-14-50.5c-10-10-23.5-15.6-37.6-15.6h-19.5l0,0c0,59.3-30.1,114.6-80,146.7l-57.9,37.3v226.6
				c0,27.4,22.2,49.7,49.7,49.7h190.4h24.8h29.3h4.2c19.1,0,34.5-15.5,34.5-34.5v0c0-19.1-15.5-34.5-34.5-34.5h9.6
				c19.1,0,34.5-15.5,34.5-34.5l0,0c0-19.1-15.5-34.5-34.5-34.5h9.6c19.1,0,34.5-15.5,34.5-34.5l0,0c0-19.1-15.5-34.5-34.5-34.5h9.6
				C479.5,272.9,495,257.5,495,238.4z"/>
		</g>
	</g>
	<g>
		<g>
			<g>
				<path class="st2" d="M5,317.9v162.2h96.1c17.8,0,32.2-14.4,32.2-32.2V203.9H5v30.8"/>
			</g>
		</g>
		<g>
			<g>
				<path class="st1" d="M101.1,485.2H5c-2.8,0-5-2.2-5-5V302.9c0-2.8,2.2-5,5-5c2.8,0,5,2.2,5,5v172.3h91.1
					c15,0,27.2-12.2,27.2-27.2V208.9H10v25.8c0,2.8-2.2,5-5,5c-2.8,0-5-2.2-5-5v-30.8c0-2.8,2.2-5,5-5h128.4c2.8,0,5,2.2,5,5v244.1
					C138.4,468.5,121.7,485.2,101.1,485.2z"/>
			</g>
		</g>
		<g>
			<g>
				<path class="st1" d="M5,283.2c-2.8,0-5-2.2-5-5v-14c0-2.8,2.2-5,5-5c2.8,0,5,2.2,5,5v14C10,281,7.8,283.2,5,283.2z"/>
			</g>
		</g>
	</g>
	<g>
		<g>
			<path class="st1" d="M431.7,485.2H183c-30.1,0-54.7-24.5-54.7-54.7V203.9c0-1.7,0.9-3.3,2.3-4.2l57.9-37.3
				c48.7-31.4,77.7-84.6,77.7-142.5c0-2.8,2.2-5,5-5h19.5c15.5,0,30.1,6.1,41.1,17c14.4,14.4,20.2,35.5,15.3,55.3L335,135.5
				c-3.8,15.4-0.5,31.3,9.3,43.8c9.7,12.5,24.4,19.6,40.2,19.6h75.9c21.8,0,39.5,17.7,39.5,39.5c0,17-10.8,31.5-25.9,37.1
				c9.9,7.2,16.3,18.8,16.3,32c0,17-10.8,31.5-25.9,37.1c9.9,7.2,16.3,18.8,16.3,32c0,17-10.8,31.5-25.9,37.1
				c9.9,7.2,16.3,18.8,16.3,32C471.3,467.4,453.5,485.2,431.7,485.2z M138.4,206.6v223.9c0,24.6,20,44.7,44.7,44.7h248.7
				c16.3,0,29.5-13.2,29.5-29.5c0-16.3-13.2-29.5-29.5-29.5c-2.8,0-5-2.2-5-5c0-2.8,2.2-5,5-5h9.6c16.3,0,29.5-13.2,29.5-29.5
				c0-16.3-13.2-29.5-29.5-29.5c-2.8,0-5-2.2-5-5c0-2.8,2.2-5,5-5h9.6c16.3,0,29.5-13.2,29.5-29.5c0-16.3-13.2-29.5-29.5-29.5
				c-2.8,0-5-2.2-5-5c0-2.8,2.2-5,5-5h9.6c16.3,0,29.5-13.2,29.5-29.5c0-16.3-13.2-29.5-29.5-29.5h-75.9c-18.9,0-36.5-8.6-48.1-23.5
				c-11.6-14.9-15.7-34-11.1-52.4l12.1-48.3c4.1-16.3-0.8-33.9-12.7-45.8c-9.1-9.1-21.2-14.1-34.1-14.1h-14.6
				c-1.6,59.4-32.1,113.6-82.2,145.9L138.4,206.6z"/>
		</g>
	</g>
	<g>
		<g>
			<g>
				<circle class="st5" cx="69.2" cy="420" r="27"/>
			</g>
		</g>
		<g>
			<g>
				<path class="st1" d="M69.2,452c-17.7,0-32-14.4-32-32c0-17.7,14.4-32,32-32s32,14.4,32,32C101.2,437.7,86.8,452,69.2,452z
					 M69.2,397.9c-12.2,0-22,9.9-22,22c0,12.2,9.9,22,22,22c12.2,0,22-9.9,22-22C91.2,407.8,81.3,397.9,69.2,397.9z"/>
			</g>
		</g>
	</g>
</g>
</svg>
