<?xml version="1.0" encoding="utf-8"?>
<!-- Generator: Adobe Illustrator 19.2.0, SVG Export Plug-In . SVG Version: 6.00 Build 0)  -->
<svg version="1.1" id="Layer_1" xmlns="http://www.w3.org/2000/svg" xmlns:xlink="http://www.w3.org/1999/xlink" x="0px" y="0px"
	 viewBox="0 0 500 500" style="enable-background:new 0 0 500 500;" xml:space="preserve">
<style type="text/css">
	.st0{fill:#ECF4F7;}
	.st1{fill:#1C1D21;}
	.st2{fill:#f7f7f7;}
	.st3{fill:#AAB1BA;}
	.st4{fill:none;stroke:#1C1D21;stroke-width:10;stroke-linecap:round;stroke-linejoin:round;stroke-miterlimit:10;}
	.st5{fill:#FDDF7F;}
	.st6{fill:#FFFFFF;}
</style>
<g>
	<g>
		<g>
			<g>
				<path class="st3" d="M396.6,465.9h71.5c17.6,0,31.9-14.3,31.9-31.9v-26c0-21.3-13.4-40.3-33.5-47.4L425.6,346
					c-10.9-3.9-13.2-18.4-3.9-25.2c17.7-13,29.2-34,29.2-57.7v0c0-39.6-32.1-71.6-71.6-71.6h0c-16.3,0-31.3,5.4-43.3,14.6H164
					c-12-9.1-27-14.6-43.3-14.6h0c-39.6,0-71.6,32.1-71.6,71.6v0c0,23.7,11.5,44.7,29.2,57.7c9.3,6.8,6.9,21.3-3.9,25.2l-40.9,14.5
					C13.4,367.7,0,386.7,0,408v26c0,17.6,14.3,31.9,31.9,31.9h71.5H396.6z"/>
			</g>
		</g>
		<g>
			<g>
				<path class="st2" d="M396.2,463v-38.2c0-25.8-16.2-48.8-40.6-57.5l-49.5-17.6c-13.1-4.7-16-22.2-4.7-30.5
					c21.5-15.8,35.4-41.2,35.4-69.9v0c0-47.9-38.9-86.8-86.8-86.8h0c-47.9,0-86.8,38.9-86.8,86.8v0c0,28.7,13.9,54.1,35.4,69.9
					c11.2,8.3,8.4,25.8-4.7,30.5l-49.5,17.6c-24.3,8.6-40.6,31.7-40.6,57.5V463c0,17.6,14.3,31.9,31.9,31.9h228.7
					C381.9,494.8,396.2,480.6,396.2,463z"/>
			</g>
		</g>
		<g>
			<g>
				<path class="st1" d="M364.3,499.8H135.7c-20.3,0-36.9-16.5-36.9-36.9v-38.2c0-27.9,17.6-52.8,43.9-62.2l49.5-17.6
					c4.5-1.6,7.6-5.4,8.3-10.1c0.7-4.6-1.1-9-4.8-11.7c-20.4-15-33.8-38-36.8-63c-0.3-2.7,1.6-5.2,4.4-5.6c2.8-0.3,5.2,1.6,5.6,4.4
					c2.7,22.3,14.6,42.7,32.8,56.1c6.7,5,10,12.9,8.8,21.2c-1.2,8.3-6.9,15.2-14.8,18L146,372c-22.3,7.9-37.2,29.1-37.2,52.7V463
					c0,14.8,12.1,26.9,26.9,26.9h228.7c14.8,0,26.9-12.1,26.9-26.9v-38.2c0-23.6-15-44.8-37.2-52.7l-49.5-17.6
					c-7.9-2.8-13.6-9.7-14.8-18c-1.2-8.3,2.1-16.2,8.8-21.2c20.9-15.4,33.3-40,33.3-65.9c0-45.1-36.7-81.8-81.8-81.8
					c-7.3,0-14.6,1-21.6,2.9c-4,1.1-7.9,2.5-11.7,4.2c-2.5,1.1-5.5,0-6.6-2.5c-1.1-2.5,0-5.5,2.5-6.6c4.2-1.9,8.6-3.5,13.1-4.7
					c7.9-2.1,16-3.2,24.2-3.2c50.6,0,91.8,41.2,91.8,91.8c0,29-14,56.7-37.4,73.9c-3.7,2.7-5.5,7.1-4.8,11.7
					c0.7,4.7,3.8,8.5,8.3,10.1l49.5,17.6c26.3,9.3,43.9,34.3,43.9,62.2V463C401.2,483.3,384.7,499.8,364.3,499.8z"/>
			</g>
		</g>
		<g>
			<g>
				<path class="st1" d="M167.2,228.3c-0.5,0-1-0.1-1.5-0.2c-2.6-0.8-4.1-3.6-3.3-6.3c4.5-14.3,12.5-27.4,23.2-38
					c2-1.9,5.1-1.9,7.1,0.1c1.9,2,1.9,5.1-0.1,7.1c-9.5,9.4-16.7,21.1-20.7,33.8C171.3,227,169.3,228.3,167.2,228.3z"/>
			</g>
		</g>
	</g>
	<g>
		<g>
			<g>
				<path class="st5" d="M359.7,5.2c-15,0-27.2,12.2-27.2,27.2V139v23.7c0,5.9,7,9,11.4,5.1l24.4-21.9c5-4.5,11.5-7,18.2-7h81.3
					c15,0,27.2-12.2,27.2-27.2V32.4c0-15-12.2-27.2-27.2-27.2H359.7z"/>
			</g>
		</g>
		<g>
			<g>
				<path class="st1" d="M339.4,174.6c-1.6,0-3.3-0.3-4.9-1.1c-4.3-1.9-7-6.1-7-10.8V32.4c0-17.8,14.5-32.2,32.2-32.2h108
					c17.8,0,32.2,14.5,32.2,32.2v79.4c0,17.8-14.5,32.2-32.2,32.2h-81.3c-5.5,0-10.7,2-14.8,5.7l-24.4,21.9
					C345,173.6,342.3,174.6,339.4,174.6z M359.7,10.2c-12.3,0-22.2,10-22.2,22.2v130.4c0,1,0.7,1.5,1.1,1.7c0.4,0.2,1.2,0.4,2-0.3
					l24.4-21.9c5.9-5.3,13.6-8.2,21.5-8.2h81.3c12.3,0,22.2-10,22.2-22.2V32.4c0-12.3-10-22.2-22.2-22.2H359.7z"/>
			</g>
		</g>
	</g>
</g>
</svg>
