<?xml version="1.0" encoding="utf-8"?>
<!-- Generator: Adobe Illustrator 19.2.0, SVG Export Plug-In . SVG Version: 6.00 Build 0)  -->
<svg version="1.1" id="Layer_1" xmlns="http://www.w3.org/2000/svg" xmlns:xlink="http://www.w3.org/1999/xlink" x="0px" y="0px"
	 viewBox="0 0 500 500" style="enable-background:new 0 0 500 500;" xml:space="preserve">
<style type="text/css">
	.st0{fill:#ECF4F7;}
	.st1{fill:#1C1D21;}
	.st2{fill:#f7f7f7;}
	.st3{fill:#AAB1BA;}
	.st4{fill:none;stroke:#1C1D21;stroke-width:10;stroke-linecap:round;stroke-linejoin:round;stroke-miterlimit:10;}
	.st5{fill:#FDDF7F;}
	.st6{fill:#FFFFFF;}
</style>
<g>
	<g>
		<g>
			<path class="st3" d="M103,108.9l270.8-53c11.9-2.3,23,6.9,23,19v34H103z"/>
		</g>
	</g>
	<g>
		<g>
			<path class="st3" d="M103,108.9L329.6,6.7c12.2-5.5,26.1,3.4,26.1,16.9v35.9L103,108.9z"/>
		</g>
	</g>
	<g>
		<g>
			<path class="st0" d="M399.8,495H100.2c-11,0-20-9-20-20V128.9c0-11,9-20,20-20h299.7c11,0,20,9,20,20V475
				C419.8,486,410.9,495,399.8,495z"/>
		</g>
	</g>
	<g>
		<g>
			<path class="st1" d="M399.8,500H100.2c-13.8,0-25-11.2-25-25V128.9c0-13.8,11.2-25,25-25h299.7c13.8,0,25,11.2,25,25V475
				C424.8,488.8,413.6,500,399.8,500z M100.2,113.9c-8.3,0-15,6.7-15,15V475c0,8.3,6.7,15,15,15h299.7c8.3,0,15-6.7,15-15V128.9
				c0-8.3-6.7-15-15-15H100.2z"/>
		</g>
	</g>
	<g>
		<g>
			<path class="st1" d="M396.8,113.9H103c-2.6,0-4.7-2-5-4.5c-0.2-2.6,1.5-4.9,4-5.4l270.8-53c7.2-1.4,14.5,0.5,20.1,5.1
				c5.6,4.6,8.9,11.5,8.9,18.8v34C401.8,111.6,399.5,113.9,396.8,113.9z M154.5,103.9h237.2v-29c0-4.3-1.9-8.3-5.2-11.1
				c-3.3-2.7-7.6-3.8-11.9-3L154.5,103.9z"/>
		</g>
	</g>
	<g>
		<g>
			<path class="st1" d="M103,113.9c-2.1,0-4.1-1.4-4.8-3.5c-0.8-2.4,0.4-5,2.7-6.1L327.5,2.1c7.3-3.3,15.7-2.7,22.4,1.7
				c6.7,4.3,10.7,11.7,10.7,19.7v35.9c0,2.4-1.7,4.4-4,4.9l-252.7,49.5C103.6,113.8,103.3,113.9,103,113.9z M337.2,10
				c-1.9,0-3.8,0.4-5.6,1.2L144.4,95.7l206.2-40.4V23.5c0-4.7-2.2-8.8-6.2-11.3C342.2,10.7,339.7,10,337.2,10z"/>
		</g>
	</g>
	<g>
		<g>
			<g>
				<path class="st5" d="M211,259.6h-76.3c-5.5,0-10-4.5-10-10v-83.9c0-5.5,4.5-10,10-10H211c5.5,0,10,4.5,10,10v83.9
					C221,255.1,216.5,259.6,211,259.6z"/>
			</g>
		</g>
		<g>
			<g>
				<path class="st1" d="M211,264.6h-76.3c-8.3,0-15-6.7-15-15v-83.9c0-8.3,6.7-15,15-15H211c8.3,0,15,6.7,15,15v83.9
					C226,257.8,219.3,264.6,211,264.6z M134.7,160.7c-2.8,0-5,2.2-5,5v83.9c0,2.8,2.2,5,5,5H211c2.8,0,5-2.2,5-5v-83.9
					c0-2.8-2.2-5-5-5H134.7z"/>
			</g>
		</g>
	</g>
	<g>
		<g>
			<path class="st1" d="M378.3,160.7H250c-2.8,0-5-2.2-5-5s2.2-5,5-5h128.3c2.8,0,5,2.2,5,5S381.1,160.7,378.3,160.7z"/>
		</g>
	</g>
	<g>
		<g>
			<path class="st1" d="M378.3,195.5H250c-2.8,0-5-2.2-5-5s2.2-5,5-5h128.3c2.8,0,5,2.2,5,5S381.1,195.5,378.3,195.5z"/>
		</g>
	</g>
	<g>
		<g>
			<path class="st1" d="M378.3,230.4H250c-2.8,0-5-2.2-5-5s2.2-5,5-5h128.3c2.8,0,5,2.2,5,5S381.1,230.4,378.3,230.4z"/>
		</g>
	</g>
	<g>
		<g>
			<path class="st1" d="M378.3,265.3H250c-2.8,0-5-2.2-5-5s2.2-5,5-5h128.3c2.8,0,5,2.2,5,5S381.1,265.3,378.3,265.3z"/>
		</g>
	</g>
	<g>
		<g>
			<path class="st1" d="M378.3,300.1H128.7c-2.8,0-5-2.2-5-5s2.2-5,5-5h249.7c2.8,0,5,2.2,5,5S381.1,300.1,378.3,300.1z"/>
		</g>
	</g>
	<g>
		<g>
			<path class="st1" d="M378.3,335H128.7c-2.8,0-5-2.2-5-5s2.2-5,5-5h249.7c2.8,0,5,2.2,5,5S381.1,335,378.3,335z"/>
		</g>
	</g>
	<g>
		<g>
			<path class="st1" d="M378.3,369.9H128.7c-2.8,0-5-2.2-5-5s2.2-5,5-5h249.7c2.8,0,5,2.2,5,5S381.1,369.9,378.3,369.9z"/>
		</g>
	</g>
	<g>
		<g>
			<path class="st1" d="M378.3,404.7H128.7c-2.8,0-5-2.2-5-5s2.2-5,5-5h249.7c2.8,0,5,2.2,5,5S381.1,404.7,378.3,404.7z"/>
		</g>
	</g>
</g>
</svg>
