<?xml version="1.0" encoding="utf-8"?>
<!-- Generator: Adobe Illustrator 16.0.0, SVG Export Plug-In . SVG Version: 6.00 Build 0)  -->
<!DOCTYPE svg PUBLIC "-//W3C//DTD SVG 1.0//EN" "http://www.w3.org/TR/2001/REC-SVG-20010904/DTD/svg10.dtd">
<svg version="1.0" id="Layer_1" xmlns="http://www.w3.org/2000/svg" xmlns:xlink="http://www.w3.org/1999/xlink" x="0px" y="0px"
	 width="100px" height="100px" viewBox="0 0 100 100" enable-background="new 0 0 100 100" xml:space="preserve">
<path fill="#E9EAEF" stroke="#335C5F" stroke-width="1.5" stroke-linecap="round" stroke-linejoin="round" stroke-miterlimit="10" d="
	M82.539,12.5H17.457c-2.738,0-4.957,2.22-4.957,4.959v44.625c0,2.738,2.218,4.961,4.957,4.961h26.521l-8.979-13.433
	c2.426-1.621,5.709-0.973,7.321,1.445h0.004l3.937,5.892l0.871-0.36l-9.229-22.272c-0.558-1.343,0.087-2.885,1.437-3.444
	c1.348-0.559,2.895,0.075,3.452,1.423l4.857,11.727c-0.554-1.345,0.09-2.881,1.434-3.437c1.351-0.56,2.894,0.078,3.449,1.42
	l1.01,2.432c-0.559-1.345,0.09-2.886,1.436-3.444c1.348-0.557,2.895,0.078,3.449,1.42l1.33,3.217
	c-0.537-1.339,0.107-2.862,1.446-3.417c1.348-0.558,2.891,0.077,3.449,1.421l5.211,12.584v-0.002
	c0.893,2.159,0.824,4.478-0.014,6.487c-0.043,0.115-0.078,0.229-0.119,0.342h12.81c2.738,0,4.961-2.221,4.961-4.959V17.461
	C87.5,14.723,85.277,12.5,82.539,12.5z"/>
<path fill="#46C6F1" stroke="#335C5F" stroke-width="1.5" stroke-linecap="round" stroke-linejoin="round" stroke-miterlimit="10" d="
	M34.999,53.613c2.426-1.621,5.709-0.973,7.321,1.445h0.004l3.937,5.892l0.871-0.36l-9.229-22.272
	c-0.558-1.343,0.087-2.885,1.437-3.444c1.348-0.559,2.895,0.075,3.452,1.423l4.857,11.727c-0.554-1.345,0.09-2.881,1.434-3.437
	c1.351-0.56,2.894,0.078,3.449,1.42l1.01,2.432c-0.559-1.345,0.09-2.886,1.436-3.444c1.348-0.557,2.895,0.078,3.449,1.42l1.33,3.217
	c-0.537-1.339,0.107-2.862,1.446-3.417c1.348-0.558,2.891,0.077,3.449,1.421l5.211,12.584v-0.002
	c0.463,1.118,0.658,2.28,0.631,3.419h6.779V15.909H22.729v47.727h18.968L34.999,53.613z"/>
<path fill="#3EAED3" d="M69.862,60.217c0.463,1.118,0.662,2.278,0.635,3.419h2.49c0.031-1.482-0.23-2.964-0.814-4.374L66.96,46.676
	c-0.799-1.923-2.662-3.166-4.744-3.166c-0.678,0-1.342,0.133-1.968,0.393c-0.123,0.052-0.246,0.107-0.363,0.167
	c-0.957-1.112-2.365-1.778-3.895-1.778c-0.678,0-1.342,0.132-1.971,0.393c-0.236,0.099-0.465,0.214-0.684,0.344
	c-0.893-0.728-2.029-1.146-3.238-1.146c-0.679,0-1.343,0.133-1.97,0.393c-0.044,0.018-0.087,0.037-0.13,0.056l-2.896-6.992
	c-0.797-1.924-2.662-3.168-4.748-3.168c-0.679,0-1.342,0.133-1.972,0.394c-1.268,0.525-2.256,1.51-2.784,2.775
	c-0.529,1.271-0.531,2.669-0.005,3.936l4.685,11.304c-0.748-0.234-1.536-0.358-2.344-0.358c-1.542,0-3.038,0.454-4.324,1.315
	l-2.078,1.387l7.158,10.714h3.006l-6.697-10.022c2.426-1.621,5.709-0.973,7.321,1.445h0.004l3.937,5.892l0.871-0.36l-9.229-22.272
	c-0.558-1.343,0.087-2.885,1.437-3.444c1.348-0.559,2.895,0.075,3.452,1.423l4.857,11.727c-0.554-1.345,0.09-2.881,1.434-3.437
	c1.351-0.56,2.894,0.078,3.449,1.42l1.01,2.432c-0.559-1.345,0.09-2.886,1.436-3.444c1.348-0.557,2.895,0.078,3.449,1.42l1.33,3.217
	c-0.537-1.339,0.107-2.862,1.446-3.417c1.348-0.558,2.891,0.077,3.449,1.421l5.211,12.584V60.217z"/>
<rect x="74.772" y="15.909" fill="#3EAED3" width="2.5" height="47.727"/>
<path fill="#CACCD1" d="M82.539,12.5h-5.001c2.74,0,4.96,2.222,4.96,4.96v44.626c0,2.738-2.22,4.959-4.96,4.959h5.001
	c2.738,0,4.961-2.221,4.961-4.959V17.461C87.5,14.723,85.277,12.5,82.539,12.5z"/>
<path fill="none" stroke="#335C5F" stroke-width="1.5" stroke-linecap="round" stroke-linejoin="round" stroke-miterlimit="10" d="
	M82.383,42.25v-4.955V42.25z"/>
<circle fill="none" stroke="#335C5F" stroke-width="1.5" stroke-linecap="round" stroke-linejoin="round" stroke-miterlimit="10" cx="17.475" cy="39.771" r="1.705"/>
<path fill="none" stroke="#335C5F" stroke-width="1.5" stroke-linecap="round" stroke-linejoin="round" stroke-miterlimit="10" d="
	M48.431,40.667c1.854-4.463-0.271-9.583-4.729-11.43c-4.469-1.85-9.585,0.275-11.431,4.735c-1.85,4.463,0.266,9.576,4.734,11.425
	c-4.468-1.849-6.583-6.962-4.734-11.425c1.846-4.459,6.962-6.584,11.431-4.735C48.16,31.083,50.285,36.204,48.431,40.667z"/>
<path fill="#FADF7E" stroke="#335C5F" stroke-width="1.5" stroke-linecap="round" stroke-linejoin="round" stroke-miterlimit="10" d="
	M52.631,73.872c-3.61-0.477-6.876-2.795-8.367-6.396l-9.265-13.862c2.426-1.621,5.709-0.973,7.321,1.445h0.004l0,0l3.937,5.892
	l0.871-0.36l-9.229-22.272c-0.558-1.343,0.087-2.885,1.437-3.444c1.348-0.559,2.895,0.075,3.452,1.423L49.5,52.488l-1.851-4.46
	c-0.558-1.344,0.087-2.886,1.434-3.442c1.351-0.56,2.894,0.078,3.449,1.42l1.85,4.459l-0.84-2.027
	c-0.559-1.345,0.09-2.886,1.436-3.444c1.348-0.557,2.895,0.078,3.449,1.42l1.342,3.242l0.506,1.225l-0.506-1.22
	c-0.559-1.345,0.086-2.889,1.435-3.447c1.348-0.558,2.891,0.077,3.449,1.421l5.211,12.584v-0.002
	c0.893,2.159,0.824,4.478-0.014,6.487c-1.006,2.426-0.939,5.029-0.006,7.273v-0.004L75.446,87.5H58.279L52.631,73.872z"/>
<path fill="#D8C26F" d="M69.843,73.974v0.004c-0.934-2.244-1-4.848,0.006-7.273c0.838-2.01,0.906-4.328,0.014-6.487v0.002
	l-5.211-12.584c-0.559-1.344-2.102-1.979-3.449-1.421c-0.084,0.035-0.158,0.084-0.236,0.127c0.514,0.277,0.943,0.715,1.184,1.294
	l5.213,12.584v-0.002c0.893,2.159,0.822,4.478-0.014,6.487c-1.006,2.426-0.941,5.029-0.008,7.273v-0.004L72.944,87.5h2.502
	L69.843,73.974z"/>
<path fill="#CACCD1" d="M70.497,63.636c-0.023,1.059-0.244,2.1-0.648,3.068c-0.043,0.115-0.078,0.229-0.119,0.342h2.65
	c0.389-1.111,0.584-2.26,0.607-3.41H70.497z"/>
<polygon fill="#CACCD1" points="41.696,63.636 38.69,63.636 40.969,67.046 43.978,67.046 "/>
<path fill="none" stroke="#335C5F" stroke-width="1.5" stroke-linecap="round" stroke-linejoin="round" stroke-miterlimit="10" d="
	M82.539,12.5H17.457c-2.738,0-4.957,2.22-4.957,4.959v44.625c0,2.738,2.218,4.961,4.957,4.961h26.521l-8.979-13.433
	c2.426-1.621,5.709-0.973,7.321,1.445h0.004l3.937,5.892l0.871-0.36l-9.229-22.272c-0.558-1.343,0.087-2.885,1.437-3.444
	c1.348-0.559,2.895,0.075,3.452,1.423l4.857,11.727c-0.554-1.345,0.09-2.881,1.434-3.437c1.351-0.56,2.894,0.078,3.449,1.42
	l1.01,2.432c-0.559-1.345,0.09-2.886,1.436-3.444c1.348-0.557,2.895,0.078,3.449,1.42l1.33,3.217
	c-0.537-1.339,0.107-2.862,1.446-3.417c1.348-0.558,2.891,0.077,3.449,1.421l5.211,12.584v-0.002
	c0.893,2.159,0.824,4.478-0.014,6.487c-0.043,0.115-0.078,0.229-0.119,0.342h12.81c2.738,0,4.961-2.221,4.961-4.959V17.461
	C87.5,14.723,85.277,12.5,82.539,12.5z"/>
<path fill="none" stroke="#335C5F" stroke-width="1.5" stroke-linecap="round" stroke-linejoin="round" stroke-miterlimit="10" d="
	M34.999,53.613c2.426-1.621,5.709-0.973,7.321,1.445h0.004l3.937,5.892l0.871-0.36l-9.229-22.272
	c-0.558-1.343,0.087-2.885,1.437-3.444c1.348-0.559,2.895,0.075,3.452,1.423l4.857,11.727c-0.554-1.345,0.09-2.881,1.434-3.437
	c1.351-0.56,2.894,0.078,3.449,1.42l1.01,2.432c-0.559-1.345,0.09-2.886,1.436-3.444c1.348-0.557,2.895,0.078,3.449,1.42l1.33,3.217
	c-0.537-1.339,0.107-2.862,1.446-3.417c1.348-0.558,2.891,0.077,3.449,1.421l5.211,12.584v-0.002
	c0.463,1.118,0.658,2.28,0.631,3.419h6.779V15.909H22.729v47.727h18.968L34.999,53.613z"/>
<path fill="none" stroke="#335C5F" stroke-width="1.5" stroke-linecap="round" stroke-linejoin="round" stroke-miterlimit="10" d="
	M52.631,73.872c-3.61-0.477-6.876-2.795-8.367-6.396l-9.265-13.862c2.426-1.621,5.709-0.973,7.321,1.445h0.004l0,0l3.937,5.892
	l0.871-0.36l-9.229-22.272c-0.558-1.343,0.087-2.885,1.437-3.444c1.348-0.559,2.895,0.075,3.452,1.423L49.5,52.488l-1.851-4.46
	c-0.558-1.344,0.087-2.886,1.434-3.442c1.351-0.56,2.894,0.078,3.449,1.42l1.85,4.459l-0.84-2.027
	c-0.559-1.345,0.09-2.886,1.436-3.444c1.348-0.557,2.895,0.078,3.449,1.42l1.342,3.242l0.506,1.225l-0.506-1.22
	c-0.559-1.345,0.086-2.889,1.435-3.447c1.348-0.558,2.891,0.077,3.449,1.421l5.211,12.584v-0.002
	c0.893,2.159,0.824,4.478-0.014,6.487c-1.006,2.426-0.939,5.029-0.006,7.273v-0.004L75.446,87.5H58.279L52.631,73.872z"/>
</svg>
