<?xml version="1.0" encoding="utf-8"?>
<!-- Generator: Adobe Illustrator 16.0.0, SVG Export Plug-In . SVG Version: 6.00 Build 0)  -->
<!DOCTYPE svg PUBLIC "-//W3C//DTD SVG 1.0//EN" "http://www.w3.org/TR/2001/REC-SVG-20010904/DTD/svg10.dtd">
<svg version="1.0" id="Layer_1" xmlns="http://www.w3.org/2000/svg" xmlns:xlink="http://www.w3.org/1999/xlink" x="0px" y="0px"
	 width="100px" height="100px" viewBox="0 0 100 100" enable-background="new 0 0 100 100" xml:space="preserve">
<path fill="#FADF7E" stroke="#335C5F" stroke-width="1.5" stroke-linecap="round" stroke-linejoin="round" stroke-miterlimit="10" d="
	M52.777,76.111h16.526v-7.893l-3.665-3.667c-1.143-1.139-1.844-2.715-1.844-4.451c0-1.739,0.701-3.316,1.844-4.455l7.971,7.973
	v0.002v-3.937l5.925,5.929c1.051,1.049,1.575,2.424,1.575,3.797V90H63.002v-2.482c0-0.649-0.377-1.556-0.835-2.016L52.777,76.111z"
	/>
<path fill="#FADF7E" stroke="#335C5F" stroke-width="1.5" stroke-linecap="round" stroke-linejoin="round" stroke-miterlimit="10" d="
	M26.39,63.62v-3.937l-5.929,5.929c-1.048,1.049-1.571,2.424-1.571,3.797V90h18.107v-2.482c0-0.649,0.376-1.556,0.836-2.016
	l9.389-9.391H30.696v-7.893l3.662-3.667c1.142-1.139,1.846-2.715,1.846-4.451c0-1.739-0.704-3.316-1.846-4.455l-7.968,7.973V63.62z"
	/>
<path fill="#E9EAEF" stroke="#335C5F" stroke-width="1.5" stroke-linecap="round" stroke-linejoin="round" stroke-miterlimit="10" d="
	M69.304,68.219l-3.665-3.667c-1.143-1.139-1.844-2.715-1.844-4.451c0-1.739,0.701-3.316,1.844-4.455l7.971,7.973v-3.935V14.722
	c0-2.609-2.113-4.722-4.723-4.722H31.109c-2.606,0-4.719,2.113-4.719,4.722v44.961l0,0v3.935l7.971-7.973
	c1.139,1.139,1.843,2.716,1.843,4.455c0,1.736-0.704,3.313-1.843,4.451l-3.663,3.667v7.893h38.605V68.219z"/>
<path fill="#CACCD1" d="M69.304,68.219l-3.665-3.667c-1.143-1.139-1.844-2.715-1.844-4.451c0-1.739,0.701-3.316,1.844-4.455
	l7.971,7.973v-3.935V56.54l-2.223-2.226v3.938l-5.746-5.747l-1.571,1.568c-1.611,1.604-2.496,3.746-2.496,6.027
	c0,2.279,0.885,4.42,2.494,6.022l3.014,3.016l0.002,6.973h2.221V68.219z"/>
<path fill="#CACCD1" d="M30.696,68.219l3.665-3.667c1.142-1.139,1.844-2.715,1.844-4.451c0-1.739-0.702-3.316-1.844-4.455
	l-7.971,7.973v-3.935V56.54l2.222-2.226v3.938l5.747-5.747l1.571,1.568c1.61,1.604,2.497,3.746,2.497,6.027
	c0,2.279-0.886,4.42-2.494,6.022l-3.015,3.016l-0.001,6.973h-2.221V68.219z"/>
<path fill="#46C6F1" stroke="#335C5F" stroke-width="1.5" stroke-linecap="round" stroke-linejoin="round" stroke-miterlimit="10" d="
	M34.358,55.646c1.142,1.139,1.846,2.716,1.846,4.455c0,1.736-0.704,3.313-1.846,4.451l-2.113,2.115h35.507l-2.113-2.115
	c-1.143-1.139-1.844-2.715-1.844-4.451c0-1.739,0.701-3.316,1.844-4.455l5.609,5.613V17.083h-42.5v44.176L34.358,55.646z"/>
<path fill="#3EAED3" d="M38.426,60.101c0-2.279-0.887-4.42-2.498-6.027l-1.572-1.569l-5.607,5.612v3.143l5.61-5.613
	c1.142,1.139,1.846,2.716,1.846,4.455c0,1.736-0.704,3.313-1.846,4.451l-2.113,2.115h3.142l0.541-0.542
	C37.539,64.518,38.426,62.378,38.426,60.101z"/>
<path fill="#3EAED3" d="M65.639,64.552c-1.143-1.139-1.844-2.715-1.844-4.451c0-1.739,0.701-3.316,1.844-4.455l5.609,5.613v-3.145
	l-5.607-5.609l-1.571,1.568c-1.611,1.604-2.496,3.746-2.496,6.027c0,2.279,0.885,4.42,2.494,6.022l0.542,0.544h3.143L65.639,64.552z
	"/>
<path fill="none" stroke="#335C5F" stroke-width="1.5" stroke-linecap="round" stroke-linejoin="round" stroke-miterlimit="10" d="
	M75.861,65.873l-2.252-2.253L75.861,65.873z"/>
<path fill="none" stroke="#335C5F" stroke-width="1.5" stroke-linecap="round" stroke-linejoin="round" stroke-miterlimit="10" d="
	M24.136,65.873l2.254-2.253L24.136,65.873z"/>
<path fill="none" stroke="#335C5F" stroke-width="1.5" stroke-linecap="round" stroke-linejoin="round" stroke-miterlimit="10" d="
	M52.361,71.387c0,1.306-1.058,2.363-2.362,2.363c-1.305,0-2.361-1.058-2.361-2.363c0-1.302,1.056-2.359,2.361-2.359
	C51.304,69.027,52.361,70.085,52.361,71.387z"/>
<path fill="none" stroke="#335C5F" stroke-width="1.5" stroke-linecap="round" stroke-linejoin="round" stroke-miterlimit="10" d="
	M48.226,13.54h3.543H48.226z"/>
<path fill="none" stroke="#335C5F" stroke-width="1.5" stroke-linecap="round" stroke-linejoin="round" stroke-miterlimit="10" d="
	M55.309,13.54h1.183H55.309z"/>
<polygon fill="none" stroke="#335C5F" stroke-width="1.5" stroke-linecap="round" stroke-linejoin="round" stroke-miterlimit="10" points="
	33.47,37.153 34.354,33.613 39.665,33.613 40.553,37.153 37.009,22.987 "/>
<path fill="none" stroke="#335C5F" stroke-width="1.5" stroke-linecap="round" stroke-linejoin="round" stroke-miterlimit="10" d="
	M45.277,22.987h21.249H45.277z"/>
<path fill="none" stroke="#335C5F" stroke-width="1.5" stroke-linecap="round" stroke-linejoin="round" stroke-miterlimit="10" d="
	M45.277,27.709h21.249H45.277z"/>
<path fill="none" stroke="#335C5F" stroke-width="1.5" stroke-linecap="round" stroke-linejoin="round" stroke-miterlimit="10" d="
	M45.277,32.431h21.249H45.277z"/>
<path fill="none" stroke="#335C5F" stroke-width="1.5" stroke-linecap="round" stroke-linejoin="round" stroke-miterlimit="10" d="
	M45.277,37.153h21.249H45.277z"/>
<path fill="none" stroke="#335C5F" stroke-width="1.5" stroke-linecap="round" stroke-linejoin="round" stroke-miterlimit="10" d="
	M33.47,41.875h33.056H33.47z"/>
<path fill="none" stroke="#335C5F" stroke-width="1.5" stroke-linecap="round" stroke-linejoin="round" stroke-miterlimit="10" d="
	M33.47,46.598h33.056H33.47z"/>
<path fill="none" stroke="#335C5F" stroke-width="1.5" stroke-linecap="round" stroke-linejoin="round" stroke-miterlimit="10" d="
	M33.47,51.319h33.056H33.47z"/>
<path fill="none" stroke="#335C5F" stroke-width="1.5" stroke-linecap="round" stroke-linejoin="round" stroke-miterlimit="10" d="
	M65.314,56.04h-30.63H65.314z"/>
<path fill="none" stroke="#335C5F" stroke-width="1.5" stroke-linecap="round" stroke-linejoin="round" stroke-miterlimit="10" d="
	M63.859,60.762H36.137H63.859z"/>
<polygon fill="#3EAED3" points="67.917,57.925 71.248,61.259 71.248,17.083 67.917,17.083 "/>
<polygon fill="#D8C26F" points="30.696,78.065 45.268,78.065 47.222,76.111 30.696,76.111 "/>
<polygon fill="#D8C26F" points="69.304,76.111 52.777,76.111 54.73,78.065 69.304,78.065 "/>
<path fill="none" stroke="#335C5F" stroke-width="1.5" stroke-linecap="round" stroke-linejoin="round" stroke-miterlimit="10" d="
	M69.304,75.844v2.866V75.844z"/>
<path fill="none" stroke="#335C5F" stroke-width="1.5" stroke-linecap="round" stroke-linejoin="round" stroke-miterlimit="10" d="
	M30.696,75.844v2.866V75.844z"/>
<path fill="none" stroke="#335C5F" stroke-width="1.5" stroke-linecap="round" stroke-linejoin="round" stroke-miterlimit="10" d="
	M52.777,76.111h16.526v-7.893l-3.665-3.667c-1.143-1.139-1.844-2.715-1.844-4.451c0-1.739,0.701-3.316,1.844-4.455l7.971,7.973
	v0.002v-3.937l5.925,5.929c1.051,1.049,1.575,2.424,1.575,3.797V90H63.002v-2.482c0-0.649-0.377-1.556-0.835-2.016L52.777,76.111z"
	/>
<path fill="none" stroke="#335C5F" stroke-width="1.5" stroke-linecap="round" stroke-linejoin="round" stroke-miterlimit="10" d="
	M26.39,63.62v-3.937l-5.929,5.929c-1.048,1.049-1.571,2.424-1.571,3.797V90h18.107v-2.482c0-0.649,0.376-1.556,0.836-2.016
	l9.389-9.391H30.696v-7.893l3.662-3.667c1.142-1.139,1.846-2.715,1.846-4.451c0-1.739-0.704-3.316-1.846-4.455l-7.968,7.973V63.62z"
	/>
<path fill="none" stroke="#335C5F" stroke-width="1.5" stroke-linecap="round" stroke-linejoin="round" stroke-miterlimit="10" d="
	M69.304,68.219l-3.665-3.667c-1.143-1.139-1.844-2.715-1.844-4.451c0-1.739,0.701-3.316,1.844-4.455l7.971,7.973v-3.935V14.722
	c0-2.609-2.113-4.722-4.723-4.722H31.109c-2.606,0-4.719,2.113-4.719,4.722v44.961l0,0v3.935l7.971-7.973
	c1.139,1.139,1.843,2.716,1.843,4.455c0,1.736-0.704,3.313-1.843,4.451l-3.663,3.667v7.893h38.605V68.219z"/>
<path fill="none" stroke="#335C5F" stroke-width="1.5" stroke-linecap="round" stroke-linejoin="round" stroke-miterlimit="10" d="
	M34.358,55.646c1.142,1.139,1.846,2.716,1.846,4.455c0,1.736-0.704,3.313-1.846,4.451l-2.113,2.115h35.507l-2.113-2.115
	c-1.143-1.139-1.844-2.715-1.844-4.451c0-1.739,0.701-3.316,1.844-4.455l5.609,5.613V17.083h-42.5v44.176L34.358,55.646z"/>
</svg>
