<svg xmlns="http://www.w3.org/2000/svg" viewBox="0 0 48 48"><defs><style>.cls-1{fill:#424242;}.cls-2{fill:#263238;}</style></defs><title>Update Server</title><g id="Update_Server" data-name="Update Server"><path class="cls-1" d="M48,9V3a3,3,0,0,0-3-3H3A3,3,0,0,0,0,3V9a3,3,0,0,0,3,3v2a3,3,0,0,0-3,3v6a3,3,0,0,0,3,3v2a3,3,0,0,0-3,3v6a3,3,0,0,0,3,3h7.58a14.83,14.83,0,0,1-.44-2H3a1,1,0,0,1-1-1V31a1,1,0,0,1,1-1h8.35a12.91,12.91,0,0,1,1.17-2H5V26h9.21a13.5,13.5,0,0,1,2.58-2H3a1,1,0,0,1-1-1V17a1,1,0,0,1,1-1H45a1,1,0,0,1,1,1v6a1,1,0,0,1-1,1H31.21a13.5,13.5,0,0,1,2.58,2H43v2H35.48a12.91,12.91,0,0,1,1.17,2H45a1,1,0,0,1,1,1v6a1,1,0,0,1-1,1H37.86a14.83,14.83,0,0,1-.44,2H45a3,3,0,0,0,3-3V31a3,3,0,0,0-3-3V26a3,3,0,0,0,3-3V17a3,3,0,0,0-3-3V12A3,3,0,0,0,48,9Zm-5,5H5V12H43ZM3,10A1,1,0,0,1,2,9V3A1,1,0,0,1,3,2H45a1,1,0,0,1,1,1V9a1,1,0,0,1-1,1Z"/><rect class="cls-2" x="4" y="4" width="4" height="4" rx="1"/><rect class="cls-2" x="10" y="4" width="4" height="4" rx="1"/><path class="cls-2" d="M43,8a1,1,0,0,0,1-1V5a1,1,0,0,0-2,0V7A1,1,0,0,0,43,8Z"/><path class="cls-2" d="M39,8a1,1,0,0,0,1-1V5a1,1,0,0,0-2,0V7A1,1,0,0,0,39,8Z"/><path class="cls-2" d="M35,8a1,1,0,0,0,1-1V5a1,1,0,0,0-2,0V7A1,1,0,0,0,35,8Z"/><rect class="cls-2" x="4" y="18" width="4" height="4" rx="1"/><rect class="cls-2" x="10" y="18" width="4" height="4" rx="1"/><path class="cls-2" d="M43,18a1,1,0,0,0-1,1v2a1,1,0,0,0,2,0V19A1,1,0,0,0,43,18Z"/><path class="cls-2" d="M39,18a1,1,0,0,0-1,1v2a1,1,0,0,0,2,0V19A1,1,0,0,0,39,18Z"/><path class="cls-2" d="M35,18a1,1,0,0,0-1,1v2a1,1,0,0,0,2,0V19A1,1,0,0,0,35,18Z"/><rect class="cls-2" x="4" y="32" width="4" height="4" rx="1"/><path class="cls-2" d="M44,35V33a1,1,0,0,0-2,0v2a1,1,0,0,0,2,0Z"/><path class="cls-2" d="M40,35V33a1,1,0,0,0-2,0v2a1,1,0,0,0,2,0Z"/><path class="cls-2" d="M24,24A12,12,0,1,0,36,36,12,12,0,0,0,24,24Zm4.88,19.54a1,1,0,0,1-1,.88h-.11a1,1,0,0,1-.88-1.11l.11-1a7,7,0,0,1-10-5.92,1,1,0,1,1,2-.11,5,5,0,0,0,7,4.26l-1.16-.4a1,1,0,1,1,.65-1.89l3,1h0a.6.6,0,0,1,.11.06.77.77,0,0,1,.21.14s0,0,0,0l.05.07a1.27,1.27,0,0,1,.13.19,1.12,1.12,0,0,1,.05.13.54.54,0,0,1,0,.22.33.33,0,0,1,0,.14s0,0,0,.06Zm1.17-6.87H30a1,1,0,0,1-1-1,5,5,0,0,0-7-4.26l1.16.4a1,1,0,0,1-.33,1.94,1.25,1.25,0,0,1-.32,0l-3-1h0l-.11-.06a.77.77,0,0,1-.21-.14s0,0,0,0L19,32.39a1.27,1.27,0,0,1-.13-.19,1.12,1.12,0,0,1-.05-.13.54.54,0,0,1,0-.22.33.33,0,0,1,0-.14s0,0,0-.06l.36-3.19a1,1,0,0,1,1.1-.88,1,1,0,0,1,.88,1.11l-.11,1a7,7,0,0,1,10,5.92A1,1,0,0,1,30.05,36.67Z"/></g></svg>