<?xml version="1.0" encoding="utf-8"?>
<!-- Generator: Adobe Illustrator 19.2.0, SVG Export Plug-In . SVG Version: 6.00 Build 0)  -->
<svg version="1.1" id="Layer_1" xmlns="http://www.w3.org/2000/svg" xmlns:xlink="http://www.w3.org/1999/xlink" x="0px" y="0px"
	 viewBox="0 0 500 500" style="enable-background:new 0 0 500 500;" xml:space="preserve">
<style type="text/css">
	.st0{fill:#ECF4F7;}
	.st1{fill:#1C1D21;}
	.st2{fill:#f7f7f7;}
	.st3{fill:#AAB1BA;}
	.st4{fill:none;stroke:#1C1D21;stroke-width:10;stroke-linecap:round;stroke-linejoin:round;stroke-miterlimit:10;}
	.st5{fill:#FDDF7F;}
	.st6{fill:#FFFFFF;}
</style>
<g>
	<g>
		<g>
			<path class="st2" d="M40,333.5V60c0-11,9-20,20-20h380c11,0,20,9,20,20v273.5c0,11-9,20-20,20H60C49,353.5,40,344.5,40,333.5z"/>
		</g>
	</g>
	<g>
		<g>
			<g>
				<path class="st5" d="M186.6,144.2v105c0,20,22.4,31.8,38.9,20.5l77-52.5c14.5-9.9,14.5-31.2,0-41.1l-77-52.5
					C209,112.4,186.6,124.3,186.6,144.2z"/>
			</g>
		</g>
		<g>
			<g>
				<path class="st1" d="M211.6,279.2c-4.8,0-9.5-1.2-14-3.5c-10-5.3-15.9-15.1-15.9-26.4v-105c0-11.3,5.9-21.1,15.9-26.4
					c10-5.3,21.5-4.6,30.8,1.7l77,52.5c8.2,5.6,13,14.8,13,24.7s-4.9,19.1-13,24.7l-77,52.5C223.2,277.4,217.4,279.2,211.6,279.2z
					 M211.5,124.3c-3.2,0-6.3,0.8-9.3,2.4c-6.6,3.5-10.6,10.1-10.6,17.6v105c0,7.5,4,14.1,10.6,17.6c6.6,3.5,14.3,3.1,20.5-1.1
					l77-52.5c5.5-3.8,8.7-9.7,8.7-16.4s-3.2-12.7-8.7-16.4l-77-52.5C219.3,125.5,215.4,124.3,211.5,124.3z"/>
			</g>
		</g>
	</g>
	<g>
		<g>
			<path class="st1" d="M370.8,500H129.2c-2.8,0-5-2.2-5-5v-10c0-22.1,17.9-40,40-40h24.9c9.4,0,17.1-7.7,17.1-17.1v-13.5
				c0-11.5-9.4-20.9-20.9-20.9H35c-19.3,0-35-15.7-35-35V35C0,15.7,15.7,0,35,0h430c19.3,0,35,15.7,35,35v323.5
				c0,19.3-15.7,35-35,35H314.6c-11.5,0-20.9,9.4-20.9,20.9v13.5c0,9.4,7.7,17.1,17.1,17.1h24.9c22.1,0,40,17.9,40,40v10
				C375.8,497.8,373.5,500,370.8,500z M134.2,490h231.5v-5c0-16.5-13.5-30-30-30h-24.9c-15,0-27.1-12.2-27.1-27.1v-13.5
				c0-17,13.9-30.9,30.9-30.9H465c13.8,0,25-11.2,25-25V35c0-13.8-11.2-25-25-25H35c-13.8,0-25,11.2-25,25v323.5
				c0,13.8,11.2,25,25,25h150.4c17,0,30.9,13.9,30.9,30.9v13.5c0,15-12.2,27.1-27.1,27.1h-24.9c-16.5,0-30,13.5-30,30V490z"/>
		</g>
	</g>
	<g>
		<g>
			<path class="st1" d="M224.6,393.5H179c-2.8,0-5-2.2-5-5s2.2-5,5-5h45.6c2.8,0,5,2.2,5,5S227.3,393.5,224.6,393.5z"/>
		</g>
	</g>
	<g>
		<g>
			<path class="st1" d="M259.5,393.5H250c-2.8,0-5-2.2-5-5s2.2-5,5-5h9.5c2.8,0,5,2.2,5,5S262.3,393.5,259.5,393.5z"/>
		</g>
	</g>
	<g>
		<g>
			<path class="st1" d="M317.7,455h-55.3c-2.8,0-5-2.2-5-5s2.2-5,5-5h55.3c2.8,0,5,2.2,5,5S320.4,455,317.7,455z"/>
		</g>
	</g>
	<g>
		<g>
			<g>
				<path class="st1" d="M440,358.5h-17.3c-2.8,0-5-2.2-5-5s2.2-5,5-5H440c8.3,0,15-6.7,15-15c0-2.8,2.2-5,5-5s5,2.2,5,5
					C465,347.3,453.8,358.5,440,358.5z"/>
			</g>
		</g>
		<g>
			<g>
				<path class="st1" d="M460,311.8c-2.8,0-5-2.2-5-5v-74c0-2.8,2.2-5,5-5s5,2.2,5,5v74C465,309.6,462.8,311.8,460,311.8z"/>
			</g>
		</g>
		<g>
			<g>
				<path class="st1" d="M400.5,358.5H393c-2.8,0-5-2.2-5-5s2.2-5,5-5h7.5c2.8,0,5,2.2,5,5S403.3,358.5,400.5,358.5z"/>
			</g>
		</g>
	</g>
	<g>
		<g>
			<path class="st1" d="M40,65c-2.8,0-5-2.2-5-5c0-13.8,11.2-25,25-25h17.3c2.8,0,5,2.2,5,5s-2.2,5-5,5H60c-8.3,0-15,6.7-15,15
				C45,62.8,42.8,65,40,65z"/>
		</g>
	</g>
	<g>
		<g>
			<path class="st1" d="M40,165.7c-2.8,0-5-2.2-5-5v-74c0-2.8,2.2-5,5-5c2.8,0,5,2.2,5,5v74C45,163.4,42.8,165.7,40,165.7z"/>
		</g>
	</g>
	<g>
		<g>
			<path class="st1" d="M107,45h-7.5c-2.8,0-5-2.2-5-5s2.2-5,5-5h7.5c2.8,0,5,2.2,5,5S109.8,45,107,45z"/>
		</g>
	</g>
</g>
</svg>
