<?xml version="1.0" encoding="utf-8"?>
<!-- Generator: Adobe Illustrator 16.0.0, SVG Export Plug-In . SVG Version: 6.00 Build 0)  -->
<!DOCTYPE svg PUBLIC "-//W3C//DTD SVG 1.0//EN" "http://www.w3.org/TR/2001/REC-SVG-20010904/DTD/svg10.dtd">
<svg version="1.0" id="Layer_1" xmlns="http://www.w3.org/2000/svg" xmlns:xlink="http://www.w3.org/1999/xlink" x="0px" y="0px"
	 width="100px" height="100px" viewBox="0 0 100 100" enable-background="new 0 0 100 100" xml:space="preserve">
<path fill="#70929F" stroke="#335C5F" stroke-width="1.5" stroke-linecap="round" stroke-linejoin="round" stroke-miterlimit="10" d="
	M46.248,28.125c0,10.01-8.113,18.127-18.125,18.127S10,38.135,10,28.125C10,18.117,18.112,10,28.124,10S46.248,18.117,46.248,28.125
	z"/>
<path fill="#62818C" d="M28.124,10c-0.849,0-1.679,0.079-2.5,0.191c8.826,1.221,15.625,8.775,15.625,17.934
	c0,9.161-6.799,16.714-15.625,17.936c0.82,0.112,1.65,0.191,2.5,0.191c10.012,0,18.125-8.117,18.125-18.127
	C46.248,18.117,38.135,10,28.124,10z"/>
<rect x="19.997" y="80.002" fill="#E9EAEF" stroke="#335C5F" stroke-width="1.5" stroke-linecap="round" stroke-linejoin="round" stroke-miterlimit="10" width="70.003" height="9.998"/>
<rect x="85.001" y="80.002" fill="#CACCD1" width="4.999" height="9.998"/>
<rect x="49.997" y="76.25" fill="#75C6A4" stroke="#335C5F" stroke-width="1.5" stroke-linecap="round" stroke-linejoin="round" stroke-miterlimit="10" width="40.003" height="3.752"/>
<rect x="85.001" y="76.25" fill="#65AD90" width="4.999" height="3.752"/>
<rect x="19.997" y="76.25" fill="#75C6A4" stroke="#335C5F" stroke-width="1.5" stroke-linecap="round" stroke-linejoin="round" stroke-miterlimit="10" width="27.502" height="3.752"/>
<rect x="47.499" y="76.25" fill="#E9EAEF" stroke="#335C5F" stroke-width="1.5" stroke-linecap="round" stroke-linejoin="round" stroke-miterlimit="10" width="2.498" height="3.752"/>
<rect x="81.249" y="83.127" fill="#FADF7E" stroke="#335C5F" stroke-width="1.5" stroke-linecap="round" stroke-linejoin="round" stroke-miterlimit="10" width="3.752" height="3.748"/>
<rect x="73.749" y="83.127" fill="#FADF7E" stroke="#335C5F" stroke-width="1.5" stroke-linecap="round" stroke-linejoin="round" stroke-miterlimit="10" width="3.752" height="3.748"/>
<circle fill="#46C6F1" stroke="#335C5F" stroke-width="1.5" stroke-linecap="round" stroke-linejoin="round" stroke-miterlimit="10" cx="26.873" cy="85.001" r="1.874"/>
<circle fill="#46C6F1" stroke="#335C5F" stroke-width="1.5" stroke-linecap="round" stroke-linejoin="round" stroke-miterlimit="10" cx="34.373" cy="85.001" r="1.874"/>
<circle fill="#46C6F1" stroke="#335C5F" stroke-width="1.5" stroke-linecap="round" stroke-linejoin="round" stroke-miterlimit="10" cx="41.873" cy="85.001" r="1.874"/>
<path fill="#E9EAEF" stroke="#335C5F" stroke-width="1.5" stroke-linecap="round" stroke-linejoin="round" stroke-miterlimit="10" d="
	M25.161,20.549c-1.809-1.006-3.29-0.134-3.29,1.936v11.287c0,2.071,1.481,2.942,3.29,1.937l10.356-5.75
	c1.809-1.006,1.809-2.649,0-3.655L25.161,20.549z"/>
<path fill="#CACCD1" d="M25.161,23.051l10.356,5.753c0.313,0.174,0.551,0.37,0.756,0.577c0.979-0.984,0.741-2.247-0.756-3.079
	l-10.356-5.753c-1.809-1.006-3.29-0.134-3.29,1.936v2.501C21.871,22.916,23.352,22.044,25.161,23.051z"/>
<path fill="#E9EAEF" stroke="#335C5F" stroke-width="1.5" stroke-linecap="round" stroke-linejoin="round" stroke-miterlimit="10" d="
	M46.152,30c-0.283,2.729-1.186,5.268-2.54,7.499H90V30H46.152z"/>
<path fill="#CACCD1" d="M46.152,30c-0.283,2.729-1.186,5.268-2.54,7.499h2.875c1.171-2.288,1.93-4.818,2.172-7.499H46.152z"/>
<path fill="#FADF7E" stroke="#335C5F" stroke-width="1.5" stroke-linecap="round" stroke-linejoin="round" stroke-miterlimit="10" d="
	M43.612,37.498c-3.176,5.24-8.916,8.754-15.489,8.754c-2.925,0-5.681-0.709-8.127-1.939V76.25H90V37.498H43.612z"/>
<path fill="#D8C26F" d="M43.612,37.498c-3.176,5.24-8.916,8.754-15.489,8.754c-2.925,0-5.681-0.709-8.127-1.939v2.768
	c2.496,1.075,5.244,1.673,8.127,1.673c8,0,14.943-4.583,18.364-11.256H43.612z"/>
<path fill="#62818C" d="M35.517,29.958l-10.356,5.75c-1.809,1.006-3.29,0.134-3.29-1.937v2.501c0,2.07,1.481,2.942,3.29,1.936
	l10.356-5.75c1.497-0.832,1.735-2.096,0.756-3.078C36.068,29.586,35.83,29.784,35.517,29.958z"/>
<path fill="none" stroke="#335C5F" stroke-width="1.5" stroke-linecap="round" stroke-linejoin="round" stroke-miterlimit="10" d="
	M25.161,20.549c-1.809-1.006-3.29-0.134-3.29,1.936v11.287c0,2.071,1.481,2.942,3.29,1.937l10.356-5.75
	c1.809-1.006,1.809-2.649,0-3.655L25.161,20.549z"/>
<path fill="none" stroke="#335C5F" stroke-width="1.5" stroke-linecap="round" stroke-linejoin="round" stroke-miterlimit="10" d="
	M46.248,28.125c0,10.01-8.113,18.127-18.125,18.127S10,38.135,10,28.125C10,18.117,18.112,10,28.124,10S46.248,18.117,46.248,28.125
	z"/>
<rect x="84.999" y="30" fill="#CACCD1" width="5.001" height="7.499"/>
<rect x="84.999" y="37.498" fill="#D8C26F" width="5.001" height="38.752"/>
<rect x="19.997" y="80.002" fill="none" stroke="#335C5F" stroke-width="1.5" stroke-linecap="round" stroke-linejoin="round" stroke-miterlimit="10" width="70.003" height="9.998"/>
<rect x="49.997" y="76.25" fill="none" stroke="#335C5F" stroke-width="1.5" stroke-linecap="round" stroke-linejoin="round" stroke-miterlimit="10" width="40.003" height="3.752"/>
<path fill="none" stroke="#335C5F" stroke-width="1.5" stroke-linecap="round" stroke-linejoin="round" stroke-miterlimit="10" d="
	M46.152,30c-0.283,2.729-1.186,5.268-2.54,7.499H90V30H46.152z"/>
<path fill="none" stroke="#335C5F" stroke-width="1.5" stroke-linecap="round" stroke-linejoin="round" stroke-miterlimit="10" d="
	M43.612,37.498c-3.176,5.24-8.916,8.754-15.489,8.754c-2.925,0-5.681-0.709-8.127-1.939V76.25H90V37.498H43.612z"/>
</svg>
