<?xml version="1.0" encoding="utf-8"?>
<!-- Generator: Adobe Illustrator 19.2.0, SVG Export Plug-In . SVG Version: 6.00 Build 0)  -->
<svg version="1.1" id="Layer_1" xmlns="http://www.w3.org/2000/svg" xmlns:xlink="http://www.w3.org/1999/xlink" x="0px" y="0px"
	 viewBox="0 0 500 500" style="enable-background:new 0 0 500 500;" xml:space="preserve">
<style type="text/css">
	.st0{fill:#ECF4F7;}
	.st1{fill:#1C1D21;}
	.st2{fill:#f7f7f7;}
	.st3{fill:#AAB1BA;}
	.st4{fill:none;stroke:#1C1D21;stroke-width:10;stroke-linecap:round;stroke-linejoin:round;stroke-miterlimit:10;}
	.st5{fill:#FDDF7F;}
	.st6{fill:#FFFFFF;}
</style>
<g>
	<g>
		<g>
			<path class="st0" d="M315.2,93.9l-175.9,73.7c-10.3,4.3-21.4,6.6-32.6,6.6H49.7C25.1,174.2,4.5,194.3,5,219
				c0.5,23.8,19.9,43,43.9,43h33v124.4c0,11.5,9.3,20.8,20.8,20.8l0,0c11.5,0,20.8-9.3,20.8-20.8V283.1c0-10,10.2-16.8,19.4-12.9
				l172.1,72.2c9,3.8,18.9-2.8,18.9-12.6V106.4C334.1,96.7,324.1,90.1,315.2,93.9z"/>
		</g>
	</g>
	<g>
		<g>
			<path class="st1" d="M285.8,158.7c-2.8,0-5-2.2-5-5v-47.6c0-2.8,2.2-5,5-5c2.8,0,5,2.2,5,5v47.6
				C290.8,156.5,288.6,158.7,285.8,158.7z"/>
		</g>
	</g>
	<g>
		<g>
			<path class="st1" d="M285.8,201.8c-2.8,0-5-2.2-5-5v-14.5c0-2.8,2.2-5,5-5c2.8,0,5,2.2,5,5v14.5
				C290.8,199.5,288.6,201.8,285.8,201.8z"/>
		</g>
	</g>
	<g>
		<g>
			<path class="st1" d="M285.8,235.1c-2.8,0-5-2.2-5-5v-6.5c0-2.8,2.2-5,5-5c2.8,0,5,2.2,5,5v6.5
				C290.8,232.9,288.6,235.1,285.8,235.1z"/>
		</g>
	</g>
	<g>
		<g>
			<path class="st1" d="M102.8,412.2c-14.2,0-25.8-11.6-25.8-25.8V267h-28C22.5,267,0.5,245.5,0,219.1c-0.3-13,4.7-25.4,14-34.9
				c9.4-9.6,22.4-15.1,35.7-15.1h56.9c10.6,0,20.9-2.1,30.7-6.2l175.9-73.7c5.8-2.4,12.3-1.8,17.5,1.7c5.2,3.5,8.3,9.3,8.3,15.5
				v223.4c0,6.3-3.1,12-8.3,15.5c-5.2,3.5-11.8,4.1-17.5,1.7l-172.1-72.2c-2.8-1.2-5.9-0.9-8.5,0.8c-2.6,1.7-4,4.4-4,7.5v103.3
				C128.6,400.6,117,412.2,102.8,412.2z M49.7,179.2c-10.7,0-21.1,4.4-28.6,12.1c-7.4,7.5-11.3,17.3-11.1,27.6
				c0.4,21,17.9,38.1,38.9,38.1h33c2.8,0,5,2.2,5,5v124.4c0,8.7,7.1,15.8,15.8,15.8c8.7,0,15.8-7.1,15.8-15.8V283.1
				c0-6.4,3.2-12.3,8.5-15.8c5.3-3.5,12-4.2,17.9-1.7l172.1,72.2c2.7,1.1,5.7,0.9,8.1-0.8c2.4-1.6,3.8-4.2,3.8-7.2V106.4
				c0-2.9-1.4-5.6-3.8-7.2c-2.4-1.6-5.4-1.9-8.1-0.8l0,0l-175.9,73.7c-11,4.6-22.6,7-34.6,7H49.7z M315.2,93.9L315.2,93.9
				L315.2,93.9z"/>
		</g>
	</g>
	<g>
		<g>
			<g>
				<g>
					<path class="st5" d="M477.4,152h-81.6c-9.7,0-17.6-7.9-17.6-17.6v-2.7c0-9.7,7.9-17.6,17.6-17.6h81.6c9.7,0,17.6,7.9,17.6,17.6
						v2.7C495,144.1,487.1,152,477.4,152z"/>
				</g>
			</g>
			<g>
				<g>
					<path class="st1" d="M477.4,157h-81.6c-12.5,0-22.6-10.1-22.6-22.6v-2.7c0-12.5,10.1-22.6,22.6-22.6h81.6
						c12.5,0,22.6,10.1,22.6,22.6v2.7C500,146.9,489.9,157,477.4,157z M395.8,119.1c-7,0-12.6,5.7-12.6,12.6v2.7
						c0,7,5.7,12.6,12.6,12.6h81.6c7,0,12.6-5.7,12.6-12.6v-2.7c0-7-5.7-12.6-12.6-12.6H395.8z"/>
				</g>
			</g>
		</g>
		<g>
			<g>
				<g>
					<path class="st5" d="M477.4,237h-40.8c-9.7,0-17.6-7.9-17.6-17.6v-2.7c0-9.7,7.9-17.6,17.6-17.6h40.8c9.7,0,17.6,7.9,17.6,17.6
						v2.7C495,229.2,487.1,237,477.4,237z"/>
				</g>
			</g>
			<g>
				<g>
					<path class="st1" d="M477.4,242h-40.8c-12.5,0-22.6-10.1-22.6-22.6v-2.7c0-12.5,10.1-22.6,22.6-22.6h40.8
						c12.5,0,22.6,10.1,22.6,22.6v2.7C500,231.9,489.9,242,477.4,242z M436.6,204.2c-7,0-12.6,5.7-12.6,12.6v2.7
						c0,7,5.7,12.6,12.6,12.6h40.8c7,0,12.6-5.7,12.6-12.6v-2.7c0-7-5.7-12.6-12.6-12.6H436.6z"/>
				</g>
			</g>
		</g>
		<g>
			<g>
				<g>
					<path class="st5" d="M477.4,322.1h-81.6c-9.7,0-17.6-7.9-17.6-17.6v-2.7c0-9.7,7.9-17.6,17.6-17.6h81.6
						c9.7,0,17.6,7.9,17.6,17.6v2.7C495,314.2,487.1,322.1,477.4,322.1z"/>
				</g>
			</g>
			<g>
				<g>
					<path class="st1" d="M477.4,327.1h-81.6c-12.5,0-22.6-10.1-22.6-22.6v-2.7c0-12.5,10.1-22.6,22.6-22.6h81.6
						c12.5,0,22.6,10.1,22.6,22.6v2.7C500,316.9,489.9,327.1,477.4,327.1z M395.8,289.2c-7,0-12.6,5.7-12.6,12.6v2.7
						c0,7,5.7,12.6,12.6,12.6h81.6c7,0,12.6-5.7,12.6-12.6v-2.7c0-7-5.7-12.6-12.6-12.6H395.8z"/>
				</g>
			</g>
		</g>
	</g>
	<g>
		<g>
			<path class="st2" d="M334.1,168.1c27.6,0,50,22.4,50,50c0,27.6-22.4,50-50,50V168.1z"/>
		</g>
	</g>
	<g>
		<g>
			<path class="st1" d="M334.1,273.1c-2.8,0-5-2.2-5-5v-100c0-2.8,2.2-5,5-5c30.3,0,55,24.7,55,55
				C389.1,248.4,364.4,273.1,334.1,273.1z M339.1,173.4v89.4c22.5-2.5,40-21.6,40-44.7C379.1,195,361.5,175.9,339.1,173.4z"/>
		</g>
	</g>
</g>
</svg>
