<?xml version="1.0" encoding="utf-8"?>
<!-- Generator: Adobe Illustrator 16.0.0, SVG Export Plug-In . SVG Version: 6.00 Build 0)  -->
<!DOCTYPE svg PUBLIC "-//W3C//DTD SVG 1.0//EN" "http://www.w3.org/TR/2001/REC-SVG-20010904/DTD/svg10.dtd">
<svg version="1.0" id="Layer_1" xmlns="http://www.w3.org/2000/svg" xmlns:xlink="http://www.w3.org/1999/xlink" x="0px" y="0px"
	 width="100px" height="100px" viewBox="0 0 100 100" enable-background="new 0 0 100 100" xml:space="preserve">
<path fill="#FADF7E" stroke="#335C5F" stroke-width="1.5" stroke-linecap="round" stroke-linejoin="round" stroke-miterlimit="10" d="
	M90,26.251c0,8.975-7.274,16.25-16.249,16.25S57.5,35.226,57.5,26.251C57.5,17.273,64.776,10,73.751,10S90,17.273,90,26.251z"/>
<path fill="#D8C26F" d="M73.751,10c-1.295,0-2.545,0.167-3.75,0.451c7.162,1.695,12.5,8.116,12.5,15.8
	c0,7.681-5.338,14.104-12.5,15.799c1.205,0.284,2.455,0.451,3.75,0.451c8.975,0,16.249-7.275,16.249-16.25
	C90,17.273,82.726,10,73.751,10z"/>
<polygon fill="#E9EAEF" stroke="#335C5F" stroke-width="1.5" stroke-linecap="round" stroke-linejoin="round" stroke-miterlimit="10" points="
	82.146,20.505 79.493,17.852 73.751,23.598 68.003,17.852 65.351,20.508 71.097,26.251 65.351,31.998 68.003,34.654 73.751,28.904 
	79.493,34.654 82.146,31.998 76.403,26.251 "/>
<path fill="#75C6A4" stroke="#335C5F" stroke-width="1.5" stroke-linecap="round" stroke-linejoin="round" stroke-miterlimit="10" d="
	M42.497,26.251c0,8.975-7.276,16.25-16.25,16.25c-8.97,0-16.247-7.275-16.247-16.25C10,17.273,17.276,10,26.247,10
	C35.221,10,42.497,17.273,42.497,26.251z"/>
<path fill="#65AD90" d="M26.247,10c-1.293,0-2.544,0.167-3.75,0.451c7.163,1.695,12.499,8.116,12.499,15.8
	c0,7.681-5.335,14.102-12.499,15.799c1.206,0.284,2.457,0.451,3.75,0.451c8.974,0,16.25-7.275,16.25-16.25
	C42.497,17.273,35.221,10,26.247,10z"/>
<polygon fill="#E9EAEF" stroke="#335C5F" stroke-width="1.5" stroke-linecap="round" stroke-linejoin="round" stroke-miterlimit="10" points="
	33.319,19.402 24.92,27.798 19.178,22.051 16.525,24.704 24.92,33.104 35.972,22.051 "/>
<path fill="#E9EAEF" stroke="#335C5F" stroke-width="1.5" stroke-linecap="round" stroke-linejoin="round" stroke-miterlimit="10" d="
	M47.5,90V53.535c0-1.374-0.796-3.293-1.768-4.269l-9.912-9.909c1.354-0.992,2.546-2.182,3.538-3.536L50,46.465l10.638-10.64
	c0.991,1.354,2.183,2.54,3.534,3.532l-9.907,9.909c-0.973,0.972-1.768,2.895-1.768,4.269V90H47.5z"/>
<path fill="#CACCD1" d="M39.358,35.822c-0.992,1.354-2.184,2.544-3.538,3.536l1.779,1.781c1.332-1.019,2.521-2.208,3.537-3.539
	L39.358,35.822z"/>
<path fill="#CACCD1" d="M60.639,35.826l-1.777,1.777c1.016,1.33,2.205,2.517,3.534,3.534l1.777-1.779
	C62.821,38.366,61.63,37.179,60.639,35.826z"/>
<path fill="none" stroke="#335C5F" stroke-width="1.5" stroke-linecap="round" stroke-linejoin="round" stroke-miterlimit="10" d="
	M90,26.251c0,8.975-7.274,16.25-16.249,16.25S57.5,35.226,57.5,26.251C57.5,17.273,64.776,10,73.751,10S90,17.273,90,26.251z"/>
<path fill="none" stroke="#335C5F" stroke-width="1.5" stroke-linecap="round" stroke-linejoin="round" stroke-miterlimit="10" d="
	M42.497,26.251c0,8.975-7.276,16.25-16.25,16.25c-8.97,0-16.247-7.275-16.247-16.25C10,17.273,17.276,10,26.247,10
	C35.221,10,42.497,17.273,42.497,26.251z"/>
<path fill="none" stroke="#335C5F" stroke-width="1.5" stroke-linecap="round" stroke-linejoin="round" stroke-miterlimit="10" d="
	M47.5,90V53.535c0-1.374-0.796-3.293-1.768-4.269l-9.912-9.909c1.354-0.992,2.546-2.182,3.538-3.536L50,46.465l10.638-10.64
	c0.991,1.354,2.183,2.54,3.534,3.532l-9.907,9.909c-0.973,0.972-1.768,2.895-1.768,4.269V90H47.5z"/>
</svg>
