<?xml version="1.0" encoding="utf-8"?>
<!-- Generator: Adobe Illustrator 16.0.0, SVG Export Plug-In . SVG Version: 6.00 Build 0)  -->
<!DOCTYPE svg PUBLIC "-//W3C//DTD SVG 1.0//EN" "http://www.w3.org/TR/2001/REC-SVG-20010904/DTD/svg10.dtd">
<svg version="1.0" id="Layer_1" xmlns="http://www.w3.org/2000/svg" xmlns:xlink="http://www.w3.org/1999/xlink" x="0px" y="0px"
	 width="100px" height="100px" viewBox="0 0 100 100" enable-background="new 0 0 100 100" xml:space="preserve">
<path fill="#FADF7E" stroke="#335C5F" stroke-width="1.5" stroke-linecap="round" stroke-linejoin="round" stroke-miterlimit="10" d="
	M33.333,36.658c-9.205,0-16.668,7.464-16.668,16.673v6.666l-6.014,6.015C10.25,66.417,10,66.972,10,67.581
	c0,1.232,0.993,2.228,2.223,2.228h4.443V83.33c0,1.842,1.496,3.333,3.336,3.333h6.665V90h14.999v-9.881
	c0-3.641,1.391-7.282,4.167-10.061c2.574-2.574,4.166-6.131,4.166-10.062v-6.666C49.998,44.122,42.54,36.658,33.333,36.658z"/>
<path fill="#D8C26F" d="M33.333,36.658c-0.596,0-1.185,0.035-1.766,0.096c8.376,0.882,14.899,7.966,14.899,16.577v6.666
	c0,3.931-1.592,7.487-4.166,10.062c-2.775,2.778-4.167,6.42-4.167,10.061V90h3.531v-9.881c0-3.641,1.391-7.282,4.167-10.061
	c2.574-2.574,4.166-6.131,4.166-10.062v-6.666C49.998,44.122,42.54,36.658,33.333,36.658z"/>
<path fill="#E9EAEF" stroke="#335C5F" stroke-width="1.5" stroke-linecap="round" stroke-linejoin="round" stroke-miterlimit="10" d="
	M41.176,62.452c0-1.178-0.449-2.351-1.349-3.246c0.898,0,1.628-0.732,1.628-1.628l0,0c2.688,0,4.873-2.185,4.873-4.877v-1.624
	c0-1.793-1.458-3.252-3.253-3.252l0,0c0-1.793-1.452-3.249-3.248-3.249h0.003c0-1.797-1.458-3.249-3.252-3.249h-6.501
	c-1.793,0-3.249,1.452-3.249,3.249c-1.793,0-3.251,1.456-3.251,3.249l0,0c-1.792,0-3.25,1.459-3.25,3.252l0,0
	c0,1.793,1.458,3.249,3.25,3.249h8.137h-0.01c0,1.796,1.453,3.252,3.249,3.252h0.002c0.369,0,0.721-0.064,1.052-0.179
	c1.379,1.528,2.438,3.243,3.19,5.053H41.176z"/>
<path fill="none" stroke="#335C5F" stroke-width="1.5" stroke-linecap="round" stroke-linejoin="round" stroke-miterlimit="10" d="
	M33.332,47.825c0-1.793-1.459-3.249-3.252-3.249h-3.249h3.249C31.873,44.576,33.332,46.032,33.332,47.825z"/>
<path fill="none" stroke="#335C5F" stroke-width="1.5" stroke-linecap="round" stroke-linejoin="round" stroke-miterlimit="10" d="
	M31.706,54.326c0-1.793,1.454-3.249,3.249-3.249h0.002c0-1.793,1.456-3.252,3.25-3.252c-1.794,0-3.25,1.459-3.25,3.252h-0.002
	C33.16,51.077,31.706,52.533,31.706,54.326z"/>
<path fill="none" stroke="#335C5F" stroke-width="1.5" stroke-linecap="round" stroke-linejoin="round" stroke-miterlimit="10" d="
	M39.828,51.077c0-1.796,1.458-3.252,3.251-3.252C41.286,47.825,39.828,49.281,39.828,51.077z"/>
<path fill="none" stroke="#335C5F" stroke-width="1.5" stroke-linecap="round" stroke-linejoin="round" stroke-miterlimit="10" d="
	M26.667,86.663c5.519,0,9.999-4.481,9.999-9.997C36.666,82.182,32.186,86.663,26.667,86.663z"/>
<path fill="#FADF7E" stroke="#335C5F" stroke-width="1.5" stroke-linecap="round" stroke-linejoin="round" stroke-miterlimit="10" d="
	M70.76,38.124c0-2.273-0.865-4.55-2.604-6.284c-1.608-1.608-2.601-3.828-2.601-6.287l0,0l0,0c0-4.909,3.979-8.887,8.888-8.887l0,0
	c4.908,0,8.888,3.978,8.888,8.887l0,0l0,0c0,2.458-0.993,4.678-2.604,6.287c-1.734,1.734-2.604,4.011-2.604,6.284H70.76z"/>
<path fill="#D8C26F" d="M74.443,16.667c-0.605,0-1.193,0.062-1.764,0.175c4.063,0.819,7.123,4.406,7.123,8.711
	c0,2.458-0.993,4.678-2.604,6.287c-1.734,1.734-2.603,4.011-2.603,6.284h3.527c0-2.273,0.869-4.55,2.604-6.284
	c1.611-1.608,2.604-3.828,2.604-6.287C83.331,20.645,79.352,16.667,74.443,16.667z"/>
<polygon fill="#E9EAEF" stroke="#335C5F" stroke-width="1.5" stroke-linecap="round" stroke-linejoin="round" stroke-miterlimit="10" points="
	70.76,38.124 70.76,45.238 72.031,47.141 76.855,47.141 78.123,45.238 78.123,38.124 "/>
<polygon fill="#CACCD1" points="75.771,38.124 75.771,45.238 74.503,47.141 76.855,47.141 78.123,45.238 78.123,38.124 "/>
<path fill="none" stroke="#335C5F" stroke-width="1.5" stroke-linecap="round" stroke-linejoin="round" stroke-miterlimit="10" d="
	M70.76,43.458l7.363,1.781L70.76,43.458z"/>
<path fill="none" stroke="#335C5F" stroke-width="1.5" stroke-linecap="round" stroke-linejoin="round" stroke-miterlimit="10" d="
	M70.76,40.124l7.363,1.78L70.76,40.124z"/>
<path fill="#E9EAEF" stroke="#335C5F" stroke-width="1.5" stroke-linecap="round" stroke-linejoin="round" stroke-miterlimit="10" d="
	M75.711,33.046c0-0.7-0.567-1.271-1.268-1.271c-0.703,0-1.268,0.571-1.271,1.271l0,0v5.078h2.539V33.046L75.711,33.046z"/>
<path fill="none" stroke="#335C5F" stroke-width="1.5" stroke-linecap="round" stroke-linejoin="round" stroke-miterlimit="10" d="
	M73.425,32.294l-2.792-6.741c1.401,0,2.539-1.134,2.539-2.539c0.704,0.7,1.839,0.7,2.539,0c0,1.404,1.139,2.539,2.542,2.539
	l-2.792,6.741l2.792-6.741c-1.403,0-2.542-1.134-2.542-2.539c-0.7,0.7-1.835,0.7-2.539,0c0,1.404-1.138,2.539-2.539,2.539
	L73.425,32.294z"/>
<path fill="none" stroke="#335C5F" stroke-width="1.5" stroke-linecap="round" stroke-linejoin="round" stroke-miterlimit="10" d="
	M74.443,10v3.333V10z"/>
<path fill="none" stroke="#335C5F" stroke-width="1.5" stroke-linecap="round" stroke-linejoin="round" stroke-miterlimit="10" d="
	M58.886,25.553h3.333H58.886z"/>
<path fill="none" stroke="#335C5F" stroke-width="1.5" stroke-linecap="round" stroke-linejoin="round" stroke-miterlimit="10" d="
	M90,25.553h-3.336H90z"/>
<path fill="none" stroke="#335C5F" stroke-width="1.5" stroke-linecap="round" stroke-linejoin="round" stroke-miterlimit="10" d="
	M85.441,14.555l-2.356,2.357L85.441,14.555z"/>
<path fill="none" stroke="#335C5F" stroke-width="1.5" stroke-linecap="round" stroke-linejoin="round" stroke-miterlimit="10" d="
	M63.445,14.555l2.357,2.357L63.445,14.555z"/>
<path fill="none" stroke="#335C5F" stroke-width="1.5" stroke-linecap="round" stroke-linejoin="round" stroke-miterlimit="10" d="
	M63.445,36.551l2.357-2.357L63.445,36.551z"/>
<path fill="none" stroke="#335C5F" stroke-width="1.5" stroke-linecap="round" stroke-linejoin="round" stroke-miterlimit="10" d="
	M85.441,36.551l-2.356-2.357L85.441,36.551z"/>
<path fill="none" stroke="#335C5F" stroke-width="1.5" stroke-linecap="round" stroke-linejoin="round" stroke-miterlimit="10" d="
	M68.49,11.187l2.552,6.157L68.49,11.187z"/>
<path fill="none" stroke="#335C5F" stroke-width="1.5" stroke-linecap="round" stroke-linejoin="round" stroke-miterlimit="10" d="
	M88.813,19.6l-6.157,2.552L88.813,19.6z"/>
<path fill="none" stroke="#335C5F" stroke-width="1.5" stroke-linecap="round" stroke-linejoin="round" stroke-miterlimit="10" d="
	M60.072,31.506l6.157-2.552L60.072,31.506z"/>
<path fill="none" stroke="#335C5F" stroke-width="1.5" stroke-linecap="round" stroke-linejoin="round" stroke-miterlimit="10" d="
	M88.813,31.506l-6.16-2.552L88.813,31.506z"/>
<path fill="none" stroke="#335C5F" stroke-width="1.5" stroke-linecap="round" stroke-linejoin="round" stroke-miterlimit="10" d="
	M60.072,19.604l6.157,2.548L60.072,19.604z"/>
<path fill="none" stroke="#335C5F" stroke-width="1.5" stroke-linecap="round" stroke-linejoin="round" stroke-miterlimit="10" d="
	M80.394,11.183l-2.549,6.158L80.394,11.183z"/>
<path fill="none" stroke="#335C5F" stroke-width="1.5" stroke-linecap="round" stroke-linejoin="round" stroke-miterlimit="10" d="
	M74.44,47.141V73.33c0,5.525-4.479,10-10.004,10c-5.521,0-9.996-4.475-9.996-10l0.004-46.109c0-5.83-4.729-10.554-10.557-10.554
	c-5.832,0-10.556,4.724-10.556,10.554v9.441v-9.441c0-5.83,4.724-10.554,10.556-10.554c5.828,0,10.557,4.724,10.557,10.554
	L54.44,73.33c0,5.525,4.475,10,9.996,10c5.525,0,10.004-4.475,10.004-10V47.141z"/>
<path fill="none" stroke="#335C5F" stroke-width="1.5" stroke-linecap="round" stroke-linejoin="round" stroke-miterlimit="10" d="
	M70.76,38.124c0-2.273-0.865-4.55-2.604-6.284c-1.608-1.608-2.601-3.828-2.601-6.287l0,0l0,0c0-4.909,3.979-8.887,8.888-8.887l0,0
	c4.908,0,8.888,3.978,8.888,8.887l0,0l0,0c0,2.458-0.993,4.678-2.604,6.287c-1.734,1.734-2.604,4.011-2.604,6.284H70.76z"/>
<polygon fill="none" stroke="#335C5F" stroke-width="1.5" stroke-linecap="round" stroke-linejoin="round" stroke-miterlimit="10" points="
	70.76,38.124 70.76,45.238 72.031,47.141 76.855,47.141 78.123,45.238 78.123,38.124 "/>
<path fill="none" stroke="#335C5F" stroke-width="1.5" stroke-linecap="round" stroke-linejoin="round" stroke-miterlimit="10" d="
	M33.333,36.658c-9.205,0-16.668,7.464-16.668,16.673v6.666l-6.014,6.015C10.25,66.417,10,66.972,10,67.581
	c0,1.232,0.993,2.228,2.223,2.228h4.443V83.33c0,1.842,1.496,3.333,3.336,3.333h6.665V90h14.999v-9.881
	c0-3.641,1.391-7.282,4.167-10.061c2.574-2.574,4.166-6.131,4.166-10.062v-6.666C49.998,44.122,42.54,36.658,33.333,36.658z"/>
</svg>
