<?xml version="1.0" encoding="utf-8"?>
<!-- Generator: Adobe Illustrator 16.0.0, SVG Export Plug-In . SVG Version: 6.00 Build 0)  -->
<!DOCTYPE svg PUBLIC "-//W3C//DTD SVG 1.0//EN" "http://www.w3.org/TR/2001/REC-SVG-20010904/DTD/svg10.dtd">
<svg version="1.0" id="Layer_1" xmlns="http://www.w3.org/2000/svg" xmlns:xlink="http://www.w3.org/1999/xlink" x="0px" y="0px"
	 width="100px" height="100px" viewBox="0 0 100 100" enable-background="new 0 0 100 100" xml:space="preserve">
<rect x="10" y="25.001" fill="#E9EAEF" stroke="#335C5F" stroke-width="1.5" stroke-linecap="round" stroke-linejoin="round" stroke-miterlimit="10" width="80" height="64.999"/>
<rect x="10" y="10" fill="#E9EAEF" stroke="#335C5F" stroke-width="1.5" stroke-linecap="round" stroke-linejoin="round" stroke-miterlimit="10" width="80" height="15.001"/>
<rect x="85.002" y="25.001" fill="#CACCD1" width="4.998" height="64.999"/>
<rect x="85.002" y="10" fill="#CACCD1" width="4.998" height="15.001"/>
<rect x="14.998" y="35.003" fill="#FADF7E" stroke="#335C5F" stroke-width="1.5" stroke-linecap="round" stroke-linejoin="round" stroke-miterlimit="10" width="40" height="10.001"/>
<rect x="14.998" y="50.003" fill="#FADF7E" stroke="#335C5F" stroke-width="1.5" stroke-linecap="round" stroke-linejoin="round" stroke-miterlimit="10" width="40" height="10"/>
<rect x="49.997" y="35.003" fill="#D8C26F" width="5.001" height="10.001"/>
<rect x="49.997" y="50.003" fill="#D8C26F" width="5.001" height="10"/>
<rect x="14.998" y="65.003" fill="#75C6A4" stroke="#335C5F" stroke-width="1.5" stroke-linecap="round" stroke-linejoin="round" stroke-miterlimit="10" width="15" height="5.002"/>
<rect x="34.998" y="65.003" fill="#75C6A4" stroke="#335C5F" stroke-width="1.5" stroke-linecap="round" stroke-linejoin="round" stroke-miterlimit="10" width="15" height="5.002"/>
<rect x="26.249" y="65.003" fill="#65AD90" width="3.75" height="5.002"/>
<rect x="46.249" y="65.003" fill="#65AD90" width="3.75" height="5.002"/>
<rect x="60" y="55.005" fill="#D7DAE7" stroke="#335C5F" stroke-width="1.5" stroke-linecap="round" stroke-linejoin="round" stroke-miterlimit="10" width="24.998" height="19.999"/>
<rect x="81.247" y="55.005" fill="#BBBECA" width="3.751" height="19.999"/>
<rect x="71.249" y="61.254" fill="#70929F" stroke="#335C5F" stroke-width="1.5" stroke-linecap="round" stroke-linejoin="round" stroke-miterlimit="10" width="2.502" height="7.501"/>
<rect x="79.999" y="15.003" fill="#FADF7E" stroke="#335C5F" stroke-width="1.5" stroke-linecap="round" stroke-linejoin="round" stroke-miterlimit="10" width="5.003" height="4.999"/>
<rect x="69.999" y="15.003" fill="#FADF7E" stroke="#335C5F" stroke-width="1.5" stroke-linecap="round" stroke-linejoin="round" stroke-miterlimit="10" width="5.002" height="4.999"/>
<rect x="14.998" y="15.003" fill="#46C6F1" stroke="#335C5F" stroke-width="1.5" stroke-linecap="round" stroke-linejoin="round" stroke-miterlimit="10" width="35" height="4.999"/>
<path fill="none" stroke="#335C5F" stroke-width="1.5" stroke-linecap="round" stroke-linejoin="round" stroke-miterlimit="10" d="
	M14.998,75.004h25.003H14.998z"/>
<path fill="none" stroke="#335C5F" stroke-width="1.5" stroke-linecap="round" stroke-linejoin="round" stroke-miterlimit="10" d="
	M14.998,80.002H25H14.998z"/>
<path fill="none" stroke="#335C5F" stroke-width="1.5" stroke-linecap="round" stroke-linejoin="round" stroke-miterlimit="10" d="
	M14.998,85.005h35H14.998z"/>
<path fill="none" stroke="#335C5F" stroke-width="1.5" stroke-linecap="round" stroke-linejoin="round" stroke-miterlimit="10" d="
	M29.999,80.002h25H29.999z"/>
<path fill="none" stroke="#335C5F" stroke-width="1.5" stroke-linecap="round" stroke-linejoin="round" stroke-miterlimit="10" d="
	M19.708,41.251l4.331-2.498L19.708,41.251z"/>
<path fill="none" stroke="#335C5F" stroke-width="1.5" stroke-linecap="round" stroke-linejoin="round" stroke-miterlimit="10" d="
	M24.039,41.251l-4.331-2.498L24.039,41.251z"/>
<path fill="none" stroke="#335C5F" stroke-width="1.5" stroke-linecap="round" stroke-linejoin="round" stroke-miterlimit="10" d="
	M21.872,37.503v4.999V37.503z"/>
<path fill="none" stroke="#335C5F" stroke-width="1.5" stroke-linecap="round" stroke-linejoin="round" stroke-miterlimit="10" d="
	M28.458,41.251l4.332-2.498L28.458,41.251z"/>
<path fill="none" stroke="#335C5F" stroke-width="1.5" stroke-linecap="round" stroke-linejoin="round" stroke-miterlimit="10" d="
	M32.79,41.251l-4.332-2.498L32.79,41.251z"/>
<path fill="none" stroke="#335C5F" stroke-width="1.5" stroke-linecap="round" stroke-linejoin="round" stroke-miterlimit="10" d="
	M30.623,37.503v4.999V37.503z"/>
<path fill="none" stroke="#335C5F" stroke-width="1.5" stroke-linecap="round" stroke-linejoin="round" stroke-miterlimit="10" d="
	M37.207,41.251l4.33-2.498L37.207,41.251z"/>
<path fill="none" stroke="#335C5F" stroke-width="1.5" stroke-linecap="round" stroke-linejoin="round" stroke-miterlimit="10" d="
	M41.537,41.251l-4.33-2.498L41.537,41.251z"/>
<path fill="none" stroke="#335C5F" stroke-width="1.5" stroke-linecap="round" stroke-linejoin="round" stroke-miterlimit="10" d="
	M39.373,37.503v4.999V37.503z"/>
<path fill="none" stroke="#335C5F" stroke-width="1.5" stroke-linecap="round" stroke-linejoin="round" stroke-miterlimit="10" d="
	M45.958,41.251l4.331-2.498L45.958,41.251z"/>
<path fill="none" stroke="#335C5F" stroke-width="1.5" stroke-linecap="round" stroke-linejoin="round" stroke-miterlimit="10" d="
	M50.289,41.251l-4.331-2.498L50.289,41.251z"/>
<path fill="none" stroke="#335C5F" stroke-width="1.5" stroke-linecap="round" stroke-linejoin="round" stroke-miterlimit="10" d="
	M48.125,37.503v4.999V37.503z"/>
<path fill="none" stroke="#335C5F" stroke-width="1.5" stroke-linecap="round" stroke-linejoin="round" stroke-miterlimit="10" d="
	M19.708,56.256l4.331-2.502L19.708,56.256z"/>
<path fill="none" stroke="#335C5F" stroke-width="1.5" stroke-linecap="round" stroke-linejoin="round" stroke-miterlimit="10" d="
	M24.039,56.256l-4.331-2.502L24.039,56.256z"/>
<path fill="none" stroke="#335C5F" stroke-width="1.5" stroke-linecap="round" stroke-linejoin="round" stroke-miterlimit="10" d="
	M21.872,52.504v5.002V52.504z"/>
<path fill="none" stroke="#335C5F" stroke-width="1.5" stroke-linecap="round" stroke-linejoin="round" stroke-miterlimit="10" d="
	M28.458,56.256l4.332-2.502L28.458,56.256z"/>
<path fill="none" stroke="#335C5F" stroke-width="1.5" stroke-linecap="round" stroke-linejoin="round" stroke-miterlimit="10" d="
	M32.79,56.256l-4.332-2.502L32.79,56.256z"/>
<path fill="none" stroke="#335C5F" stroke-width="1.5" stroke-linecap="round" stroke-linejoin="round" stroke-miterlimit="10" d="
	M30.623,52.504v5.002V52.504z"/>
<path fill="none" stroke="#335C5F" stroke-width="1.5" stroke-linecap="round" stroke-linejoin="round" stroke-miterlimit="10" d="
	M37.207,56.256l4.33-2.502L37.207,56.256z"/>
<path fill="none" stroke="#335C5F" stroke-width="1.5" stroke-linecap="round" stroke-linejoin="round" stroke-miterlimit="10" d="
	M41.537,56.256l-4.33-2.502L41.537,56.256z"/>
<path fill="none" stroke="#335C5F" stroke-width="1.5" stroke-linecap="round" stroke-linejoin="round" stroke-miterlimit="10" d="
	M39.373,52.504v5.002V52.504z"/>
<path fill="none" stroke="#335C5F" stroke-width="1.5" stroke-linecap="round" stroke-linejoin="round" stroke-miterlimit="10" d="
	M45.958,56.256l4.331-2.502L45.958,56.256z"/>
<path fill="none" stroke="#335C5F" stroke-width="1.5" stroke-linecap="round" stroke-linejoin="round" stroke-miterlimit="10" d="
	M50.289,56.256l-4.331-2.502L50.289,56.256z"/>
<path fill="none" stroke="#335C5F" stroke-width="1.5" stroke-linecap="round" stroke-linejoin="round" stroke-miterlimit="10" d="
	M48.125,52.504v5.002V52.504z"/>
<path fill="#D7DAE7" stroke="#335C5F" stroke-width="1.5" stroke-linecap="round" stroke-linejoin="round" stroke-miterlimit="10" d="
	M72.499,35.003c-4.832,0-8.75,3.917-8.75,8.75v11.25h3.752v-11.25c0-2.763,2.236-4.999,4.998-4.999c2.764,0,5,2.236,5,4.999v11.25
	h3.75v-11.25C81.249,38.919,77.333,35.003,72.499,35.003z"/>
<rect x="46.249" y="15.003" fill="#3EAED3" width="3.75" height="4.999"/>
<rect x="10" y="25.001" fill="none" stroke="#335C5F" stroke-width="1.5" stroke-linecap="round" stroke-linejoin="round" stroke-miterlimit="10" width="80" height="64.999"/>
<rect x="10" y="10" fill="none" stroke="#335C5F" stroke-width="1.5" stroke-linecap="round" stroke-linejoin="round" stroke-miterlimit="10" width="80" height="15.001"/>
<rect x="14.998" y="35.003" fill="none" stroke="#335C5F" stroke-width="1.5" stroke-linecap="round" stroke-linejoin="round" stroke-miterlimit="10" width="40" height="10.001"/>
<rect x="14.998" y="50.003" fill="none" stroke="#335C5F" stroke-width="1.5" stroke-linecap="round" stroke-linejoin="round" stroke-miterlimit="10" width="40" height="10"/>
<rect x="14.998" y="65.003" fill="none" stroke="#335C5F" stroke-width="1.5" stroke-linecap="round" stroke-linejoin="round" stroke-miterlimit="10" width="15" height="5.002"/>
<rect x="34.998" y="65.003" fill="none" stroke="#335C5F" stroke-width="1.5" stroke-linecap="round" stroke-linejoin="round" stroke-miterlimit="10" width="15" height="5.002"/>
<rect x="60" y="55.005" fill="none" stroke="#335C5F" stroke-width="1.5" stroke-linecap="round" stroke-linejoin="round" stroke-miterlimit="10" width="24.998" height="19.999"/>
<rect x="14.998" y="15.003" fill="none" stroke="#335C5F" stroke-width="1.5" stroke-linecap="round" stroke-linejoin="round" stroke-miterlimit="10" width="35" height="4.999"/>
</svg>
