<svg xmlns="http://www.w3.org/2000/svg" viewBox="0 0 2209.02 1765.97"><defs><style>.cls-1{opacity:0.2;}.cls-2{fill:#d9faff;}.cls-3{fill:#fff;}.cls-4{fill:#e2b38e;}.cls-5{fill:#385868;}.cls-6{fill:#f2f2f2;}.cls-7{fill:#8e6556;}.cls-8{fill:#665959;}.cls-9{fill:#6e828e;}.cls-10{fill:#4e6575;}.cls-11{fill:#a48276;}.cls-12{fill:#de9654;}.cls-13{fill:#ef9f5e;}.cls-14{fill:#dd659c;}.cls-15{fill:#ff89be;}.cls-16{fill:#e178aa;}.cls-17{fill:#e261a2;}.cls-18{fill:#ffc6ad;}.cls-19{fill:#e39493;}.cls-20{fill:#fecb82;}.cls-21{fill:none;stroke:#778c97;stroke-miterlimit:10;}.cls-22,.cls-25{opacity:0.5;}.cls-23,.cls-25{fill:#e6a474;}.cls-24{fill:#516d7b;}.cls-26{fill:#33ceff;}.cls-27{fill:#31b0e2;}.cls-28{fill:#ba6560;}</style></defs><title>Asset 300</title><g id="Layer_2" data-name="Layer 2"><g id="Layer_1-2" data-name="Layer 1"><g class="cls-1"><rect class="cls-2" x="549.44" y="218.45" width="1126.63" height="1166.27"/><polygon class="cls-3" points="1022.58 241.57 848.81 788.37 750.01 788.37 923.77 241.57 1022.58 241.57"/><polygon class="cls-3" points="870.04 241.57 696.28 788.37 639.08 788.37 812.83 241.57 870.04 241.57"/><polygon class="cls-3" points="1607.37 236.62 1433.6 783.41 1334.79 783.41 1508.56 236.62 1607.37 236.62"/><polygon class="cls-3" points="1454.83 236.62 1281.07 783.41 1223.87 783.41 1397.62 236.62 1454.83 236.62"/><polygon class="cls-3" points="1607.37 823.06 1433.6 1369.85 1334.79 1369.85 1508.56 823.06 1607.37 823.06"/><polygon class="cls-3" points="1454.83 823.06 1281.07 1369.85 1223.87 1369.85 1397.62 823.06 1454.83 823.06"/><polygon class="cls-3" points="1022.58 823.06 848.81 1369.85 750.01 1369.85 923.77 823.06 1022.58 823.06"/><polygon class="cls-3" points="870.04 823.06 696.28 1369.85 639.08 1369.85 812.83 823.06 870.04 823.06"/><rect class="cls-4" x="529.62" y="793.32" width="1164.62" height="41.3" rx="8" ry="8" transform="translate(1925.9 -297.96) rotate(90)"/><rect class="cls-4" x="-32.04" y="790.02" width="1164.62" height="41.3" rx="8" ry="8" transform="translate(-260.4 1360.94) rotate(-90)"/><rect class="cls-4" x="1094.59" y="790.02" width="1164.62" height="41.3" rx="8" ry="8" transform="translate(866.23 2487.56) rotate(-90)"/><path class="cls-5" d="M1122.93,1401.28h-25.3a13,13,0,0,1-13-13V239.66a13,13,0,0,1,13-13h25.3a13,13,0,0,1,13,13V1388.28A13,13,0,0,1,1122.93,1401.28Zm-25.3-1164.62a3,3,0,0,0-3,3V1388.28a3,3,0,0,0,3,3h25.3a3,3,0,0,0,3-3V239.66a3,3,0,0,0-3-3Z"/><path class="cls-5" d="M561.27,1398H536a13,13,0,0,1-13-13V236.36a13,13,0,0,1,13-13h25.3a13,13,0,0,1,13,13V1385A13,13,0,0,1,561.27,1398ZM536,233.36a3,3,0,0,0-3,3V1385a3,3,0,0,0,3,3h25.3a3,3,0,0,0,3-3V236.36a3,3,0,0,0-3-3Z"/><path class="cls-5" d="M1687.89,1398h-25.3a13,13,0,0,1-13-13V236.36a13,13,0,0,1,13-13h25.3a13,13,0,0,1,13,13V1385A13,13,0,0,1,1687.89,1398Zm-25.3-1164.62a3,3,0,0,0-3,3V1385a3,3,0,0,0,3,3h25.3a3,3,0,0,0,3-3V236.36a3,3,0,0,0-3-3Z"/><rect class="cls-4" x="523.04" y="196.97" width="1184.42" height="41.3" rx="8" ry="8"/><path class="cls-5" d="M1697.78,243.27H529.36a13,13,0,0,1-13-13V205a13,13,0,0,1,13-13H1697.78a13,13,0,0,1,13,13v25.3A13,13,0,0,1,1697.78,243.27ZM529.36,202a3,3,0,0,0-3,3v25.3a3,3,0,0,0,3,3H1697.78a3,3,0,0,0,3-3V205a3,3,0,0,0-3-3Z"/><rect class="cls-4" x="523.04" y="1363.24" width="1184.42" height="41.3" rx="8" ry="8"/><path class="cls-5" d="M1697.78,1409.54H529.36a13,13,0,0,1-13-13v-25.3a13,13,0,0,1,13-13H1697.78a13,13,0,0,1,13,13v25.3A13,13,0,0,1,1697.78,1409.54Zm-1168.42-41.3a3,3,0,0,0-3,3v25.3a3,3,0,0,0,3,3H1697.78a3,3,0,0,0,3-3v-25.3a3,3,0,0,0-3-3Z"/><rect class="cls-4" x="523.04" y="785.06" width="1184.42" height="41.3" rx="8" ry="8"/><path class="cls-5" d="M1697.78,831.36H529.36a13,13,0,0,1-13-13v-25.3a13,13,0,0,1,13-13H1697.78a13,13,0,0,1,13,13v25.3A13,13,0,0,1,1697.78,831.36ZM529.36,790.06a3,3,0,0,0-3,3v25.3a3,3,0,0,0,3,3H1697.78a3,3,0,0,0,3-3v-25.3a3,3,0,0,0-3-3Z"/></g><g class="cls-1"><line class="cls-6" x1="300.56" y1="1153.48" x2="165.57" y2="1152.82"/><rect class="cls-5" x="229.06" y="1085.66" width="8" height="134.99" transform="translate(-921.21 1380.6) rotate(-89.72)"/><line class="cls-6" x1="475.72" y1="1184.96" x2="340.73" y2="1184.31"/><rect class="cls-5" x="404.23" y="1117.14" width="8" height="134.99" transform="translate(-778.38 1587.1) rotate(-89.72)"/><line class="cls-6" x1="175.69" y1="1323.17" x2="176.34" y2="1244.9"/><rect class="cls-5" x="136.88" y="1280.03" width="78.27" height="8" transform="matrix(0.01, -1, 1, 0.01, -1109.43, 1449.38)"/><line class="cls-6" x1="358.89" y1="1183.36" x2="359.54" y2="1105.09"/><rect class="cls-5" x="320.08" y="1140.22" width="78.27" height="8" transform="matrix(0.01, -1, 1, 0.01, -787.95, 1493.93)"/><rect class="cls-6" x="215.5" y="1152.82" width="210.41" height="60.31" rx="18.76" ry="18.76" transform="translate(641.4 2365.95) rotate(-180)"/><path class="cls-5" d="M407.14,1217.13H234.26a22.79,22.79,0,0,1-22.76-22.76v-22.78a22.79,22.79,0,0,1,22.76-22.76H407.14a22.79,22.79,0,0,1,22.76,22.76v22.78A22.79,22.79,0,0,1,407.14,1217.13Zm-172.88-60.31a14.78,14.78,0,0,0-14.76,14.76v22.78a14.78,14.78,0,0,0,14.76,14.76H407.14a14.78,14.78,0,0,0,14.76-14.76v-22.78a14.78,14.78,0,0,0-14.76-14.76Z"/><rect class="cls-6" x="70.76" y="1213.13" width="210.41" height="60.31" rx="18.76" ry="18.76" transform="translate(351.92 2486.57) rotate(-180)"/><path class="cls-5" d="M262.4,1277.44H89.52a22.79,22.79,0,0,1-22.76-22.76V1231.9a22.79,22.79,0,0,1,22.76-22.76H262.4a22.79,22.79,0,0,1,22.76,22.76v22.78A22.79,22.79,0,0,1,262.4,1277.44ZM89.52,1217.13a14.78,14.78,0,0,0-14.76,14.76v22.78a14.78,14.78,0,0,0,14.76,14.76H262.4a14.78,14.78,0,0,0,14.76-14.76V1231.9a14.78,14.78,0,0,0-14.76-14.76Z"/></g><g class="cls-1"><line class="cls-6" x1="233.8" y1="248.69" x2="98.81" y2="248.04"/><rect class="cls-5" x="162.31" y="180.87" width="8" height="134.99" transform="translate(-82.86 413.47) rotate(-89.72)"/><line class="cls-6" x1="408.97" y1="280.18" x2="273.98" y2="279.52"/><rect class="cls-5" x="337.47" y="212.35" width="8" height="134.99" transform="translate(59.96 619.96) rotate(-89.72)"/><line class="cls-6" x1="108.93" y1="418.38" x2="109.59" y2="340.11"/><rect class="cls-5" x="70.12" y="375.25" width="78.27" height="8" transform="matrix(0.01, -1, 1, 0.01, -270.88, 485.35)"/><line class="cls-6" x1="292.13" y1="278.57" x2="292.79" y2="200.3"/><rect class="cls-5" x="253.32" y="235.44" width="78.27" height="8" transform="matrix(0.01, -1, 1, 0.01, 50.6, 529.9)"/><rect class="cls-6" x="148.74" y="248.04" width="210.41" height="60.31" rx="18.76" ry="18.76" transform="translate(507.89 556.38) rotate(-180)"/><path class="cls-5" d="M340.39,312.35H167.5a22.79,22.79,0,0,1-22.76-22.76V266.8A22.79,22.79,0,0,1,167.5,244H340.39a22.79,22.79,0,0,1,22.76,22.76v22.78A22.79,22.79,0,0,1,340.39,312.35ZM167.5,252a14.78,14.78,0,0,0-14.76,14.76v22.78a14.78,14.78,0,0,0,14.76,14.76H340.39a14.78,14.78,0,0,0,14.76-14.76V266.8A14.78,14.78,0,0,0,340.39,252Z"/><rect class="cls-6" x="4" y="308.35" width="210.41" height="60.31" rx="18.76" ry="18.76" transform="translate(218.41 677) rotate(-180)"/><path class="cls-5" d="M195.65,372.66H22.76A22.79,22.79,0,0,1,0,349.89V327.11a22.79,22.79,0,0,1,22.76-22.76H195.65a22.79,22.79,0,0,1,22.76,22.76v22.78A22.79,22.79,0,0,1,195.65,372.66ZM22.76,312.35A14.78,14.78,0,0,0,8,327.11v22.78a14.78,14.78,0,0,0,14.76,14.76H195.65a14.78,14.78,0,0,0,14.76-14.76V327.11a14.78,14.78,0,0,0-14.76-14.76Z"/></g><g class="cls-1"><line class="cls-6" x1="2033.84" y1="1189.24" x2="1898.85" y2="1188.58"/><rect class="cls-5" x="1962.34" y="1121.42" width="8" height="134.99" transform="translate(767.88 3149.45) rotate(-89.72)"/><line class="cls-6" x1="2209" y1="1220.73" x2="2074.01" y2="1220.07"/><rect class="cls-5" x="2137.51" y="1152.9" width="8" height="134.99" transform="translate(910.71 3355.94) rotate(-89.72)"/><line class="cls-6" x1="1908.96" y1="1358.93" x2="1909.62" y2="1280.66"/><rect class="cls-5" x="1870.16" y="1315.79" width="78.27" height="8" transform="matrix(0.01, -1, 1, 0.01, 573.7, 3218.06)"/><line class="cls-6" x1="2092.16" y1="1219.12" x2="2092.82" y2="1140.85"/><rect class="cls-5" x="2053.36" y="1175.98" width="78.27" height="8" transform="matrix(0.01, -1, 1, 0.01, 895.18, 3262.61)"/><rect class="cls-6" x="                                                                                                                                                                                                                                                                                                                                                                                                                                                                                                                                                                                                                                                                                                                                                                                                                                                                                                                                                                                                                                                                                                                                                                                                                                                                                                                                                                                                                                                                                                                                                                                                                                                                                                                                                                                                                                                                                                                                                                                                                                                                                                                                                                                                                                                                                                                                                                                                                                                                                                                                                                                                                                                                                                                                                                                                                                                                                                                                                                                                                                                                                                                                                                                                                                                                                                                                                                                                                                                                                                                                                                                                                                                                                                                                                                                                                                                                                                                                                                                                                                                                                                                                                                                                                                                                                                                                                                                                                                                                                                                                                                                                                                                                                                                                                                                                                                                                                                                                                                                                                                                                                                                                                                                                                                                                                                                                                                                                                                                                                                                                                                                                                                                                                                                                                                                                                                                                                                                                                                                                                                                                                                                                                                                                                                                                                                                                                                                                                                                                                                                                                                                                                                                                                                                                                                                                                                                                                                                                                                                                                                                                                                                                                                                                                                                                                                                                                                                                                                                                                                                                                                                                                                                                                                                                                                                                                                                                                                                                                                                                                                                                                                                                                                                                                                                                                                                                                                                                                                                                                                                                                                                                                                                                                                                                                                                                                                                                                                                                                                                                                                                                                                                                                                                                                                                                                                                                                                                                                                                                                                                                                                                                                                                                                                                                                                                                                                                                                                                                                                                                                                                                                                                                                                                                                                                                                                                                                                                                                                                                                                                                                                                                                                                                                                                                                                                                                                                                                                                                                                                                                                                                                                                                                                                                                                                                                                                                                                                                                                                                                                                                                                                                                                                                                                                                                                                                                                                                                                                                                                                                                                                                                                                                                                                                                                                                                                                                                                                                                                                                                                                                                                                                                                                                                                                                                                                                                                                                                                                                                                                                                                                                                                                                                                                                                                                                                                                                                                                                                                                                                                                                                                                                                                                                                                                                                                                                                                                                                                                                                                                                                                                                                                                                                                                                                                                                                                                                                                                                                                                                                                                                                                                                                                                                                                                                                                                                                                                                                                                                                                                                                                                                                                                                                                                                                                                                                                                                                                                                                                                                                                                                                                                                                                                                                                                                                                                                                                                                                                                                                                                                                                                                                                                                                                                                                                                                                                                                                                                                                                                                                                                                                                                                                                                                                                                                                                                                                                                                                                                                                                                                                                                                                                                                                                                                                                                                                                                                                                                                                                                                                                                                                                                                                                                                                                                                                                                                                                                                                                                                                                                                                                                                                                                                                                                                                                                                                                                                                                                                                                                                                                                                                                                                                                                                                                                                                                                                                                                                                                                                                                                                                                                                                                                                                                                                                                                                                                                                                                                                                                                                                                                                                                                                                                                                                                                                                                                                                                                                                                                                                                                                                                                                                                                                                                                                                                                                                                                                                                                                                                                                                                                                                                                                                                                                                                                                                                                                                                                                                                                                                                                                                                                                                                                                                                                                                                                                                                                                                                                                                                                                                                                                                                                                                                                                                                                                                                                                                                                                                                                                                                                                                                                                                                                                                                                                                                                                                                                                                                                                                                                                                                                                                                                                                                                                                                                                                                                                                                                                                                                                                                                                                                                                                                                                                                                                                                                                                                                                                                                                                                                                                                                                                                                                                                                                                                                                                                                                                                                                                                                                                                                                                                                                                                                                                                                                                                                                                                                                                                                                                                                                                                                                                                                                                                                                                                                                                                                                                                                                                                                                                                                                                                                                                                                                                                                                                                                                                                                                                                                                                                                                                                                                                                                                                                                                                                                                                                                                                                                                                                                                                                                                                                                                                                                                                                                                                                                                                                                                                                                                                                                                                                                                                                                                                                                                                                                                                                                                                                                                                                                                                                                                                                                                                                                                                                                                                                                                                                                                                                                                                                                                                                                                                                                                                                                                                                                                                                                                                                                                                                                                                                                                                                                                                                                                                                                                                                                                                                                                                                                                                                                                                                                                                                                                                                                                                                                                                                                                                                                                                                                                                                                                                                                                                                                                                                                                                                                                                                                                                                                                                                                                                                                                                                                                                                                                                                                                                                                                                                                                                                                                                                                                                                                                                                                                                                                                                                                                                                                                                                                                                                                                                                                                                                                                                                                                                                                                                                                                                                                                                                                                                                                                                                                                                                                                                                                                                                                                                                                                                                                                                                                                                                                                                                                                                                                                                                                                                                                                                                                                                                                                                                                                                                                                                                                                                                                                                                                                                                                                                                                                                                                                                                                                                                                                                                                                                                                                                                                                                                                                                                                                                                                                                                                                                                                                                                                                                                                                                                                                                                                                                                                                                                                                                                                                                                                                                                                                                                                                                                                                                                                                                                                                                                                                                                                                3,11.42,4.53,23.69,13.6,29.91,10.77,7.39,24.59,9.53,36.69,10.65,23.29,2.14,48.64,1.36,75.35-2.34,7.59-1.05,15.57-2.37,22.29-5.92S1200,1112,1201,1106c1.75-10.92-11.1-19.3-23.28-26.29l5-8.67c10.89,6.25,31.16,17.89,28.17,36.54-1.45,9-8,17.42-17.55,22.46-8.16,4.31-17.11,5.81-25.59,7A367.8,367.8,0,0,1,1117.39,1140.65Z"/><path class="cls-21" d="M1206.8,1093.41"/><path class="cls-5" d="M1051,1094.44c5.09-3.75,10-5.34,10.38-4.59s-3.75,3.48-8.58,7-8.66,6.66-9.29,6.08S1045.89,1098.17,1051,1094.44Z"/><path class="cls-5" d="M1054.34,1110.22a30.4,30.4,0,0,1,5.91-7.59c1.84-1.66,3.22-2.37,3.49-2.08.59.65-3.34,5-6.73,11.15s-5,11.77-5.91,11.61c-.4-.08-.51-1.63-.08-4.06A30.4,30.4,0,0,1,1054.34,1110.22Z"/><path class="cls-5" d="M1065.74,1116.39c.58-7.18,3-12.57,3.79-12.31s-.22,5.76-.76,12.56-.46,12.4-1.32,12.51S1065.13,1123.57,1065.74,1116.39Z"/><path class="cls-5" d="M1084.79,1119.66c-1,5.77-1.06,10.61-1.93,10.71-.41,0-.92-1.16-1.23-3.2a28,28,0,0,1,2.56-15.62c.94-1.83,1.81-2.81,2.19-2.64C1087.17,1109.26,1085.71,1113.88,1084.79,1119.66Z"/><ellipse class="cls-5" cx="1103.09" cy="1119.64" rx="1.52" ry="9.54"/><ellipse class="cls-5" cx="1121.31" cy="1119.65" rx="1.52" ry="9.56" transform="translate(-73.34 78.61) rotate(-3.89)"/><ellipse class="cls-5" cx="1142.08" cy="1120.33" rx="1.52" ry="9.25" transform="translate(-253.61 338.31) rotate(-15.19)"/><ellipse class="cls-5" cx="1159.72" cy="1122.02" rx="1.52" ry="7.75" transform="translate(-342.32 532.31) rotate(-22.62)"/><path class="cls-5" d="M1176.9,1116.71c5.85,5.46,11.39,9,11,9.82-.19.36-1.86-.09-4.31-1.35a42.46,42.46,0,0,1-15.61-14.46c-1.44-2.35-2-4-1.67-4.2C1167,1106,1171,1111.29,1176.9,1116.71Z"/><path class="cls-5" d="M1187,1102.7a58.68,58.68,0,0,1,9.76,4c2.4,1.3,3.7,2.44,3.51,2.8s-1.81-.06-4.34-.81-6-1.86-9.85-3.1c-7.68-2.49-13.92-4.42-13.79-5.23S1179.16,1100.16,1187,1102.7Z"/><ellipse class="cls-5" cx="1187.77" cy="1094.95" rx="1.52" ry="12.05" transform="translate(-79.87 2096.36) rotate(-80.98)"/><path class="cls-24" d="M790.11,1308.23a163.15,163.15,0,0,1,7.61-15.4c1.33-2.28,2.58-4.46,3.87-6.42s2.48-3.79,3.64-5.42c4.63-6.51,8-10.11,8.25-9.92s-2.56,4.23-6.75,10.92c-1,1.67-2.19,3.51-3.33,5.52s-2.36,4.17-3.62,6.45c-2.43,4.6-5,9.74-7.33,15.26s-4.29,10.91-5.92,15.86c-.77,2.49-1.54,4.84-2.14,7.08s-1.19,4.32-1.67,6.23c-1.92,7.65-2.8,12.48-3.19,12.43s-.05-5,1.43-12.82c.38-2,.81-4.1,1.39-6.38s1.22-4.7,1.94-7.24A163.13,163.13,0,0,1,790.11,1308.23Z"/><path class="cls-24" d="M787.06,1352.16c-1.09,7.83-1.57,15-2,20.23s-.81,8.44-1.17,8.43-.6-3.25-.64-8.5a144.9,144.9,0,0,1,1.28-20.52,97.4,97.4,0,0,1,2.27-11.16c.5-1.68.94-3.29,1.49-4.75.26-.73.5-1.45.77-2.12l.8-1.92c2.12-4.87,4.06-7.55,4.32-7.4s-1,3.13-2.63,8l-.63,1.93c-.21.67-.4,1.38-.61,2.11-.45,1.45-.8,3-1.23,4.69C788.32,1344.55,787.62,1348.25,787.06,1352.16Z"/><path class="cls-24" d="M866.84,1206.48a87.72,87.72,0,0,1,9.35-11.23c1.62-1.56,3.14-3.06,4.7-4.32.77-.64,1.48-1.28,2.22-1.84l2.14-1.59c5.51-4,9.37-5.66,9.51-5.41s-3.29,2.59-8.4,6.83l-2,1.68c-.69.59-1.35,1.25-2.07,1.91-1.46,1.29-2.88,2.81-4.41,4.37a93.29,93.29,0,0,0-16.1,23.32c-.91,2-1.83,3.86-2.52,5.68-.36.9-.75,1.76-1.05,2.62l-.87,2.45c-2.16,6.28-3,10.35-3.41,10.28s-.07-4.25,1.69-10.81l.73-2.56c.26-.89.61-1.79.94-2.73.62-1.9,1.49-3.85,2.37-5.92A87.73,87.73,0,0,1,866.84,1206.48Z"/><path class="cls-24" d="M896.88,1190.08a97,97,0,0,1,10.15-5.52,82.46,82.46,0,0,1,8.76-3.48c5.1-1.67,8.39-2.18,8.48-1.87.24.76-12.47,4.4-26,13s-22.41,18.4-23,17.85c-.24-.21,1.64-3,5.35-6.84a82.47,82.47,0,0,1,6.92-6.4A97,97,0,0,1,896.88,1190.08Z"/><path class="cls-24" d="M1368.45,1713.22a134,134,0,0,0,10-28.19c1.76-7.49,2.37-12.25,2.77-12.21s.33,4.87-1,12.57a109.14,109.14,0,0,1-9.49,28.95,63,63,0,0,1-9.09,14.28,31.46,31.46,0,0,1-11.17,8.33,22.09,22.09,0,0,1-9.19,1.91c-2.23-.07-3.4-.47-3.38-.62s1.23-.14,3.34-.37a25.16,25.16,0,0,0,8.48-2.55,31.79,31.79,0,0,0,10.15-8.23A66.89,66.89,0,0,0,1368.45,1713.22Z"/><path class="cls-24" d="M1369.07,1682.2c2.57-14.88,1.11-27.21,1.9-27.29.32,0,1.1,3,1.52,8a76.06,76.06,0,0,1,.19,8.87,83.69,83.69,0,0,1-3.59,21.4,76,76,0,0,1-3.07,8.32c-2,4.62-3.77,7.23-4.05,7.09C1361.25,1708.29,1366.65,1697.1,1369.07,1682.2Z"/><path class="cls-24" d="M1432.85,1316.16c5.17,12.47,7.62,24.71,7.56,33.58,0,1.11,0,2.16,0,3.16s-.14,1.94-.2,2.81l-.21,2.44c-.06.75-.23,1.42-.32,2-.45,2.43-.78,3.75-1,3.72-.46-.06.41-5.45-.12-14.1l-.09-1.66c0-.56-.13-1.14-.2-1.72l-.43-3.65c-.47-2.5-.86-5.19-1.59-8a118.72,118.72,0,0,0-5.8-17.68,178.8,178.8,0,0,0-8.14-16.82c-2.74-5.07-5.42-9.52-7.69-13.24-1.15-1.85-2.16-3.57-3.1-5a20.4,20.4,0,0,0-2.69-3.38c-1.7-1.64-3-2-3-2.23s1.53-.08,3.62,1.47a17.92,17.92,0,0,1,3.2,3.3c1.09,1.4,2.19,3,3.45,4.84,2.48,3.62,5.35,8,8.23,13.08A149.78,149.78,0,0,1,1432.85,1316.16Z"/><path class="cls-24" d="M1431.64,1347.52a108.58,108.58,0,0,1,2.37,19.2c.13,5-.19,8-.52,8-.77,0-1.19-12.13-4.35-26.68s-7.65-25.82-6.94-26.12c.3-.13,1.85,2.53,3.75,7.1A108.62,108.62,0,0,1,1431.64,1347.52Z"/><path class="cls-3" d="M1280.53,1156.29c7.21,3.84,14,7.56,20.23,11a171.28,171.28,0,0,1,16.18,9.92,65.92,65.92,0,0,1,9.83,8.34c2.07,2.24,3,3.69,2.74,3.93-.55.54-5.41-3.92-14.53-9.24-4.54-2.69-10.13-5.6-16.43-8.8s-13.21-6.81-20.42-10.65c-28.84-15.36-51.68-28.83-51-30.07S1251.69,1140.92,1280.53,1156.29Z"/><path class="cls-3" d="M1360.09,1217.57a54.79,54.79,0,0,1,4,9.26c.45,1.49.88,2.9,1.15,4.25a34.93,34.93,0,0,1,.66,3.77c.57,4.66.11,7.56-.55,7.62s-1.56-2.64-3-6.82c-.36-1-.73-2.18-1.21-3.39s-1-2.48-1.5-3.81c-1.14-2.65-2.48-5.5-4.09-8.4s-3.36-5.53-5-7.89c-.86-1.15-1.65-2.28-2.46-3.28s-1.55-2-2.25-2.8c-2.81-3.39-4.7-5.51-4.25-6.1s3.11.6,6.78,3.53a34.89,34.89,0,0,1,2.86,2.54c1,.94,2,2,3,3.21A54.79,54.79,0,0,1,1360.09,1217.57Z"/><path class="cls-3" d="M1425.32,1594.6c7.12-25.72,7.91-47.6,9.46-47.56.66,0,1.31,5.52,1,14.45l-.18,3.5c-.07,1.22-.21,2.48-.33,3.79-.21,2.62-.61,5.4-1,8.33a165.2,165.2,0,0,1-10.11,37.07c-1.14,2.73-2.21,5.33-3.36,7.69-.56,1.19-1.09,2.34-1.64,3.43l-1.62,3.11c-4.23,7.88-7.59,12.29-8.16,12C1408,1639.62,1418.4,1620.38,1425.32,1594.6Z"/><rect class="cls-5" x="273.41" y="1755.97" width="1624.8" height="10"/><rect class="cls-5" x="1931.58" y="1755.97" width="149.01" height="10"/><rect class="cls-5" x="144.66" y="1755.97" width="103.71" height="10"/><rect class="cls-5" x="449.71" y="1478.93" width="58.54" height="5"/><path class="cls-5" d="M520.68,1432.29h-80.9a16.52,16.52,0,0,1-16.5-16.5v-4.61a16.52,16.52,0,0,1,16.5-16.5h80.9a16.52,16.52,0,0,1,16.5,16.5v4.61A16.52,16.52,0,0,1,520.68,1432.29Zm-80.9-28.61a7.51,7.51,0,0,0-7.5,7.5v4.61a7.51,7.51,0,0,0,7.5,7.5h80.9a7.51,7.51,0,0,0,7.5-7.5v-4.61a7.51,7.51,0,0,0-7.5-7.5Z"/><circle class="cls-26" cx="1483.96" cy="1417.06" r="19.67"/><rect class="cls-26" x="1146.01" y="1722.83" width="677.1" height="35.76" rx="12" ry="12"/><path class="cls-27" d="M1824.3,1737.13v7.15c0,7.87-5.93,14.3-13.17,14.3h-83.39v-35.76h83.39C1818.37,1722.83,1824.3,1729.26,1824.3,1737.13Z"/><path class="cls-26" d="M1771.54,1721.63h-571c1-156.85,128.41-283.71,285.49-283.71S1770.58,1564.78,1771.54,1721.63Z"/><path class="cls-27" d="M1486,1437.92q-11.13,0-22.05.84c146.79,11.21,262.53,133.43,263.44,282.87h44.11C1770.58,1564.78,1643.13,1437.92,1486,1437.92Z"/><path class="cls-5" d="M1774.18,1725.44h-581l0-5a290.5,290.5,0,0,1,581,0Zm-570.94-10h560.83a280.5,280.5,0,0,0-560.83,0Z"/><path class="cls-5" d="M1810.21,1761.2h-653.1a17,17,0,0,1-17-17v-11.76a17,17,0,0,1,17-17h653.1a17,17,0,0,1,17,17v11.76A17,17,0,0,1,1810.21,1761.2Zm-653.1-35.76a7,7,0,0,0-7,7v11.76a7,7,0,0,0,7,7h653.1a7,7,0,0,0,7-7v-11.76a7,7,0,0,0-7-7Z"/><path class="cls-5" d="M1484,1441.73a24.67,24.67,0,1,1,24.67-24.67A24.7,24.7,0,0,1,1484,1441.73Zm0-39.34a14.67,14.67,0,1,0,14.67,14.67A14.69,14.69,0,0,0,1484,1402.39Z"/><path class="cls-5" d="M1062.56,700a23.71,23.71,0,0,1-6.24,16.07,23.81,23.81,0,0,0-35.2,0A23.84,23.84,0,1,1,1062.56,700Z"/><path class="cls-5" d="M1192.5,700a23.71,23.71,0,0,1-6.24,16.07,23.81,23.81,0,0,0-35.2,0A23.84,23.84,0,1,1,1192.5,700Z"/><circle class="cls-3" cx="1030.67" cy="691.98" r="5.66"/><circle class="cls-3" cx="1162.99" cy="691.98" r="5.66"/><path class="cls-28" d="M1170.3,858.57a8.89,8.89,0,0,1,7.35,13.9,81.3,81.3,0,0,1-133.62,0,8.89,8.89,0,0,1,7.35-13.9Z"/><path class="cls-5" d="M1110.84,912.45a86.39,86.39,0,0,1-70.92-37.12,13.89,13.89,0,0,1,11.46-21.75H1170.3a13.89,13.89,0,0,1,11.46,21.75A86.39,86.39,0,0,1,1110.84,912.45Zm-59.46-48.87a3.9,3.9,0,0,0-3.48,2.12,3.72,3.72,0,0,0,.23,3.93,76.3,76.3,0,0,0,125.41,0,3.72,3.72,0,0,0,.23-3.93,3.9,3.9,0,0,0-3.48-2.12Z"/></g></g></svg>